<svg xmlns="http://www.w3.org/2000/svg" xmlns:xlink="http://www.w3.org/1999/xlink" viewBox="0 0 512 512"><defs><linearGradient id="a" x1="-426.79" y1="640.12" x2="-426.11" y2="640.12" gradientTransform="matrix(890.93, 890.93, 890.93, -890.93, -190089.09, 950311.62)" gradientUnits="userSpaceOnUse"><stop offset="0" stop-color="#c06fbb"/><stop offset="1" stop-color="#6e4d9b"/></linearGradient><linearGradient id="b" x1="-426.86" y1="640" x2="-426.18" y2="640" gradientTransform="matrix(-481.83, -710.52, -688.6, 497.17, 235439.12, -621011.34)" gradientUnits="userSpaceOnUse"><stop offset="0" stop-color="#6e4d9b"/><stop offset="0.14" stop-color="#77327a"/><stop offset="0.29" stop-color="#b31777"/><stop offset="0.84" stop-color="#cd0f7e"/><stop offset="1" stop-color="#ed2c89"/></linearGradient><linearGradient id="c" x1="-426.78" y1="639.87" x2="-426.1" y2="639.87" gradientTransform="matrix(890.93, 1140.02, 890.93, -1140.02, -190089.07, 1215844.14)" xlink:href="#a"/><linearGradient id="d" x1="-426.78" y1="640.1" x2="-426.1" y2="640.1" gradientTransform="matrix(1083.88, 890.93, 1083.88, -890.93, -231379.1, 950311.62)" xlink:href="#a"/><linearGradient id="e" x1="-426.8" y1="639.91" x2="-426.12" y2="639.91" gradientTransform="matrix(1011.78, 890.93, 1011.78, -890.93, -215860.08, 950311.62)" xlink:href="#a"/><linearGradient id="f" x1="-426.82" y1="639.98" x2="-426.14" y2="639.98" gradientTransform="matrix(-483.18, -713.44, -690.54, 499.21, 236145.73, -623470.48)" xlink:href="#b"/><linearGradient id="g" x1="-426.8" y1="640.14" x2="-426.13" y2="640.14" gradientTransform="matrix(890.93, 1074.3, 890.93, -1074.3, -190089.07, 1145916.87)" xlink:href="#a"/><linearGradient id="h" x1="-426.84" y1="640.01" x2="-426.16" y2="640.01" gradientTransform="matrix(641.71, -421.17, -421.17, -641.71, 543496.39, 231331.08)" gradientUnits="userSpaceOnUse"><stop offset="0" stop-color="#6e4d9b"/><stop offset="0.14" stop-color="#77327a"/><stop offset="0.53" stop-color="#b31777"/><stop offset="0.79" stop-color="#cd0f7e"/><stop offset="1" stop-color="#ed2c89"/></linearGradient></defs><title>aurelia</title><path d="M335.28,98.89l-47.52,31.72L238.81,57.25l47.52-31.72Z" fill-rule="evenodd" fill="url(#a)"/><path d="M373.92,319.29,455.11,441,358.39,505.5,277.2,383.83,263,362.61l96.72-64.55,14.17,21.23Z" fill-rule="evenodd" fill="url(#b)"/><path d="M252.1,400.58,270,427.37l-73.61,49.12-32-48,16.08-10.73,57.54-38.39,14.16,21.22Z" fill-rule="evenodd" fill="url(#c)"/><path d="M414.14,261.77,434.79,248l32,48L419.3,327.72l-17.88-26.79L428.3,283l-14.16-21.23Zm-12.72,39.16-14.16-21.22,26.88-17.94L428.3,283Z" fill-rule="evenodd" fill="url(#d)"/><path d="M80.9,268.65,64.82,279.39,15.87,206,89.48,156.9l34.32,51.42-57.54,38.4,57.54-38.4,14.64,21.94Z" fill-rule="evenodd" fill="url(#e)"/><path d="M245.62,127,260.26,149l-96.72,64.54L148.9,191.57,68.47,71.05,165.19,6.5,245.62,127Z" fill-rule="evenodd" fill="url(#f)"/><path d="M314.64,112.68l-26.87,17.93-14.65-21.94L238.81,57.25l47.52-31.71,49,73.36Z" fill-rule="evenodd" fill="url(#g)"/><path d="M194.56,439,180.4,417.75l57.54-38.39,14.16,21.22L194.56,439Z" fill="#714896" fill-rule="evenodd"/><path d="M401.42,300.93l-14.16-21.22,26.88-17.94L428.3,283Z" fill="#6f4795" fill-rule="evenodd"/><path d="M80.9,268.65,66.26,246.72l57.54-38.4,14.64,21.94Z" fill="#88519f" fill-rule="evenodd"/><path d="M287.77,130.61l-14.65-21.94L300,90.74l14.64,21.94-26.87,17.93Z" fill="#85509e" fill-rule="evenodd"/><path d="M373.92,319.29,277.2,383.83,263,362.61l96.72-64.55,14.17,21.23Z" fill="#8d166a" fill-rule="evenodd"/><path d="M245.62,127,260.26,149l-96.72,64.54L148.9,191.57Z" fill="#a70d6f" fill-rule="evenodd"/><rect x="32.48" y="115.86" width="32.89" height="32.89" transform="translate(-65.21 49.41) rotate(-33.72)" fill="#9e61ad"/><rect x="131.06" y="443.81" width="32.89" height="32.89" transform="translate(-230.67 159.29) rotate(-33.72)" fill="#8053a3"/><path d="M80.09,465,0,344,428,57.73l84,119.06L80.09,465Z" fill-rule="evenodd" fill="url(#h)"/><rect x="-125.71" y="-125.71" width="763.42" height="763.42" fill="none" stroke="#000" stroke-miterlimit="3.62" stroke-opacity="0" stroke-width="4.58"/></svg>