<svg xmlns="http://www.w3.org/2000/svg" viewBox="0 0 512 512"><title>ember</title><rect width="512" height="512" rx="56.79" fill="#e24b31"/><path d="M406.74,292.05s-72.3,51.64-120.26,52.38-42.79-30.25-42.79-30.25,174.85-59.76,126.9-177.8c-21.4-30.25-46.48-39.84-81.89-39.1s-78.95,22.13-107,85.58c-13.28,30.25-18.44,59-21.4,81.15,0,0-30.24,5.91-47.21-7.37-16.23-14-25.09,0-25.09,0s-28.77,36.15,0,47.21c28,11.07,72.3,16.24,72.3,16.24a135.53,135.53,0,0,0,50.17,78.2c51.65,39.1,151.24-3.69,151.24-3.69l40.58-22.87c56.81-34.68,32.46-98.12,4.43-79.68Zm-171.16-31c2.21-81.89,56.07-118,74.51-100.33s11.8,56.81-23.61,81.15c-34.67,23.61-50.9,19.18-50.9,19.18Z" fill="#fff"/></svg>