<svg xmlns="http://www.w3.org/2000/svg" viewBox="0 0 511 511"><title>cuttlebelle</title><path d="M150,174c-11.35,49.74-6.15,85.55.34,107.11a117.18,117.18,0,0,0,14.33,31.39c-10.88,4-18.25,12.37-24.26,19.19l-4.06,4.53c-2.3,2.37-4.53,4.87-6.69,7.3-7.1,7.91-14.46,16.15-23.45,21.29a58.06,58.06,0,0,1-34.47,6.76,93.21,93.21,0,0,1-27.5-7.51,182.72,182.72,0,0,1-16.63-8.38c-4-2.29-6.82-1.62-8.51-.67-4.13,2.23-4.33,7.63-4.4,9.46a56.31,56.31,0,0,0,19.2,43.32A81.37,81.37,0,0,0,61.5,422.9a92.1,92.1,0,0,0,27.71,4.39A80.72,80.72,0,0,0,108.67,425c12.57-3.11,23.65-9.67,34.4-16l2.57-1.56a161.52,161.52,0,0,0-5.27,32.92c-.54,9-1.08,18.24-6.49,23.79a53.87,53.87,0,0,1-7.5,4.93,7.91,7.91,0,0,0,0,14.06c10.07,5.27,23.18,3.44,32.1.06a58.68,58.68,0,0,0,27.23-21.62c6.42-9.46,9.74-20.41,12.91-31l2.91-9.39A113.07,113.07,0,0,1,220.38,385c1.22,4.87,2,15.28-.74,29.33-1.49,7.78-4.39,15.08-7.43,22.92-3.38,8.51-6.83,17.36-8.32,26.76a40.43,40.43,0,0,0,2.5,23.52,38.64,38.64,0,0,0,15.21,16.15,53.38,53.38,0,0,0,26.65,7.79,36.58,36.58,0,0,0,12-2c4.32-1.55,4.86-4.66,4.86-5.88A7.35,7.35,0,0,0,264,499.9a79.32,79.32,0,0,0-5.34-7.3L255,487.81c-7.84-11.15-4.06-24.33-1.15-31.23,2.59-6.08,6.45-11.08,10.67-16.38a123.2,123.2,0,0,0,21.62-40.62c.68,5,1.08,10.61,1.35,16.83.21,4.8.27,9.67.34,14.4.14,9.59.27,19.53,1.22,29.26,1.35,14,6.28,25,14.19,31.7,6.15,5.27,15,8.58,27,10.13a79.57,79.57,0,0,0,28.39-1.69,22.48,22.48,0,0,0,8-3.38c1.08-.74,3.58-2.56,3.31-5.54a4.63,4.63,0,0,0-2.77-3.78C342,476.36,335.93,459,347.62,431.08a108.39,108.39,0,0,0,8.18-36.5L359,397a92.91,92.91,0,0,0,98.19,13.65c10.75-4.94,19.6-11.49,26.22-19.47a55.11,55.11,0,0,0,11.7-23.78c1.14-4.46,2.63-10.61-1.22-13.79-1.42-1.22-4-2.3-8-.54A92.47,92.47,0,0,1,420.32,357c-25.68-8-52.51-28.79-62.72-43.46l-.33-.4c3.92-5.48,10.13-15.82,15.07-31.5,12.09-38.38,7.09-79.54.4-108.19L308.4,155.34l-50.9,6.36-48.66-5L150,174Z" fill="#00a887"/><path d="M372.73,173.5a38.94,38.94,0,0,0,25.68-20.75,32.09,32.09,0,0,0-10.81-39.54c-2-1.28-4-2.36-6-3.44s-4-2.17-5.81-3.38c-2.5-1.69-5.61-4.4-6.42-7.91-.61-2.64.27-5,1.69-8.65l.07-.14a31.65,31.65,0,0,0,2.23-14.59,25.23,25.23,0,0,0-8.58-16.83A30.64,30.64,0,0,0,347.07,52l-3.45-.2c-4.05-.13-7.63-.27-10.41-2.3-2.09-1.48-3.71-4-5.2-8l-1.22-3.78c-1.48-4.67-3.1-10-7.09-13.93a24.7,24.7,0,0,0-19.33-7.5c-5.68.41-11.42-.54-14-2.23a21.08,21.08,0,0,1-2.5-2.5c-4.06-4.54-11-12-23-12H259.4c-12,0-18.92,7.5-23,12a26.81,26.81,0,0,1-2.5,2.5,25.76,25.76,0,0,1-14,2.23,24.68,24.68,0,0,0-19.4,7.46c-4,3.92-5.61,9.26-7.09,13.93l-1.22,3.78c-1.49,4-3.11,6.56-5.2,8-2.77,2-6.29,2.1-10.41,2.3l-3.45.2c-7.36.54-13.38,2.71-17.7,6.29A24.86,24.86,0,0,0,146.84,75a31.65,31.65,0,0,0,2.23,14.59l.07.14c1.42,3.65,2.3,6,1.69,8.65-.81,3.51-3.92,6.22-6.42,7.91-1.88,1.22-3.82,2.34-5.81,3.38s-4,2.16-5.95,3.44a32.12,32.12,0,0,0-10.81,39.54A39.22,39.22,0,0,0,150,174l59.75-18,49.8,6.75,45.41-7Z" fill="#00a887"/><path d="M397.94,130.61l-31.09-24.33-.67-41.09-31.77-9.93-16.76-26s-55.89-23.92-56.49-21c2.63,3,79.13,91.91,64.94,147.39,1.62,4.33,33,15.68,33,15.68l27.84-8.45,11-32.17Z" fill="#076"/><path d="M358.41,227.66c1.62,18.85-1.56,37.84-5.75,56.29a155.18,155.18,0,0,1-6.82,23.12,83.34,83.34,0,0,1-10.75,18.43c4.53-1.14,10.34-4.05,12.5-6.75,9.87-15.89,14.8-23.93,14.87-24.13,9.6-23.45,14.46-73.66,4.87-123.74-3.65,0-24.81-4.87-33.32-2.91,14.87,12.37,22.17,34.2,24.4,59.68Z" fill="#076"/><path d="M203.5,181.5a35.66,35.66,0,0,0-3.72.2c-6.42-2.3-3.24-12.23-6.83-8-2.56,3-1.62,7.57-.87,10l-1.56.74c-4.73-1.69-4.46-9.32-6.42-5.2-1.49,3.18.2,6.89,1.42,8.92l-1,1.08c-4-1.21-5.34-7-6.15-3.11-.61,3,1.48,5.88,3,7.51l-.87,1.86c-2.84-1.22-4.05-5-4.46-2-.34,2.5,1.49,4.73,2.91,6-2.64,8.11-3,18-3,26,0,13,1.69,22.84,5.28,30a23.62,23.62,0,0,0,22.27,14.12c17.1,0,27.71-16.89,27.71-44.06C231.21,187.17,213.84,181.5,203.5,181.5Zm18.92,44.06-.13,5.07c-2.71-11.29-11-19.53-19.33-19.53-7.37,0-14.74,6.49-18.18,15.88v-1.42c0-25.75,5.07-35.28,18.72-35.28,15.62,0,18.93,19.22,18.93,35.28Zm118.4-25.95c1.36-1.28,3.25-3.45,2.91-6-.41-3-1.62.67-4.46,2l-.95-1.89c1.56-1.62,3.65-4.46,3-7.5-.81-4-2.16,1.89-6.15,3.11l-1-1.08c1.22-2,3-5.75,1.42-8.92-2-4.12-1.69,3.44-6.42,5.2l-1.55-.74c.74-2.43,1.62-7-.88-10-3.52-4.19-.34,5.67-6.83,8a30.91,30.91,0,0,0-3.72-.2c-10.34,0-27.7,5.74-27.7,44.06,0,27.17,10.61,44.06,27.7,44.06a23.68,23.68,0,0,0,22.31-14.07c3.51-7.17,5.27-17,5.27-30,.07-8.11-.34-17.91-3-26Zm-24.53-9.33c13.65,0,18.72,9.6,18.72,35.28V227c-3.44-9.39-10.81-15.88-18.18-15.88-8.31,0-16.56,8.24-19.33,19.53l-.13-5.07c0-16.06,3.32-35.28,18.93-35.28Z" fill="#06262d"/><circle cx="128.56" cy="139.12" r="5.41" fill="#3bd4ae"/><circle cx="143.09" cy="140.81" r="2.37" fill="#3bd4ae"/><circle cx="172.83" cy="122.57" r="6.42" fill="#3bd4ae"/><circle cx="160.32" cy="138.45" r="3.38" fill="#3bd4ae"/><circle cx="162.01" cy="100.26" r="6.42" fill="#3bd4ae"/><circle cx="224.19" cy="100.94" r="6.42" fill="#3bd4ae"/><circle cx="299.88" cy="119.19" r="6.42" fill="#3bd4ae"/><path d="M259.06,18.69a6.49,6.49,0,0,0,12.5,2.37c-2.84-3.65-5.2-6.62-7-8.79A6.49,6.49,0,0,0,259.06,18.69Z" fill="#3bd4ae"/><path d="M265.55,12.21l-1,.06,7,8.79a6.48,6.48,0,0,0-3.64-8.4A6.55,6.55,0,0,0,265.55,12.21Z" fill="#009383"/><circle cx="184.31" cy="75.26" r="6.42" fill="#3bd4ae"/><circle cx="165.05" cy="74.92" r="3.38" fill="#3bd4ae"/><circle cx="208.31" cy="83.71" r="3.38" fill="#3bd4ae"/><circle cx="242.43" cy="86.75" r="3.72" fill="#3bd4ae"/><circle cx="210" cy="27.28" r="4.39" fill="#3bd4ae"/><circle cx="282.31" cy="43.5" r="4.39" fill="#3bd4ae"/><circle cx="243.79" cy="116.48" r="4.39" fill="#3bd4ae"/><circle cx="176.2" cy="61.74" r="2.37" fill="#3bd4ae"/><circle cx="218.11" cy="37.41" r="3.04" fill="#3bd4ae"/><circle cx="293.8" cy="76.61" r="3.04" fill="#3bd4ae"/><circle cx="283.66" cy="132.7" r="3.04" fill="#3bd4ae"/><circle cx="258.65" cy="31.33" r="3.04" fill="#3bd4ae"/><circle cx="276.23" cy="89.45" r="3.04" fill="#3bd4ae"/><circle cx="233.65" cy="71.88" r="3.04" fill="#3bd4ae"/><circle cx="216.08" cy="126.62" r="3.04" fill="#3bd4ae"/><circle cx="345.84" cy="108.37" r="3.04" fill="#009383"/><circle cx="179.58" cy="143.52" r="3.04" fill="#3bd4ae"/><circle cx="247.84" cy="134.06" r="3.04" fill="#3bd4ae"/><circle cx="197.83" cy="157.71" r="3.04" fill="#3bd4ae"/><circle cx="238.04" cy="30.32" r="2.03" fill="#3bd4ae"/><circle cx="292.78" cy="29.64" r="2.03" fill="#009383"/><circle cx="260.68" cy="147.57" r="4.39" fill="#3bd4ae"/><circle cx="184.31" cy="94.86" r="3.72" fill="#3bd4ae"/><circle cx="270.14" cy="66.47" r="5.07" fill="#3bd4ae"/><circle cx="211.01" cy="52.62" r="2.03" fill="#3bd4ae"/><circle cx="149.17" cy="161.76" r="5.07" fill="#3bd4ae"/><circle cx="199.86" cy="115.81" r="5.07" fill="#3bd4ae"/><circle cx="271.5" cy="113.78" r="5.07" fill="#3bd4ae"/><circle cx="316.1" cy="152.98" r="5.07" fill="#3bd4ae"/><circle cx="306.64" cy="96.89" r="5.07" fill="#3bd4ae"/><path d="M292.5,59.38a4.92,4.92,0,0,0,4.91,4.93h.09a5,5,0,0,0,3.11-1.08l-5.11-8.31A4.72,4.72,0,0,0,292.5,59.38Z" fill="#3bd4ae"/><path d="M302.31,59.38a4.92,4.92,0,0,0-4.9-4.94h0a5.08,5.08,0,0,0-2,.41l5.07,8.31A4.72,4.72,0,0,0,302.31,59.38Z" fill="#009383"/><circle cx="309.34" cy="29.98" r="5.07" fill="#009383"/><circle cx="314.41" cy="47.89" r="2.7" fill="#009383"/><circle cx="341.1" cy="59.72" r="5.07" fill="#009383"/><circle cx="342.46" cy="88.78" r="5.07" fill="#009383"/><circle cx="360.04" cy="78.64" r="3.72" fill="#009383"/><circle cx="359.7" cy="99.93" r="3.38" fill="#009383"/><circle cx="361.04" cy="126.28" r="10.14" fill="#009383"/><circle cx="239.39" cy="49.92" r="10.14" fill="#3bd4ae"/><circle cx="228.58" cy="147.91" r="10.14" fill="#3bd4ae"/><circle cx="383.68" cy="122.57" r="3.72" fill="#009383"/><circle cx="345.16" cy="148.25" r="3.72" fill="#009383"/><circle cx="389.76" cy="150.95" r="3.72" fill="#009383"/><circle cx="374.56" cy="143.85" r="4.73" fill="#009383"/><circle cx="374.22" cy="162.44" r="5.07" fill="#009383"/><path d="M322.18,123.11a5,5,0,0,0,4.6,5c-.48-3.11-1.15-6.29-1.9-9.46A5,5,0,0,0,322.18,123.11Z" fill="#3bd4ae"/><path d="M332.25,123.11a5.07,5.07,0,0,0-5.09-5,5,5,0,0,0-2.34.59c.81,3.17,1.42,6.35,1.89,9.46h.4a5,5,0,0,0,5.14-4.86Z" fill="#009383"/><circle cx="345.5" cy="70.87" r="1.35" fill="#009383"/><circle cx="315.76" cy="72.22" r="1.35" fill="#009383"/><circle cx="213.04" cy="67.49" r="1.35" fill="#3bd4ae"/><circle cx="384.02" cy="134.39" r="1.35" fill="#009383"/><circle cx="315.76" cy="136.42" r="1.35" fill="#3bd4ae"/><circle cx="145.12" cy="126.62" r="1.01" fill="#3bd4ae"/><circle cx="170.12" cy="157.03" r="1.01" fill="#3bd4ae"/><circle cx="265.41" cy="127.3" r="1.01" fill="#3bd4ae"/><circle cx="195.13" cy="100.94" r="1.01" fill="#3bd4ae"/><circle cx="197.16" cy="136.76" r="1.01" fill="#3bd4ae"/><circle cx="260.68" cy="98.24" r="1.01" fill="#3bd4ae"/><circle cx="266.09" cy="46.87" r="1.01" fill="#3bd4ae"/><circle cx="296.5" cy="40.79" r="1.01" fill="#009383"/><circle cx="285.69" cy="105" r="1.01" fill="#3bd4ae"/><circle cx="253.92" cy="70.53" r="1.01" fill="#3bd4ae"/><circle cx="297.18" cy="139.46" r="1.69" fill="#3bd4ae"/><circle cx="281.97" cy="152.64" r="2.7" fill="#3bd4ae"/><circle cx="324.88" cy="94.18" r="1.01" fill="#009383"/><circle cx="328.94" cy="61.07" r="1.01" fill="#009383"/><circle cx="195.8" cy="59.72" r="1.01" fill="#3bd4ae"/><circle cx="249.87" cy="17.81" r="1.01" fill="#3bd4ae"/><path d="M206.14,475.07l20.68,28.59,32.78,1.08c.14-2.16-4.53-6.55-7.5-6.69-12.37-.81-24.47-5.68-30.07-13.92-7.71-11.35-.48-44,.87-49.67-2.16.27-7.77,13.78-16.76,40.68Zm-27.37-11.28,41.73-84.48,1.35-5a39.45,39.45,0,0,0-31.56,19c-11.55,18.52-18.25,72.45-48.59,84.21,1.89,4.86,14.19.33,37.1-13.72ZM280.89,366.5c5.54,16.82,10.14,32.44,10.81,49.06.2,4.87,1.22,35.41,2.16,44.81a61.62,61.62,0,0,0,17,30.82c4.86,4,34.8,6,37,2.23A57.41,57.41,0,0,1,316,480.3c-17.5-13.92-8.24-74.61-12.77-100.29-3.92-22.43-27.91-29.33-33.93-30.75.21,1.76,11.49,17,11.49,17.24Zm88.67,32.1c11.15,7.16,57.64,21.62,83.8,9.59,7.57-3.51,19.66-18.51,19.6-18.44a97.18,97.18,0,0,1-68.4,8.38A148,148,0,0,1,352,371.63a51.86,51.86,0,0,1,3.44,11.76c.81,4.12,11.56,13.52,14.19,15.21ZM90.92,425.13l51.49-18.52q48.36-54.74,50.76-60.82c-20.07-.41-30.48,15-39.67,24.67-9.73,10.27-18.72,22.23-31.16,29.39a62,62,0,0,1-37.1,7.3c-9.93-.94-19.6-3.92-28.79-7.84a187,187,0,0,1-17-8.58c-4.06-2.36-5.75-.2-6.22,3.58,2,10.41,21.36,20.68,57.72,30.82Z" fill="#076"/><ellipse cx="209.81" cy="225.2" rx="3.71" ry="7.09" transform="translate(-83.51 131.94) rotate(-29.39)" fill="#b2e1d8"/><ellipse cx="325.16" cy="225.28" rx="3.72" ry="7.1" transform="translate(-68.72 188.64) rotate(-29.4)" fill="#b2e1d8"/><path d="M450.65,377.42a1.74,1.74,0,0,1,1.83,1.65v0a1.71,1.71,0,0,1-1.56,1.82,124.47,124.47,0,0,1-23,.54,2.53,2.53,0,0,1-2.3-2.63,2.49,2.49,0,0,1,2.63-2.3c2.24.13,14.94,1.22,22.37.88Zm-78.73-24.8,2.7,2.09c1.83,1.35,3.72,2.7,5.68,4s3.92,2.43,5.88,3.58l3,1.69,3.11,1.55a109.64,109.64,0,0,0,12.77,5.34c2.17.81,4.4,1.42,6.63,2.1l3.38.88,3.51.81a2.53,2.53,0,0,1,1.93,3c0,.06,0,.11,0,.16a2.71,2.71,0,0,1-3.11,2,122.14,122.14,0,0,1-27.5-9.12l-3.31-1.55-3.25-1.69a116,116,0,0,1-12.36-7.71l-2.87-2.26-2.91-2.43a3.12,3.12,0,0,1-.2-4.39l.07-.07a3.19,3.19,0,0,1,4.46-.21,30.26,30.26,0,0,0,2.43,2.24Zm-34,51.76-.27,1.08-.48,1.76-2.09,6.89a123,123,0,0,0-3.72,13.59A1.55,1.55,0,0,1,329.6,429h-.13a1.64,1.64,0,0,1-1.35-1.82A116.55,116.55,0,0,1,331.23,413l1.75-6.9a69.73,69.73,0,0,0,1.36-7,2.29,2.29,0,1,1,4.52.74h0a43.38,43.38,0,0,1-.93,4.54Zm-14.6-38.11A26.37,26.37,0,0,1,338,382a31.53,31.53,0,0,1,1.63,10.55,2.54,2.54,0,0,1-5.07.07,26.53,26.53,0,0,0-1.69-8.72,20.41,20.41,0,0,0-12-11.69,31,31,0,0,0-8.65-2,3.38,3.38,0,0,1-3-3.68h0a3.36,3.36,0,0,1,3.68-3h0a28.14,28.14,0,0,1,10.47,2.91ZM265.5,404.79a1.76,1.76,0,0,1-2.3.74,1.68,1.68,0,0,1-.81-2.16,40.81,40.81,0,0,0,2.43-8.38,2.17,2.17,0,0,1,2.44-1.76,2.12,2.12,0,0,1,1.75,2.43,29.41,29.41,0,0,1-3.51,9.13Zm-4.21-39.29a37.06,37.06,0,0,1,5.88,8.78A29.78,29.78,0,0,1,270,387.93a2.3,2.3,0,0,1-4.53.21,26,26,0,0,0-6.22-16.49,24,24,0,0,0-4.12-4.06,2.91,2.91,0,0,1-.67-4l0,0a2.85,2.85,0,0,1,4-.71l0,0,.1.08,2.7,2.57Zm-94.14,58.59a1.82,1.82,0,0,1-2,1.49,1.76,1.76,0,0,1-1.49-2h0a136.36,136.36,0,0,1,3.79-19.2,2.1,2.1,0,0,1,2.55-1.51h.08a2.11,2.11,0,0,1,1.42,2.62h0a184.21,184.21,0,0,0-4.35,18.55ZM185.6,379a57.46,57.46,0,0,0-7.84,11.69c-.61,1-2,3.86-3.18,6.49a2,2,0,0,1-2.63,1l-.07,0a2,2,0,0,1-1-2.64l3-6.83a89.57,89.57,0,0,1,7.84-12.84,66.71,66.71,0,0,1,5.34-5.81,2.7,2.7,0,1,1,3.9,3.74,2.82,2.82,0,0,1-.46.38,23.77,23.77,0,0,0-4.86,4.8ZM64.15,392.89A1.56,1.56,0,0,1,63,391h0a1.53,1.53,0,0,1,1.82-1.15A88.88,88.88,0,0,0,79,391.2a1.9,1.9,0,1,1,.11,3.8h-.24A63.25,63.25,0,0,1,64.15,392.89Zm39.88-.27a68.36,68.36,0,0,1-16.09,2.23A1.89,1.89,0,0,1,86.05,393a1.85,1.85,0,0,1,1.69-1.89,66,66,0,0,0,15-2.91,57,57,0,0,0,13.65-6.49,2.69,2.69,0,0,1,2.91,4.53c-6.35,3.38-10,5-15.27,6.35ZM153.29,354c-1.48,1.36-5.67,5.88-6.35,6.63s-7.84,9-10.95,12.09a120.81,120.81,0,0,1-9.86,8.65,2.52,2.52,0,0,1-3.54-.41l0-.06a2.56,2.56,0,0,1,.34-3.51,119.5,119.5,0,0,0,9.13-8.59c2.9-3,5.4-6.35,9.12-10.74s6.08-7.16,7.64-8.72a61.73,61.73,0,0,1,10.61-8.45,3.49,3.49,0,1,1,3.65,5.95,81.3,81.3,0,0,0-9.74,7.16Z" fill="#3bd4ae"/><path d="M272.58,294.29c-3.25-1.15-4.33,1.08-1.42,2.3a28.93,28.93,0,0,1,3.38,1.82c-12.44,6.36-30.75,2.17-30.75,2.17-3.25-.75-4.94,1.62-1.29,2.84a70.82,70.82,0,0,0,8.65,1.62c-1.62,2.7-3,4.19-6.35,14.19s12.84,15.61,21,9.06c6.69-5.88,11.55-22.71,12.64-26.7a25.54,25.54,0,0,1,2.77,3.11c2.9,3.92,4.52,1.28,3.38-.34a23,23,0,0,0-12-10.07Z" fill="#06262d"/><path d="M493.37,353.44c-1.41-1.22-4-2.3-8-.54A92.27,92.27,0,0,1,420,356.81c-25.63-8-52.41-28.73-62.6-43.37L357,313c3.91-5.47,10.11-15.79,15-31.44,12.07-38.31,7.08-79.39.4-108a38.85,38.85,0,0,0,25.63-20.71,32,32,0,0,0-10.79-39.46c-2-1.28-4-2.36-6-3.44s-4-2.16-5.79-3.37c-2.5-1.69-5.6-4.39-6.41-7.89-.61-2.64.27-5,1.68-8.64l.07-.14a31.52,31.52,0,0,0,2.23-14.56,25.16,25.16,0,0,0-8.56-16.79,30.54,30.54,0,0,0-17.68-6.28l-3.44-.2c-4-.13-7.62-.27-10.39-2.3-2.09-1.47-3.7-4-5.19-8l-1.22-3.77c-1.48-4.67-3.09-10-7.08-13.91a24.64,24.64,0,0,0-19.29-7.48c-5.67.41-11.4-.54-14-2.23a21.77,21.77,0,0,1-2.5-2.49c-4-4.49-11-12-22.92-12h-1.48c-12,0-18.88,7.49-22.95,12a26.71,26.71,0,0,1-2.5,2.49,25.64,25.64,0,0,1-14,2.23,24.61,24.61,0,0,0-19.36,7.44c-4,3.92-5.6,9.24-7.08,13.91l-1.22,3.77c-1.48,4-3.1,6.55-5.19,8-2.76,2-6.27,2.1-10.39,2.3l-3.44.2c-7.34.54-13.35,2.7-17.66,6.28a24.8,24.8,0,0,0-8.58,16.79,31.65,31.65,0,0,0,2.23,14.56l.07.14c1.42,3.65,2.29,6,1.68,8.64-.8,3.5-3.91,6.2-6.4,7.89-1.88,1.22-3.82,2.34-5.8,3.37s-4,2.16-5.94,3.44a32,32,0,0,0-10.79,39.46,39.13,39.13,0,0,0,28.06,21.25c-11.33,49.64-6.14,85.38.34,106.9a116.92,116.92,0,0,0,14.33,31.37c-10.86,4-18.22,12.34-24.22,19.15l-4.05,4.52c-2.29,2.37-4.52,4.86-6.67,7.29-7.09,7.89-14.44,16.12-23.41,21.25a57.88,57.88,0,0,1-34.4,6.74,92.87,92.87,0,0,1-27.45-7.49A180.78,180.78,0,0,1,28,355.48c-4-2.28-6.81-1.61-8.5-.66-4.12,2.22-4.32,7.61-4.39,9.44a56.21,56.21,0,0,0,19.16,43.23,81.24,81.24,0,0,0,27.57,15.08A91.75,91.75,0,0,0,89.53,427,80.46,80.46,0,0,0,109,424.67c12.54-3.1,23.6-9.65,34.33-16l2.56-1.56A161.62,161.62,0,0,0,140.59,440c-.53,9-1.08,18.2-6.47,23.74a52.26,52.26,0,0,1-7.49,4.92,7.9,7.9,0,0,0,0,14c10.05,5.26,23.14,3.43,32,.06a58.64,58.64,0,0,0,27.18-21.58c6.4-9.44,9.72-20.37,12.88-30.94l2.91-9.37a112.73,112.73,0,0,1,18.81-36.09c1.22,4.86,2,15.25-.74,29.27-1.49,7.76-4.38,15.05-7.42,22.87-3.37,8.5-6.81,17.33-8.3,26.71a40.29,40.29,0,0,0,2.5,23.48,38.56,38.56,0,0,0,15.18,16.12A53.27,53.27,0,0,0,248.26,511a36.69,36.69,0,0,0,12-2c4.31-1.54,4.85-4.65,4.85-5.86a7.35,7.35,0,0,0-1.14-3.72,75.86,75.86,0,0,0-5.33-7.28L255,487.36c-7.82-11.13-4-24.29-1.15-31.17,2.59-6.07,6.44-11.06,10.65-16.35a122.82,122.82,0,0,0,21.58-40.54c.68,5,1.08,10.59,1.35,16.8.21,4.79.27,9.65.34,14.37.14,9.57.27,19.49,1.21,29.2,1.35,14,6.27,24.95,14.17,31.64,6.13,5.26,15,8.56,26.94,10.11a79.52,79.52,0,0,0,28.34-1.69,22.36,22.36,0,0,0,8-3.37c1.08-.74,3.58-2.56,3.31-5.53a4.64,4.64,0,0,0-2.77-3.77c-25.15-11.13-31.16-28.47-19.49-56.32a108.27,108.27,0,0,0,8.16-36.43l3.18,2.43a92.72,92.72,0,0,0,98,13.63c10.73-4.93,19.56-11.47,26.16-19.44a54.89,54.89,0,0,0,11.68-23.73c1.14-4.45,2.63-10.59-1.22-13.76ZM130.09,149.27c-4.52-10.05-1.15-22.87,7.55-28.54,1.69-1.07,3.44-2,5.33-3,2.16-1.15,4.38-2.37,6.61-3.84,5.4-3.65,8.91-8.24,10-13.16,1.29-5.4-.54-9.85-2.09-13.82a22.36,22.36,0,0,1-1.68-10.66,16.28,16.28,0,0,1,5.45-11A22.48,22.48,0,0,1,174.07,61l3.16-.13c4.79-.2,10.26-.41,15.11-3.91,4.65-3.37,7-8.56,8.3-12.15L202,40.59a25.49,25.49,0,0,1,4.86-10.25,16.27,16.27,0,0,1,12.54-5c6.14.41,14.43-.34,19.43-3.71a25.77,25.77,0,0,0,4-3.84c3.78-4.05,8.44-9.11,16.6-9.11,12.82,0,15,10.06,22.73,14.27s27.18,2.42,30.62,7.41a31,31,0,0,1,5.47,10.25l1.34,4.18c1.35,3.59,3.65,8.78,8.3,12.15,4.92,3.5,10.32,3.71,15.11,3.91l3.17.13c5.53.41,9.78,1.9,12.75,4.32a16.19,16.19,0,0,1,5.46,11,23.51,23.51,0,0,1-1.62,10.52c-1.62,4.11-3.37,8.56-2.16,14a22.44,22.44,0,0,0,10.05,13.16,62.13,62.13,0,0,0,6.61,3.84c1.82.94,3.59,2,5.33,3,8.7,5.67,12.08,18.49,7.56,28.54A30.52,30.52,0,0,1,364.89,166c-.34,0-11.2.8-37.37-9.59-19.77-7.75-34.6-4.65-47.76-1.81-6.4,1.34-12.81,2.63-20.44,2.63-6.27,0-12.27-1.29-18.68-2.63-13.16-2.77-28-6-47.76,1.81-26.21,10.29-37.09,9.55-37.18,9.55a30.57,30.57,0,0,1-25.63-16.66Zm356.07,216-.2.93a46.76,46.76,0,0,1-13.3,23.21,66.6,66.6,0,0,1-19.42,13.08A84.5,84.5,0,0,1,364.35,390c-2.91-2.23-5.94-4.52-9.12-6.68a52.34,52.34,0,0,0-3.43-11.74,41,41,0,0,0-6.14-10.12c-8.64-10.32-23.61-16-40.07-15.17A4.39,4.39,0,0,0,306,355c13.69-.67,25.95,3.85,32.94,12.07a38.22,38.22,0,0,1,8,20.24l.13.87a97.45,97.45,0,0,1-7.48,39.32c-6.52,15.6-8.08,28.58-4.64,39.56a43.5,43.5,0,0,0,21.25,24.42,69.15,69.15,0,0,1-24.62,1.35c-10.25-1.35-17.6-4-22.45-8.1-7.77-6.61-10.32-17.67-11.14-25.83-.94-9.38-1.08-19.09-1.21-28.46-.07-4.79-.14-9.71-.34-14.57-.61-16.53-2.63-35.55-11.27-50.39l-.27-.6a47.1,47.1,0,0,0-15.41-15.85,4.33,4.33,0,0,0-5.67,1.54,4.45,4.45,0,0,0,1.35,6.07,37.4,37.4,0,0,1,12,12.28c3.5,7.48,3.84,16.26.95,27.58-2.84,11.07-9.46,22.54-13.16,28.34-2.16,3.37-4.52,6.41-7,9.64a84,84,0,0,0-11.81,18.34c-6.21,14.51-5.46,28.95,2,39.67,1.22,1.75,2.57,3.44,3.85,5.06l.07.14,2.9,3.77.06.07h-.13a40.69,40.69,0,0,1-28.26-5.74,30.49,30.49,0,0,1-11.81-12.41A32.62,32.62,0,0,1,213,464.93c1.28-8.43,4.45-16.39,7.76-24.89l2.36-6a112.91,112.91,0,0,0,5.53-18.34A95.09,95.09,0,0,0,230.25,389c-.34-3.1-1.28-12.68-6.61-14.56a5.88,5.88,0,0,0-1.48-.34c-3.72-.27-7.15,3.3-11.27,9.17-3.31,4.65-6.2,9.71-6.54,10.25a130.69,130.69,0,0,0-10.73,24.55c-1.08,3.18-2,6.41-3,9.58a103.49,103.49,0,0,1-11.74,28.54,49.81,49.81,0,0,1-23.06,18.34,42.09,42.09,0,0,1-13.63,2.7,24.65,24.65,0,0,1-9.72-1.62,47.72,47.72,0,0,0,8.16-5.73c7.76-7.89,8.44-19.29,9-29.41l.47-6.82c2.29-21.79,8.3-40.06,17.8-54.36a68.18,68.18,0,0,1,45.19-30.69,4.36,4.36,0,0,0,3.73-4.92v-.07a4.44,4.44,0,0,0-5-3.72,66.68,66.68,0,0,0-18.76,5.81,82,82,0,0,0-32.37,28.66,104,104,0,0,0-10.46,20.3q-5.61,3.12-11.13,6.41c-10.66,6.27-20.71,12.27-31.94,15a78.54,78.54,0,0,1-66.92-15.31,47.31,47.31,0,0,1-16-37.57,185.58,185.58,0,0,0,17.14,8.63,103.63,103.63,0,0,0,30,8.17,67,67,0,0,0,39.66-7.9,107.93,107.93,0,0,0,25.56-23L143,342c1.42-1.49,2.83-3,4.25-4.72,9-10.19,19.22-21.79,39.06-17.54a4.38,4.38,0,1,0,2.2-8.48l-.39-.08a45.54,45.54,0,0,0-14-.88c-6.27-8.3-34.53-51.67-15-135.64,5.73-.41,17.4-2.37,37-10.12,17.26-6.81,30.22-4,42.69-1.42a96,96,0,0,0,20.44,2.84l.88-.07.88.07c7.15,0,13.89-1.49,20.43-2.84,12.48-2.62,25.43-5.39,42.7,1.42,23.21,9.15,35.29,10.15,39.6,10.15,11.54,48.69,6.48,83.17.14,103.6-7,22.39-16.87,33.18-17,33.32l-.27.27A143.8,143.8,0,0,1,334.35,326a4.4,4.4,0,0,0,5.66,6.75h0a112.93,112.93,0,0,0,11.53-12.62c13.37,18,41.92,37.58,66,45.07A101.14,101.14,0,0,0,487,361.8l-.81,3.45Z" fill="#06262d"/></svg>