<svg xmlns="http://www.w3.org/2000/svg" xmlns:xlink="http://www.w3.org/1999/xlink" viewBox="0 0 670 400"><defs><style>.a{fill:#2b2e3a;}.b,.c,.d,.e,.f,.g,.h,.i,.j,.k,.l,.m,.n,.q{fill-rule:evenodd;}.b{fill:url(#a);}.c{fill:url(#b);}.d{fill:url(#c);}.e{fill:url(#d);}.f{fill:url(#e);}.g{fill:url(#f);}.h{fill:url(#g);}.i{fill:#714896;}.j{fill:#6f4795;}.k{fill:#88519f;}.l{fill:#85509e;}.m{fill:#8d166a;}.n{fill:#a70d6f;}.o{fill:#9e61ad;}.p{fill:#8053a3;}.q{fill:url(#h);}</style><linearGradient id="a" x1="-629.66" y1="-899.71" x2="-629.42" y2="-899.71" gradientTransform="translate(-240185.17 1362675.14) rotate(45) scale(1259.97)" gradientUnits="userSpaceOnUse"><stop offset="0" stop-color="#c06fbb"/><stop offset="1" stop-color="#6e4d9b"/></linearGradient><linearGradient id="b" x1="-631.97" y1="-900.27" x2="-631.73" y2="-900.27" gradientTransform="matrix(-481.83, -710.52, 688.6, -497.17, 315977.8, -896249.6)" gradientUnits="userSpaceOnUse"><stop offset="0" stop-color="#6e4d9b"/><stop offset="0.14" stop-color="#77327a"/><stop offset="0.29" stop-color="#b31777"/><stop offset="0.84" stop-color="#cd0f7e"/><stop offset="1" stop-color="#ed2c89"/></linearGradient><linearGradient id="c" x1="-629.76" y1="-899.72" x2="-629.52" y2="-899.72" gradientTransform="matrix(890.93, 1140.02, -890.93, 1140.02, -240185.14, 1743785.41)" xlink:href="#a"/><linearGradient id="d" x1="-629.68" y1="-899.67" x2="-629.45" y2="-899.67" gradientTransform="matrix(1083.88, 890.93, -1083.88, 890.93, -292280.37, 1362675.14)" xlink:href="#a"/><linearGradient id="e" x1="-629.71" y1="-899.59" x2="-629.47" y2="-899.59" gradientTransform="matrix(1011.78, 890.93, -1011.78, 890.93, -272723.76, 1362675.14)" xlink:href="#a"/><linearGradient id="f" x1="-631.88" y1="-900.24" x2="-631.64" y2="-900.24" gradientTransform="matrix(-483.18, -713.44, 690.54, -499.21, 316913.41, -899834.86)" xlink:href="#b"/><linearGradient id="g" x1="-629.79" y1="-899.83" x2="-629.55" y2="-899.83" gradientTransform="matrix(890.93, 1074.3, -890.93, 1074.3, -240185.14, 1643364.1)" xlink:href="#a"/><linearGradient id="h" x1="-630.88" y1="-898.53" x2="-630.64" y2="-898.53" gradientTransform="translate(783705.42 311229) rotate(-33.28) scale(767.58)" gradientUnits="userSpaceOnUse"><stop offset="0" stop-color="#6e4d9b"/><stop offset="0.14" stop-color="#77327a"/><stop offset="0.53" stop-color="#b31777"/><stop offset="0.79" stop-color="#cd0f7e"/><stop offset="1" stop-color="#ed2c89"/></linearGradient></defs><path class="a" d="M93.16,33.56a2,2,0,0,1-.54-1.46V7.9a2,2,0,0,1,.54-1.46,2,2,0,0,1,1.5-.54h7.84q6.84,0,10.6,3.68T116.86,20q0,6.72-3.76,10.42t-10.6,3.7H94.66A2,2,0,0,1,93.16,33.56ZM112.66,20q0-10.63-10.4-10.64H96.74V30.66h5.52Q112.67,30.66,112.66,20Z"/><path class="a" d="M138.18,29.62a1.71,1.71,0,0,1,.36,1.12,2.3,2.3,0,0,1-1.44,2,13.19,13.19,0,0,1-6.24,1.68,9.86,9.86,0,0,1-7.32-2.7,10,10,0,0,1-2.68-7.38A11.67,11.67,0,0,1,122,19a8.7,8.7,0,0,1,3.32-3.6,9.33,9.33,0,0,1,4.86-1.28,7.93,7.93,0,0,1,6.2,2.52,9.76,9.76,0,0,1,2.28,6.8c0,1.07-.48,1.6-1.44,1.6H124.9q.41,6.19,6,6.2a7.28,7.28,0,0,0,2.56-.4,18.62,18.62,0,0,0,2.28-1c.08-.05.3-.17.66-.34a2.24,2.24,0,0,1,.9-.26A1.14,1.14,0,0,1,138.18,29.62Zm-11.6-11.08a7,7,0,0,0-1.68,4.16h10.32a6.69,6.69,0,0,0-1.38-4.18,4.44,4.44,0,0,0-3.54-1.46A4.89,4.89,0,0,0,126.58,18.54Z"/><path class="a" d="M143.26,32.7a3,3,0,0,1-1-.92,2,2,0,0,1-.3-1.08,1.64,1.64,0,0,1,.36-1.08,1.15,1.15,0,0,1,.92-.44,3.85,3.85,0,0,1,1.64.64,16.83,16.83,0,0,0,2.34,1,8.68,8.68,0,0,0,2.86.4,5.65,5.65,0,0,0,3-.68,2.14,2.14,0,0,0,1.08-1.92,1.88,1.88,0,0,0-.42-1.28,3.48,3.48,0,0,0-1.46-.86,24.74,24.74,0,0,0-3.08-.82,11.92,11.92,0,0,1-5.06-2.06,4.42,4.42,0,0,1-1.54-3.54,5.19,5.19,0,0,1,1-3.1,6.56,6.56,0,0,1,2.76-2.14,10,10,0,0,1,4-.76,11.62,11.62,0,0,1,3.12.42,8.78,8.78,0,0,1,2.68,1.22,2.49,2.49,0,0,1,1.32,2,1.55,1.55,0,0,1-.38,1.08,1.16,1.16,0,0,1-.9.44,1.71,1.71,0,0,1-.72-.16,10.23,10.23,0,0,1-1-.52,13,13,0,0,0-2-1,6.54,6.54,0,0,0-2.34-.36,4.59,4.59,0,0,0-2.7.72,2.27,2.27,0,0,0-1,2,2,2,0,0,0,.94,1.74,11.59,11.59,0,0,0,3.54,1.18,19.1,19.1,0,0,1,4.2,1.28,4.92,4.92,0,0,1,2.18,1.78,5,5,0,0,1,.66,2.7,4.91,4.91,0,0,1-2.18,4.18,9.72,9.72,0,0,1-5.82,1.58A12.12,12.12,0,0,1,143.26,32.7Z"/><path class="a" d="M179.54,32.42a1.85,1.85,0,0,1-.52,1.32,1.64,1.64,0,0,1-1.24.56,2,2,0,0,1-1.36-.56l-10-8.8v7.4a1.83,1.83,0,0,1-.56,1.46,2.08,2.08,0,0,1-1.44.5,2.19,2.19,0,0,1-1.46-.5,1.84,1.84,0,0,1-.58-1.46V7.66A1.84,1.84,0,0,1,163,6.2a2.19,2.19,0,0,1,1.46-.5,2.08,2.08,0,0,1,1.44.5,1.83,1.83,0,0,1,.56,1.46V23.34l9.12-8.52a2.06,2.06,0,0,1,1.32-.6,1.81,1.81,0,0,1,1.32.56,1.77,1.77,0,0,1,.56,1.32,1.88,1.88,0,0,1-.68,1.4L171,24l7.84,6.92A1.85,1.85,0,0,1,179.54,32.42Z"/><path class="a" d="M193.8,31.68a1.41,1.41,0,0,1,.38,1.06,1.37,1.37,0,0,1-.62,1.22,2.91,2.91,0,0,1-1.82.34l-1.08-.08a7,7,0,0,1-4.84-2,7.38,7.38,0,0,1-1.6-5.14V17.7h-2.4c-1.17,0-1.76-.52-1.76-1.56a1.49,1.49,0,0,1,.46-1.14,1.86,1.86,0,0,1,1.3-.42h2.4V10.46A1.92,1.92,0,0,1,184.76,9a2,2,0,0,1,1.46-.52A2.06,2.06,0,0,1,187.7,9a1.85,1.85,0,0,1,.56,1.44v4.12h4a1.85,1.85,0,0,1,1.3.42,1.46,1.46,0,0,1,.46,1.14,1.44,1.44,0,0,1-.46,1.16,1.89,1.89,0,0,1-1.3.4h-4v9.68a4.1,4.1,0,0,0,.78,2.76,3.37,3.37,0,0,0,2.38,1l1.12.08A2,2,0,0,1,193.8,31.68Z"/><path class="a" d="M200.52,33.14a8.45,8.45,0,0,1-3.36-3.54A11.61,11.61,0,0,1,196,24.26a11.72,11.72,0,0,1,1.18-5.38,8.45,8.45,0,0,1,3.36-3.54,10.94,10.94,0,0,1,10.12,0A8.33,8.33,0,0,1,214,18.88a11.59,11.59,0,0,1,1.18,5.38A11.48,11.48,0,0,1,214,29.6a8.33,8.33,0,0,1-3.36,3.54,10.94,10.94,0,0,1-10.12,0Zm9.16-3.72a8,8,0,0,0,1.42-5.16,8,8,0,0,0-1.44-5.14,5.57,5.57,0,0,0-8.16,0,8,8,0,0,0-1.44,5.14,8.1,8.1,0,0,0,1.42,5.16,5.66,5.66,0,0,0,8.2,0Z"/><path class="a" d="M234.64,15.38a8.45,8.45,0,0,1,3.08,3.6,12.28,12.28,0,0,1,1.1,5.36,12.2,12.2,0,0,1-1.08,5.28,8.17,8.17,0,0,1-3.06,3.52,8.34,8.34,0,0,1-4.54,1.24,7.79,7.79,0,0,1-3.88-.94,6.24,6.24,0,0,1-2.56-2.7v8.92a1.73,1.73,0,0,1-.54,1.34,2,2,0,0,1-1.42.5,2.16,2.16,0,0,1-1.5-.52,1.81,1.81,0,0,1-.58-1.4V16.14a1.89,1.89,0,0,1,.56-1.42,2.06,2.06,0,0,1,1.48-.54,2,2,0,0,1,1.44.54,1.85,1.85,0,0,1,.56,1.42v1.64a6.35,6.35,0,0,1,2.56-2.72,7.7,7.7,0,0,1,3.88-1A8.13,8.13,0,0,1,234.64,15.38Zm-1.38,14a7.86,7.86,0,0,0,1.44-5.06,8.08,8.08,0,0,0-1.46-5.16,5.44,5.44,0,0,0-8.12,0,8.15,8.15,0,0,0-1.42,5.12,8.15,8.15,0,0,0,1.42,5.12,4.87,4.87,0,0,0,4.06,1.8A4.94,4.94,0,0,0,233.26,29.4Z"/><path class="a" d="M279.42,32.5a1.59,1.59,0,0,1-.62,1.28,2.07,2.07,0,0,1-1.38.52,1.79,1.79,0,0,1-1-.3,1.94,1.94,0,0,1-.7-.86l-2.64-6H258.46l-2.64,6a1.89,1.89,0,0,1-1.72,1.16,2.15,2.15,0,0,1-1.42-.52,1.62,1.62,0,0,1-.62-1.28,2.26,2.26,0,0,1,.2-.8L263.54,7a2.13,2.13,0,0,1,.9-1,2.58,2.58,0,0,1,1.3-.36A2.52,2.52,0,0,1,267,6a2,2,0,0,1,.9,1L279.22,31.7A2.06,2.06,0,0,1,279.42,32.5Zm-19.48-8.64h11.72l-5.88-13.24Z"/><path class="a" d="M298.2,15.38a8.45,8.45,0,0,1,3.08,3.6,12.28,12.28,0,0,1,1.1,5.36,12.2,12.2,0,0,1-1.08,5.28,8.17,8.17,0,0,1-3.06,3.52,8.34,8.34,0,0,1-4.54,1.24,7.79,7.79,0,0,1-3.88-.94,6.24,6.24,0,0,1-2.56-2.7v8.92a1.73,1.73,0,0,1-.54,1.34,2,2,0,0,1-1.42.5,2.16,2.16,0,0,1-1.5-.52,1.81,1.81,0,0,1-.58-1.4V16.14a1.89,1.89,0,0,1,.56-1.42,2.06,2.06,0,0,1,1.48-.54,2,2,0,0,1,1.44.54,1.85,1.85,0,0,1,.56,1.42v1.64a6.35,6.35,0,0,1,2.56-2.72,7.7,7.7,0,0,1,3.88-1A8.13,8.13,0,0,1,298.2,15.38Zm-1.38,14a7.86,7.86,0,0,0,1.44-5.06,8.08,8.08,0,0,0-1.46-5.16,5.44,5.44,0,0,0-8.12,0,8.15,8.15,0,0,0-1.42,5.12,8.15,8.15,0,0,0,1.42,5.12,4.87,4.87,0,0,0,4.06,1.8A4.94,4.94,0,0,0,296.82,29.4Z"/><path class="a" d="M321.84,15.38a8.45,8.45,0,0,1,3.08,3.6,12.43,12.43,0,0,1,1.1,5.36,12.2,12.2,0,0,1-1.08,5.28,8.17,8.17,0,0,1-3.06,3.52,8.34,8.34,0,0,1-4.54,1.24,7.79,7.79,0,0,1-3.88-.94,6.24,6.24,0,0,1-2.56-2.7v8.92a1.73,1.73,0,0,1-.54,1.34,2,2,0,0,1-1.42.5,2.16,2.16,0,0,1-1.5-.52,1.81,1.81,0,0,1-.58-1.4V16.14a1.89,1.89,0,0,1,.56-1.42,2.06,2.06,0,0,1,1.48-.54,2,2,0,0,1,1.44.54,1.85,1.85,0,0,1,.56,1.42v1.64a6.35,6.35,0,0,1,2.56-2.72,7.7,7.7,0,0,1,3.88-1A8.13,8.13,0,0,1,321.84,15.38Zm-1.38,14a7.86,7.86,0,0,0,1.44-5.06,8.08,8.08,0,0,0-1.46-5.16,5.44,5.44,0,0,0-8.12,0,8.15,8.15,0,0,0-1.42,5.12,8.15,8.15,0,0,0,1.42,5.12,4.87,4.87,0,0,0,4.06,1.8A4.94,4.94,0,0,0,320.46,29.4Z"/><path class="a" d="M331.08,33.82a1.75,1.75,0,0,1-.58-1.44V7.66a1.81,1.81,0,0,1,.58-1.46,2.17,2.17,0,0,1,1.46-.5,2.08,2.08,0,0,1,1.44.5,1.86,1.86,0,0,1,.56,1.46V32.38a1.8,1.8,0,0,1-.56,1.44,2.12,2.12,0,0,1-1.44.48A2.21,2.21,0,0,1,331.08,33.82Z"/><path class="a" d="M340.38,9.62a2.22,2.22,0,0,1-.68-1.68,2.15,2.15,0,0,1,.68-1.66,3,3,0,0,1,3.66,0,2.1,2.1,0,0,1,.7,1.66,2.22,2.22,0,0,1-.68,1.68,3,3,0,0,1-3.68,0Zm.38,24.2a1.75,1.75,0,0,1-.58-1.44V16.14a1.81,1.81,0,0,1,.58-1.46,2.17,2.17,0,0,1,1.46-.5,2.08,2.08,0,0,1,1.44.5,1.86,1.86,0,0,1,.56,1.46V32.38a1.8,1.8,0,0,1-.56,1.44,2.12,2.12,0,0,1-1.44.48A2.21,2.21,0,0,1,340.76,33.82Z"/><path class="a" d="M353.24,33.14a8.49,8.49,0,0,1-3.32-3.52,11.29,11.29,0,0,1-1.18-5.28A11.39,11.39,0,0,1,350,19a8.74,8.74,0,0,1,3.42-3.6,9.89,9.89,0,0,1,5-1.28,11.26,11.26,0,0,1,3.06.44,10.2,10.2,0,0,1,2.74,1.2,2.51,2.51,0,0,1,1.28,2,1.81,1.81,0,0,1-.36,1.14,1.11,1.11,0,0,1-.92.46,1.6,1.6,0,0,1-.72-.18,9.92,9.92,0,0,1-.92-.54,11.28,11.28,0,0,0-1.86-1,5.52,5.52,0,0,0-2.06-.34,5.13,5.13,0,0,0-4.22,1.84,7.89,7.89,0,0,0-1.5,5.12,7.69,7.69,0,0,0,1.48,5.06,5.16,5.16,0,0,0,4.2,1.78,5.78,5.78,0,0,0,2.12-.36,11.54,11.54,0,0,0,1.88-1,6.37,6.37,0,0,1,.88-.48,2,2,0,0,1,.8-.2,1.11,1.11,0,0,1,.92.46,1.81,1.81,0,0,1,.36,1.14,1.84,1.84,0,0,1-.3,1,3.5,3.5,0,0,1-1,.94,9.56,9.56,0,0,1-2.8,1.24,12.34,12.34,0,0,1-3.24.44A9.74,9.74,0,0,1,353.24,33.14Z"/><path class="a" d="M383.16,16.06c1.27,1.31,1.9,3.29,1.9,6V32.38a1.87,1.87,0,0,1-.52,1.42,2,2,0,0,1-1.44.5,1.79,1.79,0,0,1-1.92-1.92V30.9a5.65,5.65,0,0,1-2.26,2.58,6.68,6.68,0,0,1-3.5.9,7.79,7.79,0,0,1-3.5-.78,6.31,6.31,0,0,1-2.5-2.14,5.39,5.39,0,0,1-.92-3.08A4.64,4.64,0,0,1,369.58,25a6.79,6.79,0,0,1,3.64-1.76,35.17,35.17,0,0,1,7-.54h.92V21.54a4.73,4.73,0,0,0-.92-3.24,3.84,3.84,0,0,0-3-1,9.46,9.46,0,0,0-2.64.36,20.29,20.29,0,0,0-2.72,1,3.94,3.94,0,0,1-1.52.6,1.24,1.24,0,0,1-1-.44,1.67,1.67,0,0,1-.38-1.12,1.72,1.72,0,0,1,.34-1.06,3.49,3.49,0,0,1,1.1-.9,13.68,13.68,0,0,1,3.28-1.22,15.13,15.13,0,0,1,3.64-.46C380,14.1,381.89,14.75,383.16,16.06Zm-3.42,13.82a5.45,5.45,0,0,0,1.4-3.86V25h-.72a30.74,30.74,0,0,0-4.8.28,4.74,4.74,0,0,0-2.4.94,2.44,2.44,0,0,0-.72,1.9,3,3,0,0,0,1,2.36,3.79,3.79,0,0,0,2.6.92A4.69,4.69,0,0,0,379.74,29.88Z"/><path class="a" d="M401.4,31.68a1.45,1.45,0,0,1,.38,1.06,1.39,1.39,0,0,1-.62,1.22,2.91,2.91,0,0,1-1.82.34l-1.08-.08a7,7,0,0,1-4.84-2,7.33,7.33,0,0,1-1.6-5.14V17.7h-2.4c-1.17,0-1.76-.52-1.76-1.56a1.46,1.46,0,0,1,.46-1.14,1.86,1.86,0,0,1,1.3-.42h2.4V10.46A1.92,1.92,0,0,1,392.36,9a2,2,0,0,1,1.46-.52A2.07,2.07,0,0,1,395.3,9a1.89,1.89,0,0,1,.56,1.44v4.12h4a1.86,1.86,0,0,1,1.3.42,1.46,1.46,0,0,1,.46,1.14,1.44,1.44,0,0,1-.46,1.16,1.91,1.91,0,0,1-1.3.4h-4v9.68a4.1,4.1,0,0,0,.78,2.76,3.36,3.36,0,0,0,2.38,1l1.12.08A2,2,0,0,1,401.4,31.68Z"/><path class="a" d="M404.9,9.62a2.22,2.22,0,0,1-.68-1.68,2.15,2.15,0,0,1,.68-1.66,3,3,0,0,1,3.66,0,2.1,2.1,0,0,1,.7,1.66,2.22,2.22,0,0,1-.68,1.68,3,3,0,0,1-3.68,0Zm.38,24.2a1.75,1.75,0,0,1-.58-1.44V16.14a1.81,1.81,0,0,1,.58-1.46,2.17,2.17,0,0,1,1.46-.5,2.08,2.08,0,0,1,1.44.5,1.86,1.86,0,0,1,.56,1.46V32.38a1.8,1.8,0,0,1-.56,1.44,2.12,2.12,0,0,1-1.44.48A2.21,2.21,0,0,1,405.28,33.82Z"/><path class="a" d="M417.8,33.14a8.45,8.45,0,0,1-3.36-3.54,11.48,11.48,0,0,1-1.18-5.34,11.59,11.59,0,0,1,1.18-5.38,8.45,8.45,0,0,1,3.36-3.54,10.94,10.94,0,0,1,10.12,0,8.45,8.45,0,0,1,3.36,3.54,11.59,11.59,0,0,1,1.18,5.38,11.48,11.48,0,0,1-1.18,5.34,8.45,8.45,0,0,1-3.36,3.54,10.94,10.94,0,0,1-10.12,0ZM427,29.42a8,8,0,0,0,1.42-5.16,8,8,0,0,0-1.44-5.14,5.57,5.57,0,0,0-8.16,0,8,8,0,0,0-1.44,5.14,8,8,0,0,0,1.42,5.16,5.66,5.66,0,0,0,8.2,0Z"/><path class="a" d="M454.46,22v10.4a1.84,1.84,0,0,1-.54,1.42,2.14,2.14,0,0,1-1.5.5,2,2,0,0,1-1.46-.52,1.85,1.85,0,0,1-.54-1.4V22.18a5.6,5.6,0,0,0-1-3.64,3.79,3.79,0,0,0-3.06-1.16,5.24,5.24,0,0,0-3.92,1.52A5.57,5.57,0,0,0,441,23v9.4a1.85,1.85,0,0,1-.54,1.4,2,2,0,0,1-1.46.52,2.07,2.07,0,0,1-1.48-.52,1.83,1.83,0,0,1-.56-1.4V16.1a1.79,1.79,0,0,1,.58-1.38,2.06,2.06,0,0,1,1.46-.54,1.89,1.89,0,0,1,1.4.52,1.83,1.83,0,0,1,.52,1.36V17.7A6.47,6.47,0,0,1,443.58,15a8.14,8.14,0,0,1,3.88-.92Q454.47,14.1,454.46,22Z"/><path class="a" d="M460.1,32.7a3,3,0,0,1-1-.92,2,2,0,0,1-.3-1.08,1.64,1.64,0,0,1,.36-1.08,1.14,1.14,0,0,1,.92-.44,3.94,3.94,0,0,1,1.64.64,16.83,16.83,0,0,0,2.34,1,8.64,8.64,0,0,0,2.86.4,5.65,5.65,0,0,0,3-.68A2.14,2.14,0,0,0,471,28.66a1.88,1.88,0,0,0-.42-1.28,3.55,3.55,0,0,0-1.46-.86A25.25,25.25,0,0,0,466,25.7,11.81,11.81,0,0,1,461,23.64a4.39,4.39,0,0,1-1.54-3.54,5.13,5.13,0,0,1,1-3.1,6.44,6.44,0,0,1,2.76-2.14,9.91,9.91,0,0,1,4-.76,11.73,11.73,0,0,1,3.12.42A9,9,0,0,1,473,15.74a2.49,2.49,0,0,1,1.32,2,1.6,1.6,0,0,1-.38,1.08,1.19,1.19,0,0,1-.9.44,1.71,1.71,0,0,1-.72-.16,10.23,10.23,0,0,1-1-.52,13.43,13.43,0,0,0-2-1,6.62,6.62,0,0,0-2.34-.36,4.59,4.59,0,0,0-2.7.72,2.27,2.27,0,0,0-1,2,2,2,0,0,0,.94,1.74,11.39,11.39,0,0,0,3.54,1.18,19.45,19.45,0,0,1,4.2,1.28,5,5,0,0,1,2.18,1.78,5,5,0,0,1,.66,2.7,4.93,4.93,0,0,1-2.18,4.18,9.76,9.76,0,0,1-5.82,1.58A12.1,12.1,0,0,1,460.1,32.7Z"/><path class="a" d="M526.78,6a1.93,1.93,0,0,1,1.08-.32,2,2,0,0,1,1.34.5,1.66,1.66,0,0,1,.58,1.3,2.08,2.08,0,0,1-.16.8L520.78,33a2.15,2.15,0,0,1-.88,1,2.52,2.52,0,0,1-1.32.36A2.43,2.43,0,0,1,517.3,34a1.93,1.93,0,0,1-.84-1l-7.28-20.64L501.74,33a1.93,1.93,0,0,1-.84,1,2.46,2.46,0,0,1-1.28.36,2.4,2.4,0,0,1-1.3-.36,2.11,2.11,0,0,1-.86-1L488.62,8.26a1.91,1.91,0,0,1-.16-.8,1.61,1.61,0,0,1,.6-1.3,2.19,2.19,0,0,1,1.44-.5,2,2,0,0,1,1.1.32,1.87,1.87,0,0,1,.74,1l7.4,21.28,7.52-21.08a2,2,0,0,1,.78-1,2.08,2.08,0,0,1,1.18-.36,2,2,0,0,1,1.16.38,2.49,2.49,0,0,1,.8,1.06l7.36,21.24,7.52-21.48A1.89,1.89,0,0,1,526.78,6Z"/><path class="a" d="M536.26,9.62a2.19,2.19,0,0,1-.68-1.68,2.11,2.11,0,0,1,.68-1.66,2.63,2.63,0,0,1,1.84-.62,2.68,2.68,0,0,1,1.82.62,2.13,2.13,0,0,1,.7,1.66,2.22,2.22,0,0,1-.68,1.68,2.58,2.58,0,0,1-1.84.64A2.55,2.55,0,0,1,536.26,9.62Zm.38,24.2a1.75,1.75,0,0,1-.58-1.44V16.14a1.81,1.81,0,0,1,.58-1.46,2.16,2.16,0,0,1,1.46-.5,2.12,2.12,0,0,1,1.44.5,1.86,1.86,0,0,1,.56,1.46V32.38a1.8,1.8,0,0,1-.56,1.44,2.16,2.16,0,0,1-1.44.48A2.19,2.19,0,0,1,536.64,33.82Z"/><path class="a" d="M557.12,31.68a1.45,1.45,0,0,1,.38,1.06,1.39,1.39,0,0,1-.62,1.22,2.93,2.93,0,0,1-1.82.34L554,34.22a7,7,0,0,1-4.84-2,7.33,7.33,0,0,1-1.6-5.14V17.7h-2.4c-1.18,0-1.76-.52-1.76-1.56a1.46,1.46,0,0,1,.46-1.14,1.85,1.85,0,0,1,1.3-.42h2.4V10.46A1.92,1.92,0,0,1,548.08,9a2,2,0,0,1,1.46-.52A2.09,2.09,0,0,1,551,9a1.89,1.89,0,0,1,.56,1.44v4.12h4a1.86,1.86,0,0,1,1.3.42,1.67,1.67,0,0,1,0,2.3,1.91,1.91,0,0,1-1.3.4h-4v9.68a4.1,4.1,0,0,0,.78,2.76,3.36,3.36,0,0,0,2.38,1l1.12.08A2,2,0,0,1,557.12,31.68Z"/><path class="a" d="M577.94,22v10.4a1.83,1.83,0,0,1-.56,1.4,2.09,2.09,0,0,1-1.48.52,2,2,0,0,1-1.46-.52,1.85,1.85,0,0,1-.54-1.4V22a5.28,5.28,0,0,0-1-3.52,3.87,3.87,0,0,0-3.06-1.12,5.22,5.22,0,0,0-3.92,1.52A5.57,5.57,0,0,0,564.46,23v9.4a1.85,1.85,0,0,1-.54,1.4,2,2,0,0,1-1.46.52,2.06,2.06,0,0,1-1.48-.52,1.8,1.8,0,0,1-.56-1.4V7.62a1.78,1.78,0,0,1,.58-1.4,2.12,2.12,0,0,1,1.5-.52,2,2,0,0,1,1.42.5,1.73,1.73,0,0,1,.54,1.34v10A6.66,6.66,0,0,1,567.14,15,8.11,8.11,0,0,1,571,14.1Q577.94,14.1,577.94,22Z"/><path class="a" d="M108.21,103.9a2.23,2.23,0,0,1-.85,1.76,2.89,2.89,0,0,1-1.9.72,2.39,2.39,0,0,1-1.35-.42,2.57,2.57,0,0,1-1-1.18l-3.63-8.25H79.39l-3.63,8.25a2.62,2.62,0,0,1-2.37,1.6,2.94,2.94,0,0,1-2-.72,2.2,2.2,0,0,1-.85-1.76,3.05,3.05,0,0,1,.27-1.1L86.37,68.86a2.94,2.94,0,0,1,1.24-1.37,3.45,3.45,0,0,1,3.58,0,2.92,2.92,0,0,1,1.23,1.37l15.51,33.94A2.9,2.9,0,0,1,108.21,103.9ZM81.42,92H97.54L89.45,73.81Z"/><path class="a" d="M136.23,79.42a2.61,2.61,0,0,1,.74,2v22.39a2.42,2.42,0,0,1-.77,1.87,2.85,2.85,0,0,1-2,.72,2.57,2.57,0,0,1-1.87-.69,2.45,2.45,0,0,1-.72-1.85v-2.09a8.52,8.52,0,0,1-3.49,3.52,10.22,10.22,0,0,1-5,1.21q-9.78,0-9.79-10.77V81.4a2.65,2.65,0,0,1,.74-2,2.9,2.9,0,0,1,2.07-.71,2.82,2.82,0,0,1,2,.71,2.65,2.65,0,0,1,.74,2V95.65a7.22,7.22,0,0,0,1.32,4.78,5.05,5.05,0,0,0,4.07,1.54,6.74,6.74,0,0,0,5.19-2.09,7.76,7.76,0,0,0,2-5.55V81.4a2.58,2.58,0,0,1,.77-2,3.18,3.18,0,0,1,4,0Z"/><path class="a" d="M161.45,81a2.48,2.48,0,0,1-.61,1.82,3.26,3.26,0,0,1-2.09.71l-1.65.17A7.13,7.13,0,0,0,152,86.08a7.82,7.82,0,0,0-1.68,5.06v12.59a2.48,2.48,0,0,1-.77,2,2.93,2.93,0,0,1-2,.67,3.07,3.07,0,0,1-2-.67,2.42,2.42,0,0,1-.79-2V81.35a2.44,2.44,0,0,1,.79-1.95,3,3,0,0,1,2-.69,2.59,2.59,0,0,1,1.84.69,2.44,2.44,0,0,1,.75,1.89v2.64a8,8,0,0,1,3.19-3.68A10.8,10.8,0,0,1,158,78.76l.77-.05Q161.45,78.54,161.45,81Z"/><path class="a" d="M186.58,99.94a2.36,2.36,0,0,1,.5,1.54,3.16,3.16,0,0,1-2,2.69,18,18,0,0,1-8.58,2.31q-6.39,0-10.07-3.71t-3.68-10.14a16,16,0,0,1,1.62-7.32,11.88,11.88,0,0,1,4.56-5,12.83,12.83,0,0,1,6.69-1.76,10.91,10.91,0,0,1,8.52,3.46c2.09,2.32,3.14,5.43,3.14,9.36q0,2.19-2,2.19h-17q.56,8.53,8.2,8.53a10.09,10.09,0,0,0,3.52-.55,25.55,25.55,0,0,0,3.13-1.43c.11-.07.41-.23.91-.47a3,3,0,0,1,1.24-.36A1.57,1.57,0,0,1,186.58,99.94Zm-16-15.23a9.51,9.51,0,0,0-2.31,5.71h14.19a9.15,9.15,0,0,0-1.9-5.74,6.06,6.06,0,0,0-4.86-2A6.72,6.72,0,0,0,170.63,84.71Z"/><path class="a" d="M194.2,105.71a2.43,2.43,0,0,1-.8-2v-34a2.5,2.5,0,0,1,.8-2,3,3,0,0,1,2-.69,2.88,2.88,0,0,1,2,.69,2.55,2.55,0,0,1,.77,2v34a2.48,2.48,0,0,1-.77,2,3,3,0,0,1-2,.67A3,3,0,0,1,194.2,105.71Z"/><path class="a" d="M207,72.44a3,3,0,0,1-.94-2.31,2.92,2.92,0,0,1,.94-2.28,3.59,3.59,0,0,1,2.53-.86,3.63,3.63,0,0,1,2.5.86,2.9,2.9,0,0,1,1,2.28,3,3,0,0,1-.93,2.31,4.08,4.08,0,0,1-5.06,0Zm.52,33.27a2.43,2.43,0,0,1-.8-2V81.4a2.5,2.5,0,0,1,.8-2,3,3,0,0,1,2-.69,2.88,2.88,0,0,1,2,.69,2.55,2.55,0,0,1,.77,2v22.33a2.48,2.48,0,0,1-.77,2,3,3,0,0,1-2,.67A3,3,0,0,1,207.51,105.71Z"/><path class="a" d="M239.24,81.29q2.61,2.7,2.61,8.2v14.24a2.58,2.58,0,0,1-.71,2,2.74,2.74,0,0,1-2,.69,2.56,2.56,0,0,1-1.92-.72,2.6,2.6,0,0,1-.72-1.93v-2a7.76,7.76,0,0,1-3.11,3.55,9.2,9.2,0,0,1-4.81,1.23,10.65,10.65,0,0,1-4.81-1.07,8.61,8.61,0,0,1-3.44-2.94,7.42,7.42,0,0,1-1.26-4.24,6.38,6.38,0,0,1,1.48-4.64,9.27,9.27,0,0,1,5-2.42,47.83,47.83,0,0,1,9.62-.75h1.27V88.83a6.46,6.46,0,0,0-1.27-4.45A5.28,5.28,0,0,0,231.13,83a13.37,13.37,0,0,0-3.63.49,27.73,27.73,0,0,0-3.74,1.43,5.45,5.45,0,0,1-2.09.83,1.69,1.69,0,0,1-1.35-.61,2.24,2.24,0,0,1-.52-1.54,2.37,2.37,0,0,1,.47-1.45,4.83,4.83,0,0,1,1.51-1.24,18.59,18.59,0,0,1,4.51-1.68,21.09,21.09,0,0,1,5-.63Q236.63,78.6,239.24,81.29Zm-4.7,19A7.51,7.51,0,0,0,236.47,95V93.56h-1a43.85,43.85,0,0,0-6.6.38,6.46,6.46,0,0,0-3.3,1.3,3.35,3.35,0,0,0-1,2.61,4.1,4.1,0,0,0,1.43,3.24,5.15,5.15,0,0,0,3.57,1.27A6.47,6.47,0,0,0,234.54,100.3Z"/><path class="a" d="M286.6,79Q289.45,82,289.45,88v15.54a2.82,2.82,0,0,1-.78,2.13,3,3,0,0,1-2.16.75,2.69,2.69,0,0,1-2.88-2.88V101.3a8.44,8.44,0,0,1-3.39,3.87,10,10,0,0,1-5.25,1.35,11.7,11.7,0,0,1-5.25-1.17,9.5,9.5,0,0,1-3.75-3.21,8.05,8.05,0,0,1-1.38-4.62,7,7,0,0,1,1.62-5.07,10.13,10.13,0,0,1,5.46-2.64,52.78,52.78,0,0,1,10.5-.81h1.38V87.26q0-3.36-1.38-4.86a5.78,5.78,0,0,0-4.44-1.5,14.14,14.14,0,0,0-4,.54A29.77,29.77,0,0,0,269.71,83a5.88,5.88,0,0,1-2.28.9,1.85,1.85,0,0,1-1.47-.66,2.48,2.48,0,0,1-.57-1.68A2.6,2.6,0,0,1,265.9,80a5.37,5.37,0,0,1,1.65-1.35,20.51,20.51,0,0,1,4.92-1.83,23,23,0,0,1,5.46-.69Q283.75,76.1,286.6,79Zm-5.13,20.73a8.15,8.15,0,0,0,2.1-5.79V92.42h-1.08a46.74,46.74,0,0,0-7.2.42,7.06,7.06,0,0,0-3.6,1.41,3.67,3.67,0,0,0-1.08,2.85,4.51,4.51,0,0,0,1.56,3.54,5.67,5.67,0,0,0,3.9,1.38A7.06,7.06,0,0,0,281.47,99.77Z"/><path class="a" d="M324,87.92v15.6a2.76,2.76,0,0,1-.81,2.13,3.19,3.19,0,0,1-2.25.75,3,3,0,0,1-2.19-.78,2.78,2.78,0,0,1-.81-2.1V88.22q0-3.72-1.47-5.46A5.68,5.68,0,0,0,311.89,81,7.83,7.83,0,0,0,306,83.3a8.4,8.4,0,0,0-2.22,6.12v14.1a2.78,2.78,0,0,1-.81,2.1,3,3,0,0,1-2.19.78,3.13,3.13,0,0,1-2.22-.78,2.73,2.73,0,0,1-.84-2.1V79.1A2.7,2.7,0,0,1,298.6,77a3.09,3.09,0,0,1,2.19-.81,2.84,2.84,0,0,1,2.1.78,2.76,2.76,0,0,1,.78,2V81.5a9.73,9.73,0,0,1,4-4,12.14,12.14,0,0,1,5.82-1.38Q324,76.1,324,87.92Z"/><path class="a" d="M358.45,64.28a2.73,2.73,0,0,1,.84,2.1v37.08a2.86,2.86,0,0,1-.81,2.16,3.46,3.46,0,0,1-4.38,0,2.86,2.86,0,0,1-.81-2.16v-2.4a9.28,9.28,0,0,1-3.84,4,11.72,11.72,0,0,1-5.82,1.41,12.16,12.16,0,0,1-6.75-1.92,12.76,12.76,0,0,1-4.62-5.4,18.42,18.42,0,0,1-1.65-8,18.17,18.17,0,0,1,1.65-8,12.11,12.11,0,0,1,11.37-7.14,11.55,11.55,0,0,1,5.79,1.41,9.41,9.41,0,0,1,3.81,4V66.26a2.61,2.61,0,0,1,.81-2,3.1,3.1,0,0,1,2.19-.75A3.13,3.13,0,0,1,358.45,64.28ZM351.13,99q2.16-2.7,2.16-7.68t-2.13-7.68a7.3,7.3,0,0,0-6.09-2.7,7.51,7.51,0,0,0-6.15,2.67q-2.19,2.67-2.19,7.59T339,98.93a8.13,8.13,0,0,0,12.18.09Z"/><path class="a" d="M385.12,105.29a3,3,0,0,1-.81-2.19V66.8a3,3,0,0,1,.81-2.19,3,3,0,0,1,2.25-.81h22.08a3.12,3.12,0,0,1,2.13.66,2.35,2.35,0,0,1,.75,1.86,2.26,2.26,0,0,1-.75,1.83,3.22,3.22,0,0,1-2.13.63H390.37V82.1h17.88a3.12,3.12,0,0,1,2.13.66,2.68,2.68,0,0,1,0,3.72,3.12,3.12,0,0,1-2.13.66H390.37v14h19.08q2.88,0,2.88,2.46a2.35,2.35,0,0,1-.75,1.86,3.12,3.12,0,0,1-2.13.66H387.37A3,3,0,0,1,385.12,105.29Z"/><path class="a" d="M419.56,105.68a2.64,2.64,0,0,1-.87-2.16V66.44a2.73,2.73,0,0,1,.87-2.19,3.23,3.23,0,0,1,2.19-.75,3.12,3.12,0,0,1,2.16.75,2.78,2.78,0,0,1,.84,2.19v37.08a2.69,2.69,0,0,1-.84,2.16,3.2,3.2,0,0,1-2.16.72A3.32,3.32,0,0,1,419.56,105.68Z"/><path class="a" d="M457.51,99.38a2.57,2.57,0,0,1,.54,1.68q0,1.74-2.16,2.94a19,19,0,0,1-4.59,1.86,18.61,18.61,0,0,1-4.77.66q-7,0-11-4t-4-11.07a17.36,17.36,0,0,1,1.77-8,13,13,0,0,1,5-5.4,13.93,13.93,0,0,1,7.29-1.92,11.91,11.91,0,0,1,9.3,3.78q3.42,3.78,3.42,10.2,0,2.4-2.16,2.4H437.59q.6,9.3,8.94,9.3a11.06,11.06,0,0,0,3.84-.6,27.93,27.93,0,0,0,3.42-1.56q.18-.12,1-.51a3.28,3.28,0,0,1,1.35-.39A1.7,1.7,0,0,1,457.51,99.38Zm-17.4-16.62A10.37,10.37,0,0,0,437.59,89h15.48A10,10,0,0,0,451,82.73a6.64,6.64,0,0,0-5.31-2.19A7.32,7.32,0,0,0,440.11,82.76Z"/><path class="a" d="M470,104.66a12.7,12.7,0,0,1-5-5.28,18.59,18.59,0,0,1,.06-16,13.23,13.23,0,0,1,5.13-5.4,14.75,14.75,0,0,1,7.56-1.92,16.64,16.64,0,0,1,4.59.66,15.69,15.69,0,0,1,4.11,1.8,3.73,3.73,0,0,1,1.92,3.06,2.69,2.69,0,0,1-.54,1.71,1.68,1.68,0,0,1-1.38.69,2.4,2.4,0,0,1-1.08-.27,15.58,15.58,0,0,1-1.38-.81,16.53,16.53,0,0,0-2.79-1.47,8.4,8.4,0,0,0-3.09-.51,7.71,7.71,0,0,0-6.33,2.76q-2.25,2.76-2.25,7.68T471.79,99a7.73,7.73,0,0,0,6.3,2.67,8.69,8.69,0,0,0,3.18-.54,17.11,17.11,0,0,0,2.82-1.44,10.74,10.74,0,0,1,1.32-.72,2.94,2.94,0,0,1,1.2-.3,1.68,1.68,0,0,1,1.38.69,2.69,2.69,0,0,1,.54,1.71,2.74,2.74,0,0,1-.45,1.53,5.33,5.33,0,0,1-1.53,1.41,14.39,14.39,0,0,1-4.2,1.86,18.25,18.25,0,0,1-4.86.66A14.63,14.63,0,0,1,470,104.66Z"/><path class="a" d="M510.28,102.47a2.15,2.15,0,0,1,.57,1.59,2.07,2.07,0,0,1-.93,1.83,4.34,4.34,0,0,1-2.73.51l-1.62-.12q-4.86-.36-7.26-3t-2.4-7.71V81.5h-3.6q-2.64,0-2.64-2.34a2.2,2.2,0,0,1,.69-1.71,2.79,2.79,0,0,1,1.95-.63h3.6V70.64a2.86,2.86,0,0,1,.81-2.16,3,3,0,0,1,2.19-.78,3.13,3.13,0,0,1,2.22.78,2.8,2.8,0,0,1,.84,2.16v6.18h5.94a2.79,2.79,0,0,1,1.95.63,2.5,2.5,0,0,1,0,3.45,2.88,2.88,0,0,1-1.95.6H502V96a6.13,6.13,0,0,0,1.17,4.14,5.06,5.06,0,0,0,3.57,1.5l1.68.12A3,3,0,0,1,510.28,102.47Z"/><path class="a" d="M533.47,78.68a2.69,2.69,0,0,1-.66,2,3.56,3.56,0,0,1-2.28.78l-1.8.18a7.77,7.77,0,0,0-5.61,2.64,8.54,8.54,0,0,0-1.83,5.52v13.74a2.69,2.69,0,0,1-.84,2.16,3.2,3.2,0,0,1-2.16.72,3.32,3.32,0,0,1-2.19-.72,2.64,2.64,0,0,1-.87-2.16V79.1A2.66,2.66,0,0,1,516.1,77a3.23,3.23,0,0,1,2.19-.75,2.85,2.85,0,0,1,2,.75,2.68,2.68,0,0,1,.81,2.07v2.88a8.81,8.81,0,0,1,3.48-4,11.69,11.69,0,0,1,5.16-1.62l.84-.06Q533.47,76,533.47,78.68Z"/><path class="a" d="M541.72,104.66a12.55,12.55,0,0,1-5-5.31,19.15,19.15,0,0,1,0-16.08,12.55,12.55,0,0,1,5-5.31,16.42,16.42,0,0,1,15.18,0,12.55,12.55,0,0,1,5,5.31,19.15,19.15,0,0,1,0,16.08,12.55,12.55,0,0,1-5,5.31,16.42,16.42,0,0,1-15.18,0Zm13.74-5.58q2.13-2.64,2.13-7.74t-2.16-7.71a8.35,8.35,0,0,0-12.24,0Q541,86.3,541,91.34t2.13,7.74a8.48,8.48,0,0,0,12.3,0Z"/><path class="a" d="M596.71,87.92v15.6a2.76,2.76,0,0,1-.81,2.13,3.19,3.19,0,0,1-2.25.75,3,3,0,0,1-2.19-.78,2.78,2.78,0,0,1-.81-2.1V88.22q0-3.72-1.47-5.46A5.68,5.68,0,0,0,584.59,81a7.83,7.83,0,0,0-5.88,2.28,8.4,8.4,0,0,0-2.22,6.12v14.1a2.78,2.78,0,0,1-.81,2.1,3,3,0,0,1-2.19.78,3.13,3.13,0,0,1-2.22-.78,2.73,2.73,0,0,1-.84-2.1V79.1A2.7,2.7,0,0,1,571.3,77a3.09,3.09,0,0,1,2.19-.81,2.84,2.84,0,0,1,2.1.78,2.76,2.76,0,0,1,.78,2V81.5a9.73,9.73,0,0,1,4-4,12.14,12.14,0,0,1,5.82-1.38Q596.71,76.1,596.71,87.92Z"/><path class="a" d="M359.26,284l-23.33.07V261.2a3.6,3.6,0,0,0-7.2,0l.07,22.8H306.46a3.6,3.6,0,1,0,0,7.2h22.31V314a3.6,3.6,0,1,0,7.19,0V291.2h23.3a3.6,3.6,0,1,0,0-7.2Z"/><path class="a" d="M139.42,233.44c-24.83-4.52-44.46.21-52.28,13.76-5.84,10.11-4.17,23.52,4,37.85a2.55,2.55,0,1,0,4.47-2.44.41.41,0,0,0-.05-.09c-7.4-12.91-8.84-24.48-4-32.77,6.5-11.26,24-15.48,47-11.3a2.55,2.55,0,0,0,.91-5Zm-35.33,69a159.34,159.34,0,0,0,38,30c36,20.8,74.36,26.35,93.26,13.47a2.55,2.55,0,0,0-2.8-4.26l-.07.05C215.53,353.23,179.1,348,144.6,328a154.42,154.42,0,0,1-36.74-29,2.55,2.55,0,1,0-3.78,3.41Z"/><path class="a" d="M229.28,299.38c16.26-19.21,21.93-38.53,14.13-52-5.75-10-17.89-15.21-34-15.42a2.55,2.55,0,0,0-.06,5.1c14.51.18,25,4.71,29.69,12.87,6.48,11.23,1.42,28.45-13.61,46.21a2.55,2.55,0,1,0,3.85,3.33Zm-41.78-65.1c-14.7,3.15-30.35,9.31-45.37,18C105,273.73,80.69,305.39,84.06,328.34a2.55,2.55,0,0,0,5-.68v-.06c-3-20.38,20-50.38,55.57-70.92a154,154,0,0,1,43.9-17.42,2.54,2.54,0,0,0-1-5Z"/><path class="a" d="M127.26,344.25c8.51,23.74,22.41,38.35,38.05,38.35,11.4,0,21.95-7.77,30.18-21.46a2.54,2.54,0,1,0-4.32-2.69l0,.06c-7.4,12.31-16.48,19-25.82,19-13,0-25.39-13-33.25-35a2.55,2.55,0,0,0-4.83,1.62l0,.1Zm77.65-4.64a160,160,0,0,0,6.76-47.19c0-42.18-14.76-78.54-35.79-87.88a2.55,2.55,0,0,0-2.07,4.65c18.76,8.33,32.77,42.84,32.77,83.23a154.92,154.92,0,0,1-6.53,45.67,2.55,2.55,0,0,0,4.84,1.59.14.14,0,0,1,0-.07Zm48-2.5a12.19,12.19,0,1,0-12.19,12.19A12.18,12.18,0,0,0,252.86,337.11Zm-5.09,0a7.1,7.1,0,1,1-7.1-7.09A7.1,7.1,0,0,1,247.77,337.11Zm-158,12.19a12.19,12.19,0,1,0-12.19-12.19A12.18,12.18,0,0,0,89.77,349.3Zm0-5.09a7.1,7.1,0,1,1,7.09-7.1A7.1,7.1,0,0,1,89.77,344.21Z"/><path class="a" d="M165.31,217a12.19,12.19,0,1,0-12.19-12.18A12.18,12.18,0,0,0,165.31,217Zm0-5.09a7.1,7.1,0,1,1,7.09-7.09A7.1,7.1,0,0,1,165.31,211.88ZM167.17,301a8.82,8.82,0,1,1,6.76-10.48A8.82,8.82,0,0,1,167.17,301Z"/><path class="b" d="M530.44,232.5l-16.66,11.13L496.61,217.9l16.67-11.13Z"/><path class="c" d="M544,309.8l28.48,42.68L538.55,375.1l-28.48-42.67-5-7.44L539,302.35l5,7.45Z"/><path class="d" d="M501.27,338.3l6.28,9.4-25.82,17.23-11.22-16.84,5.64-3.76,20.18-13.46,5,7.44Z"/><path class="e" d="M558.1,289.62l7.24-4.83,11.22,16.84-16.65,11.12-6.27-9.39,9.42-6.29-5-7.45Zm-4.46,13.74-5-7.45,9.43-6.29,5,7.45Z"/><path class="f" d="M441.23,292l-5.64,3.76-17.17-25.74,25.82-17.21,12,18L436.1,284.35l20.18-13.47,5.13,7.69Z"/><path class="g" d="M499,242.36l5.13,7.71-33.92,22.64L465.08,265l-28.21-42.26,33.92-22.64Z"/><path class="h" d="M523.2,237.34l-9.42,6.29-5.14-7.7-12-18,16.67-11.12,17.18,25.72Z"/><path class="i" d="M481.09,351.78l-5-7.45,20.18-13.47,5,7.44Z"/><path class="j" d="M553.64,303.36l-5-7.45,9.43-6.29,5,7.45Z"/><path class="k" d="M441.23,292l-5.13-7.69,20.18-13.47,5.13,7.69Z"/><path class="l" d="M513.78,243.63l-5.14-7.7,9.43-6.29,5.13,7.7-9.42,6.29Z"/><path class="m" d="M544,309.8l-33.92,22.63-5-7.44L539,302.35l5,7.45Z"/><path class="n" d="M499,242.36l5.13,7.71-33.92,22.64L465.08,265Z"/><rect class="o" x="424.25" y="238.45" width="11.53" height="11.53" transform="translate(-63.23 279.81) rotate(-33.72)"/><rect class="p" x="458.83" y="353.46" width="11.53" height="11.53" transform="translate(-121.25 318.35) rotate(-33.72)"/><path class="q" d="M441,360.9l-28.09-42.44L563,218.07l29.46,41.75Z"/></svg>