<svg xmlns="http://www.w3.org/2000/svg" viewBox="0 0 512 512"><title>react</title><path d="M512,256.05c0-33.92-42.48-66.06-107.6-86,15-66.38,8.35-119.18-21.08-136.09-6.78-4-14.71-5.84-23.38-5.84V51.4a24.18,24.18,0,0,1,11.9,2.71c14.19,8.14,20.35,39.14,15.55,79-1.15,9.81-3,20.15-5.32,30.69a506.72,506.72,0,0,0-66.27-11.38,508.14,508.14,0,0,0-43.42-52.18c34-31.62,66-48.95,87.67-48.95V28C331.35,28,293.78,48.48,255.79,84c-38-35.28-75.56-55.52-104.26-55.52V51.71c21.61,0,53.65,17.22,87.67,48.63a493.61,493.61,0,0,0-43.1,52.08,488.86,488.86,0,0,0-66.38,11.48c-2.4-10.44-4.17-20.56-5.42-30.26-4.91-39.87,1.14-70.87,15.23-79.11,3.13-1.88,7.2-2.71,12-2.71V28.54A46.49,46.49,0,0,0,128,34.39C98.62,51.29,92.05,104,107.18,170.16,42.27,190.2,0,222.24,0,256.05s42.48,66.06,107.6,86c-15,66.37-8.35,119.18,21.08,136.08,6.78,4,14.71,5.85,23.48,5.85,28.7,0,66.27-20.46,104.26-55.94,38,35.28,75.56,55.52,104.26,55.52a46.59,46.59,0,0,0,23.58-5.84c29.33-16.91,35.9-69.61,20.77-135.78,64.7-19.93,107-52.07,107-85.89ZM376.12,186.44c-3.86,13.47-8.66,27.35-14.09,41.23-4.28-8.35-8.76-16.7-13.67-25s-9.91-16.49-15-24.42c14.82,2.19,29.12,4.9,42.79,8.24Zm-47.8,111.15c-8.14,14.09-16.49,27.45-25.15,39.86-15.55,1.36-31.31,2.09-47.17,2.09s-31.52-.73-47-2q-13-18.63-25.26-39.66c-7.93-13.67-15.13-27.55-21.71-41.53,6.47-14,13.78-28,21.61-41.65,8.14-14.08,16.49-27.44,25.15-39.86,15.55-1.36,31.31-2.09,47.17-2.09s31.52.73,47,2c8.66,12.42,17.12,25.68,25.26,39.66,7.93,13.67,15.13,27.55,21.71,41.54-6.58,14-13.78,28-21.61,41.64ZM362,284c5.64,14,10.44,28,14.4,41.54-13.67,3.34-28.07,6.15-43,8.35,5.11-8,10.22-16.28,15-24.74S357.75,292.37,362,284ZM256.21,395.38a429.42,429.42,0,0,1-29-33.4c9.39.42,19,.73,28.7.73s19.51-.21,29-.73A407.46,407.46,0,0,1,256.21,395.38Zm-77.65-61.47c-14.82-2.2-29.11-4.91-42.79-8.25,3.87-13.46,8.67-27.34,14.09-41.22,4.28,8.35,8.77,16.7,13.68,25.05S173.45,326,178.56,333.91Zm77.13-217.18a431.34,431.34,0,0,1,29,33.39c-9.39-.41-19-.73-28.7-.73s-19.52.21-29,.73A407.26,407.26,0,0,1,255.69,116.73ZM178.46,178.2c-5.11,8-10.23,16.28-15,24.73s-9.29,16.7-13.57,25c-5.63-14-10.43-28-14.4-41.54,13.67-3.23,28.08-6.05,43-8.24ZM84,308.86c-36.94-15.76-60.84-36.42-60.84-52.81S47.07,218.9,84,203.24c9-3.86,18.79-7.3,28.91-10.54a502,502,0,0,0,23.48,63.56,495.4,495.4,0,0,0-23.17,63.24c-10.33-3.23-20.14-6.78-29.22-10.64ZM140.16,458c-14.2-8.14-20.35-39.13-15.55-79,1.15-9.81,3-20.14,5.32-30.68a505.09,505.09,0,0,0,66.27,11.37,508.14,508.14,0,0,0,43.42,52.18c-34,31.63-66,48.95-87.67,48.95A24.76,24.76,0,0,1,140.16,458ZM387.7,378.47c4.91,39.87-1.14,70.86-15.23,79.11-3.13,1.87-7.2,2.71-12,2.71-21.61,0-53.65-17.22-87.67-48.63a493.61,493.61,0,0,0,43.1-52.08,488.86,488.86,0,0,0,66.38-11.48A289.85,289.85,0,0,1,387.7,378.47Zm40.18-69.61c-9,3.86-18.78,7.3-28.9,10.54a501.1,501.1,0,0,0-23.49-63.56,491.83,491.83,0,0,0,23.17-63.24c10.33,3.24,20.14,6.78,29.33,10.65,36.94,15.75,60.84,36.42,60.84,52.8s-24,37.16-60.95,52.81Z" fill="#61dafb"/><circle cx="255.9" cy="256.05" r="47.69" fill="#61dafb"/></svg>