<svg xmlns="http://www.w3.org/2000/svg" viewBox="0 0 512 512"><defs><style>.a{fill:#ff3e00;}.b{fill:#fff;}</style></defs><path class="a" d="M441.93,67.74c-47.56-68-141.5-88.21-209.41-44.95l-119.27,76a136.73,136.73,0,0,0-61.83,91.46A144.23,144.23,0,0,0,65.6,282.82,136.82,136.82,0,0,0,45.16,334,145.73,145.73,0,0,0,70.08,444.26c47.56,68,141.5,88.21,209.41,44.95l119.27-75.69a137.17,137.17,0,0,0,61.83-91.46,144.18,144.18,0,0,0-14.22-92.52,137.83,137.83,0,0,0,20.48-51.12A145.89,145.89,0,0,0,441.93,68.11"/><path class="b" d="M220.86,450.84a94.8,94.8,0,0,1-101.71-37.73,87.54,87.54,0,0,1-15-66.31,77.45,77.45,0,0,1,2.83-11l2.24-6.86,6.13,4.57a154.3,154.3,0,0,0,46.51,23.14l4.57,1.33-.41,4.57a27,27,0,0,0,5,17.61,28.57,28.57,0,0,0,30.64,11.34,26.67,26.67,0,0,0,7.32-3.2l119.08-76a24.79,24.79,0,0,0,11.21-16.64,26.38,26.38,0,0,0-4.58-20,28.59,28.59,0,0,0-30.64-11.34,26.35,26.35,0,0,0-7.31,3.2l-45.74,29a87.37,87.37,0,0,1-24.19,10.61,94.76,94.76,0,0,1-101.52-37.68,87.64,87.64,0,0,1-14.87-66.31A82.35,82.35,0,0,1,147.64,148L267.1,72a86.82,86.82,0,0,1,24-10.61A94.7,94.7,0,0,1,392.81,99.12a87.53,87.53,0,0,1,15,66.31A92.25,92.25,0,0,1,405,176.54l-2.29,6.86-6.08-4.57A154.72,154.72,0,0,0,350,155.5l-4.57-1.32.41-4.58A26.78,26.78,0,0,0,341,131.86a28.47,28.47,0,0,0-30.45-11,26.12,26.12,0,0,0-7.32,3.2L183.86,199.91a24.91,24.91,0,0,0-11.2,16.6,26.71,26.71,0,0,0,4.57,20,28.58,28.58,0,0,0,30.41,11.34,27.15,27.15,0,0,0,7.32-3.2l45.73-29A85.24,85.24,0,0,1,284.93,205a94.66,94.66,0,0,1,101.66,37.68,87.64,87.64,0,0,1,15,66.32,82.32,82.32,0,0,1-37.18,55.15l-119.31,76a87.9,87.9,0,0,1-24.24,10.65"/></svg>