<svg xmlns="http://www.w3.org/2000/svg" xmlns:xlink="http://www.w3.org/1999/xlink" viewBox="0 0 512 512"><defs><linearGradient id="a" x1="256.23" y1="68.61" x2="256.23" y2="262.5" gradientTransform="matrix(1, 0, 0, -1, 0, 514)" gradientUnits="userSpaceOnUse"><stop offset="0" stop-color="#fff" stop-opacity="0.95"/><stop offset="1" stop-color="#fff" stop-opacity="0.5"/></linearGradient></defs><title>gridsome</title><path d="M256,0h0C397.38,0,512,114.62,512,256h0c0,141.38-114.62,256-256,256h0C114.62,512,0,397.38,0,256H0C0,114.62,114.62,0,256,0Z" fill="#00a672"/><path d="M84.1,256.16c.41,104.76,86.39,174,173.32,171.84C360,424.34,434.17,335.2,428,255.64a31.56,31.56,0,0,0-32.64-28.54,30,30,0,0,0-28.55,31.41c2.32,48.36-42.27,107.58-110.87,109.48-54.49,1.34-109-41.44-111.43-108A29.77,29.77,0,0,1,116,288.64c-16.56.66-31.13-12.71-31.79-29.27Q84.13,257.77,84.1,256.16Z" fill-rule="evenodd" fill="url(#a)"/><path d="M225.55,257.78a30.8,30.8,0,1,1,30.8,30.77A30.79,30.79,0,0,1,225.55,257.78Z" fill="#fff"/><path d="M320.37,257.73a30.86,30.86,0,0,1,31-30.72h45.18c17.13,0,31.44,13.75,31.44,30.72s-14.31,30.73-31.44,30.73H351.38A30.87,30.87,0,0,1,320.37,257.73Z" fill="#fff"/><path d="M286.28,114a30,30,0,0,1-28.74,31.23c-71.5,3-115.16,59-113,112.21A29.81,29.81,0,0,1,116,288.64c-16.56.66-31.13-12.71-31.79-29.27C80.73,172.66,153.13,87,255.05,85.27A30,30,0,0,1,286.28,114Z" fill="#fff" fill-rule="evenodd"/></svg>