<svg xmlns="http://www.w3.org/2000/svg" viewBox="0 0 670 400"><defs><style>.a{fill:#2b2e3a;}.b{fill:#00c58e;}.c{fill:#2f495e;}.d{fill:#108775;}</style></defs><path class="a" d="M105.48,33.56a2,2,0,0,1-.54-1.46V7.9a2,2,0,0,1,.54-1.46A2,2,0,0,1,107,5.9h7.84q6.84,0,10.6,3.68T129.18,20q0,6.72-3.76,10.42t-10.6,3.7H107A2,2,0,0,1,105.48,33.56ZM125,20q0-10.63-10.4-10.64h-5.52V30.66h5.52Q125,30.66,125,20Z"/><path class="a" d="M150.5,29.62a1.71,1.71,0,0,1,.36,1.12,2.3,2.3,0,0,1-1.44,2,12.74,12.74,0,0,1-3.06,1.24,12.6,12.6,0,0,1-3.18.44,9.86,9.86,0,0,1-7.32-2.7,10,10,0,0,1-2.68-7.38A11.54,11.54,0,0,1,134.36,19a8.64,8.64,0,0,1,3.32-3.6,9.31,9.31,0,0,1,4.86-1.28,8,8,0,0,1,6.2,2.52,9.76,9.76,0,0,1,2.28,6.8c0,1.07-.48,1.6-1.44,1.6H137.22q.39,6.19,6,6.2a7.32,7.32,0,0,0,2.56-.4,18.62,18.62,0,0,0,2.28-1c.08-.05.3-.17.66-.34a2.24,2.24,0,0,1,.9-.26A1.15,1.15,0,0,1,150.5,29.62ZM138.9,18.54a6.89,6.89,0,0,0-1.68,4.16h10.32a6.69,6.69,0,0,0-1.38-4.18,4.44,4.44,0,0,0-3.54-1.46A4.86,4.86,0,0,0,138.9,18.54Z"/><path class="a" d="M155.58,32.7a3,3,0,0,1-1-.92,2,2,0,0,1-.3-1.08,1.64,1.64,0,0,1,.36-1.08,1.14,1.14,0,0,1,.92-.44,3.94,3.94,0,0,1,1.64.64,16.83,16.83,0,0,0,2.34,1,8.64,8.64,0,0,0,2.86.4,5.65,5.65,0,0,0,3-.68,2.14,2.14,0,0,0,1.08-1.92,1.88,1.88,0,0,0-.42-1.28,3.55,3.55,0,0,0-1.46-.86,25.25,25.25,0,0,0-3.08-.82,11.81,11.81,0,0,1-5.06-2.06,4.39,4.39,0,0,1-1.54-3.54,5.13,5.13,0,0,1,1-3.1,6.44,6.44,0,0,1,2.76-2.14,9.91,9.91,0,0,1,4-.76,11.62,11.62,0,0,1,3.12.42,8.89,8.89,0,0,1,2.68,1.22,2.49,2.49,0,0,1,1.32,2,1.6,1.6,0,0,1-.38,1.08,1.17,1.17,0,0,1-.9.44,1.71,1.71,0,0,1-.72-.16,10.23,10.23,0,0,1-1-.52,13.43,13.43,0,0,0-2-1,6.62,6.62,0,0,0-2.34-.36,4.59,4.59,0,0,0-2.7.72,2.27,2.27,0,0,0-1,2,2,2,0,0,0,.94,1.74,11.49,11.49,0,0,0,3.54,1.18,19.45,19.45,0,0,1,4.2,1.28,5,5,0,0,1,2.18,1.78,5,5,0,0,1,.66,2.7,4.93,4.93,0,0,1-2.18,4.18,9.74,9.74,0,0,1-5.82,1.58A12.1,12.1,0,0,1,155.58,32.7Z"/><path class="a" d="M191.86,32.42a1.89,1.89,0,0,1-.52,1.32,1.65,1.65,0,0,1-1.24.56,2,2,0,0,1-1.36-.56l-10-8.8v7.4a1.86,1.86,0,0,1-.56,1.46,2.12,2.12,0,0,1-1.44.5,2.16,2.16,0,0,1-1.46-.5,1.81,1.81,0,0,1-.58-1.46V7.66a1.81,1.81,0,0,1,.58-1.46,2.16,2.16,0,0,1,1.46-.5,2.12,2.12,0,0,1,1.44.5,1.86,1.86,0,0,1,.56,1.46V23.34l9.12-8.52a2,2,0,0,1,1.32-.6,1.84,1.84,0,0,1,1.32.56,1.81,1.81,0,0,1,.56,1.32,1.91,1.91,0,0,1-.68,1.4L183.3,24l7.84,6.92A1.85,1.85,0,0,1,191.86,32.42Z"/><path class="a" d="M206.12,31.68a1.45,1.45,0,0,1,.38,1.06,1.39,1.39,0,0,1-.62,1.22,2.91,2.91,0,0,1-1.82.34L203,34.22a7,7,0,0,1-4.84-2,7.33,7.33,0,0,1-1.6-5.14V17.7h-2.4c-1.17,0-1.76-.52-1.76-1.56a1.46,1.46,0,0,1,.46-1.14,1.86,1.86,0,0,1,1.3-.42h2.4V10.46A1.92,1.92,0,0,1,197.08,9a2,2,0,0,1,1.46-.52A2.07,2.07,0,0,1,200,9a1.89,1.89,0,0,1,.56,1.44v4.12h4a1.86,1.86,0,0,1,1.3.42,1.46,1.46,0,0,1,.46,1.14,1.44,1.44,0,0,1-.46,1.16,1.91,1.91,0,0,1-1.3.4h-4v9.68a4.1,4.1,0,0,0,.78,2.76,3.36,3.36,0,0,0,2.38,1l1.12.08A2,2,0,0,1,206.12,31.68Z"/><path class="a" d="M212.84,33.14a8.39,8.39,0,0,1-3.36-3.54,11.48,11.48,0,0,1-1.18-5.34,11.59,11.59,0,0,1,1.18-5.38,8.39,8.39,0,0,1,3.36-3.54,10.94,10.94,0,0,1,10.12,0,8.45,8.45,0,0,1,3.36,3.54,11.72,11.72,0,0,1,1.18,5.38,11.61,11.61,0,0,1-1.18,5.34A8.45,8.45,0,0,1,223,33.14a10.94,10.94,0,0,1-10.12,0ZM222,29.42a8.1,8.1,0,0,0,1.42-5.16A8,8,0,0,0,222,19.12a5.57,5.57,0,0,0-8.16,0,8,8,0,0,0-1.44,5.14,8,8,0,0,0,1.42,5.16,5.66,5.66,0,0,0,8.2,0Z"/><path class="a" d="M247,15.38A8.45,8.45,0,0,1,250,19a12.43,12.43,0,0,1,1.1,5.36,12.2,12.2,0,0,1-1.08,5.28A8.17,8.17,0,0,1,247,33.14a8.36,8.36,0,0,1-4.54,1.24,7.77,7.77,0,0,1-3.88-.94,6.19,6.19,0,0,1-2.56-2.7v8.92a1.73,1.73,0,0,1-.54,1.34,2,2,0,0,1-1.42.5,2.12,2.12,0,0,1-1.5-.52,1.78,1.78,0,0,1-.58-1.4V16.14a1.85,1.85,0,0,1,.56-1.42,2.24,2.24,0,0,1,2.92,0,1.89,1.89,0,0,1,.56,1.42v1.64a6.29,6.29,0,0,1,2.56-2.72,7.67,7.67,0,0,1,3.88-1A8.13,8.13,0,0,1,247,15.38Zm-1.38,14A7.86,7.86,0,0,0,247,24.34a8.14,8.14,0,0,0-1.46-5.16,5.44,5.44,0,0,0-8.12,0A8.08,8.08,0,0,0,236,24.26a8.08,8.08,0,0,0,1.42,5.12,4.86,4.86,0,0,0,4.06,1.8A4.94,4.94,0,0,0,245.58,29.4Z"/><path class="a" d="M291.74,32.5a1.62,1.62,0,0,1-.62,1.28,2.1,2.1,0,0,1-1.38.52,1.74,1.74,0,0,1-1-.3,1.87,1.87,0,0,1-.7-.86l-2.64-6H270.78l-2.64,6a1.85,1.85,0,0,1-.72.86,1.88,1.88,0,0,1-1,.3,2.11,2.11,0,0,1-1.42-.52,1.59,1.59,0,0,1-.62-1.28,2.06,2.06,0,0,1,.2-.8L275.86,7a2,2,0,0,1,.9-1,2.52,2.52,0,0,1,1.3-.36,2.58,2.58,0,0,1,1.3.36,2.13,2.13,0,0,1,.9,1L291.54,31.7A2.26,2.26,0,0,1,291.74,32.5Zm-19.48-8.64H284L278.1,10.62Z"/><path class="a" d="M310.52,15.38A8.52,8.52,0,0,1,313.6,19a12.43,12.43,0,0,1,1.1,5.36,12.2,12.2,0,0,1-1.08,5.28,8.17,8.17,0,0,1-3.06,3.52A8.36,8.36,0,0,1,306,34.38a7.77,7.77,0,0,1-3.88-.94,6.19,6.19,0,0,1-2.56-2.7v8.92A1.73,1.73,0,0,1,299,41a2,2,0,0,1-1.42.5,2.12,2.12,0,0,1-1.5-.52,1.78,1.78,0,0,1-.58-1.4V16.14a1.85,1.85,0,0,1,.56-1.42,2.24,2.24,0,0,1,2.92,0,1.89,1.89,0,0,1,.56,1.42v1.64a6.29,6.29,0,0,1,2.56-2.72,7.67,7.67,0,0,1,3.88-1A8.13,8.13,0,0,1,310.52,15.38Zm-1.38,14a7.86,7.86,0,0,0,1.44-5.06,8.14,8.14,0,0,0-1.46-5.16,5.44,5.44,0,0,0-8.12,0,8.08,8.08,0,0,0-1.42,5.12A8.08,8.08,0,0,0,301,29.38a4.86,4.86,0,0,0,4.06,1.8A4.94,4.94,0,0,0,309.14,29.4Z"/><path class="a" d="M334.16,15.38a8.52,8.52,0,0,1,3.08,3.6,12.43,12.43,0,0,1,1.1,5.36,12.2,12.2,0,0,1-1.08,5.28,8.17,8.17,0,0,1-3.06,3.52,8.36,8.36,0,0,1-4.54,1.24,7.77,7.77,0,0,1-3.88-.94,6.19,6.19,0,0,1-2.56-2.7v8.92a1.73,1.73,0,0,1-.54,1.34,2,2,0,0,1-1.42.5,2.12,2.12,0,0,1-1.5-.52,1.78,1.78,0,0,1-.58-1.4V16.14a1.85,1.85,0,0,1,.56-1.42,2.24,2.24,0,0,1,2.92,0,1.89,1.89,0,0,1,.56,1.42v1.64a6.29,6.29,0,0,1,2.56-2.72,7.67,7.67,0,0,1,3.88-1A8.13,8.13,0,0,1,334.16,15.38Zm-1.38,14a7.86,7.86,0,0,0,1.44-5.06,8.14,8.14,0,0,0-1.46-5.16,5.44,5.44,0,0,0-8.12,0,8.08,8.08,0,0,0-1.42,5.12,8.08,8.08,0,0,0,1.42,5.12,4.86,4.86,0,0,0,4.06,1.8A4.94,4.94,0,0,0,332.78,29.4Z"/><path class="a" d="M343.4,33.82a1.75,1.75,0,0,1-.58-1.44V7.66a1.81,1.81,0,0,1,.58-1.46,2.16,2.16,0,0,1,1.46-.5,2.12,2.12,0,0,1,1.44.5,1.86,1.86,0,0,1,.56,1.46V32.38a1.8,1.8,0,0,1-.56,1.44,2.16,2.16,0,0,1-1.44.48A2.19,2.19,0,0,1,343.4,33.82Z"/><path class="a" d="M352.7,9.62A2.19,2.19,0,0,1,352,7.94a2.11,2.11,0,0,1,.68-1.66,2.63,2.63,0,0,1,1.84-.62,2.68,2.68,0,0,1,1.82.62,2.13,2.13,0,0,1,.7,1.66,2.22,2.22,0,0,1-.68,1.68,2.58,2.58,0,0,1-1.84.64A2.55,2.55,0,0,1,352.7,9.62Zm.38,24.2a1.75,1.75,0,0,1-.58-1.44V16.14a1.81,1.81,0,0,1,.58-1.46,2.16,2.16,0,0,1,1.46-.5,2.12,2.12,0,0,1,1.44.5,1.86,1.86,0,0,1,.56,1.46V32.38a1.8,1.8,0,0,1-.56,1.44,2.16,2.16,0,0,1-1.44.48A2.19,2.19,0,0,1,353.08,33.82Z"/><path class="a" d="M365.56,33.14a8.42,8.42,0,0,1-3.32-3.52,11.29,11.29,0,0,1-1.18-5.28A11.27,11.27,0,0,1,362.28,19a8.74,8.74,0,0,1,3.42-3.6,9.83,9.83,0,0,1,5-1.28,11.26,11.26,0,0,1,3.06.44,10.34,10.34,0,0,1,2.74,1.2,2.51,2.51,0,0,1,1.28,2,1.81,1.81,0,0,1-.36,1.14,1.11,1.11,0,0,1-.92.46,1.6,1.6,0,0,1-.72-.18,9.92,9.92,0,0,1-.92-.54,11.28,11.28,0,0,0-1.86-1,5.56,5.56,0,0,0-2.06-.34,5.12,5.12,0,0,0-4.22,1.84,7.89,7.89,0,0,0-1.5,5.12,7.69,7.69,0,0,0,1.48,5.06,5.13,5.13,0,0,0,4.2,1.78,5.82,5.82,0,0,0,2.12-.36,11.54,11.54,0,0,0,1.88-1,5.84,5.84,0,0,1,.88-.48,2,2,0,0,1,.8-.2,1.11,1.11,0,0,1,.92.46,1.81,1.81,0,0,1,.36,1.14,1.84,1.84,0,0,1-.3,1,3.5,3.5,0,0,1-1,.94,9.68,9.68,0,0,1-2.8,1.24,12.34,12.34,0,0,1-3.24.44A9.69,9.69,0,0,1,365.56,33.14Z"/><path class="a" d="M395.48,16.06c1.26,1.31,1.89,3.29,1.89,6V32.38a1.87,1.87,0,0,1-.52,1.42,2,2,0,0,1-1.44.5,1.86,1.86,0,0,1-1.39-.52,1.88,1.88,0,0,1-.53-1.4V30.9a5.59,5.59,0,0,1-2.26,2.58,6.65,6.65,0,0,1-3.5.9,7.82,7.82,0,0,1-3.5-.78,6.37,6.37,0,0,1-2.5-2.14,5.39,5.39,0,0,1-.92-3.08A4.69,4.69,0,0,1,381.9,25a6.72,6.72,0,0,1,3.63-1.76,35.23,35.23,0,0,1,7-.54h.92V21.54a4.68,4.68,0,0,0-.92-3.24,3.82,3.82,0,0,0-3-1,9.34,9.34,0,0,0-2.63.36,20.38,20.38,0,0,0-2.73,1,3.88,3.88,0,0,1-1.52.6,1.26,1.26,0,0,1-1-.44,1.67,1.67,0,0,1-.38-1.12,1.73,1.73,0,0,1,.35-1.06,3.44,3.44,0,0,1,1.09-.9,13.76,13.76,0,0,1,3.29-1.22,15,15,0,0,1,3.63-.46Q393.57,14.1,395.48,16.06Zm-3.42,13.82A5.45,5.45,0,0,0,393.45,26V25h-.72a30.6,30.6,0,0,0-4.79.28,4.78,4.78,0,0,0-2.41.94,2.48,2.48,0,0,0-.72,1.9,3,3,0,0,0,1,2.36,3.81,3.81,0,0,0,2.6.92A4.73,4.73,0,0,0,392.06,29.88Z"/><path class="a" d="M413.71,31.68a1.41,1.41,0,0,1,.38,1.06,1.37,1.37,0,0,1-.62,1.22,2.91,2.91,0,0,1-1.82.34l-1.08-.08a7,7,0,0,1-4.84-2,7.38,7.38,0,0,1-1.6-5.14V17.7h-2.4c-1.17,0-1.76-.52-1.76-1.56a1.49,1.49,0,0,1,.46-1.14,1.86,1.86,0,0,1,1.3-.42h2.4V10.46A1.92,1.92,0,0,1,404.67,9a2,2,0,0,1,1.46-.52,2.06,2.06,0,0,1,1.48.52,1.85,1.85,0,0,1,.56,1.44v4.12h4a1.85,1.85,0,0,1,1.3.42,1.46,1.46,0,0,1,.46,1.14,1.44,1.44,0,0,1-.46,1.16,1.89,1.89,0,0,1-1.3.4h-4v9.68a4.1,4.1,0,0,0,.78,2.76,3.37,3.37,0,0,0,2.38,1l1.12.08A2,2,0,0,1,413.71,31.68Z"/><path class="a" d="M417.21,9.62a2.22,2.22,0,0,1-.68-1.68,2.15,2.15,0,0,1,.68-1.66,3,3,0,0,1,3.66,0,2.1,2.1,0,0,1,.7,1.66,2.19,2.19,0,0,1-.68,1.68,2.55,2.55,0,0,1-1.84.64A2.58,2.58,0,0,1,417.21,9.62Zm.38,24.2a1.78,1.78,0,0,1-.58-1.44V16.14a1.84,1.84,0,0,1,.58-1.46,2.19,2.19,0,0,1,1.46-.5,2.08,2.08,0,0,1,1.44.5,1.83,1.83,0,0,1,.56,1.46V32.38a1.77,1.77,0,0,1-.56,1.44,2.12,2.12,0,0,1-1.44.48A2.23,2.23,0,0,1,417.59,33.82Z"/><path class="a" d="M430.11,33.14a8.45,8.45,0,0,1-3.36-3.54,11.61,11.61,0,0,1-1.18-5.34,11.72,11.72,0,0,1,1.18-5.38,8.45,8.45,0,0,1,3.36-3.54,10.94,10.94,0,0,1,10.12,0,8.33,8.33,0,0,1,3.36,3.54,11.59,11.59,0,0,1,1.18,5.38,11.48,11.48,0,0,1-1.18,5.34,8.33,8.33,0,0,1-3.36,3.54,10.94,10.94,0,0,1-10.12,0Zm9.16-3.72a8,8,0,0,0,1.42-5.16,8,8,0,0,0-1.44-5.14,5.57,5.57,0,0,0-8.16,0,8,8,0,0,0-1.44,5.14,8.1,8.1,0,0,0,1.42,5.16,5.66,5.66,0,0,0,8.2,0Z"/><path class="a" d="M466.77,22v10.4a1.84,1.84,0,0,1-.54,1.42,2.14,2.14,0,0,1-1.5.5,2,2,0,0,1-1.46-.52,1.85,1.85,0,0,1-.54-1.4V22.18a5.54,5.54,0,0,0-1-3.64,3.79,3.79,0,0,0-3.06-1.16,5.25,5.25,0,0,0-3.92,1.52A5.61,5.61,0,0,0,453.29,23v9.4a1.85,1.85,0,0,1-.54,1.4,2,2,0,0,1-1.46.52,2.09,2.09,0,0,1-1.48-.52,1.83,1.83,0,0,1-.56-1.4V16.1a1.83,1.83,0,0,1,.58-1.38,2.08,2.08,0,0,1,1.46-.54,1.86,1.86,0,0,1,1.4.52,1.83,1.83,0,0,1,.52,1.36V17.7A6.53,6.53,0,0,1,455.89,15a8.14,8.14,0,0,1,3.88-.92Q466.78,14.1,466.77,22Z"/><path class="a" d="M472.41,32.7a3,3,0,0,1-1-.92,2,2,0,0,1-.3-1.08,1.64,1.64,0,0,1,.36-1.08,1.15,1.15,0,0,1,.92-.44,3.85,3.85,0,0,1,1.64.64,16.83,16.83,0,0,0,2.34,1,8.68,8.68,0,0,0,2.86.4,5.65,5.65,0,0,0,3-.68,2.14,2.14,0,0,0,1.08-1.92,1.88,1.88,0,0,0-.42-1.28,3.48,3.48,0,0,0-1.46-.86,24.74,24.74,0,0,0-3.08-.82,11.92,11.92,0,0,1-5.06-2.06,4.42,4.42,0,0,1-1.54-3.54,5.19,5.19,0,0,1,1-3.1,6.56,6.56,0,0,1,2.76-2.14,10,10,0,0,1,4-.76,11.62,11.62,0,0,1,3.12.42,8.78,8.78,0,0,1,2.68,1.22,2.49,2.49,0,0,1,1.32,2,1.55,1.55,0,0,1-.38,1.08,1.16,1.16,0,0,1-.9.44,1.71,1.71,0,0,1-.72-.16,10.23,10.23,0,0,1-1-.52,13,13,0,0,0-2-1,6.54,6.54,0,0,0-2.34-.36,4.59,4.59,0,0,0-2.7.72,2.27,2.27,0,0,0-1,2,2,2,0,0,0,.94,1.74,11.59,11.59,0,0,0,3.54,1.18,19.1,19.1,0,0,1,4.2,1.28,4.92,4.92,0,0,1,2.18,1.78,5,5,0,0,1,.66,2.7,4.91,4.91,0,0,1-2.18,4.18,9.72,9.72,0,0,1-5.82,1.58A12.12,12.12,0,0,1,472.41,32.7Z"/><path class="a" d="M539.09,6a1.93,1.93,0,0,1,1.08-.32,2,2,0,0,1,1.34.5,1.63,1.63,0,0,1,.58,1.3,1.91,1.91,0,0,1-.16.8L533.09,33a2.09,2.09,0,0,1-.88,1,2.52,2.52,0,0,1-1.32.36,2.46,2.46,0,0,1-1.28-.36,1.93,1.93,0,0,1-.84-1l-7.28-20.64L514.05,33a1.93,1.93,0,0,1-.84,1,2.49,2.49,0,0,1-2.58,0,2.22,2.22,0,0,1-.86-1L500.93,8.26a2.08,2.08,0,0,1-.16-.8,1.61,1.61,0,0,1,.6-1.3,2.19,2.19,0,0,1,1.44-.5,2,2,0,0,1,1.1.32,1.82,1.82,0,0,1,.74,1l7.4,21.28,7.52-21.08a2,2,0,0,1,.78-1,2.1,2.1,0,0,1,1.18-.36,1.92,1.92,0,0,1,1.16.38,2.34,2.34,0,0,1,.8,1.06l7.36,21.24,7.52-21.48A1.89,1.89,0,0,1,539.09,6Z"/><path class="a" d="M548.57,9.62a2.22,2.22,0,0,1-.68-1.68,2.15,2.15,0,0,1,.68-1.66,3,3,0,0,1,3.66,0,2.1,2.1,0,0,1,.7,1.66,2.22,2.22,0,0,1-.68,1.68,3,3,0,0,1-3.68,0Zm.38,24.2a1.75,1.75,0,0,1-.58-1.44V16.14a1.81,1.81,0,0,1,.58-1.46,2.17,2.17,0,0,1,1.46-.5,2.08,2.08,0,0,1,1.44.5,1.83,1.83,0,0,1,.56,1.46V32.38a1.77,1.77,0,0,1-.56,1.44,2.12,2.12,0,0,1-1.44.48A2.21,2.21,0,0,1,549,33.82Z"/><path class="a" d="M569.43,31.68a1.45,1.45,0,0,1,.38,1.06,1.39,1.39,0,0,1-.62,1.22,2.91,2.91,0,0,1-1.82.34l-1.08-.08a7,7,0,0,1-4.84-2,7.33,7.33,0,0,1-1.6-5.14V17.7h-2.4c-1.17,0-1.76-.52-1.76-1.56a1.46,1.46,0,0,1,.46-1.14,1.86,1.86,0,0,1,1.3-.42h2.4V10.46A1.92,1.92,0,0,1,560.39,9a2,2,0,0,1,1.46-.52,2.07,2.07,0,0,1,1.48.52,1.89,1.89,0,0,1,.56,1.44v4.12h4a1.86,1.86,0,0,1,1.3.42,1.46,1.46,0,0,1,.46,1.14,1.44,1.44,0,0,1-.46,1.16,1.91,1.91,0,0,1-1.3.4h-4v9.68a4.1,4.1,0,0,0,.78,2.76,3.36,3.36,0,0,0,2.38,1l1.12.08A2,2,0,0,1,569.43,31.68Z"/><path class="a" d="M590.25,22v10.4a1.83,1.83,0,0,1-.56,1.4,2.07,2.07,0,0,1-1.48.52,2,2,0,0,1-1.46-.52,1.85,1.85,0,0,1-.54-1.4V22a5.28,5.28,0,0,0-1-3.52,3.84,3.84,0,0,0-3.06-1.12,5.24,5.24,0,0,0-3.92,1.52A5.57,5.57,0,0,0,576.77,23v9.4a1.85,1.85,0,0,1-.54,1.4,2,2,0,0,1-1.46.52,2.07,2.07,0,0,1-1.48-.52,1.83,1.83,0,0,1-.56-1.4V7.62a1.78,1.78,0,0,1,.58-1.4,2.16,2.16,0,0,1,1.5-.52,2,2,0,0,1,1.42.5,1.73,1.73,0,0,1,.54,1.34v10A6.73,6.73,0,0,1,579.45,15a8.11,8.11,0,0,1,3.84-.88Q590.25,14.1,590.25,22Z"/><path class="a" d="M117.69,67.85a2.88,2.88,0,0,1,.74,2.06v33.6a2.82,2.82,0,0,1-.77,2.07,2.63,2.63,0,0,1-2,.8,2.53,2.53,0,0,1-2.2-1.11L91.92,76.84v26.67a2.89,2.89,0,0,1-.74,2.07,2.55,2.55,0,0,1-2,.8,2.49,2.49,0,0,1-1.93-.78,3,3,0,0,1-.71-2.09V69.91a2.81,2.81,0,0,1,.77-2.06,2.63,2.63,0,0,1,2-.8,2.54,2.54,0,0,1,2.2,1.1L113.1,96.64V69.91a3,3,0,0,1,.71-2.06,2.47,2.47,0,0,1,1.93-.8A2.55,2.55,0,0,1,117.69,67.85Z"/><path class="a" d="M149.59,79.42a2.61,2.61,0,0,1,.74,2v22.39a2.42,2.42,0,0,1-.77,1.87,2.85,2.85,0,0,1-2,.72,2.57,2.57,0,0,1-1.87-.69,2.45,2.45,0,0,1-.72-1.85v-2.09a8.52,8.52,0,0,1-3.49,3.52,10.2,10.2,0,0,1-5,1.21q-9.78,0-9.79-10.77V81.4a2.62,2.62,0,0,1,.75-2,2.86,2.86,0,0,1,2.06-.71,2.82,2.82,0,0,1,2,.71,2.65,2.65,0,0,1,.74,2V95.65a7.22,7.22,0,0,0,1.32,4.78,5.05,5.05,0,0,0,4.07,1.54,6.74,6.74,0,0,0,5.19-2.09,7.76,7.76,0,0,0,2-5.55V81.4a2.58,2.58,0,0,1,.77-2,2.82,2.82,0,0,1,2-.74A2.79,2.79,0,0,1,149.59,79.42Z"/><path class="a" d="M181.52,103.84a2.56,2.56,0,0,1-2.53,2.54,2.64,2.64,0,0,1-1.93-.94L168.65,96l-8.36,9.46a2.64,2.64,0,0,1-1.93.94,2.4,2.4,0,0,1-1.79-.78,2.52,2.52,0,0,1-.74-1.81,2.68,2.68,0,0,1,.77-1.87l8.69-9.57L157,83.17a2.86,2.86,0,0,1-.82-1.88,2.36,2.36,0,0,1,.77-1.78,2.45,2.45,0,0,1,1.76-.75,2.62,2.62,0,0,1,1.92.94l8,9,8-9a2.69,2.69,0,0,1,2-.94,2.45,2.45,0,0,1,1.76.75,2.36,2.36,0,0,1,.77,1.78,2.61,2.61,0,0,1-.82,1.88l-8.25,9.18,8.63,9.57A2.64,2.64,0,0,1,181.52,103.84Z"/><path class="a" d="M201.84,102.77a2,2,0,0,1,.52,1.46,1.91,1.91,0,0,1-.85,1.68,4,4,0,0,1-2.5.47l-1.49-.12c-3-.22-5.19-1.12-6.65-2.72s-2.2-4-2.2-7.07V83.55h-3.3c-1.62,0-2.42-.72-2.42-2.15a2,2,0,0,1,.63-1.56,2.54,2.54,0,0,1,1.79-.58h3.3V73.59a2.61,2.61,0,0,1,.74-2,2.79,2.79,0,0,1,2-.71,2.89,2.89,0,0,1,2,.71,2.59,2.59,0,0,1,.77,2v5.67h5.45a2.51,2.51,0,0,1,1.78.58,2.27,2.27,0,0,1,0,3.16,2.6,2.6,0,0,1-1.78.55h-5.45V96.86a5.62,5.62,0,0,0,1.07,3.79,4.65,4.65,0,0,0,3.28,1.38l1.54.11A2.74,2.74,0,0,1,201.84,102.77Z"/><path class="a" d="M207.5,105.38a3.36,3.36,0,0,1-1-2.53,3.45,3.45,0,0,1,1-2.55,3.42,3.42,0,0,1,2.51-1,3.3,3.3,0,0,1,2.47,1,3.52,3.52,0,0,1,1,2.55,3.42,3.42,0,0,1-1,2.53,3.35,3.35,0,0,1-2.47,1A3.48,3.48,0,0,1,207.5,105.38Z"/><path class="a" d="M214.13,115.67a1.87,1.87,0,0,1-.88-1.71,1.84,1.84,0,0,1,.55-1.4,2.86,2.86,0,0,1,1.76-.63l1.54-.11a4.38,4.38,0,0,0,3.22-1.32,5.75,5.75,0,0,0,1.07-3.85V81.4a2.5,2.5,0,0,1,.8-2,3,3,0,0,1,2-.69,2.89,2.89,0,0,1,2,.69,2.54,2.54,0,0,1,.76,2v24.92q0,4.62-2.14,7t-6.65,2.7l-1.49.11A4.26,4.26,0,0,1,214.13,115.67Zm7.54-43.23a3,3,0,0,1-.94-2.31,2.92,2.92,0,0,1,.94-2.28,3.58,3.58,0,0,1,2.52-.86,3.64,3.64,0,0,1,2.51.86,2.9,2.9,0,0,1,1,2.28,3,3,0,0,1-.93,2.31,3.55,3.55,0,0,1-2.54.88A3.5,3.5,0,0,1,221.67,72.44Z"/><path class="a" d="M234.86,104.17a4.18,4.18,0,0,1-1.4-1.26,2.8,2.8,0,0,1-.41-1.49,2.31,2.31,0,0,1,.49-1.48,1.59,1.59,0,0,1,1.27-.61,5.46,5.46,0,0,1,2.25.88,22.28,22.28,0,0,0,3.22,1.43,12,12,0,0,0,3.94.55,7.74,7.74,0,0,0,4.12-.93,2.94,2.94,0,0,0,1.48-2.64,2.61,2.61,0,0,0-.57-1.76,5,5,0,0,0-2-1.18A33.26,33.26,0,0,0,243,94.55q-4.83-1-6.95-2.83a6,6,0,0,1-2.12-4.87,7,7,0,0,1,1.38-4.26,8.9,8.9,0,0,1,3.79-3,13.87,13.87,0,0,1,5.5-1,15.8,15.8,0,0,1,4.29.58,12,12,0,0,1,3.68,1.67,3.43,3.43,0,0,1,1.82,2.81,2.16,2.16,0,0,1-.52,1.48,1.57,1.57,0,0,1-1.24.61,2.37,2.37,0,0,1-1-.22,14,14,0,0,1-1.32-.72,19.17,19.17,0,0,0-2.78-1.37,9,9,0,0,0-3.22-.5,6.31,6.31,0,0,0-3.71,1,3.14,3.14,0,0,0-1.4,2.7A2.7,2.7,0,0,0,240.5,89a15.76,15.76,0,0,0,4.87,1.62,27.17,27.17,0,0,1,5.78,1.76,6.9,6.9,0,0,1,.9,11.91,13.33,13.33,0,0,1-8,2.17A16.68,16.68,0,0,1,234.86,104.17Z"/><path class="a" d="M298.37,79Q301.22,82,301.22,88v15.54a2.82,2.82,0,0,1-.78,2.13,3,3,0,0,1-2.16.75,2.69,2.69,0,0,1-2.88-2.88V101.3a8.44,8.44,0,0,1-3.39,3.87,10,10,0,0,1-5.25,1.35,11.7,11.7,0,0,1-5.25-1.17,9.5,9.5,0,0,1-3.75-3.21,8.05,8.05,0,0,1-1.38-4.62A7,7,0,0,1,278,92.45a10.13,10.13,0,0,1,5.46-2.64A52.78,52.78,0,0,1,294,89h1.38V87.26q0-3.36-1.38-4.86a5.78,5.78,0,0,0-4.44-1.5,14.14,14.14,0,0,0-4,.54A29.77,29.77,0,0,0,281.48,83a5.88,5.88,0,0,1-2.28.9,1.85,1.85,0,0,1-1.47-.66,2.48,2.48,0,0,1-.57-1.68,2.6,2.6,0,0,1,.51-1.59,5.37,5.37,0,0,1,1.65-1.35,20.51,20.51,0,0,1,4.92-1.83,23,23,0,0,1,5.46-.69Q295.52,76.1,298.37,79Zm-5.13,20.73a8.15,8.15,0,0,0,2.1-5.79V92.42h-1.08a46.74,46.74,0,0,0-7.2.42,7.06,7.06,0,0,0-3.6,1.41,3.67,3.67,0,0,0-1.08,2.85,4.51,4.51,0,0,0,1.56,3.54,5.67,5.67,0,0,0,3.9,1.38A7.06,7.06,0,0,0,293.24,99.77Z"/><path class="a" d="M335.78,87.92v15.6a2.76,2.76,0,0,1-.81,2.13,3.19,3.19,0,0,1-2.25.75,3,3,0,0,1-2.19-.78,2.78,2.78,0,0,1-.81-2.1V88.22q0-3.72-1.47-5.46A5.68,5.68,0,0,0,323.66,81a7.83,7.83,0,0,0-5.88,2.28,8.4,8.4,0,0,0-2.22,6.12v14.1a2.78,2.78,0,0,1-.81,2.1,3,3,0,0,1-2.19.78,3.13,3.13,0,0,1-2.22-.78,2.73,2.73,0,0,1-.84-2.1V79.1a2.7,2.7,0,0,1,.87-2.07,3.09,3.09,0,0,1,2.19-.81,2.84,2.84,0,0,1,2.1.78,2.76,2.76,0,0,1,.78,2V81.5a9.73,9.73,0,0,1,4-4,12.14,12.14,0,0,1,5.82-1.38Q335.78,76.1,335.78,87.92Z"/><path class="a" d="M370.22,64.28a2.73,2.73,0,0,1,.84,2.1v37.08a2.86,2.86,0,0,1-.81,2.16,3.46,3.46,0,0,1-4.38,0,2.86,2.86,0,0,1-.81-2.16v-2.4a9.28,9.28,0,0,1-3.84,4,11.72,11.72,0,0,1-5.82,1.41,12.16,12.16,0,0,1-6.75-1.92A12.76,12.76,0,0,1,344,99.2a18.42,18.42,0,0,1-1.65-8,18.17,18.17,0,0,1,1.65-8A12.11,12.11,0,0,1,355.4,76.1a11.55,11.55,0,0,1,5.79,1.41,9.41,9.41,0,0,1,3.81,4V66.26a2.61,2.61,0,0,1,.81-2A3.1,3.1,0,0,1,368,63.5,3.13,3.13,0,0,1,370.22,64.28ZM362.9,99q2.16-2.7,2.16-7.68t-2.13-7.68a7.3,7.3,0,0,0-6.09-2.7,7.51,7.51,0,0,0-6.15,2.67q-2.19,2.67-2.19,7.59t2.22,7.71A8.13,8.13,0,0,0,362.9,99Z"/><path class="a" d="M396.89,105.29a3,3,0,0,1-.81-2.19V66.8a3,3,0,0,1,.81-2.19,3,3,0,0,1,2.25-.81h22.08a3.12,3.12,0,0,1,2.13.66,2.35,2.35,0,0,1,.75,1.86,2.26,2.26,0,0,1-.75,1.83,3.22,3.22,0,0,1-2.13.63H402.14V82.1H420a3.12,3.12,0,0,1,2.13.66,2.68,2.68,0,0,1,0,3.72,3.12,3.12,0,0,1-2.13.66H402.14v14h19.08q2.88,0,2.88,2.46a2.35,2.35,0,0,1-.75,1.86,3.12,3.12,0,0,1-2.13.66H399.14A3,3,0,0,1,396.89,105.29Z"/><path class="a" d="M431.33,105.68a2.61,2.61,0,0,1-.87-2.16V66.44a2.7,2.7,0,0,1,.87-2.19,3.22,3.22,0,0,1,2.19-.75,3.14,3.14,0,0,1,2.16.75,2.82,2.82,0,0,1,.84,2.19v37.08a2.72,2.72,0,0,1-.84,2.16,3.22,3.22,0,0,1-2.16.72A3.3,3.3,0,0,1,431.33,105.68Z"/><path class="a" d="M469.27,99.38a2.51,2.51,0,0,1,.54,1.68c0,1.16-.71,2.14-2.16,2.94a19,19,0,0,1-4.59,1.86,18.61,18.61,0,0,1-4.77.66q-7,0-11-4t-4-11.07a17.36,17.36,0,0,1,1.77-8,13,13,0,0,1,5-5.4,13.93,13.93,0,0,1,7.29-1.92,12,12,0,0,1,9.31,3.78c2.27,2.52,3.42,5.92,3.42,10.2,0,1.6-.73,2.4-2.16,2.4H449.35q.6,9.3,8.94,9.3a11.12,11.12,0,0,0,3.85-.6,28.63,28.63,0,0,0,3.42-1.56c.12-.08.45-.25,1-.51a3.27,3.27,0,0,1,1.36-.39A1.7,1.7,0,0,1,469.27,99.38Zm-17.4-16.62A10.37,10.37,0,0,0,449.35,89h15.48a10,10,0,0,0-2.06-6.27,6.66,6.66,0,0,0-5.32-2.19A7.32,7.32,0,0,0,451.87,82.76Z"/><path class="a" d="M481.78,104.66a12.7,12.7,0,0,1-5-5.28,18.59,18.59,0,0,1,.06-16A13.23,13.23,0,0,1,482,78a14.75,14.75,0,0,1,7.56-1.92,16.64,16.64,0,0,1,4.59.66,15.69,15.69,0,0,1,4.11,1.8,3.73,3.73,0,0,1,1.92,3.06,2.69,2.69,0,0,1-.54,1.71,1.68,1.68,0,0,1-1.38.69,2.4,2.4,0,0,1-1.08-.27,15.58,15.58,0,0,1-1.38-.81A16.53,16.53,0,0,0,493,81.47a8.4,8.4,0,0,0-3.09-.51,7.71,7.71,0,0,0-6.33,2.76q-2.25,2.76-2.25,7.68T483.55,99a7.73,7.73,0,0,0,6.3,2.67,8.69,8.69,0,0,0,3.18-.54,17.11,17.11,0,0,0,2.82-1.44,10.74,10.74,0,0,1,1.32-.72,2.94,2.94,0,0,1,1.2-.3,1.68,1.68,0,0,1,1.38.69,2.69,2.69,0,0,1,.54,1.71,2.74,2.74,0,0,1-.45,1.53,5.33,5.33,0,0,1-1.53,1.41,14.39,14.39,0,0,1-4.2,1.86,18.25,18.25,0,0,1-4.86.66A14.63,14.63,0,0,1,481.78,104.66Z"/><path class="a" d="M522,102.47a2.15,2.15,0,0,1,.57,1.59,2.07,2.07,0,0,1-.93,1.83,4.34,4.34,0,0,1-2.73.51l-1.62-.12q-4.86-.36-7.26-3t-2.4-7.71V81.5h-3.6q-2.64,0-2.64-2.34a2.2,2.2,0,0,1,.69-1.71,2.79,2.79,0,0,1,1.95-.63h3.6V70.64a2.86,2.86,0,0,1,.81-2.16,3,3,0,0,1,2.19-.78,3.13,3.13,0,0,1,2.22.78,2.8,2.8,0,0,1,.84,2.16v6.18h5.94a2.79,2.79,0,0,1,2,.63,2.5,2.5,0,0,1,0,3.45,2.88,2.88,0,0,1-2,.6h-5.94V96a6.13,6.13,0,0,0,1.17,4.14,5.06,5.06,0,0,0,3.57,1.5l1.68.12A3,3,0,0,1,522,102.47Z"/><path class="a" d="M545.23,78.68a2.69,2.69,0,0,1-.66,2,3.56,3.56,0,0,1-2.28.78l-1.8.18a7.77,7.77,0,0,0-5.61,2.64,8.54,8.54,0,0,0-1.83,5.52v13.74a2.69,2.69,0,0,1-.84,2.16,3.2,3.2,0,0,1-2.16.72,3.32,3.32,0,0,1-2.19-.72,2.64,2.64,0,0,1-.87-2.16V79.1a2.66,2.66,0,0,1,.87-2.13,3.23,3.23,0,0,1,2.19-.75,2.85,2.85,0,0,1,2,.75,2.68,2.68,0,0,1,.81,2.07v2.88a8.81,8.81,0,0,1,3.48-4,11.69,11.69,0,0,1,5.16-1.62l.84-.06Q545.23,76,545.23,78.68Z"/><path class="a" d="M553.48,104.66a12.55,12.55,0,0,1-5-5.31,19.15,19.15,0,0,1,0-16.08,12.55,12.55,0,0,1,5-5.31,16.42,16.42,0,0,1,15.18,0,12.55,12.55,0,0,1,5,5.31,19.15,19.15,0,0,1,0,16.08,12.55,12.55,0,0,1-5,5.31,16.42,16.42,0,0,1-15.18,0Zm13.74-5.58q2.13-2.64,2.13-7.74t-2.16-7.71a8.35,8.35,0,0,0-12.24,0q-2.16,2.67-2.16,7.71t2.13,7.74a8.48,8.48,0,0,0,12.3,0Z"/><path class="a" d="M608.47,87.92v15.6a2.76,2.76,0,0,1-.81,2.13,3.19,3.19,0,0,1-2.25.75,3,3,0,0,1-2.19-.78,2.78,2.78,0,0,1-.81-2.1V88.22q0-3.72-1.47-5.46A5.68,5.68,0,0,0,596.35,81a7.83,7.83,0,0,0-5.88,2.28,8.4,8.4,0,0,0-2.22,6.12v14.1a2.78,2.78,0,0,1-.81,2.1,3,3,0,0,1-2.19.78,3.13,3.13,0,0,1-2.22-.78,2.73,2.73,0,0,1-.84-2.1V79.1a2.7,2.7,0,0,1,.87-2.07,3.09,3.09,0,0,1,2.19-.81,2.84,2.84,0,0,1,2.1.78,2.76,2.76,0,0,1,.78,2V81.5a9.73,9.73,0,0,1,4-4A12.14,12.14,0,0,1,598,76.1Q608.47,76.1,608.47,87.92Z"/><path class="a" d="M342.89,284l-23.34.07V261.2a3.6,3.6,0,1,0-7.19,0l.07,22.8H290.08a3.6,3.6,0,1,0,0,7.2h22.31V314a3.6,3.6,0,1,0,7.2,0V291.2h23.3a3.6,3.6,0,0,0,0-7.2Z"/><path class="a" d="M123,233.44c-24.82-4.52-44.46.21-52.28,13.76-5.84,10.11-4.17,23.52,4,37.85a2.55,2.55,0,1,0,4.47-2.44l-.06-.09c-7.4-12.91-8.84-24.48-4-32.77,6.5-11.26,24-15.48,47-11.3a2.55,2.55,0,0,0,.91-5Zm-35.32,69a159.14,159.14,0,0,0,38,30c36,20.8,74.36,26.35,93.25,13.47a2.55,2.55,0,0,0-2.79-4.26l-.08.05C199.15,353.23,162.73,348,128.22,328a154.16,154.16,0,0,1-36.73-29,2.55,2.55,0,1,0-3.78,3.41Z"/><path class="a" d="M212.91,299.38c16.25-19.21,21.93-38.53,14.12-52-5.74-10-17.89-15.21-34-15.42a2.55,2.55,0,0,0-.07,5.1c14.52.18,25,4.71,29.69,12.87,6.49,11.23,1.42,28.45-13.6,46.21a2.55,2.55,0,1,0,3.85,3.33Zm-41.79-65.1c-14.7,3.15-30.34,9.31-45.37,18-37.18,21.46-61.43,53.12-58.06,76.07a2.54,2.54,0,0,0,5-.68v-.06c-3-20.38,20-50.38,55.58-70.92a153.85,153.85,0,0,1,43.89-17.42,2.54,2.54,0,1,0-1-5Z"/><path class="a" d="M110.89,344.25c8.5,23.74,22.41,38.35,38,38.35,11.41,0,22-7.78,30.19-21.46a2.55,2.55,0,1,0-4.33-2.69.21.21,0,0,1,0,.06c-7.39,12.3-16.47,19-25.82,19-13,0-25.39-13-33.25-35a2.55,2.55,0,0,0-4.83,1.62.42.42,0,0,1,0,.1Zm77.64-4.64a160,160,0,0,0,6.77-47.19c0-42.18-14.77-78.54-35.79-87.88a2.55,2.55,0,0,0-2.07,4.65c18.75,8.33,32.76,42.84,32.76,83.23a154.59,154.59,0,0,1-6.53,45.67,2.55,2.55,0,0,0,4.84,1.59.25.25,0,0,0,0-.07Zm47.95-2.5A12.19,12.19,0,1,0,224.3,349.3,12.18,12.18,0,0,0,236.48,337.11Zm-5.09,0A7.1,7.1,0,1,1,224.3,330,7.09,7.09,0,0,1,231.39,337.11Zm-158,12.19a12.19,12.19,0,1,0-12.18-12.19A12.19,12.19,0,0,0,73.39,349.3Zm0-5.09a7.1,7.1,0,1,1,7.1-7.1A7.09,7.09,0,0,1,73.39,344.21Z"/><path class="a" d="M148.93,217a12.19,12.19,0,1,0-12.18-12.18A12.18,12.18,0,0,0,148.93,217Zm0-5.09a7.1,7.1,0,1,1,7.1-7.09A7.1,7.1,0,0,1,148.93,211.88ZM150.79,301a8.82,8.82,0,1,1,6.76-10.48A8.81,8.81,0,0,1,150.79,301Z"/><path class="b" d="M513.4,250.26l-7.62,13.2-26-45.16L399.68,356.9h54.19a13.2,13.2,0,0,0,13.2,13.2H399.68a13.2,13.2,0,0,1-11.43-19.8l80-138.6a13.2,13.2,0,0,1,22.86,0Z"/><path class="c" d="M571.18,350.3,521,263.46l-7.63-13.2-7.62,13.2L455.64,350.3a13.2,13.2,0,0,0,11.43,19.8h92.66a13.2,13.2,0,0,0,11.44-19.8Zm-104.11,6.6,46.33-80.25,46.33,80.25Z"/><path class="d" d="M607,363.5a13.2,13.2,0,0,1-11.43,6.6H559.73a13.2,13.2,0,0,0,13.2-13.2h22.65L531.32,245.62,521,263.45l-7.62-13.19L519.9,239a13.21,13.21,0,0,1,22.86,0L607,350.3A13.19,13.19,0,0,1,607,363.5Z"/></svg>