<svg xmlns="http://www.w3.org/2000/svg" viewBox="0 0 670 400"><defs><style>.a{fill:#2b2e3a;}.b{fill:#fff;}.c{fill:#639;}</style></defs><path class="a" d="M93.16,33.56a2,2,0,0,1-.54-1.46V7.9a2,2,0,0,1,.54-1.46,2,2,0,0,1,1.5-.54h7.84q6.84,0,10.6,3.68T116.86,20q0,6.72-3.76,10.42t-10.6,3.7H94.66A2,2,0,0,1,93.16,33.56ZM112.66,20q0-10.63-10.4-10.64H96.74V30.66h5.52Q112.67,30.66,112.66,20Z"/><path class="a" d="M138.18,29.62a1.71,1.71,0,0,1,.36,1.12,2.3,2.3,0,0,1-1.44,2,13.19,13.19,0,0,1-6.24,1.68,9.86,9.86,0,0,1-7.32-2.7,10,10,0,0,1-2.68-7.38A11.67,11.67,0,0,1,122,19a8.7,8.7,0,0,1,3.32-3.6,9.33,9.33,0,0,1,4.86-1.28,7.93,7.93,0,0,1,6.2,2.52,9.76,9.76,0,0,1,2.28,6.8c0,1.07-.48,1.6-1.44,1.6H124.9q.41,6.19,6,6.2a7.28,7.28,0,0,0,2.56-.4,18.62,18.62,0,0,0,2.28-1c.08-.05.3-.17.66-.34a2.24,2.24,0,0,1,.9-.26A1.14,1.14,0,0,1,138.18,29.62Zm-11.6-11.08a7,7,0,0,0-1.68,4.16h10.32a6.69,6.69,0,0,0-1.38-4.18,4.44,4.44,0,0,0-3.54-1.46A4.89,4.89,0,0,0,126.58,18.54Z"/><path class="a" d="M143.26,32.7a3,3,0,0,1-1-.92,2,2,0,0,1-.3-1.08,1.64,1.64,0,0,1,.36-1.08,1.15,1.15,0,0,1,.92-.44,3.85,3.85,0,0,1,1.64.64,16.83,16.83,0,0,0,2.34,1,8.68,8.68,0,0,0,2.86.4,5.65,5.65,0,0,0,3-.68,2.14,2.14,0,0,0,1.08-1.92,1.88,1.88,0,0,0-.42-1.28,3.48,3.48,0,0,0-1.46-.86,24.74,24.74,0,0,0-3.08-.82,11.92,11.92,0,0,1-5.06-2.06,4.42,4.42,0,0,1-1.54-3.54,5.19,5.19,0,0,1,1-3.1,6.56,6.56,0,0,1,2.76-2.14,10,10,0,0,1,4-.76,11.62,11.62,0,0,1,3.12.42,8.78,8.78,0,0,1,2.68,1.22,2.49,2.49,0,0,1,1.32,2,1.55,1.55,0,0,1-.38,1.08,1.16,1.16,0,0,1-.9.44,1.71,1.71,0,0,1-.72-.16,10.23,10.23,0,0,1-1-.52,13,13,0,0,0-2-1,6.54,6.54,0,0,0-2.34-.36,4.59,4.59,0,0,0-2.7.72,2.27,2.27,0,0,0-1,2,2,2,0,0,0,.94,1.74,11.59,11.59,0,0,0,3.54,1.18,19.1,19.1,0,0,1,4.2,1.28,4.92,4.92,0,0,1,2.18,1.78,5,5,0,0,1,.66,2.7,4.91,4.91,0,0,1-2.18,4.18,9.72,9.72,0,0,1-5.82,1.58A12.12,12.12,0,0,1,143.26,32.7Z"/><path class="a" d="M179.54,32.42a1.85,1.85,0,0,1-.52,1.32,1.64,1.64,0,0,1-1.24.56,2,2,0,0,1-1.36-.56l-10-8.8v7.4a1.83,1.83,0,0,1-.56,1.46,2.08,2.08,0,0,1-1.44.5,2.19,2.19,0,0,1-1.46-.5,1.84,1.84,0,0,1-.58-1.46V7.66A1.84,1.84,0,0,1,163,6.2a2.19,2.19,0,0,1,1.46-.5,2.08,2.08,0,0,1,1.44.5,1.83,1.83,0,0,1,.56,1.46V23.34l9.12-8.52a2.06,2.06,0,0,1,1.32-.6,1.81,1.81,0,0,1,1.32.56,1.77,1.77,0,0,1,.56,1.32,1.88,1.88,0,0,1-.68,1.4L171,24l7.84,6.92A1.85,1.85,0,0,1,179.54,32.42Z"/><path class="a" d="M193.8,31.68a1.41,1.41,0,0,1,.38,1.06,1.37,1.37,0,0,1-.62,1.22,2.91,2.91,0,0,1-1.82.34l-1.08-.08a7,7,0,0,1-4.84-2,7.38,7.38,0,0,1-1.6-5.14V17.7h-2.4c-1.17,0-1.76-.52-1.76-1.56a1.49,1.49,0,0,1,.46-1.14,1.86,1.86,0,0,1,1.3-.42h2.4V10.46A1.92,1.92,0,0,1,184.76,9a2,2,0,0,1,1.46-.52A2.06,2.06,0,0,1,187.7,9a1.85,1.85,0,0,1,.56,1.44v4.12h4a1.85,1.85,0,0,1,1.3.42,1.46,1.46,0,0,1,.46,1.14,1.44,1.44,0,0,1-.46,1.16,1.89,1.89,0,0,1-1.3.4h-4v9.68a4.1,4.1,0,0,0,.78,2.76,3.37,3.37,0,0,0,2.38,1l1.12.08A2,2,0,0,1,193.8,31.68Z"/><path class="a" d="M200.52,33.14a8.45,8.45,0,0,1-3.36-3.54A11.61,11.61,0,0,1,196,24.26a11.72,11.72,0,0,1,1.18-5.38,8.45,8.45,0,0,1,3.36-3.54,10.94,10.94,0,0,1,10.12,0A8.33,8.33,0,0,1,214,18.88a11.59,11.59,0,0,1,1.18,5.38A11.48,11.48,0,0,1,214,29.6a8.33,8.33,0,0,1-3.36,3.54,10.94,10.94,0,0,1-10.12,0Zm9.16-3.72a8,8,0,0,0,1.42-5.16,8,8,0,0,0-1.44-5.14,5.57,5.57,0,0,0-8.16,0,8,8,0,0,0-1.44,5.14,8.1,8.1,0,0,0,1.42,5.16,5.66,5.66,0,0,0,8.2,0Z"/><path class="a" d="M234.64,15.38a8.45,8.45,0,0,1,3.08,3.6,12.28,12.28,0,0,1,1.1,5.36,12.2,12.2,0,0,1-1.08,5.28,8.17,8.17,0,0,1-3.06,3.52,8.34,8.34,0,0,1-4.54,1.24,7.79,7.79,0,0,1-3.88-.94,6.24,6.24,0,0,1-2.56-2.7v8.92a1.73,1.73,0,0,1-.54,1.34,2,2,0,0,1-1.42.5,2.16,2.16,0,0,1-1.5-.52,1.81,1.81,0,0,1-.58-1.4V16.14a1.89,1.89,0,0,1,.56-1.42,2.06,2.06,0,0,1,1.48-.54,2,2,0,0,1,1.44.54,1.85,1.85,0,0,1,.56,1.42v1.64a6.35,6.35,0,0,1,2.56-2.72,7.7,7.7,0,0,1,3.88-1A8.13,8.13,0,0,1,234.64,15.38Zm-1.38,14a7.86,7.86,0,0,0,1.44-5.06,8.08,8.08,0,0,0-1.46-5.16,5.44,5.44,0,0,0-8.12,0,8.15,8.15,0,0,0-1.42,5.12,8.15,8.15,0,0,0,1.42,5.12,4.87,4.87,0,0,0,4.06,1.8A4.94,4.94,0,0,0,233.26,29.4Z"/><path class="a" d="M279.42,32.5a1.62,1.62,0,0,1-.62,1.28,2.07,2.07,0,0,1-1.38.52,1.76,1.76,0,0,1-1-.3,1.87,1.87,0,0,1-.7-.86l-2.64-6H258.46l-2.64,6a1.89,1.89,0,0,1-1.72,1.16,2.13,2.13,0,0,1-1.42-.52,1.62,1.62,0,0,1-.62-1.28,2.26,2.26,0,0,1,.2-.8L263.54,7a2.13,2.13,0,0,1,.9-1A2.53,2.53,0,0,1,267,6a2.08,2.08,0,0,1,.9,1L279.22,31.7A2.26,2.26,0,0,1,279.42,32.5Zm-19.48-8.64h11.72l-5.88-13.24Z"/><path class="a" d="M298.2,15.38a8.45,8.45,0,0,1,3.08,3.6,12.43,12.43,0,0,1,1.1,5.36,12.2,12.2,0,0,1-1.08,5.28,8.17,8.17,0,0,1-3.06,3.52,8.34,8.34,0,0,1-4.54,1.24,7.77,7.77,0,0,1-3.88-.94,6.24,6.24,0,0,1-2.56-2.7v8.92a1.73,1.73,0,0,1-.54,1.34,2,2,0,0,1-1.42.5,2.16,2.16,0,0,1-1.5-.52,1.78,1.78,0,0,1-.58-1.4V16.14a1.89,1.89,0,0,1,.56-1.42,2,2,0,0,1,1.48-.54,2,2,0,0,1,1.44.54,1.89,1.89,0,0,1,.56,1.42v1.64a6.35,6.35,0,0,1,2.56-2.72,7.67,7.67,0,0,1,3.88-1A8.13,8.13,0,0,1,298.2,15.38Zm-1.38,14a7.86,7.86,0,0,0,1.44-5.06,8.14,8.14,0,0,0-1.46-5.16,5.44,5.44,0,0,0-8.12,0,8.08,8.08,0,0,0-1.42,5.12,8.08,8.08,0,0,0,1.42,5.12,4.87,4.87,0,0,0,4.06,1.8A4.94,4.94,0,0,0,296.82,29.4Z"/><path class="a" d="M321.84,15.38a8.45,8.45,0,0,1,3.08,3.6,12.43,12.43,0,0,1,1.1,5.36,12.2,12.2,0,0,1-1.08,5.28,8.17,8.17,0,0,1-3.06,3.52,8.34,8.34,0,0,1-4.54,1.24,7.77,7.77,0,0,1-3.88-.94,6.24,6.24,0,0,1-2.56-2.7v8.92a1.73,1.73,0,0,1-.54,1.34,2,2,0,0,1-1.42.5,2.16,2.16,0,0,1-1.5-.52,1.78,1.78,0,0,1-.58-1.4V16.14a1.89,1.89,0,0,1,.56-1.42,2,2,0,0,1,1.48-.54,2,2,0,0,1,1.44.54,1.89,1.89,0,0,1,.56,1.42v1.64a6.35,6.35,0,0,1,2.56-2.72,7.67,7.67,0,0,1,3.88-1A8.13,8.13,0,0,1,321.84,15.38Zm-1.38,14a7.86,7.86,0,0,0,1.44-5.06,8.14,8.14,0,0,0-1.46-5.16,5.44,5.44,0,0,0-8.12,0,8.08,8.08,0,0,0-1.42,5.12,8.08,8.08,0,0,0,1.42,5.12,4.87,4.87,0,0,0,4.06,1.8A4.94,4.94,0,0,0,320.46,29.4Z"/><path class="a" d="M331.08,33.82a1.75,1.75,0,0,1-.58-1.44V7.66a1.81,1.81,0,0,1,.58-1.46,2.17,2.17,0,0,1,1.46-.5,2.08,2.08,0,0,1,1.44.5,1.86,1.86,0,0,1,.56,1.46V32.38a1.8,1.8,0,0,1-.56,1.44,2.12,2.12,0,0,1-1.44.48A2.21,2.21,0,0,1,331.08,33.82Z"/><path class="a" d="M340.38,9.62a2.22,2.22,0,0,1-.68-1.68,2.15,2.15,0,0,1,.68-1.66,3,3,0,0,1,3.66,0,2.1,2.1,0,0,1,.7,1.66,2.22,2.22,0,0,1-.68,1.68,3,3,0,0,1-3.68,0Zm.38,24.2a1.75,1.75,0,0,1-.58-1.44V16.14a1.81,1.81,0,0,1,.58-1.46,2.17,2.17,0,0,1,1.46-.5,2.08,2.08,0,0,1,1.44.5,1.86,1.86,0,0,1,.56,1.46V32.38a1.8,1.8,0,0,1-.56,1.44,2.12,2.12,0,0,1-1.44.48A2.21,2.21,0,0,1,340.76,33.82Z"/><path class="a" d="M353.24,33.14a8.49,8.49,0,0,1-3.32-3.52,11.29,11.29,0,0,1-1.18-5.28A11.39,11.39,0,0,1,350,19a8.74,8.74,0,0,1,3.42-3.6,9.89,9.89,0,0,1,5-1.28,11.26,11.26,0,0,1,3.06.44,10.2,10.2,0,0,1,2.74,1.2,2.51,2.51,0,0,1,1.28,2,1.81,1.81,0,0,1-.36,1.14,1.11,1.11,0,0,1-.92.46,1.6,1.6,0,0,1-.72-.18,9.92,9.92,0,0,1-.92-.54,11.28,11.28,0,0,0-1.86-1,5.52,5.52,0,0,0-2.06-.34,5.13,5.13,0,0,0-4.22,1.84,7.89,7.89,0,0,0-1.5,5.12,7.69,7.69,0,0,0,1.48,5.06,5.16,5.16,0,0,0,4.2,1.78,5.78,5.78,0,0,0,2.12-.36,11.54,11.54,0,0,0,1.88-1,6.37,6.37,0,0,1,.88-.48,2,2,0,0,1,.8-.2,1.11,1.11,0,0,1,.92.46,1.81,1.81,0,0,1,.36,1.14,1.84,1.84,0,0,1-.3,1,3.5,3.5,0,0,1-1,.94,9.56,9.56,0,0,1-2.8,1.24,12.34,12.34,0,0,1-3.24.44A9.74,9.74,0,0,1,353.24,33.14Z"/><path class="a" d="M383.16,16.06c1.26,1.31,1.9,3.29,1.9,6V32.38a1.9,1.9,0,0,1-.52,1.42,2,2,0,0,1-1.44.5,1.79,1.79,0,0,1-1.92-1.92V30.9a5.65,5.65,0,0,1-2.26,2.58,6.68,6.68,0,0,1-3.5.9,7.79,7.79,0,0,1-3.5-.78,6.31,6.31,0,0,1-2.5-2.14,5.32,5.32,0,0,1-.92-3.08A4.64,4.64,0,0,1,369.58,25a6.79,6.79,0,0,1,3.64-1.76,35.17,35.17,0,0,1,7-.54h.92V21.54a4.73,4.73,0,0,0-.92-3.24,3.84,3.84,0,0,0-3-1,9.46,9.46,0,0,0-2.64.36,19.79,19.79,0,0,0-2.72,1,3.94,3.94,0,0,1-1.52.6,1.24,1.24,0,0,1-1-.44,1.67,1.67,0,0,1-.38-1.12,1.72,1.72,0,0,1,.34-1.06,3.49,3.49,0,0,1,1.1-.9,13.68,13.68,0,0,1,3.28-1.22,15.13,15.13,0,0,1,3.64-.46Q381.25,14.1,383.16,16.06Zm-3.42,13.82a5.45,5.45,0,0,0,1.4-3.86V25h-.72a30.74,30.74,0,0,0-4.8.28,4.74,4.74,0,0,0-2.4.94,2.44,2.44,0,0,0-.72,1.9,3,3,0,0,0,1,2.36,3.79,3.79,0,0,0,2.6.92A4.71,4.71,0,0,0,379.74,29.88Z"/><path class="a" d="M401.4,31.68a1.45,1.45,0,0,1,.38,1.06,1.39,1.39,0,0,1-.62,1.22,2.93,2.93,0,0,1-1.82.34l-1.08-.08a7,7,0,0,1-4.84-2,7.33,7.33,0,0,1-1.6-5.14V17.7h-2.4c-1.18,0-1.76-.52-1.76-1.56a1.46,1.46,0,0,1,.46-1.14,1.85,1.85,0,0,1,1.3-.42h2.4V10.46A1.92,1.92,0,0,1,392.36,9a2,2,0,0,1,1.46-.52A2.09,2.09,0,0,1,395.3,9a1.89,1.89,0,0,1,.56,1.44v4.12h4a1.86,1.86,0,0,1,1.3.42,1.67,1.67,0,0,1,0,2.3,1.91,1.91,0,0,1-1.3.4h-4v9.68a4.1,4.1,0,0,0,.78,2.76,3.36,3.36,0,0,0,2.38,1l1.12.08A2,2,0,0,1,401.4,31.68Z"/><path class="a" d="M404.9,9.62a2.19,2.19,0,0,1-.68-1.68,2.11,2.11,0,0,1,.68-1.66,2.63,2.63,0,0,1,1.84-.62,2.68,2.68,0,0,1,1.82.62,2.13,2.13,0,0,1,.7,1.66,2.22,2.22,0,0,1-.68,1.68,3,3,0,0,1-3.68,0Zm.38,24.2a1.75,1.75,0,0,1-.58-1.44V16.14a1.81,1.81,0,0,1,.58-1.46,2.17,2.17,0,0,1,1.46-.5,2.12,2.12,0,0,1,1.44.5,1.86,1.86,0,0,1,.56,1.46V32.38a1.8,1.8,0,0,1-.56,1.44,2.16,2.16,0,0,1-1.44.48A2.21,2.21,0,0,1,405.28,33.82Z"/><path class="a" d="M417.8,33.14a8.33,8.33,0,0,1-3.36-3.54,11.48,11.48,0,0,1-1.18-5.34,11.59,11.59,0,0,1,1.18-5.38,8.33,8.33,0,0,1,3.36-3.54,10.94,10.94,0,0,1,10.12,0,8.45,8.45,0,0,1,3.36,3.54,11.72,11.72,0,0,1,1.18,5.38,11.61,11.61,0,0,1-1.18,5.34,8.45,8.45,0,0,1-3.36,3.54,10.94,10.94,0,0,1-10.12,0ZM427,29.42a8.1,8.1,0,0,0,1.42-5.16,8,8,0,0,0-1.44-5.14,5.57,5.57,0,0,0-8.16,0,8,8,0,0,0-1.44,5.14,8,8,0,0,0,1.42,5.16,5.66,5.66,0,0,0,8.2,0Z"/><path class="a" d="M454.46,22v10.4a1.84,1.84,0,0,1-.54,1.42,2.14,2.14,0,0,1-1.5.5,2,2,0,0,1-1.46-.52,1.85,1.85,0,0,1-.54-1.4V22.18a5.6,5.6,0,0,0-1-3.64,3.82,3.82,0,0,0-3.06-1.16,5.22,5.22,0,0,0-3.92,1.52A5.57,5.57,0,0,0,441,23v9.4a1.85,1.85,0,0,1-.54,1.4,2,2,0,0,1-1.46.52,2.06,2.06,0,0,1-1.48-.52,1.8,1.8,0,0,1-.56-1.4V16.1a1.79,1.79,0,0,1,.58-1.38,2,2,0,0,1,1.46-.54,1.89,1.89,0,0,1,1.4.52,1.87,1.87,0,0,1,.52,1.36V17.7A6.47,6.47,0,0,1,443.58,15a8.12,8.12,0,0,1,3.88-.92Q454.45,14.1,454.46,22Z"/><path class="a" d="M460.1,32.7a3,3,0,0,1-1-.92,2,2,0,0,1-.3-1.08,1.64,1.64,0,0,1,.36-1.08,1.14,1.14,0,0,1,.92-.44,3.94,3.94,0,0,1,1.64.64,16.83,16.83,0,0,0,2.34,1,8.64,8.64,0,0,0,2.86.4,5.65,5.65,0,0,0,3-.68A2.14,2.14,0,0,0,471,28.66a1.88,1.88,0,0,0-.42-1.28,3.55,3.55,0,0,0-1.46-.86A25.25,25.25,0,0,0,466,25.7,11.81,11.81,0,0,1,461,23.64a4.39,4.39,0,0,1-1.54-3.54,5.13,5.13,0,0,1,1-3.1,6.44,6.44,0,0,1,2.76-2.14,9.91,9.91,0,0,1,4-.76,11.73,11.73,0,0,1,3.12.42A9,9,0,0,1,473,15.74a2.49,2.49,0,0,1,1.32,2,1.6,1.6,0,0,1-.38,1.08,1.19,1.19,0,0,1-.9.44,1.71,1.71,0,0,1-.72-.16,10.23,10.23,0,0,1-1-.52,13.43,13.43,0,0,0-2-1,6.62,6.62,0,0,0-2.34-.36,4.59,4.59,0,0,0-2.7.72,2.27,2.27,0,0,0-1,2,2,2,0,0,0,.94,1.74,11.39,11.39,0,0,0,3.54,1.18,19.45,19.45,0,0,1,4.2,1.28,5,5,0,0,1,2.18,1.78,5,5,0,0,1,.66,2.7,4.93,4.93,0,0,1-2.18,4.18,9.76,9.76,0,0,1-5.82,1.58A12.1,12.1,0,0,1,460.1,32.7Z"/><path class="a" d="M526.78,6a1.93,1.93,0,0,1,1.08-.32,2,2,0,0,1,1.34.5,1.66,1.66,0,0,1,.58,1.3,2.08,2.08,0,0,1-.16.8L520.78,33a2.15,2.15,0,0,1-.88,1,2.52,2.52,0,0,1-1.32.36A2.43,2.43,0,0,1,517.3,34a1.93,1.93,0,0,1-.84-1l-7.28-20.64L501.74,33a1.93,1.93,0,0,1-.84,1,2.46,2.46,0,0,1-1.28.36,2.4,2.4,0,0,1-1.3-.36,2.11,2.11,0,0,1-.86-1L488.62,8.26a1.91,1.91,0,0,1-.16-.8,1.61,1.61,0,0,1,.6-1.3,2.19,2.19,0,0,1,1.44-.5,2,2,0,0,1,1.1.32,1.87,1.87,0,0,1,.74,1l7.4,21.28,7.52-21.08a2,2,0,0,1,.78-1,2.08,2.08,0,0,1,1.18-.36,2,2,0,0,1,1.16.38,2.49,2.49,0,0,1,.8,1.06l7.36,21.24,7.52-21.48A1.89,1.89,0,0,1,526.78,6Z"/><path class="a" d="M536.26,9.62a2.19,2.19,0,0,1-.68-1.68,2.11,2.11,0,0,1,.68-1.66,2.63,2.63,0,0,1,1.84-.62,2.68,2.68,0,0,1,1.82.62,2.13,2.13,0,0,1,.7,1.66,2.22,2.22,0,0,1-.68,1.68,2.58,2.58,0,0,1-1.84.64A2.55,2.55,0,0,1,536.26,9.62Zm.38,24.2a1.75,1.75,0,0,1-.58-1.44V16.14a1.81,1.81,0,0,1,.58-1.46,2.16,2.16,0,0,1,1.46-.5,2.12,2.12,0,0,1,1.44.5,1.86,1.86,0,0,1,.56,1.46V32.38a1.8,1.8,0,0,1-.56,1.44,2.16,2.16,0,0,1-1.44.48A2.19,2.19,0,0,1,536.64,33.82Z"/><path class="a" d="M557.12,31.68a1.45,1.45,0,0,1,.38,1.06,1.39,1.39,0,0,1-.62,1.22,3,3,0,0,1-1.83.34L554,34.22a7,7,0,0,1-4.85-2,7.38,7.38,0,0,1-1.59-5.14V17.7h-2.41c-1.17,0-1.75-.52-1.75-1.56a1.46,1.46,0,0,1,.46-1.14,1.84,1.84,0,0,1,1.29-.42h2.41V10.46A1.88,1.88,0,0,1,548.08,9a2,2,0,0,1,1.46-.52A2,2,0,0,1,551,9a1.86,1.86,0,0,1,.57,1.44v4.12h4a1.88,1.88,0,0,1,1.3.42,1.67,1.67,0,0,1,0,2.3,1.93,1.93,0,0,1-1.3.4h-4v9.68a4.1,4.1,0,0,0,.78,2.76,3.36,3.36,0,0,0,2.38,1l1.12.08A2,2,0,0,1,557.12,31.68Z"/><path class="a" d="M577.94,22v10.4a1.83,1.83,0,0,1-.56,1.4,2.09,2.09,0,0,1-1.48.52,2,2,0,0,1-1.46-.52,1.85,1.85,0,0,1-.54-1.4V22a5.28,5.28,0,0,0-1-3.52,3.87,3.87,0,0,0-3.06-1.12,5.22,5.22,0,0,0-3.92,1.52A5.57,5.57,0,0,0,564.46,23v9.4a1.85,1.85,0,0,1-.54,1.4,2,2,0,0,1-1.46.52,2.06,2.06,0,0,1-1.48-.52,1.8,1.8,0,0,1-.56-1.4V7.62a1.78,1.78,0,0,1,.58-1.4,2.12,2.12,0,0,1,1.5-.52,2,2,0,0,1,1.42.5,1.73,1.73,0,0,1,.54,1.34v10A6.7,6.7,0,0,1,567.13,15,8.15,8.15,0,0,1,571,14.1Q577.94,14.1,577.94,22Z"/><path class="a" d="M78.75,86.13a2.17,2.17,0,0,1,.64,1.65v12.87a5.22,5.22,0,0,1-.53,2.7,3.62,3.62,0,0,1-2.06,1.32A24.79,24.79,0,0,1,71.58,106a36.08,36.08,0,0,1-6,.5,20.72,20.72,0,0,1-10.17-2.37,15.7,15.7,0,0,1-6.55-6.82,23.41,23.41,0,0,1-2.25-10.67,23.09,23.09,0,0,1,2.25-10.55,16,16,0,0,1,6.46-6.85,19.62,19.62,0,0,1,9.88-2.4A21.78,21.78,0,0,1,72.32,68a15.48,15.48,0,0,1,5.58,3.27,2.72,2.72,0,0,1,1.1,2.2,2.59,2.59,0,0,1-.55,1.68,1.64,1.64,0,0,1-1.32.69,2.23,2.23,0,0,1-.88-.17,7.85,7.85,0,0,1-1-.55,20.18,20.18,0,0,0-4.89-2.77,14.88,14.88,0,0,0-5.06-.8q-6.27,0-9.57,3.88t-3.3,11.24q0,7.54,3.38,11.42T65.75,102a27.33,27.33,0,0,0,8.47-1.32V89.82H67a2.45,2.45,0,0,1-1.73-.58,2.26,2.26,0,0,1,0-3.13A2.45,2.45,0,0,1,67,85.53H77.08A2.33,2.33,0,0,1,78.75,86.13Z"/><path class="a" d="M106.53,81.29q2.61,2.7,2.61,8.2v14.24a2.62,2.62,0,0,1-.71,2,2.74,2.74,0,0,1-2,.69,2.6,2.6,0,0,1-1.93-.72,2.64,2.64,0,0,1-.71-1.93v-2a7.82,7.82,0,0,1-3.11,3.55,9.23,9.23,0,0,1-4.81,1.23,10.69,10.69,0,0,1-4.82-1.07,8.65,8.65,0,0,1-3.43-2.94,7.35,7.35,0,0,1-1.27-4.24,6.43,6.43,0,0,1,1.49-4.64,9.2,9.2,0,0,1,5-2.42,47.94,47.94,0,0,1,9.63-.75h1.26V88.83c0-2-.42-3.54-1.26-4.45A5.3,5.3,0,0,0,98.42,83a13.27,13.27,0,0,0-3.63.49,27.23,27.23,0,0,0-3.74,1.43,5.45,5.45,0,0,1-2.09.83,1.69,1.69,0,0,1-1.35-.61,2.24,2.24,0,0,1-.52-1.54,2.37,2.37,0,0,1,.46-1.45,5,5,0,0,1,1.52-1.24,18.44,18.44,0,0,1,4.51-1.68,21.07,21.07,0,0,1,5-.63Q103.92,78.6,106.53,81.29Zm-4.7,19A7.5,7.5,0,0,0,103.75,95V93.56h-1a43.85,43.85,0,0,0-6.6.38,6.46,6.46,0,0,0-3.3,1.3,3.35,3.35,0,0,0-1,2.61,4.13,4.13,0,0,0,1.43,3.24,5.18,5.18,0,0,0,3.58,1.27A6.5,6.5,0,0,0,101.83,100.3Z"/><path class="a" d="M131.61,102.77a2,2,0,0,1,.52,1.46,1.91,1.91,0,0,1-.85,1.68,4,4,0,0,1-2.5.47l-1.49-.12c-3-.22-5.19-1.12-6.65-2.72s-2.2-4-2.2-7.07V83.55h-3.3c-1.62,0-2.42-.71-2.42-2.15a2,2,0,0,1,.63-1.56,2.54,2.54,0,0,1,1.79-.58h3.3V73.59a2.61,2.61,0,0,1,.74-2,2.79,2.79,0,0,1,2-.71,2.89,2.89,0,0,1,2,.71,2.59,2.59,0,0,1,.77,2v5.67h5.45a2.51,2.51,0,0,1,1.78.58,2.27,2.27,0,0,1,0,3.16,2.6,2.6,0,0,1-1.78.55H124V96.86a5.62,5.62,0,0,0,1.07,3.79,4.65,4.65,0,0,0,3.28,1.38l1.54.11A2.74,2.74,0,0,1,131.61,102.77Z"/><path class="a" d="M136.31,104.17a4.08,4.08,0,0,1-1.4-1.26,2.72,2.72,0,0,1-.41-1.49,2.26,2.26,0,0,1,.49-1.48,1.57,1.57,0,0,1,1.27-.6,5.5,5.5,0,0,1,2.25.87,21.8,21.8,0,0,0,3.22,1.43,11.88,11.88,0,0,0,3.93.55,7.78,7.78,0,0,0,4.13-.93,2.94,2.94,0,0,0,1.48-2.64,2.56,2.56,0,0,0-.58-1.76,4.87,4.87,0,0,0-2-1.18,33.73,33.73,0,0,0-4.24-1.13q-4.84-1-7-2.83a6,6,0,0,1-2.11-4.87,7,7,0,0,1,1.37-4.26,8.93,8.93,0,0,1,3.8-3,13.83,13.83,0,0,1,5.5-1,15.91,15.91,0,0,1,4.29.58A12,12,0,0,1,154,80.85a3.43,3.43,0,0,1,1.82,2.81,2.17,2.17,0,0,1-.53,1.48,1.57,1.57,0,0,1-1.23.61,2.37,2.37,0,0,1-1-.22,14,14,0,0,1-1.32-.72A19.17,19.17,0,0,0,149,83.44a9.07,9.07,0,0,0-3.22-.5,6.29,6.29,0,0,0-3.71,1,3.12,3.12,0,0,0-1.4,2.7A2.7,2.7,0,0,0,142,89a15.66,15.66,0,0,0,4.87,1.62,27.06,27.06,0,0,1,5.77,1.76,6.06,6.06,0,0,1,3.91,6.16,6.76,6.76,0,0,1-3,5.75,13.35,13.35,0,0,1-8,2.17A16.65,16.65,0,0,1,136.31,104.17Z"/><path class="a" d="M183.28,80.3a11.47,11.47,0,0,1,4.21,4.84A16.64,16.64,0,0,1,189,92.46a16.81,16.81,0,0,1-1.51,7.31,11.65,11.65,0,0,1-4.24,5,11.06,11.06,0,0,1-6.18,1.76,10.77,10.77,0,0,1-5.34-1.29,8.53,8.53,0,0,1-3.52-3.71v2.2a2.64,2.64,0,0,1-.74,1.95,2.72,2.72,0,0,1-2,.75,2.78,2.78,0,0,1-2-.75,2.55,2.55,0,0,1-.77-1.95v-34a2.47,2.47,0,0,1,.79-1.93,3,3,0,0,1,2.07-.71,2.77,2.77,0,0,1,1.95.69,2.4,2.4,0,0,1,.74,1.84V83.66a8.71,8.71,0,0,1,3.52-3.74,10.57,10.57,0,0,1,5.34-1.32A11.44,11.44,0,0,1,183.28,80.3Zm-1.95,19.25c1.34-1.68,2-4,2-7.09s-.66-5.33-2-7a6.81,6.81,0,0,0-5.61-2.45,6.71,6.71,0,0,0-5.59,2.48q-1.95,2.48-1.95,7t1.95,7a7.47,7.47,0,0,0,11.17-.06Z"/><path class="a" d="M214.82,79.15a2.52,2.52,0,0,1,1.35-.39,2.65,2.65,0,0,1,1.84.72,2.22,2.22,0,0,1,.8,1.7,2.5,2.5,0,0,1-.22,1L203.3,114.68a2.57,2.57,0,0,1-1,1.18,2.38,2.38,0,0,1-1.35.41,2.74,2.74,0,0,1-1.79-.66,2,2,0,0,1-.79-1.65,3.05,3.05,0,0,1,.27-1.1l3.8-8.08L191.86,82.23a2.12,2.12,0,0,1-.22-1,2.18,2.18,0,0,1,.88-1.76,3.06,3.06,0,0,1,2-.72,2.46,2.46,0,0,1,2.37,1.54l8.52,18.92,8.47-18.86A2.42,2.42,0,0,1,214.82,79.15Z"/><path class="a" d="M221.53,105.38a3.36,3.36,0,0,1-1-2.53,3.45,3.45,0,0,1,1-2.55,3.42,3.42,0,0,1,2.51-1,3.3,3.3,0,0,1,2.47,1,3.52,3.52,0,0,1,1,2.55,3.42,3.42,0,0,1-1,2.53,3.35,3.35,0,0,1-2.47,1A3.48,3.48,0,0,1,221.53,105.38Z"/><path class="a" d="M228.16,115.67a1.87,1.87,0,0,1-.88-1.71,1.84,1.84,0,0,1,.55-1.4,2.86,2.86,0,0,1,1.76-.63l1.54-.11a4.38,4.38,0,0,0,3.22-1.32,5.75,5.75,0,0,0,1.07-3.85V81.4a2.5,2.5,0,0,1,.8-2,3,3,0,0,1,2-.69,2.84,2.84,0,0,1,2,.69,2.51,2.51,0,0,1,.77,2v24.92q0,4.62-2.14,7t-6.66,2.7l-1.48.11A4.26,4.26,0,0,1,228.16,115.67Zm7.53-43.23a3,3,0,0,1-.93-2.31,3,3,0,0,1,.93-2.28,4.12,4.12,0,0,1,5,0,2.9,2.9,0,0,1,1,2.28,3,3,0,0,1-.94,2.31,4.08,4.08,0,0,1-5.06,0Z"/><path class="a" d="M248.89,104.17a4.18,4.18,0,0,1-1.4-1.26,2.8,2.8,0,0,1-.41-1.49,2.26,2.26,0,0,1,.49-1.48,1.58,1.58,0,0,1,1.27-.6,5.4,5.4,0,0,1,2.25.87,22.28,22.28,0,0,0,3.22,1.43,12,12,0,0,0,3.93.55,7.78,7.78,0,0,0,4.13-.93,2.94,2.94,0,0,0,1.48-2.64,2.61,2.61,0,0,0-.57-1.76,5,5,0,0,0-2-1.18A33.26,33.26,0,0,0,257,94.55q-4.83-1-6.95-2.83A6,6,0,0,1,248,86.85a7.1,7.1,0,0,1,1.37-4.26,8.93,8.93,0,0,1,3.8-3,13.87,13.87,0,0,1,5.5-1,15.85,15.85,0,0,1,4.29.58,12,12,0,0,1,3.68,1.67,3.43,3.43,0,0,1,1.82,2.81,2.21,2.21,0,0,1-.52,1.48,1.59,1.59,0,0,1-1.24.61,2.37,2.37,0,0,1-1-.22,14,14,0,0,1-1.32-.72,19.17,19.17,0,0,0-2.78-1.37,9,9,0,0,0-3.22-.5,6.31,6.31,0,0,0-3.71,1,3.14,3.14,0,0,0-1.4,2.7A2.7,2.7,0,0,0,254.53,89a15.66,15.66,0,0,0,4.87,1.62,26.87,26.87,0,0,1,5.77,1.76,6.8,6.8,0,0,1,3,2.45,6.87,6.87,0,0,1,.91,3.71,6.76,6.76,0,0,1-3,5.75,13.33,13.33,0,0,1-8,2.17A16.68,16.68,0,0,1,248.89,104.17Z"/><path class="a" d="M312.4,79Q315.25,82,315.25,88v15.54a2.82,2.82,0,0,1-.78,2.13,3,3,0,0,1-2.16.75,2.69,2.69,0,0,1-2.88-2.88V101.3a8.44,8.44,0,0,1-3.39,3.87,10,10,0,0,1-5.25,1.35,11.7,11.7,0,0,1-5.25-1.17,9.5,9.5,0,0,1-3.75-3.21,8.05,8.05,0,0,1-1.38-4.62A7,7,0,0,1,292,92.45a10.13,10.13,0,0,1,5.46-2.64A52.78,52.78,0,0,1,308,89h1.38V87.26q0-3.36-1.38-4.86a5.78,5.78,0,0,0-4.44-1.5,14.14,14.14,0,0,0-4,.54A29.77,29.77,0,0,0,295.51,83a5.88,5.88,0,0,1-2.28.9,1.85,1.85,0,0,1-1.47-.66,2.48,2.48,0,0,1-.57-1.68A2.6,2.6,0,0,1,291.7,80a5.37,5.37,0,0,1,1.65-1.35,20.51,20.51,0,0,1,4.92-1.83,23,23,0,0,1,5.46-.69Q309.55,76.1,312.4,79Zm-5.13,20.73a8.15,8.15,0,0,0,2.1-5.79V92.42h-1.08a46.74,46.74,0,0,0-7.2.42,7.06,7.06,0,0,0-3.6,1.41,3.67,3.67,0,0,0-1.08,2.85,4.51,4.51,0,0,0,1.56,3.54,5.67,5.67,0,0,0,3.9,1.38A7.06,7.06,0,0,0,307.27,99.77Z"/><path class="a" d="M349.81,87.92v15.6a2.76,2.76,0,0,1-.81,2.13,3.19,3.19,0,0,1-2.25.75,3,3,0,0,1-2.19-.78,2.78,2.78,0,0,1-.81-2.1V88.22q0-3.72-1.47-5.46A5.68,5.68,0,0,0,337.69,81a7.83,7.83,0,0,0-5.88,2.28,8.4,8.4,0,0,0-2.22,6.12v14.1a2.78,2.78,0,0,1-.81,2.1,3,3,0,0,1-2.19.78,3.13,3.13,0,0,1-2.22-.78,2.73,2.73,0,0,1-.84-2.1V79.1A2.7,2.7,0,0,1,324.4,77a3.09,3.09,0,0,1,2.19-.81,2.84,2.84,0,0,1,2.1.78,2.76,2.76,0,0,1,.78,2V81.5a9.73,9.73,0,0,1,4-4,12.14,12.14,0,0,1,5.82-1.38Q349.81,76.1,349.81,87.92Z"/><path class="a" d="M384.25,64.28a2.73,2.73,0,0,1,.84,2.1v37.08a2.86,2.86,0,0,1-.81,2.16,3.46,3.46,0,0,1-4.38,0,2.86,2.86,0,0,1-.81-2.16v-2.4a9.28,9.28,0,0,1-3.84,4,11.72,11.72,0,0,1-5.82,1.41,12.16,12.16,0,0,1-6.75-1.92,12.76,12.76,0,0,1-4.62-5.4,18.42,18.42,0,0,1-1.65-8,18.17,18.17,0,0,1,1.65-8,12.11,12.11,0,0,1,11.37-7.14,11.55,11.55,0,0,1,5.79,1.41,9.41,9.41,0,0,1,3.81,4V66.26a2.61,2.61,0,0,1,.81-2A3.1,3.1,0,0,1,382,63.5,3.13,3.13,0,0,1,384.25,64.28ZM376.93,99q2.16-2.7,2.16-7.68T377,83.66a7.3,7.3,0,0,0-6.09-2.7,7.51,7.51,0,0,0-6.15,2.67q-2.19,2.67-2.19,7.59t2.22,7.71a8.13,8.13,0,0,0,12.18.09Z"/><path class="a" d="M410.92,105.29a3,3,0,0,1-.81-2.19V66.8a3,3,0,0,1,.81-2.19,3,3,0,0,1,2.25-.81h22.08a3.12,3.12,0,0,1,2.13.66,2.35,2.35,0,0,1,.75,1.86,2.26,2.26,0,0,1-.75,1.83,3.22,3.22,0,0,1-2.13.63H416.17V82.1h17.88a3.16,3.16,0,0,1,2.13.66,2.68,2.68,0,0,1,0,3.72,3.16,3.16,0,0,1-2.13.66H416.17v14h19.08q2.88,0,2.88,2.46a2.35,2.35,0,0,1-.75,1.86,3.12,3.12,0,0,1-2.13.66H413.17A3,3,0,0,1,410.92,105.29Z"/><path class="a" d="M445.36,105.68a2.61,2.61,0,0,1-.87-2.16V66.44a2.7,2.7,0,0,1,.87-2.19,3.22,3.22,0,0,1,2.19-.75,3.16,3.16,0,0,1,2.16.75,2.82,2.82,0,0,1,.84,2.19v37.08a2.72,2.72,0,0,1-.84,2.16,3.24,3.24,0,0,1-2.16.72A3.3,3.3,0,0,1,445.36,105.68Z"/><path class="a" d="M483.3,99.38a2.57,2.57,0,0,1,.54,1.68q0,1.74-2.16,2.94a19,19,0,0,1-4.59,1.86,18.61,18.61,0,0,1-4.77.66q-7,0-11-4t-4-11.07a17.36,17.36,0,0,1,1.77-8,13,13,0,0,1,5-5.4,13.93,13.93,0,0,1,7.29-1.92,11.91,11.91,0,0,1,9.3,3.78q3.42,3.78,3.42,10.2,0,2.4-2.16,2.4H463.38q.6,9.3,8.94,9.3a11.06,11.06,0,0,0,3.84-.6,27.93,27.93,0,0,0,3.42-1.56q.18-.12,1-.51a3.28,3.28,0,0,1,1.35-.39A1.7,1.7,0,0,1,483.3,99.38ZM465.9,82.76A10.37,10.37,0,0,0,463.38,89h15.48a10,10,0,0,0-2.07-6.27,6.64,6.64,0,0,0-5.31-2.19A7.32,7.32,0,0,0,465.9,82.76Z"/><path class="a" d="M495.81,104.66a12.7,12.7,0,0,1-5-5.28,18.59,18.59,0,0,1,.06-16A13.23,13.23,0,0,1,496,78a14.75,14.75,0,0,1,7.56-1.92,16.64,16.64,0,0,1,4.59.66,15.69,15.69,0,0,1,4.11,1.8,3.73,3.73,0,0,1,1.92,3.06,2.69,2.69,0,0,1-.54,1.71,1.68,1.68,0,0,1-1.38.69,2.4,2.4,0,0,1-1.08-.27,15.58,15.58,0,0,1-1.38-.81A16.53,16.53,0,0,0,507,81.47a8.4,8.4,0,0,0-3.09-.51,7.71,7.71,0,0,0-6.33,2.76q-2.25,2.76-2.25,7.68T497.58,99a7.73,7.73,0,0,0,6.3,2.67,8.69,8.69,0,0,0,3.18-.54,17.11,17.11,0,0,0,2.82-1.44A10.74,10.74,0,0,1,511.2,99a2.94,2.94,0,0,1,1.2-.3,1.68,1.68,0,0,1,1.38.69,2.69,2.69,0,0,1,.54,1.71,2.74,2.74,0,0,1-.45,1.53,5.33,5.33,0,0,1-1.53,1.41,14.39,14.39,0,0,1-4.2,1.86,18.25,18.25,0,0,1-4.86.66A14.63,14.63,0,0,1,495.81,104.66Z"/><path class="a" d="M536.07,102.47a2.15,2.15,0,0,1,.57,1.59,2.07,2.07,0,0,1-.93,1.83,4.34,4.34,0,0,1-2.73.51l-1.62-.12q-4.86-.36-7.26-3t-2.4-7.71V81.5h-3.6q-2.64,0-2.64-2.34a2.2,2.2,0,0,1,.69-1.71,2.79,2.79,0,0,1,2-.63h3.6V70.64a2.86,2.86,0,0,1,.81-2.16,3,3,0,0,1,2.19-.78,3.13,3.13,0,0,1,2.22.78,2.8,2.8,0,0,1,.84,2.16v6.18h5.94a2.79,2.79,0,0,1,1.95.63,2.5,2.5,0,0,1,0,3.45,2.88,2.88,0,0,1-1.95.6h-5.94V96a6.13,6.13,0,0,0,1.17,4.14,5.06,5.06,0,0,0,3.57,1.5l1.68.12A3,3,0,0,1,536.07,102.47Z"/><path class="a" d="M559.26,78.68a2.69,2.69,0,0,1-.66,2,3.56,3.56,0,0,1-2.28.78l-1.8.18a7.77,7.77,0,0,0-5.61,2.64,8.54,8.54,0,0,0-1.83,5.52v13.74a2.69,2.69,0,0,1-.84,2.16,3.2,3.2,0,0,1-2.16.72,3.32,3.32,0,0,1-2.19-.72,2.64,2.64,0,0,1-.87-2.16V79.1a2.66,2.66,0,0,1,.87-2.13,3.23,3.23,0,0,1,2.19-.75,2.85,2.85,0,0,1,2,.75A2.68,2.68,0,0,1,546.9,79v2.88a8.81,8.81,0,0,1,3.48-4,11.69,11.69,0,0,1,5.16-1.62l.84-.06Q559.26,76,559.26,78.68Z"/><path class="a" d="M567.51,104.66a12.55,12.55,0,0,1-5-5.31,19.15,19.15,0,0,1,0-16.08,12.55,12.55,0,0,1,5-5.31,16.42,16.42,0,0,1,15.18,0,12.55,12.55,0,0,1,5,5.31,19.15,19.15,0,0,1,0,16.08,12.55,12.55,0,0,1-5,5.31,16.42,16.42,0,0,1-15.18,0Zm13.74-5.58q2.13-2.64,2.13-7.74t-2.16-7.71a8.35,8.35,0,0,0-12.24,0q-2.16,2.67-2.16,7.71T569,99.08a8.48,8.48,0,0,0,12.3,0Z"/><path class="a" d="M622.5,87.92v15.6a2.76,2.76,0,0,1-.81,2.13,3.19,3.19,0,0,1-2.25.75,3,3,0,0,1-2.19-.78,2.78,2.78,0,0,1-.81-2.1V88.22q0-3.72-1.47-5.46A5.68,5.68,0,0,0,610.38,81a7.83,7.83,0,0,0-5.88,2.28,8.4,8.4,0,0,0-2.22,6.12v14.1a2.78,2.78,0,0,1-.81,2.1,3,3,0,0,1-2.19.78,3.13,3.13,0,0,1-2.22-.78,2.73,2.73,0,0,1-.84-2.1V79.1a2.7,2.7,0,0,1,.87-2.07,3.09,3.09,0,0,1,2.19-.81,2.84,2.84,0,0,1,2.1.78,2.76,2.76,0,0,1,.78,2V81.5a9.73,9.73,0,0,1,4-4A12.14,12.14,0,0,1,612,76.1Q622.5,76.1,622.5,87.92Z"/><path class="a" d="M361.54,284l-23.33.07V261.2a3.6,3.6,0,1,0-7.2,0l.07,22.8H308.74a3.6,3.6,0,0,0,0,7.2h22.31V314a3.6,3.6,0,1,0,7.19,0V291.2h23.3a3.6,3.6,0,0,0,0-7.2Z"/><path class="a" d="M141.7,233.44c-24.83-4.52-44.46.21-52.29,13.76-5.83,10.11-4.16,23.52,4,37.85a2.55,2.55,0,1,0,4.47-2.44.41.41,0,0,0-.05-.09C90.48,269.61,89,258,93.82,249.75c6.5-11.26,24-15.48,47-11.3a2.55,2.55,0,0,0,.91-5Zm-35.33,69a159.34,159.34,0,0,0,38,30c36,20.8,74.36,26.35,93.26,13.47a2.55,2.55,0,0,0-2.8-4.26l-.07.05C217.81,353.23,181.38,348,146.88,328a154.42,154.42,0,0,1-36.74-29,2.55,2.55,0,1,0-3.78,3.41Z"/><path class="a" d="M231.56,299.38c16.26-19.21,21.93-38.53,14.13-52-5.75-10-17.89-15.21-34-15.42a2.55,2.55,0,0,0-.06,5.1c14.51.18,25,4.71,29.69,12.87,6.48,11.23,1.42,28.45-13.61,46.21a2.55,2.55,0,1,0,3.85,3.33Zm-41.78-65.1c-14.7,3.15-30.35,9.31-45.37,18C107.23,273.73,83,305.39,86.34,328.34a2.55,2.55,0,0,0,5-.68v-.06c-3-20.38,20-50.38,55.57-70.92a154.08,154.08,0,0,1,43.89-17.42,2.54,2.54,0,1,0-1-5Z"/><path class="a" d="M129.54,344.25C138,368,152,382.6,167.59,382.6c11.4,0,21.95-7.77,30.18-21.46a2.54,2.54,0,1,0-4.32-2.69l0,.06c-7.4,12.31-16.48,19-25.82,19-13,0-25.4-13-33.25-35a2.55,2.55,0,0,0-4.83,1.62l0,.1Zm77.65-4.64A160,160,0,0,0,214,292.42c0-42.18-14.76-78.54-35.79-87.88a2.55,2.55,0,0,0-2.07,4.65c18.76,8.33,32.77,42.84,32.77,83.23a154.92,154.92,0,0,1-6.53,45.67,2.55,2.55,0,0,0,4.84,1.59.14.14,0,0,1,0-.07Zm47.95-2.5A12.19,12.19,0,1,0,243,349.3,12.18,12.18,0,0,0,255.14,337.11Zm-5.09,0A7.1,7.1,0,1,1,243,330,7.1,7.1,0,0,1,250.05,337.11Zm-158,12.19a12.19,12.19,0,1,0-12.19-12.19A12.18,12.18,0,0,0,92.05,349.3Zm0-5.09a7.1,7.1,0,1,1,7.09-7.1A7.1,7.1,0,0,1,92.05,344.21Z"/><path class="a" d="M167.59,217a12.19,12.19,0,1,0-12.19-12.18A12.18,12.18,0,0,0,167.59,217Zm0-5.09a7.1,7.1,0,1,1,7.09-7.09A7.1,7.1,0,0,1,167.59,211.88ZM169.45,301a8.82,8.82,0,1,1,6.76-10.48A8.82,8.82,0,0,1,169.45,301Z"/><path class="b" d="M571.39,287.6H527.64v12.5h30a56.7,56.7,0,0,1-36.23,40.63l-71.9-71.88c7.5-21.88,28.76-37.5,53.13-37.5a57.72,57.72,0,0,1,46.25,23.75l9.37-8.13a68.93,68.93,0,0,0-55.62-28.12c-32.5,0-60,23.12-66.88,53.75l82.5,82.5C548.27,347.6,571.39,320.1,571.39,287.6Zm-137.5.63a66.75,66.75,0,0,0,20,47.5,67.77,67.77,0,0,0,47.51,20Z"/><path class="c" d="M502.64,200.1a87.5,87.5,0,1,0,87.5,87.5A87.75,87.75,0,0,0,502.64,200.1ZM453.89,336.35a67.81,67.81,0,0,1-20-47.51L502,356.35C484.52,355.72,467,349.46,453.89,336.35Zm63.75,18.12L435.76,272.6c6.88-30.63,34.38-53.75,66.88-53.75A68.93,68.93,0,0,1,558.26,247l-9.37,8.13a57.75,57.75,0,0,0-46.25-23.75c-24.37,0-45,15.62-53.13,37.5l71.88,71.88a56.73,56.73,0,0,0,36.25-40.63h-30V287.6h43.75c0,32.5-23.12,60-53.75,66.88Z"/></svg>