<svg xmlns="http://www.w3.org/2000/svg" viewBox="0 0 670 400"><defs><style>.a{fill:#2b2e3a;}.b{fill:#00a887;}.c{fill:#076;}.d{fill:#06262d;}.e{fill:#3bd4ae;}.f{fill:#009383;}.g{fill:#b2e1d8;}</style></defs><path class="a" d="M93.16,33.56a2,2,0,0,1-.54-1.46V7.9a2,2,0,0,1,.54-1.46,2,2,0,0,1,1.5-.54h7.84q6.84,0,10.6,3.68T116.86,20q0,6.72-3.76,10.42t-10.6,3.7H94.66A2,2,0,0,1,93.16,33.56ZM112.66,20q0-10.63-10.4-10.64H96.74V30.66h5.52Q112.67,30.66,112.66,20Z"/><path class="a" d="M138.18,29.62a1.71,1.71,0,0,1,.36,1.12,2.3,2.3,0,0,1-1.44,2,13.19,13.19,0,0,1-6.24,1.68,9.86,9.86,0,0,1-7.32-2.7,10,10,0,0,1-2.68-7.38A11.67,11.67,0,0,1,122,19a8.7,8.7,0,0,1,3.32-3.6,9.33,9.33,0,0,1,4.86-1.28,7.93,7.93,0,0,1,6.2,2.52,9.76,9.76,0,0,1,2.28,6.8c0,1.07-.48,1.6-1.44,1.6H124.9q.41,6.19,6,6.2a7.28,7.28,0,0,0,2.56-.4,18.62,18.62,0,0,0,2.28-1c.08-.05.3-.17.66-.34a2.24,2.24,0,0,1,.9-.26A1.14,1.14,0,0,1,138.18,29.62Zm-11.6-11.08a7,7,0,0,0-1.68,4.16h10.32a6.69,6.69,0,0,0-1.38-4.18,4.44,4.44,0,0,0-3.54-1.46A4.89,4.89,0,0,0,126.58,18.54Z"/><path class="a" d="M143.26,32.7a3,3,0,0,1-1-.92,2,2,0,0,1-.3-1.08,1.64,1.64,0,0,1,.36-1.08,1.15,1.15,0,0,1,.92-.44,3.85,3.85,0,0,1,1.64.64,16.83,16.83,0,0,0,2.34,1,8.68,8.68,0,0,0,2.86.4,5.65,5.65,0,0,0,3-.68,2.14,2.14,0,0,0,1.08-1.92,1.88,1.88,0,0,0-.42-1.28,3.48,3.48,0,0,0-1.46-.86,24.74,24.74,0,0,0-3.08-.82,11.92,11.92,0,0,1-5.06-2.06,4.42,4.42,0,0,1-1.54-3.54,5.19,5.19,0,0,1,1-3.1,6.56,6.56,0,0,1,2.76-2.14,10,10,0,0,1,4-.76,11.62,11.62,0,0,1,3.12.42,8.78,8.78,0,0,1,2.68,1.22,2.49,2.49,0,0,1,1.32,2,1.55,1.55,0,0,1-.38,1.08,1.16,1.16,0,0,1-.9.44,1.71,1.71,0,0,1-.72-.16,10.23,10.23,0,0,1-1-.52,13,13,0,0,0-2-1,6.54,6.54,0,0,0-2.34-.36,4.59,4.59,0,0,0-2.7.72,2.27,2.27,0,0,0-1,2,2,2,0,0,0,.94,1.74,11.59,11.59,0,0,0,3.54,1.18,19.1,19.1,0,0,1,4.2,1.28,4.92,4.92,0,0,1,2.18,1.78,5,5,0,0,1,.66,2.7,4.91,4.91,0,0,1-2.18,4.18,9.72,9.72,0,0,1-5.82,1.58A12.12,12.12,0,0,1,143.26,32.7Z"/><path class="a" d="M179.54,32.42a1.85,1.85,0,0,1-.52,1.32,1.64,1.64,0,0,1-1.24.56,2,2,0,0,1-1.36-.56l-10-8.8v7.4a1.83,1.83,0,0,1-.56,1.46,2.08,2.08,0,0,1-1.44.5,2.19,2.19,0,0,1-1.46-.5,1.84,1.84,0,0,1-.58-1.46V7.66A1.84,1.84,0,0,1,163,6.2a2.19,2.19,0,0,1,1.46-.5,2.08,2.08,0,0,1,1.44.5,1.83,1.83,0,0,1,.56,1.46V23.34l9.12-8.52a2.06,2.06,0,0,1,1.32-.6,1.81,1.81,0,0,1,1.32.56,1.77,1.77,0,0,1,.56,1.32,1.88,1.88,0,0,1-.68,1.4L171,24l7.84,6.92A1.85,1.85,0,0,1,179.54,32.42Z"/><path class="a" d="M193.8,31.68a1.41,1.41,0,0,1,.38,1.06,1.37,1.37,0,0,1-.62,1.22,2.91,2.91,0,0,1-1.82.34l-1.08-.08a7,7,0,0,1-4.84-2,7.38,7.38,0,0,1-1.6-5.14V17.7h-2.4c-1.17,0-1.76-.52-1.76-1.56a1.49,1.49,0,0,1,.46-1.14,1.86,1.86,0,0,1,1.3-.42h2.4V10.46A1.92,1.92,0,0,1,184.76,9a2,2,0,0,1,1.46-.52A2.06,2.06,0,0,1,187.7,9a1.85,1.85,0,0,1,.56,1.44v4.12h4a1.85,1.85,0,0,1,1.3.42,1.46,1.46,0,0,1,.46,1.14,1.44,1.44,0,0,1-.46,1.16,1.89,1.89,0,0,1-1.3.4h-4v9.68a4.1,4.1,0,0,0,.78,2.76,3.37,3.37,0,0,0,2.38,1l1.12.08A2,2,0,0,1,193.8,31.68Z"/><path class="a" d="M200.52,33.14a8.45,8.45,0,0,1-3.36-3.54A11.61,11.61,0,0,1,196,24.26a11.72,11.72,0,0,1,1.18-5.38,8.45,8.45,0,0,1,3.36-3.54,10.94,10.94,0,0,1,10.12,0A8.33,8.33,0,0,1,214,18.88a11.59,11.59,0,0,1,1.18,5.38A11.48,11.48,0,0,1,214,29.6a8.33,8.33,0,0,1-3.36,3.54,10.94,10.94,0,0,1-10.12,0Zm9.16-3.72a8,8,0,0,0,1.42-5.16,8,8,0,0,0-1.44-5.14,5.57,5.57,0,0,0-8.16,0,8,8,0,0,0-1.44,5.14,8.1,8.1,0,0,0,1.42,5.16,5.66,5.66,0,0,0,8.2,0Z"/><path class="a" d="M234.64,15.38a8.45,8.45,0,0,1,3.08,3.6,12.28,12.28,0,0,1,1.1,5.36,12.2,12.2,0,0,1-1.08,5.28,8.17,8.17,0,0,1-3.06,3.52,8.34,8.34,0,0,1-4.54,1.24,7.79,7.79,0,0,1-3.88-.94,6.24,6.24,0,0,1-2.56-2.7v8.92a1.73,1.73,0,0,1-.54,1.34,2,2,0,0,1-1.42.5,2.16,2.16,0,0,1-1.5-.52,1.81,1.81,0,0,1-.58-1.4V16.14a1.89,1.89,0,0,1,.56-1.42,2.06,2.06,0,0,1,1.48-.54,2,2,0,0,1,1.44.54,1.85,1.85,0,0,1,.56,1.42v1.64a6.35,6.35,0,0,1,2.56-2.72,7.7,7.7,0,0,1,3.88-1A8.13,8.13,0,0,1,234.64,15.38Zm-1.38,14a7.86,7.86,0,0,0,1.44-5.06,8.08,8.08,0,0,0-1.46-5.16,5.44,5.44,0,0,0-8.12,0,8.15,8.15,0,0,0-1.42,5.12,8.15,8.15,0,0,0,1.42,5.12,4.87,4.87,0,0,0,4.06,1.8A4.94,4.94,0,0,0,233.26,29.4Z"/><path class="a" d="M279.42,32.5a1.59,1.59,0,0,1-.62,1.28,2.07,2.07,0,0,1-1.38.52,1.76,1.76,0,0,1-1-.3,1.94,1.94,0,0,1-.7-.86l-2.64-6H258.46l-2.64,6a1.89,1.89,0,0,1-1.72,1.16,2.15,2.15,0,0,1-1.42-.52,1.62,1.62,0,0,1-.62-1.28,2.26,2.26,0,0,1,.2-.8L263.54,7a2.13,2.13,0,0,1,.9-1,2.58,2.58,0,0,1,1.3-.36A2.52,2.52,0,0,1,267,6a2,2,0,0,1,.9,1L279.22,31.7A2.06,2.06,0,0,1,279.42,32.5Zm-19.48-8.64h11.72l-5.88-13.24Z"/><path class="a" d="M298.2,15.38a8.45,8.45,0,0,1,3.08,3.6,12.43,12.43,0,0,1,1.1,5.36,12.2,12.2,0,0,1-1.08,5.28,8.17,8.17,0,0,1-3.06,3.52,8.34,8.34,0,0,1-4.54,1.24,7.79,7.79,0,0,1-3.88-.94,6.24,6.24,0,0,1-2.56-2.7v8.92a1.73,1.73,0,0,1-.54,1.34,2,2,0,0,1-1.42.5,2.16,2.16,0,0,1-1.5-.52,1.78,1.78,0,0,1-.58-1.4V16.14a1.89,1.89,0,0,1,.56-1.42,2.06,2.06,0,0,1,1.48-.54,2,2,0,0,1,1.44.54,1.89,1.89,0,0,1,.56,1.42v1.64a6.35,6.35,0,0,1,2.56-2.72,7.7,7.7,0,0,1,3.88-1A8.13,8.13,0,0,1,298.2,15.38Zm-1.38,14a7.86,7.86,0,0,0,1.44-5.06,8.08,8.08,0,0,0-1.46-5.16,5.44,5.44,0,0,0-8.12,0,8.15,8.15,0,0,0-1.42,5.12,8.15,8.15,0,0,0,1.42,5.12,4.87,4.87,0,0,0,4.06,1.8A4.94,4.94,0,0,0,296.82,29.4Z"/><path class="a" d="M321.84,15.38a8.45,8.45,0,0,1,3.08,3.6,12.43,12.43,0,0,1,1.1,5.36,12.2,12.2,0,0,1-1.08,5.28,8.17,8.17,0,0,1-3.06,3.52,8.34,8.34,0,0,1-4.54,1.24,7.77,7.77,0,0,1-3.88-.94,6.24,6.24,0,0,1-2.56-2.7v8.92a1.73,1.73,0,0,1-.54,1.34,2,2,0,0,1-1.42.5,2.16,2.16,0,0,1-1.5-.52,1.78,1.78,0,0,1-.58-1.4V16.14a1.89,1.89,0,0,1,.56-1.42,2,2,0,0,1,1.48-.54,2,2,0,0,1,1.44.54,1.89,1.89,0,0,1,.56,1.42v1.64a6.35,6.35,0,0,1,2.56-2.72,7.67,7.67,0,0,1,3.88-1A8.13,8.13,0,0,1,321.84,15.38Zm-1.38,14a7.86,7.86,0,0,0,1.44-5.06,8.14,8.14,0,0,0-1.46-5.16,5.44,5.44,0,0,0-8.12,0,8.08,8.08,0,0,0-1.42,5.12,8.08,8.08,0,0,0,1.42,5.12,4.87,4.87,0,0,0,4.06,1.8A4.94,4.94,0,0,0,320.46,29.4Z"/><path class="a" d="M331.08,33.82a1.75,1.75,0,0,1-.58-1.44V7.66a1.81,1.81,0,0,1,.58-1.46,2.17,2.17,0,0,1,1.46-.5,2.08,2.08,0,0,1,1.44.5,1.86,1.86,0,0,1,.56,1.46V32.38a1.8,1.8,0,0,1-.56,1.44,2.12,2.12,0,0,1-1.44.48A2.21,2.21,0,0,1,331.08,33.82Z"/><path class="a" d="M340.38,9.62a2.22,2.22,0,0,1-.68-1.68,2.15,2.15,0,0,1,.68-1.66,3,3,0,0,1,3.66,0,2.1,2.1,0,0,1,.7,1.66,2.22,2.22,0,0,1-.68,1.68,3,3,0,0,1-3.68,0Zm.38,24.2a1.75,1.75,0,0,1-.58-1.44V16.14a1.81,1.81,0,0,1,.58-1.46,2.17,2.17,0,0,1,1.46-.5,2.08,2.08,0,0,1,1.44.5,1.86,1.86,0,0,1,.56,1.46V32.38a1.8,1.8,0,0,1-.56,1.44,2.12,2.12,0,0,1-1.44.48A2.21,2.21,0,0,1,340.76,33.82Z"/><path class="a" d="M353.24,33.14a8.49,8.49,0,0,1-3.32-3.52,11.29,11.29,0,0,1-1.18-5.28A11.39,11.39,0,0,1,350,19a8.74,8.74,0,0,1,3.42-3.6,9.89,9.89,0,0,1,5-1.28,11.26,11.26,0,0,1,3.06.44,10.2,10.2,0,0,1,2.74,1.2,2.51,2.51,0,0,1,1.28,2,1.81,1.81,0,0,1-.36,1.14,1.11,1.11,0,0,1-.92.46,1.6,1.6,0,0,1-.72-.18,9.92,9.92,0,0,1-.92-.54,11.28,11.28,0,0,0-1.86-1,5.52,5.52,0,0,0-2.06-.34,5.13,5.13,0,0,0-4.22,1.84,7.89,7.89,0,0,0-1.5,5.12,7.69,7.69,0,0,0,1.48,5.06,5.16,5.16,0,0,0,4.2,1.78,5.78,5.78,0,0,0,2.12-.36,11.54,11.54,0,0,0,1.88-1,6.37,6.37,0,0,1,.88-.48,2,2,0,0,1,.8-.2,1.11,1.11,0,0,1,.92.46,1.81,1.81,0,0,1,.36,1.14,1.84,1.84,0,0,1-.3,1,3.5,3.5,0,0,1-1,.94,9.56,9.56,0,0,1-2.8,1.24,12.34,12.34,0,0,1-3.24.44A9.74,9.74,0,0,1,353.24,33.14Z"/><path class="a" d="M383.16,16.06c1.27,1.31,1.9,3.29,1.9,6V32.38a1.87,1.87,0,0,1-.52,1.42,2,2,0,0,1-1.44.5,1.79,1.79,0,0,1-1.92-1.92V30.9a5.65,5.65,0,0,1-2.26,2.58,6.68,6.68,0,0,1-3.5.9,7.79,7.79,0,0,1-3.5-.78,6.31,6.31,0,0,1-2.5-2.14,5.39,5.39,0,0,1-.92-3.08A4.64,4.64,0,0,1,369.58,25a6.79,6.79,0,0,1,3.64-1.76,35.17,35.17,0,0,1,7-.54h.92V21.54a4.73,4.73,0,0,0-.92-3.24,3.84,3.84,0,0,0-3-1,9.46,9.46,0,0,0-2.64.36,20.29,20.29,0,0,0-2.72,1,3.94,3.94,0,0,1-1.52.6,1.24,1.24,0,0,1-1-.44,1.67,1.67,0,0,1-.38-1.12,1.72,1.72,0,0,1,.34-1.06,3.49,3.49,0,0,1,1.1-.9,13.68,13.68,0,0,1,3.28-1.22,15.13,15.13,0,0,1,3.64-.46C380,14.1,381.89,14.75,383.16,16.06Zm-3.42,13.82a5.45,5.45,0,0,0,1.4-3.86V25h-.72a30.74,30.74,0,0,0-4.8.28,4.74,4.74,0,0,0-2.4.94,2.44,2.44,0,0,0-.72,1.9,3,3,0,0,0,1,2.36,3.79,3.79,0,0,0,2.6.92A4.69,4.69,0,0,0,379.74,29.88Z"/><path class="a" d="M401.4,31.68a1.45,1.45,0,0,1,.38,1.06,1.39,1.39,0,0,1-.62,1.22,2.93,2.93,0,0,1-1.82.34l-1.08-.08a7,7,0,0,1-4.84-2,7.33,7.33,0,0,1-1.6-5.14V17.7h-2.4c-1.18,0-1.76-.52-1.76-1.56a1.46,1.46,0,0,1,.46-1.14,1.86,1.86,0,0,1,1.3-.42h2.4V10.46A1.92,1.92,0,0,1,392.36,9a2,2,0,0,1,1.46-.52A2.07,2.07,0,0,1,395.3,9a1.89,1.89,0,0,1,.56,1.44v4.12h4a1.86,1.86,0,0,1,1.3.42,1.46,1.46,0,0,1,.46,1.14,1.44,1.44,0,0,1-.46,1.16,1.91,1.91,0,0,1-1.3.4h-4v9.68a4.1,4.1,0,0,0,.78,2.76,3.36,3.36,0,0,0,2.38,1l1.12.08A2,2,0,0,1,401.4,31.68Z"/><path class="a" d="M404.9,9.62a2.22,2.22,0,0,1-.68-1.68,2.15,2.15,0,0,1,.68-1.66,3,3,0,0,1,3.66,0,2.1,2.1,0,0,1,.7,1.66,2.22,2.22,0,0,1-.68,1.68,3,3,0,0,1-3.68,0Zm.38,24.2a1.75,1.75,0,0,1-.58-1.44V16.14a1.81,1.81,0,0,1,.58-1.46,2.17,2.17,0,0,1,1.46-.5,2.1,2.1,0,0,1,1.44.5,1.86,1.86,0,0,1,.56,1.46V32.38a1.8,1.8,0,0,1-.56,1.44,2.14,2.14,0,0,1-1.44.48A2.21,2.21,0,0,1,405.28,33.82Z"/><path class="a" d="M417.8,33.14a8.45,8.45,0,0,1-3.36-3.54,11.48,11.48,0,0,1-1.18-5.34,11.59,11.59,0,0,1,1.18-5.38,8.45,8.45,0,0,1,3.36-3.54,10.94,10.94,0,0,1,10.12,0,8.45,8.45,0,0,1,3.36,3.54,11.59,11.59,0,0,1,1.18,5.38,11.48,11.48,0,0,1-1.18,5.34,8.45,8.45,0,0,1-3.36,3.54,10.94,10.94,0,0,1-10.12,0ZM427,29.42a8,8,0,0,0,1.42-5.16,8,8,0,0,0-1.44-5.14,5.57,5.57,0,0,0-8.16,0,8,8,0,0,0-1.44,5.14,8,8,0,0,0,1.42,5.16,5.66,5.66,0,0,0,8.2,0Z"/><path class="a" d="M454.46,22v10.4a1.84,1.84,0,0,1-.54,1.42,2.14,2.14,0,0,1-1.5.5,2,2,0,0,1-1.46-.52,1.85,1.85,0,0,1-.54-1.4V22.18a5.6,5.6,0,0,0-1-3.64,3.82,3.82,0,0,0-3.06-1.16,5.24,5.24,0,0,0-3.92,1.52A5.57,5.57,0,0,0,441,23v9.4a1.85,1.85,0,0,1-.54,1.4,2,2,0,0,1-1.46.52,2.07,2.07,0,0,1-1.48-.52,1.8,1.8,0,0,1-.56-1.4V16.1a1.79,1.79,0,0,1,.58-1.38,2.06,2.06,0,0,1,1.46-.54,1.89,1.89,0,0,1,1.4.52,1.87,1.87,0,0,1,.52,1.36V17.7A6.47,6.47,0,0,1,443.58,15a8.12,8.12,0,0,1,3.88-.92Q454.45,14.1,454.46,22Z"/><path class="a" d="M460.1,32.7a3,3,0,0,1-1-.92,2,2,0,0,1-.3-1.08,1.64,1.64,0,0,1,.36-1.08,1.14,1.14,0,0,1,.92-.44,3.94,3.94,0,0,1,1.64.64,16.83,16.83,0,0,0,2.34,1,8.64,8.64,0,0,0,2.86.4,5.65,5.65,0,0,0,3-.68A2.14,2.14,0,0,0,471,28.66a1.88,1.88,0,0,0-.42-1.28,3.55,3.55,0,0,0-1.46-.86A25.25,25.25,0,0,0,466,25.7,11.81,11.81,0,0,1,461,23.64a4.39,4.39,0,0,1-1.54-3.54,5.13,5.13,0,0,1,1-3.1,6.44,6.44,0,0,1,2.76-2.14,9.91,9.91,0,0,1,4-.76,11.73,11.73,0,0,1,3.12.42A9,9,0,0,1,473,15.74a2.49,2.49,0,0,1,1.32,2,1.6,1.6,0,0,1-.38,1.08,1.19,1.19,0,0,1-.9.44,1.71,1.71,0,0,1-.72-.16,10.23,10.23,0,0,1-1-.52,13.43,13.43,0,0,0-2-1,6.62,6.62,0,0,0-2.34-.36,4.59,4.59,0,0,0-2.7.72,2.27,2.27,0,0,0-1,2,2,2,0,0,0,.94,1.74,11.39,11.39,0,0,0,3.54,1.18,19.45,19.45,0,0,1,4.2,1.28,5,5,0,0,1,2.18,1.78,5,5,0,0,1,.66,2.7,4.93,4.93,0,0,1-2.18,4.18,9.76,9.76,0,0,1-5.82,1.58A12.1,12.1,0,0,1,460.1,32.7Z"/><path class="a" d="M526.78,6a1.93,1.93,0,0,1,1.08-.32,2,2,0,0,1,1.34.5,1.66,1.66,0,0,1,.58,1.3,2.08,2.08,0,0,1-.16.8L520.78,33a2.15,2.15,0,0,1-.88,1,2.52,2.52,0,0,1-1.32.36A2.43,2.43,0,0,1,517.3,34a1.93,1.93,0,0,1-.84-1l-7.28-20.64L501.74,33a1.93,1.93,0,0,1-.84,1,2.46,2.46,0,0,1-1.28.36,2.4,2.4,0,0,1-1.3-.36,2.11,2.11,0,0,1-.86-1L488.62,8.26a1.91,1.91,0,0,1-.16-.8,1.61,1.61,0,0,1,.6-1.3,2.19,2.19,0,0,1,1.44-.5,2,2,0,0,1,1.1.32,1.87,1.87,0,0,1,.74,1l7.4,21.28,7.52-21.08a2,2,0,0,1,.78-1,2.08,2.08,0,0,1,1.18-.36,2,2,0,0,1,1.16.38,2.49,2.49,0,0,1,.8,1.06l7.36,21.24,7.52-21.48A1.89,1.89,0,0,1,526.78,6Z"/><path class="a" d="M536.26,9.62a2.19,2.19,0,0,1-.68-1.68,2.11,2.11,0,0,1,.68-1.66,2.63,2.63,0,0,1,1.84-.62,2.68,2.68,0,0,1,1.82.62,2.13,2.13,0,0,1,.7,1.66,2.22,2.22,0,0,1-.68,1.68,2.58,2.58,0,0,1-1.84.64A2.55,2.55,0,0,1,536.26,9.62Zm.38,24.2a1.75,1.75,0,0,1-.58-1.44V16.14a1.81,1.81,0,0,1,.58-1.46,2.16,2.16,0,0,1,1.46-.5,2.12,2.12,0,0,1,1.44.5,1.86,1.86,0,0,1,.56,1.46V32.38a1.8,1.8,0,0,1-.56,1.44,2.16,2.16,0,0,1-1.44.48A2.19,2.19,0,0,1,536.64,33.82Z"/><path class="a" d="M557.12,31.68a1.45,1.45,0,0,1,.38,1.06,1.39,1.39,0,0,1-.62,1.22,2.93,2.93,0,0,1-1.82.34L554,34.22a7,7,0,0,1-4.84-2,7.33,7.33,0,0,1-1.6-5.14V17.7h-2.4c-1.18,0-1.76-.52-1.76-1.56a1.46,1.46,0,0,1,.46-1.14,1.85,1.85,0,0,1,1.3-.42h2.4V10.46A1.92,1.92,0,0,1,548.08,9a2,2,0,0,1,1.46-.52A2.09,2.09,0,0,1,551,9a1.89,1.89,0,0,1,.56,1.44v4.12h4a1.86,1.86,0,0,1,1.3.42,1.67,1.67,0,0,1,0,2.3,1.91,1.91,0,0,1-1.3.4h-4v9.68a4.1,4.1,0,0,0,.78,2.76,3.36,3.36,0,0,0,2.38,1l1.12.08A2,2,0,0,1,557.12,31.68Z"/><path class="a" d="M577.94,22v10.4a1.83,1.83,0,0,1-.56,1.4,2.09,2.09,0,0,1-1.48.52,2,2,0,0,1-1.46-.52,1.85,1.85,0,0,1-.54-1.4V22a5.28,5.28,0,0,0-1-3.52,3.87,3.87,0,0,0-3.06-1.12,5.22,5.22,0,0,0-3.92,1.52A5.57,5.57,0,0,0,564.46,23v9.4a1.85,1.85,0,0,1-.54,1.4,2,2,0,0,1-1.46.52,2.06,2.06,0,0,1-1.48-.52,1.8,1.8,0,0,1-.56-1.4V7.62a1.78,1.78,0,0,1,.58-1.4,2.12,2.12,0,0,1,1.5-.52,2,2,0,0,1,1.42.5,1.73,1.73,0,0,1,.54,1.34v10A6.66,6.66,0,0,1,567.14,15,8.11,8.11,0,0,1,571,14.1Q577.94,14.1,577.94,22Z"/><path class="a" d="M35.91,104.15a15.74,15.74,0,0,1-6.32-6.88,23.72,23.72,0,0,1-2.2-10.59,23.61,23.61,0,0,1,2.2-10.53,15.66,15.66,0,0,1,6.32-6.87,18.91,18.91,0,0,1,9.68-2.4A20.9,20.9,0,0,1,52.47,68a16.64,16.64,0,0,1,5.66,3.27,2.68,2.68,0,0,1,1,2.2,2.65,2.65,0,0,1-.55,1.68,1.65,1.65,0,0,1-1.32.69,2.85,2.85,0,0,1-1.82-.72,19.33,19.33,0,0,0-4.81-2.77,14.26,14.26,0,0,0-4.92-.8q-6.06,0-9.3,3.91T33.22,86.68q0,7.38,3.24,11.28t9.3,3.9a13.45,13.45,0,0,0,4.81-.82,23.33,23.33,0,0,0,4.92-2.75,3.58,3.58,0,0,1,1.82-.72,1.65,1.65,0,0,1,1.32.69,2.83,2.83,0,0,1-.5,3.88,16.64,16.64,0,0,1-5.66,3.27,20.9,20.9,0,0,1-6.88,1.13A19,19,0,0,1,35.91,104.15Z"/><path class="a" d="M87.53,79.43a2.61,2.61,0,0,1,.74,2v22.39a2.45,2.45,0,0,1-.77,1.87,2.85,2.85,0,0,1-2,.72,2.57,2.57,0,0,1-1.87-.69,2.45,2.45,0,0,1-.72-1.85v-2.08a8.55,8.55,0,0,1-3.49,3.51,10.25,10.25,0,0,1-5,1.21q-9.8,0-9.79-10.77V81.4a2.61,2.61,0,0,1,.74-2,2.87,2.87,0,0,1,2.07-.72,2.74,2.74,0,0,1,2,.72,2.58,2.58,0,0,1,.75,2V95.65a7.22,7.22,0,0,0,1.32,4.78A5.05,5.05,0,0,0,75.57,102a6.74,6.74,0,0,0,5.19-2.09,7.8,7.8,0,0,0,2-5.55V81.4a2.58,2.58,0,0,1,.77-2,2.82,2.82,0,0,1,2-.74A2.78,2.78,0,0,1,87.53,79.43Z"/><path class="a" d="M110.9,102.77a2,2,0,0,1,.52,1.46,1.91,1.91,0,0,1-.85,1.68,4,4,0,0,1-2.5.47l-1.49-.12c-3-.21-5.18-1.12-6.65-2.72s-2.2-4-2.2-7.07V83.55h-3.3c-1.61,0-2.42-.71-2.42-2.15a2,2,0,0,1,.63-1.56,2.54,2.54,0,0,1,1.79-.58h3.3V73.59a2.65,2.65,0,0,1,.74-2,2.82,2.82,0,0,1,2-.71,2.89,2.89,0,0,1,2,.71,2.56,2.56,0,0,1,.77,2v5.67h5.45a2.55,2.55,0,0,1,1.79.58,2.3,2.3,0,0,1,0,3.16,2.64,2.64,0,0,1-1.79.55h-5.45V96.86a5.57,5.57,0,0,0,1.08,3.79,4.61,4.61,0,0,0,3.27,1.38l1.54.11A2.72,2.72,0,0,1,110.9,102.77Z"/><path class="a" d="M130.21,102.77a2,2,0,0,1,.52,1.46,1.91,1.91,0,0,1-.85,1.68,4.06,4.06,0,0,1-2.51.47l-1.48-.12q-4.45-.32-6.66-2.72c-1.46-1.59-2.2-4-2.2-7.07V83.55h-3.3c-1.61,0-2.42-.71-2.42-2.15a2,2,0,0,1,.64-1.56,2.51,2.51,0,0,1,1.78-.58H117V73.59a2.62,2.62,0,0,1,.75-2,2.78,2.78,0,0,1,2-.71,2.89,2.89,0,0,1,2,.71,2.59,2.59,0,0,1,.77,2v5.67H128a2.54,2.54,0,0,1,1.79.58,2.3,2.3,0,0,1,0,3.16,2.63,2.63,0,0,1-1.79.55h-5.44V96.86a5.62,5.62,0,0,0,1.07,3.79,4.65,4.65,0,0,0,3.27,1.38l1.54.11A2.75,2.75,0,0,1,130.21,102.77Z"/><path class="a" d="M135.54,105.72a2.46,2.46,0,0,1-.8-2v-34a2.5,2.5,0,0,1,.8-2,3,3,0,0,1,2-.69,2.84,2.84,0,0,1,2,.69,2.55,2.55,0,0,1,.77,2v34a2.51,2.51,0,0,1-.77,2,3,3,0,0,1-2,.66A3.1,3.1,0,0,1,135.54,105.72Z"/><path class="a" d="M170.33,99.94a2.35,2.35,0,0,1,.49,1.54,3.18,3.18,0,0,1-2,2.7,18.06,18.06,0,0,1-8.58,2.3q-6.37,0-10.06-3.71t-3.69-10.14a15.84,15.84,0,0,1,1.63-7.32,11.88,11.88,0,0,1,4.56-5,12.79,12.79,0,0,1,6.68-1.76,11,11,0,0,1,8.53,3.46C170,84.38,171,87.49,171,91.42q0,2.19-2,2.19h-17c.36,5.69,3.1,8.53,8.19,8.53a10,10,0,0,0,3.52-.55,25.65,25.65,0,0,0,3.14-1.43c.11-.07.41-.23.91-.47a2.9,2.9,0,0,1,1.23-.35A1.57,1.57,0,0,1,170.33,99.94Zm-16-15.23a9.4,9.4,0,0,0-2.31,5.72h14.19a9.16,9.16,0,0,0-1.9-5.75,6.08,6.08,0,0,0-4.87-2A6.7,6.7,0,0,0,154.38,84.71Z"/><path class="a" d="M197.77,80.3A11.47,11.47,0,0,1,202,85.14a16.64,16.64,0,0,1,1.51,7.32A16.81,16.81,0,0,1,202,99.77a11.7,11.7,0,0,1-4.23,5,11.11,11.11,0,0,1-6.19,1.76,10.77,10.77,0,0,1-5.34-1.29,8.53,8.53,0,0,1-3.52-3.71v2.2a2.6,2.6,0,0,1-.74,1.95,2.69,2.69,0,0,1-2,.75,2.78,2.78,0,0,1-2-.75,2.55,2.55,0,0,1-.77-1.95v-34a2.44,2.44,0,0,1,.8-1.93,3,3,0,0,1,2.06-.71,2.75,2.75,0,0,1,2,.69,2.37,2.37,0,0,1,.74,1.84V83.66a8.71,8.71,0,0,1,3.52-3.74,10.57,10.57,0,0,1,5.34-1.32A11.41,11.41,0,0,1,197.77,80.3Zm-2,19.25c1.34-1.68,2-4,2-7.09s-.66-5.33-2-7a6.81,6.81,0,0,0-5.61-2.45,6.69,6.69,0,0,0-5.58,2.48q-2,2.48-2,7t2,7a7.46,7.46,0,0,0,11.16-.06Z"/><path class="a" d="M231.93,99.94a2.35,2.35,0,0,1,.49,1.54,3.18,3.18,0,0,1-2,2.7,18.06,18.06,0,0,1-8.58,2.3q-6.37,0-10.06-3.71t-3.69-10.14a15.84,15.84,0,0,1,1.63-7.32,11.88,11.88,0,0,1,4.56-5A12.79,12.79,0,0,1,221,78.6a11,11,0,0,1,8.53,3.46c2.09,2.32,3.13,5.43,3.13,9.36q0,2.19-2,2.19h-17c.36,5.69,3.1,8.53,8.19,8.53a10,10,0,0,0,3.52-.55,25.65,25.65,0,0,0,3.14-1.43c.11-.07.41-.23.91-.47a2.9,2.9,0,0,1,1.23-.35A1.57,1.57,0,0,1,231.93,99.94ZM216,84.71a9.4,9.4,0,0,0-2.31,5.72h14.19a9.16,9.16,0,0,0-1.9-5.75,6.08,6.08,0,0,0-4.87-2A6.7,6.7,0,0,0,216,84.71Z"/><path class="a" d="M239.54,105.72a2.46,2.46,0,0,1-.79-2v-34a2.49,2.49,0,0,1,.79-2,3,3,0,0,1,2-.69,2.84,2.84,0,0,1,2,.69,2.55,2.55,0,0,1,.77,2v34a2.51,2.51,0,0,1-.77,2,3,3,0,0,1-2,.66A3.11,3.11,0,0,1,239.54,105.72Z"/><path class="a" d="M252.85,105.72a2.46,2.46,0,0,1-.79-2v-34a2.49,2.49,0,0,1,.79-2,3,3,0,0,1,2-.69,2.84,2.84,0,0,1,2,.69,2.55,2.55,0,0,1,.77,2v34a2.51,2.51,0,0,1-.77,2,3,3,0,0,1-2,.66A3.1,3.1,0,0,1,252.85,105.72Z"/><path class="a" d="M287.64,99.94a2.36,2.36,0,0,1,.5,1.54,3.18,3.18,0,0,1-2,2.7,17.59,17.59,0,0,1-4.21,1.7,17.2,17.2,0,0,1-4.38.6q-6.37,0-10.06-3.71t-3.69-10.14a16,16,0,0,1,1.63-7.32,11.88,11.88,0,0,1,4.56-5,12.8,12.8,0,0,1,6.69-1.76,11,11,0,0,1,8.52,3.46c2.09,2.32,3.14,5.43,3.14,9.36q0,2.19-2,2.19h-17q.56,8.53,8.19,8.53a10.11,10.11,0,0,0,3.53-.55,25.55,25.55,0,0,0,3.13-1.43c.11-.07.41-.23.91-.47a2.94,2.94,0,0,1,1.24-.35A1.56,1.56,0,0,1,287.64,99.94ZM271.69,84.71a9.52,9.52,0,0,0-2.31,5.72h14.19a9.16,9.16,0,0,0-1.9-5.75,6.06,6.06,0,0,0-4.86-2A6.7,6.7,0,0,0,271.69,84.71Z"/><path class="a" d="M331.62,79Q334.47,82,334.47,88v15.54a2.82,2.82,0,0,1-.78,2.13,3,3,0,0,1-2.16.75,2.69,2.69,0,0,1-2.88-2.88V101.3a8.44,8.44,0,0,1-3.39,3.87,10,10,0,0,1-5.25,1.35,11.7,11.7,0,0,1-5.25-1.17,9.5,9.5,0,0,1-3.75-3.21,8.05,8.05,0,0,1-1.38-4.62,7,7,0,0,1,1.62-5.07,10.13,10.13,0,0,1,5.46-2.64,52.78,52.78,0,0,1,10.5-.81h1.38V87.26q0-3.36-1.38-4.86a5.78,5.78,0,0,0-4.44-1.5,14.14,14.14,0,0,0-4,.54A29.77,29.77,0,0,0,314.73,83a5.88,5.88,0,0,1-2.28.9,1.85,1.85,0,0,1-1.47-.66,2.48,2.48,0,0,1-.57-1.68,2.6,2.6,0,0,1,.51-1.59,5.37,5.37,0,0,1,1.65-1.35,20.51,20.51,0,0,1,4.92-1.83A23,23,0,0,1,323,76.1Q328.77,76.1,331.62,79Zm-5.13,20.73a8.15,8.15,0,0,0,2.1-5.79V92.42h-1.08a46.74,46.74,0,0,0-7.2.42,7.06,7.06,0,0,0-3.6,1.41,3.67,3.67,0,0,0-1.08,2.85,4.51,4.51,0,0,0,1.56,3.54,5.67,5.67,0,0,0,3.9,1.38A7.06,7.06,0,0,0,326.49,99.77Z"/><path class="a" d="M369,87.92v15.6a2.76,2.76,0,0,1-.81,2.13,3.19,3.19,0,0,1-2.25.75,3,3,0,0,1-2.19-.78,2.78,2.78,0,0,1-.81-2.1V88.22q0-3.72-1.47-5.46A5.68,5.68,0,0,0,356.91,81,7.83,7.83,0,0,0,351,83.3a8.4,8.4,0,0,0-2.22,6.12v14.1a2.78,2.78,0,0,1-.81,2.1,3,3,0,0,1-2.19.78,3.13,3.13,0,0,1-2.22-.78,2.73,2.73,0,0,1-.84-2.1V79.1a2.7,2.7,0,0,1,.87-2.07,3.09,3.09,0,0,1,2.19-.81,2.84,2.84,0,0,1,2.1.78,2.76,2.76,0,0,1,.78,2V81.5a9.73,9.73,0,0,1,4-4,12.14,12.14,0,0,1,5.82-1.38Q369,76.1,369,87.92Z"/><path class="a" d="M403.47,64.28a2.73,2.73,0,0,1,.84,2.1v37.08a2.86,2.86,0,0,1-.81,2.16,3.46,3.46,0,0,1-4.38,0,2.86,2.86,0,0,1-.81-2.16v-2.4a9.28,9.28,0,0,1-3.84,4,11.72,11.72,0,0,1-5.82,1.41,12.16,12.16,0,0,1-6.75-1.92,12.76,12.76,0,0,1-4.62-5.4,18.42,18.42,0,0,1-1.65-8,18.17,18.17,0,0,1,1.65-8,12.11,12.11,0,0,1,11.37-7.14,11.55,11.55,0,0,1,5.79,1.41,9.41,9.41,0,0,1,3.81,4V66.26a2.61,2.61,0,0,1,.81-2,3.1,3.1,0,0,1,2.19-.75A3.13,3.13,0,0,1,403.47,64.28ZM396.15,99q2.16-2.7,2.16-7.68t-2.13-7.68a7.3,7.3,0,0,0-6.09-2.7,7.51,7.51,0,0,0-6.15,2.67q-2.19,2.67-2.19,7.59T384,98.93a8.13,8.13,0,0,0,12.18.09Z"/><path class="a" d="M430.14,105.29a3,3,0,0,1-.81-2.19V66.8a3,3,0,0,1,.81-2.19,3,3,0,0,1,2.25-.81h22.08a3.12,3.12,0,0,1,2.13.66,2.35,2.35,0,0,1,.75,1.86,2.26,2.26,0,0,1-.75,1.83,3.22,3.22,0,0,1-2.13.63H435.39V82.1h17.88a3.12,3.12,0,0,1,2.13.66,2.68,2.68,0,0,1,0,3.72,3.12,3.12,0,0,1-2.13.66H435.39v14h19.08q2.88,0,2.88,2.46a2.35,2.35,0,0,1-.75,1.86,3.12,3.12,0,0,1-2.13.66H432.39A3,3,0,0,1,430.14,105.29Z"/><path class="a" d="M464.58,105.68a2.64,2.64,0,0,1-.87-2.16V66.44a2.73,2.73,0,0,1,.87-2.19,3.23,3.23,0,0,1,2.19-.75,3.12,3.12,0,0,1,2.16.75,2.78,2.78,0,0,1,.84,2.19v37.08a2.69,2.69,0,0,1-.84,2.16,3.2,3.2,0,0,1-2.16.72A3.32,3.32,0,0,1,464.58,105.68Z"/><path class="a" d="M502.53,99.38a2.57,2.57,0,0,1,.54,1.68q0,1.74-2.16,2.94a19,19,0,0,1-4.59,1.86,18.61,18.61,0,0,1-4.77.66q-7,0-11-4t-4-11.07a17.36,17.36,0,0,1,1.77-8,13,13,0,0,1,5-5.4,13.93,13.93,0,0,1,7.29-1.92,11.91,11.91,0,0,1,9.3,3.78q3.42,3.78,3.42,10.2,0,2.4-2.16,2.4H482.61q.6,9.3,8.94,9.3a11.06,11.06,0,0,0,3.84-.6,27.93,27.93,0,0,0,3.42-1.56q.18-.12,1-.51a3.28,3.28,0,0,1,1.35-.39A1.7,1.7,0,0,1,502.53,99.38Zm-17.4-16.62A10.37,10.37,0,0,0,482.61,89h15.48A10,10,0,0,0,496,82.73a6.64,6.64,0,0,0-5.31-2.19A7.32,7.32,0,0,0,485.13,82.76Z"/><path class="a" d="M515,104.66a12.74,12.74,0,0,1-5-5.28,18.5,18.5,0,0,1,.06-16,13.1,13.1,0,0,1,5.13-5.4,14.73,14.73,0,0,1,7.56-1.92,16.7,16.7,0,0,1,4.59.66,15.84,15.84,0,0,1,4.11,1.8,3.76,3.76,0,0,1,1.92,3.06,2.69,2.69,0,0,1-.54,1.71,1.68,1.68,0,0,1-1.38.69,2.37,2.37,0,0,1-1.08-.27,15.58,15.58,0,0,1-1.38-.81,16.92,16.92,0,0,0-2.79-1.47,8.44,8.44,0,0,0-3.09-.51,7.71,7.71,0,0,0-6.33,2.76q-2.25,2.76-2.25,7.68c0,3.28.73,5.81,2.22,7.59a7.71,7.71,0,0,0,6.3,2.67,8.59,8.59,0,0,0,3.17-.54,17.18,17.18,0,0,0,2.83-1.44,10.06,10.06,0,0,1,1.32-.72,2.94,2.94,0,0,1,1.2-.3,1.68,1.68,0,0,1,1.38.69,2.69,2.69,0,0,1,.54,1.71,2.74,2.74,0,0,1-.45,1.53,5.46,5.46,0,0,1-1.53,1.41,14.51,14.51,0,0,1-4.2,1.86,18.25,18.25,0,0,1-4.86.66A14.64,14.64,0,0,1,515,104.66Z"/><path class="a" d="M555.29,102.47a2.15,2.15,0,0,1,.58,1.59,2.1,2.1,0,0,1-.93,1.83,4.38,4.38,0,0,1-2.74.51l-1.62-.12c-3.23-.24-5.66-1.23-7.26-3s-2.4-4.31-2.4-7.71V81.5h-3.6c-1.76,0-2.63-.78-2.63-2.34a2.19,2.19,0,0,1,.68-1.71,2.81,2.81,0,0,1,2-.63h3.6V70.64a2.86,2.86,0,0,1,.82-2.16,3,3,0,0,1,2.18-.78,3.17,3.17,0,0,1,2.23.78,2.84,2.84,0,0,1,.84,2.16v6.18h5.93a2.77,2.77,0,0,1,2,.63,2.48,2.48,0,0,1,0,3.45,2.86,2.86,0,0,1-2,.6H547V96a6.08,6.08,0,0,0,1.17,4.14,5,5,0,0,0,3.57,1.5l1.68.12A3,3,0,0,1,555.29,102.47Z"/><path class="a" d="M578.49,78.68a2.69,2.69,0,0,1-.67,2,3.56,3.56,0,0,1-2.28.78l-1.8.18a7.77,7.77,0,0,0-5.61,2.64,8.54,8.54,0,0,0-1.83,5.52v13.74a2.69,2.69,0,0,1-.84,2.16,3.2,3.2,0,0,1-2.16.72,3.27,3.27,0,0,1-2.18-.72,2.62,2.62,0,0,1-.88-2.16V79.1a2.63,2.63,0,0,1,.88-2.13,3.19,3.19,0,0,1,2.18-.75,2.83,2.83,0,0,1,2,.75,2.68,2.68,0,0,1,.81,2.07v2.88a8.81,8.81,0,0,1,3.48-4,11.69,11.69,0,0,1,5.16-1.62l.84-.06C577.53,76.1,578.49,76.92,578.49,78.68Z"/><path class="a" d="M586.74,104.66a12.43,12.43,0,0,1-5-5.31,19,19,0,0,1,0-16.08,12.43,12.43,0,0,1,5-5.31,16.4,16.4,0,0,1,15.17,0,12.49,12.49,0,0,1,5,5.31,19,19,0,0,1,0,16.08,12.49,12.49,0,0,1-5,5.31,16.4,16.4,0,0,1-15.17,0Zm13.74-5.58c1.41-1.76,2.13-4.34,2.13-7.74s-.72-5.93-2.16-7.71a8.36,8.36,0,0,0-12.25,0C586.77,85.41,586,88,586,91.34s.71,6,2.13,7.74a8.5,8.5,0,0,0,12.31,0Z"/><path class="a" d="M641.72,87.92v15.6a2.76,2.76,0,0,1-.81,2.13,3.19,3.19,0,0,1-2.25.75,3,3,0,0,1-2.19-.78,2.78,2.78,0,0,1-.81-2.1V88.22q0-3.72-1.47-5.46A5.68,5.68,0,0,0,629.6,81a7.83,7.83,0,0,0-5.88,2.28,8.4,8.4,0,0,0-2.22,6.12v14.1a2.78,2.78,0,0,1-.81,2.1,3,3,0,0,1-2.19.78,3.13,3.13,0,0,1-2.22-.78,2.73,2.73,0,0,1-.84-2.1V79.1a2.7,2.7,0,0,1,.87-2.07,3.09,3.09,0,0,1,2.19-.81,2.84,2.84,0,0,1,2.1.78,2.76,2.76,0,0,1,.78,2V81.5a9.73,9.73,0,0,1,4-4,12.14,12.14,0,0,1,5.82-1.38Q641.72,76.1,641.72,87.92Z"/><path class="a" d="M359.65,284l-23.33.07V261.2a3.6,3.6,0,1,0-7.2,0l.07,22.8H306.85a3.6,3.6,0,0,0,0,7.2h22.31V314a3.6,3.6,0,1,0,7.19,0V291.2h23.3a3.6,3.6,0,1,0,0-7.2Z"/><path class="a" d="M139.81,233.44c-24.83-4.52-44.46.21-52.29,13.76-5.83,10.11-4.16,23.52,4,37.85A2.55,2.55,0,1,0,96,282.61a.41.41,0,0,0-.05-.09c-7.4-12.91-8.84-24.48-4.06-32.77,6.5-11.26,24-15.48,47-11.3a2.55,2.55,0,0,0,.91-5Zm-35.33,69a159.34,159.34,0,0,0,38,30c36,20.8,74.36,26.35,93.26,13.47a2.55,2.55,0,0,0-2.8-4.26l-.07.05C215.92,353.23,179.49,348,145,328a154.42,154.42,0,0,1-36.74-29,2.55,2.55,0,1,0-3.78,3.41Z"/><path class="a" d="M229.67,299.38c16.26-19.21,21.93-38.53,14.13-52-5.75-10-17.89-15.21-34-15.42a2.55,2.55,0,0,0-.06,5.1c14.51.18,25,4.71,29.69,12.87,6.48,11.23,1.42,28.45-13.61,46.21a2.55,2.55,0,1,0,3.85,3.33Zm-41.78-65.1c-14.7,3.15-30.35,9.31-45.37,18-37.18,21.46-61.44,53.12-58.07,76.07a2.55,2.55,0,0,0,5-.68v-.06c-3-20.38,20-50.38,55.57-70.92A154.08,154.08,0,0,1,189,239.26a2.54,2.54,0,1,0-1-5Z"/><path class="a" d="M127.65,344.25c8.5,23.74,22.41,38.35,38,38.35,11.4,0,22-7.77,30.18-21.46a2.54,2.54,0,1,0-4.32-2.69l0,.06c-7.4,12.31-16.48,19-25.82,19-13,0-25.4-13-33.25-35a2.55,2.55,0,0,0-4.83,1.62l0,.1Zm77.65-4.64a160,160,0,0,0,6.76-47.19c0-42.18-14.76-78.54-35.79-87.88a2.55,2.55,0,0,0-2.07,4.65C193,217.52,207,252,207,292.42a154.92,154.92,0,0,1-6.53,45.67,2.55,2.55,0,0,0,4.84,1.59.14.14,0,0,1,0-.07Zm47.95-2.5a12.19,12.19,0,1,0-12.19,12.19A12.18,12.18,0,0,0,253.25,337.11Zm-5.09,0a7.1,7.1,0,1,1-7.1-7.09A7.1,7.1,0,0,1,248.16,337.11Zm-158,12.19A12.19,12.19,0,1,0,78,337.11,12.18,12.18,0,0,0,90.16,349.3Zm0-5.09a7.1,7.1,0,1,1,7.09-7.1A7.1,7.1,0,0,1,90.16,344.21Z"/><path class="a" d="M165.7,217a12.19,12.19,0,1,0-12.19-12.18A12.18,12.18,0,0,0,165.7,217Zm0-5.09a7.1,7.1,0,1,1,7.09-7.09A7.1,7.1,0,0,1,165.7,211.88ZM167.56,301a8.82,8.82,0,1,1,6.76-10.48A8.82,8.82,0,0,1,167.56,301Z"/><path class="b" d="M463.47,257.34c-4.21,18.47-2.28,31.76.13,39.76a43.53,43.53,0,0,0,5.31,11.65c-4,1.48-6.77,4.59-9,7.12l-1.51,1.68c-.85.88-1.68,1.81-2.48,2.71-2.64,2.94-5.37,6-8.7,7.91a21.59,21.59,0,0,1-12.8,2.5,34.79,34.79,0,0,1-10.2-2.78,68.66,68.66,0,0,1-6.18-3.11,3.05,3.05,0,0,0-3.16-.25c-1.53.83-1.6,2.83-1.63,3.51a20.9,20.9,0,0,0,7.13,16.08,30.24,30.24,0,0,0,10.24,5.61,34.58,34.58,0,0,0,10.29,1.63,30.26,30.26,0,0,0,7.22-.85c4.67-1.16,8.78-3.59,12.77-5.94l1-.58a59.42,59.42,0,0,0-2,12.22c-.21,3.34-.41,6.77-2.41,8.83a21.62,21.62,0,0,1-2.79,1.83,2.93,2.93,0,0,0-1.26,3.95,2.89,2.89,0,0,0,1.26,1.26c3.74,2,8.61,1.28,11.92,0a21.79,21.79,0,0,0,10.1-8c2.39-3.51,3.62-7.57,4.8-11.5l1.08-3.49a41.81,41.81,0,0,1,7-13.43,27.44,27.44,0,0,1-.27,10.89,50,50,0,0,1-2.76,8.5,46.78,46.78,0,0,0-3.09,9.93,15,15,0,0,0,.93,8.73,14.32,14.32,0,0,0,5.64,6,19.79,19.79,0,0,0,9.9,2.89,13.76,13.76,0,0,0,4.45-.74,2.36,2.36,0,0,0,1.8-2.18,2.65,2.65,0,0,0-.41-1.37,29.37,29.37,0,0,0-2-2.71l-1.36-1.78c-2.91-4.14-1.51-9-.43-11.59a26.79,26.79,0,0,1,4-6.08,45.8,45.8,0,0,0,8-15.08c.25,1.86.4,3.94.5,6.25.08,1.78.1,3.59.13,5.34,0,3.56.1,7.25.45,10.86.5,5.2,2.33,9.28,5.27,11.77,2.28,1.95,5.56,3.18,10,3.76a29.62,29.62,0,0,0,10.53-.63,8.39,8.39,0,0,0,3-1.25,2.37,2.37,0,0,0,1.23-2.06,1.68,1.68,0,0,0-1-1.4c-9.34-4.14-11.59-10.58-7.25-20.95a40.2,40.2,0,0,0,3-13.55l1.19.9a34.51,34.51,0,0,0,36.45,5.07,27.23,27.23,0,0,0,9.73-7.23,20.47,20.47,0,0,0,4.34-8.82c.42-1.66,1-3.94-.45-5.12a2.64,2.64,0,0,0-3-.2,34.31,34.31,0,0,1-24.34,1.46c-9.53-3-19.49-10.69-23.28-16.13l-.12-.15A41.86,41.86,0,0,0,546,297.3c4.49-14.25,2.63-29.53.15-40.16l-23.88-6.72-18.89,2.36-18.06-1.86Z"/><path class="b" d="M546.14,257.16a14.48,14.48,0,0,0,9.53-7.7,11.92,11.92,0,0,0-4-14.68c-.75-.47-1.49-.87-2.23-1.27s-1.48-.81-2.16-1.26a5.41,5.41,0,0,1-2.38-2.94c-.23-1,.1-1.85.63-3.21l0,0a11.64,11.64,0,0,0,.83-5.41,9.35,9.35,0,0,0-3.18-6.25,11.46,11.46,0,0,0-6.58-2.33l-1.28-.07a6.76,6.76,0,0,1-3.86-.85,6,6,0,0,1-1.93-3l-.45-1.41a12,12,0,0,0-2.63-5.17,9.2,9.2,0,0,0-7.18-2.78,9.7,9.7,0,0,1-5.2-.83,7.35,7.35,0,0,1-.92-.93c-1.51-1.68-4.09-4.45-8.54-4.45h-.55c-4.45,0-7,2.78-8.53,4.45a10.2,10.2,0,0,1-.93.93,9.59,9.59,0,0,1-5.2.83,9.17,9.17,0,0,0-7.2,2.77,11.91,11.91,0,0,0-2.63,5.17l-.45,1.4a5.92,5.92,0,0,1-1.93,3c-1,.74-2.34.78-3.87.85l-1.28.08a11.47,11.47,0,0,0-6.57,2.33,9.24,9.24,0,0,0-3.18,6.22,11.81,11.81,0,0,0,.82,5.42l0,0a4.15,4.15,0,0,1-1.76,6.14,24.18,24.18,0,0,1-2.15,1.26,24.63,24.63,0,0,0-2.21,1.27,11.92,11.92,0,0,0-4,14.68,14.55,14.55,0,0,0,10.45,7.92l22.18-6.68,18.48,2.51,16.85-2.6Z"/><path class="c" d="M555.49,241.24l-11.53-9L543.71,217l-11.8-3.69-6.22-9.65s-20.74-8.87-21-7.79c1,1.11,29.37,34.11,24.1,54.7.6,1.61,12.25,5.82,12.25,5.82l10.33-3.13,4.08-11.94Z"/><path class="c" d="M540.82,277.26c.6,7-.58,14.05-2.13,20.89a57.87,57.87,0,0,1-2.53,8.58,31.05,31.05,0,0,1-4,6.85,10.21,10.21,0,0,0,4.64-2.51c3.66-5.9,5.49-8.88,5.52-9,3.56-8.7,5.36-27.34,1.8-45.92-1.35,0-9.2-1.81-12.36-1.08,5.52,4.59,8.23,12.69,9.05,22.15Z"/><path class="d" d="M483.33,260.13a12.63,12.63,0,0,0-1.38.07c-2.39-.85-1.21-4.54-2.54-3-1,1.12-.6,2.81-.32,3.71l-.58.28c-1.76-.63-1.66-3.46-2.38-1.93a3.7,3.7,0,0,0,.52,3.31l-.37.4c-1.48-.45-2-2.6-2.28-1.15a3.4,3.4,0,0,0,1.11,2.78l-.32.69c-1.05-.45-1.5-1.85-1.66-.74a2.78,2.78,0,0,0,1.08,2.23,32.63,32.63,0,0,0-1.11,9.65c0,4.82.63,8.48,2,11.13a8.75,8.75,0,0,0,8.27,5.24c6.34,0,10.28-6.26,10.28-16.35C493.61,262.23,487.16,260.13,483.33,260.13Zm7,16.35-.05,1.88c-1-4.19-4.08-7.25-7.17-7.25-2.74,0-5.47,2.41-6.75,5.9v-.53c0-9.56,1.88-13.09,6.95-13.09,5.79,0,7,7.13,7,13.09Zm43.94-9.63a2.75,2.75,0,0,0,1.08-2.23c-.15-1.11-.6.25-1.65.75l-.35-.71a3.29,3.29,0,0,0,1.11-2.78c-.3-1.48-.8.7-2.28,1.15l-.37-.4c.45-.74,1.11-2.13.52-3.31-.74-1.53-.62,1.28-2.38,1.93l-.58-.27c.28-.9.61-2.6-.32-3.71-1.31-1.56-.13,2.1-2.54,3a10.64,10.64,0,0,0-1.38-.08c-3.84,0-10.28,2.13-10.28,16.36,0,10.08,3.94,16.35,10.28,16.35a8.77,8.77,0,0,0,8.28-5.22c1.31-2.67,2-6.31,2-11.14a31.81,31.81,0,0,0-1.11-9.65Zm-9.1-3.46c5.07,0,6.95,3.56,6.95,13.09V277c-1.28-3.49-4-5.9-6.75-5.9-3.08,0-6.15,3.06-7.17,7.25l-.05-1.88c0-6,1.23-13.1,7-13.1Z"/><circle class="e" cx="455.51" cy="244.4" r="2.01"/><circle class="e" cx="460.9" cy="245.03" r="0.88"/><circle class="e" cx="471.94" cy="238.26" r="2.38"/><circle class="e" cx="467.3" cy="244.15" r="1.25"/><circle class="e" cx="467.93" cy="229.98" r="2.38"/><circle class="e" cx="491.01" cy="230.23" r="2.38"/><circle class="e" cx="519.1" cy="237" r="2.38"/><path class="e" d="M504,199.7a2.41,2.41,0,0,0,4.64.88c-1.06-1.36-1.93-2.46-2.6-3.26A2.4,2.4,0,0,0,504,199.7Z"/><path class="f" d="M506.36,197.29l-.37,0,2.59,3.26a2.4,2.4,0,0,0-1.35-3.12A2.59,2.59,0,0,0,506.36,197.29Z"/><circle class="e" cx="476.2" cy="220.7" r="2.38"/><circle class="e" cx="469.06" cy="220.57" r="1.25"/><circle class="e" cx="485.11" cy="223.83" r="1.25"/><circle class="e" cx="497.78" cy="224.96" r="1.38"/><circle class="e" cx="485.74" cy="202.89" r="1.63"/><circle class="e" cx="512.58" cy="208.91" r="1.63"/><circle class="e" cx="498.28" cy="236" r="1.63"/><circle class="e" cx="473.19" cy="215.68" r="0.88"/><circle class="e" cx="488.75" cy="206.65" r="1.13"/><circle class="e" cx="516.84" cy="221.2" r="1.13"/><circle class="e" cx="513.08" cy="242.02" r="1.13"/><circle class="e" cx="503.8" cy="204.39" r="1.13"/><circle class="e" cx="510.32" cy="225.96" r="1.13"/><circle class="e" cx="494.52" cy="219.44" r="1.13"/><circle class="e" cx="488" cy="239.76" r="1.13"/><circle class="f" cx="536.16" cy="232.99" r="1.13"/><circle class="e" cx="474.45" cy="246.03" r="1.13"/><circle class="e" cx="499.78" cy="242.52" r="1.13"/><circle class="e" cx="481.22" cy="251.3" r="1.13"/><circle class="e" cx="496.15" cy="204.02" r="0.75"/><circle class="f" cx="516.46" cy="203.76" r="0.75"/><circle class="e" cx="504.55" cy="247.54" r="1.63"/><circle class="e" cx="476.2" cy="227.97" r="1.38"/><circle class="e" cx="508.06" cy="217.43" r="1.88"/><circle class="e" cx="486.11" cy="212.29" r="0.75"/><circle class="e" cx="463.16" cy="252.8" r="1.88"/><circle class="e" cx="481.98" cy="235.75" r="1.88"/><circle class="e" cx="508.57" cy="234.99" r="1.88"/><circle class="e" cx="525.12" cy="249.54" r="1.88"/><circle class="e" cx="521.61" cy="228.72" r="1.88"/><path class="e" d="M516.36,214.8a1.82,1.82,0,0,0,1.82,1.83h0a1.87,1.87,0,0,0,1.15-.4l-1.9-3.08A1.74,1.74,0,0,0,516.36,214.8Z"/><path class="f" d="M520,214.8a1.82,1.82,0,0,0-1.82-1.83h0a1.88,1.88,0,0,0-.74.15l1.88,3.09A1.77,1.77,0,0,0,520,214.8Z"/><circle class="f" cx="522.61" cy="203.89" r="1.88"/><circle class="f" cx="524.49" cy="210.54" r="1"/><circle class="f" cx="534.4" cy="214.93" r="1.88"/><circle class="f" cx="534.9" cy="225.71" r="1.88"/><circle class="f" cx="541.43" cy="221.95" r="1.38"/><circle class="f" cx="541.3" cy="229.85" r="1.25"/><circle class="f" cx="541.8" cy="239.63" r="3.76"/><circle class="e" cx="496.65" cy="211.29" r="3.76"/><circle class="e" cx="492.64" cy="247.66" r="3.76"/><circle class="f" cx="550.2" cy="238.26" r="1.38"/><circle class="f" cx="535.9" cy="247.79" r="1.38"/><circle class="f" cx="552.46" cy="248.79" r="1.38"/><circle class="f" cx="546.82" cy="246.15" r="1.76"/><circle class="f" cx="546.69" cy="253.05" r="1.88"/><path class="e" d="M527.38,238.46a1.85,1.85,0,0,0,1.7,1.85c-.18-1.15-.42-2.33-.7-3.51A1.84,1.84,0,0,0,527.38,238.46Z"/><path class="f" d="M531.11,238.46a1.88,1.88,0,0,0-1.89-1.86,1.83,1.83,0,0,0-.86.22c.3,1.18.52,2.36.7,3.51h.15a1.85,1.85,0,0,0,1.9-1.8h0Z"/><circle class="f" cx="536.03" cy="219.07" r="0.5"/><circle class="f" cx="524.99" cy="219.57" r="0.5"/><circle class="e" cx="486.87" cy="217.81" r="0.5"/><circle class="f" cx="550.33" cy="242.64" r="0.5"/><circle class="e" cx="524.99" cy="243.4" r="0.5"/><circle class="e" cx="461.66" cy="239.76" r="0.37"/><circle class="e" cx="470.94" cy="251.05" r="0.37"/><circle class="e" cx="506.3" cy="240.01" r="0.37"/><circle class="e" cx="480.22" cy="230.23" r="0.37"/><circle class="e" cx="480.97" cy="243.52" r="0.37"/><circle class="e" cx="504.55" cy="229.23" r="0.37"/><circle class="e" cx="506.56" cy="210.16" r="0.37"/><circle class="f" cx="517.84" cy="207.9" r="0.37"/><circle class="e" cx="513.83" cy="231.73" r="0.37"/><circle class="e" cx="502.04" cy="218.94" r="0.37"/><circle class="e" cx="518.1" cy="244.52" r="0.63"/><circle class="e" cx="512.45" cy="249.42" r="1"/><circle class="f" cx="528.38" cy="227.72" r="0.37"/><circle class="f" cx="529.88" cy="215.43" r="0.37"/><circle class="e" cx="480.47" cy="214.93" r="0.37"/><circle class="e" cx="500.54" cy="199.37" r="0.37"/><path class="c" d="M484.31,369.09,492,379.7l12.17.4c.05-.8-1.68-2.43-2.79-2.48-4.59-.3-9.08-2.11-11.16-5.17-2.86-4.21-.17-16.33.33-18.43-.8.1-2.89,5.11-6.22,15.1Zm-10.16-4.19,15.49-31.35.5-1.86a14.65,14.65,0,0,0-11.72,7.05c-4.28,6.88-6.77,26.89-18,31.26.7,1.8,5.27.12,13.77-5.09Zm37.9-36.11c2.06,6.25,3.76,12,4,18.21.08,1.81.46,13.14.8,16.63a22.89,22.89,0,0,0,6.31,11.44c1.81,1.49,12.92,2.23,13.74.83A21.25,21.25,0,0,1,525.08,371c-6.49-5.17-3.06-27.69-4.74-37.22-1.45-8.33-10.36-10.89-12.59-11.42.08.66,4.26,6.31,4.26,6.4ZM545,340.71c4.14,2.65,21.39,8,31.1,3.56,2.81-1.31,7.3-6.87,7.28-6.85A36,36,0,0,1,558,340.53a55,55,0,0,1-19.51-9.83,19,19,0,0,1,1.28,4.36c.3,1.53,4.29,5,5.27,5.65Zm-103.42,9.84,19.11-6.87q18-20.31,18.84-22.57c-7.45-.16-11.31,5.56-14.72,9.15-3.61,3.81-6.95,8.25-11.57,10.91a23,23,0,0,1-13.77,2.71A36,36,0,0,1,428.75,341a70.26,70.26,0,0,1-6.31-3.18c-1.51-.88-2.14-.08-2.31,1.32.74,3.87,7.93,7.68,21.42,11.44Z"/><ellipse class="g" cx="485.67" cy="276.35" rx="1.38" ry="2.63" transform="translate(-73.11 273.91) rotate(-29.39)"/><ellipse class="g" cx="528.48" cy="276.38" rx="1.38" ry="2.64" transform="translate(-67.61 295.03) rotate(-29.4)"/><path class="e" d="M575.06,332.85a.65.65,0,0,1,.68.61h0a.64.64,0,0,1-.58.67,46,46,0,0,1-8.54.2.92.92,0,0,1,.12-1.83c.84.05,5.55.46,8.31.33Zm-29.22-9.21,1,.78c.68.5,1.38,1,2.11,1.48s1.45.9,2.18,1.33l1.11.63,1.16.57a40.16,40.16,0,0,0,4.74,2c.8.31,1.63.53,2.46.78l1.25.33,1.31.3a.94.94,0,0,1,.71,1.11V333a1,1,0,0,1-1.15.75,45.34,45.34,0,0,1-10.21-3.39l-1.23-.57-1.2-.63a43.43,43.43,0,0,1-4.59-2.86l-1.07-.84-1.08-.9a1.16,1.16,0,0,1-.07-1.63l0,0a1.19,1.19,0,0,1,1.66-.08,11.64,11.64,0,0,0,.9.83Zm-12.62,19.21-.1.4-.18.66-.78,2.55a48.94,48.94,0,0,0-1.38,5.05.57.57,0,0,1-.65.48h0a.61.61,0,0,1-.5-.68,45.26,45.26,0,0,1,1.15-5.26l.65-2.56a23,23,0,0,0,.51-2.6.85.85,0,1,1,1.68.28h0a16.16,16.16,0,0,1-.35,1.68Zm-5.42-14.14a9.79,9.79,0,0,1,5.45,5.84,11.79,11.79,0,0,1,.6,3.91.94.94,0,0,1-1.88,0,10,10,0,0,0-.63-3.24,7.53,7.53,0,0,0-4.45-4.34,11.44,11.44,0,0,0-3.21-.74,1.25,1.25,0,0,1-1.11-1.37h0a1.24,1.24,0,0,1,1.36-1.11h0a10.42,10.42,0,0,1,3.89,1.08ZM506.34,343a.65.65,0,0,1-.86.28.64.64,0,0,1-.3-.8,14.78,14.78,0,0,0,.91-3.11.79.79,0,1,1,1.55.25,10.78,10.78,0,0,1-1.3,3.38Zm-1.56-14.58a14,14,0,0,1,2.18,3.26,11.21,11.21,0,0,1,1.05,5.07.85.85,0,0,1-.95.74.84.84,0,0,1-.73-.67A9.69,9.69,0,0,0,504,330.7a9,9,0,0,0-1.53-1.5,1.09,1.09,0,0,1-.25-1.49h0a1.06,1.06,0,0,1,1.47-.27h0l0,0,1,.95Zm-34.95,21.75a.67.67,0,0,1-.74.55.65.65,0,0,1-.55-.74h0a50.79,50.79,0,0,1,1.41-7.13.78.78,0,0,1,.94-.56h0a.78.78,0,0,1,.53,1h0a68.18,68.18,0,0,0-1.62,6.89Zm6.85-16.74a21.53,21.53,0,0,0-2.91,4.34c-.22.37-.74,1.43-1.18,2.41a.73.73,0,0,1-1,.37h0a.74.74,0,0,1-.37-1l1.11-2.53a33.58,33.58,0,0,1,2.91-4.77,25.34,25.34,0,0,1,2-2.16,1,1,0,1,1,1.45,1.39h0a.75.75,0,0,1-.17.14,9.2,9.2,0,0,0-1.8,1.78Zm-45.07,5.16a.57.57,0,0,1-.43-.7h0a.56.56,0,0,1,.67-.43,33.23,33.23,0,0,0,5.27.5.71.71,0,0,1,0,1.41h-.09A23.36,23.36,0,0,1,431.61,338.59Zm14.8-.1a25.65,25.65,0,0,1-6,.83.71.71,0,0,1-.71-.69.69.69,0,0,1,.63-.7,25.18,25.18,0,0,0,5.57-1.08,21.38,21.38,0,0,0,5.06-2.41,1,1,0,1,1,1.08,1.68,23.24,23.24,0,0,1-5.66,2.36Zm18.28-14.34c-.55.51-2.1,2.19-2.36,2.46s-2.91,3.34-4.06,4.49a42.88,42.88,0,0,1-3.66,3.21.94.94,0,0,1-1.31-.15v0a1,1,0,0,1,.12-1.31,42.49,42.49,0,0,0,3.39-3.18c1.08-1.12,2-2.36,3.39-4s2.25-2.66,2.83-3.24a23.77,23.77,0,0,1,3.94-3.13,1.29,1.29,0,0,1,1.78.42,1.3,1.3,0,0,1-.43,1.79,30.15,30.15,0,0,0-3.61,2.65Z"/><path class="d" d="M509,302c-1.21-.43-1.61.4-.53.86a10,10,0,0,1,1.25.67c-4.61,2.36-11.41.81-11.41.81-1.21-.28-1.83.6-.48,1.05a25.19,25.19,0,0,0,3.21.6,18.8,18.8,0,0,0-2.35,5.27c-1.25,3.71,4.76,5.79,7.79,3.36,2.48-2.18,4.29-8.43,4.69-9.91a9.49,9.49,0,0,1,1,1.16c1.08,1.45,1.68.47,1.25-.13A8.52,8.52,0,0,0,509,302Z"/><path class="d" d="M590.91,324a2.6,2.6,0,0,0-3-.2,34.28,34.28,0,0,1-24.27,1.45c-9.51-3-19.45-10.67-23.23-16.1l-.15-.16a41.48,41.48,0,0,0,5.57-11.67c4.48-14.22,2.62-29.47.15-40.09a14.42,14.42,0,0,0,9.51-7.69,11.87,11.87,0,0,0-4-14.64c-.74-.48-1.48-.88-2.22-1.28a23.32,23.32,0,0,1-2.15-1.25,5.38,5.38,0,0,1-2.38-2.93c-.23-1,.1-1.85.62-3.2l0-.06a11.73,11.73,0,0,0,.83-5.4,9.41,9.41,0,0,0-3.18-6.23,11.33,11.33,0,0,0-6.56-2.33l-1.28-.08a6.78,6.78,0,0,1-3.86-.85,6.06,6.06,0,0,1-1.92-3l-.46-1.4a11.85,11.85,0,0,0-2.62-5.16,9.17,9.17,0,0,0-7.16-2.78,9.72,9.72,0,0,1-5.2-.83,9,9,0,0,1-.93-.92c-1.48-1.67-4.08-4.45-8.5-4.45H504c-4.46,0-7,2.78-8.52,4.45a9,9,0,0,1-.93.92,9.49,9.49,0,0,1-5.2.83,9.15,9.15,0,0,0-7.18,2.76,11.8,11.8,0,0,0-2.63,5.17l-.45,1.4a5.87,5.87,0,0,1-1.93,3c-1,.75-2.33.78-3.86.86l-1.27.07a11.41,11.41,0,0,0-6.56,2.33,9.22,9.22,0,0,0-3.18,6.24,11.73,11.73,0,0,0,.83,5.4l0,0a4.16,4.16,0,0,1-1.75,6.14c-.7.45-1.42.86-2.15,1.25a24.63,24.63,0,0,0-2.21,1.27,11.88,11.88,0,0,0-4,14.65,14.51,14.51,0,0,0,10.41,7.89c-4.2,18.42-2.28,31.69.13,39.67a43.42,43.42,0,0,0,5.32,11.65c-4,1.48-6.76,4.58-9,7.1l-1.5,1.68c-.85.88-1.68,1.81-2.48,2.71-2.63,2.93-5.36,6-8.69,7.89a21.54,21.54,0,0,1-12.77,2.5,34.73,34.73,0,0,1-10.19-2.78q-3.14-1.4-6.11-3.09a3.07,3.07,0,0,0-3.16-.24c-1.53.82-1.6,2.82-1.63,3.5A20.88,20.88,0,0,0,420.52,344a30.14,30.14,0,0,0,10.23,5.59A33.86,33.86,0,0,0,441,351.25a29.78,29.78,0,0,0,7.22-.87c4.66-1.15,8.76-3.58,12.74-5.94l.95-.57a60,60,0,0,0-2,12.2c-.2,3.34-.4,6.76-2.4,8.81a20.2,20.2,0,0,1-2.78,1.83,2.93,2.93,0,0,0,0,5.2c3.73,1.95,8.58,1.27,11.87,0a21.73,21.73,0,0,0,10.09-8c2.38-3.5,3.61-7.56,4.78-11.48l1.08-3.48a42,42,0,0,1,7-13.4c.46,1.81.75,5.66-.27,10.87a49.07,49.07,0,0,1-2.76,8.49,47.57,47.57,0,0,0-3.08,9.91,15,15,0,0,0,.93,8.71,14.23,14.23,0,0,0,5.64,6,19.83,19.83,0,0,0,9.88,2.9,13.46,13.46,0,0,0,4.45-.75,2.35,2.35,0,0,0,1.8-2.17,2.69,2.69,0,0,0-.42-1.38,27.5,27.5,0,0,0-2-2.7l-1.35-1.78c-2.9-4.13-1.48-9-.43-11.57a26.83,26.83,0,0,1,4-6.07,45.57,45.57,0,0,0,8-15c.25,1.85.4,3.93.5,6.23.08,1.78.1,3.58.12,5.34.06,3.55.1,7.23.45,10.83.5,5.2,2.33,9.26,5.26,11.75,2.28,1.95,5.57,3.17,10,3.75a29.56,29.56,0,0,0,10.52-.63,8.29,8.29,0,0,0,3-1.25,2.35,2.35,0,0,0,1.23-2.05,1.74,1.74,0,0,0-1-1.4c-9.33-4.13-11.57-10.57-7.23-20.9a40.13,40.13,0,0,0,3-13.53L541,340a34.44,34.44,0,0,0,36.38,5.06,27.13,27.13,0,0,0,9.71-7.22,20.31,20.31,0,0,0,4.33-8.81c.43-1.65,1-3.93-.45-5.1ZM456.08,248.17c-1.68-3.73-.43-8.49,2.8-10.6.63-.39,1.28-.74,2-1.11s1.63-.88,2.45-1.43a7.26,7.26,0,0,0,2.94-10,8.27,8.27,0,0,1-.62-4,6,6,0,0,1,2-4.08,8.34,8.34,0,0,1,4.75-1.58l1.18,0a9.72,9.72,0,0,0,5.6-1.46,9.41,9.41,0,0,0,3.09-4.51l.5-1.56a9.5,9.5,0,0,1,1.8-3.81,6,6,0,0,1,4.66-1.85c2.28.15,5.35-.13,7.21-1.38a9.94,9.94,0,0,0,1.48-1.42c1.41-1.51,3.14-3.39,6.17-3.39,4.75,0,5.56,3.74,8.43,5.3s10.09.9,11.37,2.75a11.48,11.48,0,0,1,2,3.81l.49,1.55a9.65,9.65,0,0,0,3.08,4.51,9.8,9.8,0,0,0,5.61,1.45l1.18.05A8.3,8.3,0,0,1,541,217a6,6,0,0,1,2,4.08,8.85,8.85,0,0,1-.6,3.91,8.44,8.44,0,0,0-.8,5.19,8.33,8.33,0,0,0,3.73,4.89,22,22,0,0,0,2.45,1.42c.67.35,1.33.75,2,1.12,3.23,2.1,4.48,6.86,2.8,10.59a11.33,11.33,0,0,1-9.37,6.18c-.13,0-4.16.29-13.87-3.56-7.34-2.88-12.84-1.73-17.73-.68a35.16,35.16,0,0,1-7.59,1,33.64,33.64,0,0,1-6.93-1c-4.88-1-10.39-2.22-17.73.68-9.72,3.82-13.76,3.54-13.79,3.54a11.35,11.35,0,0,1-9.52-6.18Zm132.16,80.17-.08.34a17.35,17.35,0,0,1-4.93,8.62,24.78,24.78,0,0,1-7.21,4.85,31.35,31.35,0,0,1-33-4.63c-1.08-.83-2.21-1.68-3.39-2.48a19.46,19.46,0,0,0-1.27-4.36,15.05,15.05,0,0,0-2.28-3.76c-3.21-3.83-8.76-5.94-14.87-5.63a1.63,1.63,0,0,0,.15,3.23c5.08-.24,9.63,1.43,12.23,4.48a14.36,14.36,0,0,1,3,7.52l0,.32a36.15,36.15,0,0,1-2.77,14.59c-2.42,5.79-3,10.61-1.72,14.69a16.13,16.13,0,0,0,7.88,9.06,25.78,25.78,0,0,1-9.14.5c-3.8-.5-6.53-1.48-8.33-3-2.88-2.45-3.83-6.55-4.13-9.58-.35-3.48-.4-7.09-.45-10.57,0-1.77-.05-3.6-.13-5.4-.22-6.14-1-13.2-4.18-18.71l-.1-.22a17.39,17.39,0,0,0-5.72-5.88,1.61,1.61,0,0,0-2.11.57,1.65,1.65,0,0,0,.51,2.25,14,14,0,0,1,4.45,4.56c1.3,2.78,1.43,6,.35,10.24a40.12,40.12,0,0,1-4.88,10.52c-.8,1.25-1.68,2.38-2.6,3.57a31.27,31.27,0,0,0-4.38,6.81c-2.31,5.39-2,10.75.74,14.73.45.64,1,1.27,1.43,1.87l0,.06,1.08,1.39,0,0h-.05a15.07,15.07,0,0,1-10.48-2.13,11.21,11.21,0,0,1-4.39-4.61,12.11,12.11,0,0,1-.68-6.84,44.09,44.09,0,0,1,2.88-9.24l.88-2.23a42.39,42.39,0,0,0,2.05-6.81,35.41,35.41,0,0,0,.6-9.91c-.13-1.15-.48-4.7-2.46-5.4a2.1,2.1,0,0,0-.55-.13c-1.38-.1-2.65,1.23-4.18,3.41-1.23,1.72-2.3,3.6-2.43,3.8a48.84,48.84,0,0,0-4,9.11c-.4,1.18-.74,2.38-1.11,3.56a38.62,38.62,0,0,1-4.36,10.59,18.49,18.49,0,0,1-8.56,6.81,15.65,15.65,0,0,1-5.06,1,9.08,9.08,0,0,1-3.61-.6,17.22,17.22,0,0,0,3-2.13c2.88-2.93,3.13-7.16,3.34-10.91l.18-2.53c.85-8.09,3.08-14.87,6.6-20.18a25.29,25.29,0,0,1,16.78-11.39,1.62,1.62,0,0,0,1.38-1.82h0v0a1.64,1.64,0,0,0-1.86-1.38,24.66,24.66,0,0,0-7,2.15,30.45,30.45,0,0,0-12,10.64,38.91,38.91,0,0,0-3.89,7.53q-2.07,1.17-4.13,2.38c-3.95,2.33-7.68,4.56-11.85,5.57a29.16,29.16,0,0,1-24.84-5.68,17.56,17.56,0,0,1-5.94-13.95,70.11,70.11,0,0,0,6.36,3.21,38.85,38.85,0,0,0,11.14,3A24.89,24.89,0,0,0,449,330.87a40,40,0,0,0,9.49-8.54l2.37-2.63c.53-.55,1.05-1.11,1.58-1.75,3.34-3.78,7.13-8.09,14.5-6.51a1.63,1.63,0,0,0,.81-3.15l-.14,0a16.83,16.83,0,0,0-5.2-.33c-2.33-3.08-12.81-19.17-5.57-50.34,2.13-.15,6.46-.88,13.74-3.76,6.4-2.52,11.21-1.48,15.84-.52a36,36,0,0,0,7.59,1.05l.33,0,.32,0a37,37,0,0,0,7.58-1.05c4.64-1,9.44-2,15.85.52,8.62,3.4,13.1,3.77,14.7,3.77,4.28,18.07,2.41,30.87.05,38.45-2.6,8.31-6.26,12.32-6.31,12.37l-.1.1a53.88,53.88,0,0,1-4.55,5.24,1.64,1.64,0,0,0,2.1,2.51h0a40.42,40.42,0,0,0,4.28-4.69c5,6.68,15.56,13.95,24.5,16.73a37.56,37.56,0,0,0,25.78-1.26l-.3,1.28Z"/></svg>