<svg xmlns="http://www.w3.org/2000/svg" viewBox="0 0 670 400"><defs><style>.a{fill:#2b2e3a;}.b{fill:#159497;}.c{fill:#fff;}</style></defs><path class="a" d="M93.16,33.56a2,2,0,0,1-.54-1.46V7.9a2,2,0,0,1,.54-1.46,2,2,0,0,1,1.5-.54h7.84q6.84,0,10.6,3.68T116.86,20q0,6.72-3.76,10.42t-10.6,3.7H94.66A2,2,0,0,1,93.16,33.56ZM112.66,20q0-10.63-10.4-10.64H96.74V30.66h5.52Q112.67,30.66,112.66,20Z"/><path class="a" d="M138.18,29.62a1.71,1.71,0,0,1,.36,1.12,2.3,2.3,0,0,1-1.44,2,13.19,13.19,0,0,1-6.24,1.68,9.86,9.86,0,0,1-7.32-2.7,10,10,0,0,1-2.68-7.38A11.67,11.67,0,0,1,122,19a8.7,8.7,0,0,1,3.32-3.6,9.33,9.33,0,0,1,4.86-1.28,7.93,7.93,0,0,1,6.2,2.52,9.76,9.76,0,0,1,2.28,6.8c0,1.07-.48,1.6-1.44,1.6H124.9q.41,6.19,6,6.2a7.28,7.28,0,0,0,2.56-.4,18.62,18.62,0,0,0,2.28-1c.08-.05.3-.17.66-.34a2.24,2.24,0,0,1,.9-.26A1.14,1.14,0,0,1,138.18,29.62Zm-11.6-11.08a7,7,0,0,0-1.68,4.16h10.32a6.69,6.69,0,0,0-1.38-4.18,4.44,4.44,0,0,0-3.54-1.46A4.89,4.89,0,0,0,126.58,18.54Z"/><path class="a" d="M143.26,32.7a3,3,0,0,1-1-.92,2,2,0,0,1-.3-1.08,1.64,1.64,0,0,1,.36-1.08,1.15,1.15,0,0,1,.92-.44,3.85,3.85,0,0,1,1.64.64,16.83,16.83,0,0,0,2.34,1,8.68,8.68,0,0,0,2.86.4,5.65,5.65,0,0,0,3-.68,2.14,2.14,0,0,0,1.08-1.92,1.88,1.88,0,0,0-.42-1.28,3.48,3.48,0,0,0-1.46-.86,24.74,24.74,0,0,0-3.08-.82,11.92,11.92,0,0,1-5.06-2.06,4.42,4.42,0,0,1-1.54-3.54,5.19,5.19,0,0,1,1-3.1,6.56,6.56,0,0,1,2.76-2.14,10,10,0,0,1,4-.76,11.62,11.62,0,0,1,3.12.42,8.78,8.78,0,0,1,2.68,1.22,2.49,2.49,0,0,1,1.32,2,1.55,1.55,0,0,1-.38,1.08,1.16,1.16,0,0,1-.9.44,1.71,1.71,0,0,1-.72-.16,10.23,10.23,0,0,1-1-.52,13,13,0,0,0-2-1,6.54,6.54,0,0,0-2.34-.36,4.59,4.59,0,0,0-2.7.72,2.27,2.27,0,0,0-1,2,2,2,0,0,0,.94,1.74,11.59,11.59,0,0,0,3.54,1.18,19.1,19.1,0,0,1,4.2,1.28,4.92,4.92,0,0,1,2.18,1.78,5,5,0,0,1,.66,2.7,4.91,4.91,0,0,1-2.18,4.18,9.72,9.72,0,0,1-5.82,1.58A12.12,12.12,0,0,1,143.26,32.7Z"/><path class="a" d="M179.54,32.42a1.85,1.85,0,0,1-.52,1.32,1.64,1.64,0,0,1-1.24.56,2,2,0,0,1-1.36-.56l-10-8.8v7.4a1.83,1.83,0,0,1-.56,1.46,2.08,2.08,0,0,1-1.44.5,2.19,2.19,0,0,1-1.46-.5,1.84,1.84,0,0,1-.58-1.46V7.66A1.84,1.84,0,0,1,163,6.2a2.19,2.19,0,0,1,1.46-.5,2.08,2.08,0,0,1,1.44.5,1.83,1.83,0,0,1,.56,1.46V23.34l9.12-8.52a2.06,2.06,0,0,1,1.32-.6,1.81,1.81,0,0,1,1.32.56,1.77,1.77,0,0,1,.56,1.32,1.88,1.88,0,0,1-.68,1.4L171,24l7.84,6.92A1.85,1.85,0,0,1,179.54,32.42Z"/><path class="a" d="M193.8,31.68a1.41,1.41,0,0,1,.38,1.06,1.37,1.37,0,0,1-.62,1.22,2.91,2.91,0,0,1-1.82.34l-1.08-.08a7,7,0,0,1-4.84-2,7.38,7.38,0,0,1-1.6-5.14V17.7h-2.4c-1.17,0-1.76-.52-1.76-1.56a1.49,1.49,0,0,1,.46-1.14,1.86,1.86,0,0,1,1.3-.42h2.4V10.46A1.92,1.92,0,0,1,184.76,9a2,2,0,0,1,1.46-.52A2.06,2.06,0,0,1,187.7,9a1.85,1.85,0,0,1,.56,1.44v4.12h4a1.85,1.85,0,0,1,1.3.42,1.46,1.46,0,0,1,.46,1.14,1.44,1.44,0,0,1-.46,1.16,1.89,1.89,0,0,1-1.3.4h-4v9.68a4.1,4.1,0,0,0,.78,2.76,3.37,3.37,0,0,0,2.38,1l1.12.08A2,2,0,0,1,193.8,31.68Z"/><path class="a" d="M200.52,33.14a8.45,8.45,0,0,1-3.36-3.54A11.61,11.61,0,0,1,196,24.26a11.72,11.72,0,0,1,1.18-5.38,8.45,8.45,0,0,1,3.36-3.54,10.94,10.94,0,0,1,10.12,0A8.33,8.33,0,0,1,214,18.88a11.59,11.59,0,0,1,1.18,5.38A11.48,11.48,0,0,1,214,29.6a8.33,8.33,0,0,1-3.36,3.54,10.94,10.94,0,0,1-10.12,0Zm9.16-3.72a8,8,0,0,0,1.42-5.16,8,8,0,0,0-1.44-5.14,5.57,5.57,0,0,0-8.16,0,8,8,0,0,0-1.44,5.14,8.1,8.1,0,0,0,1.42,5.16,5.66,5.66,0,0,0,8.2,0Z"/><path class="a" d="M234.64,15.38a8.45,8.45,0,0,1,3.08,3.6,12.28,12.28,0,0,1,1.1,5.36,12.2,12.2,0,0,1-1.08,5.28,8.17,8.17,0,0,1-3.06,3.52,8.34,8.34,0,0,1-4.54,1.24,7.79,7.79,0,0,1-3.88-.94,6.24,6.24,0,0,1-2.56-2.7v8.92a1.73,1.73,0,0,1-.54,1.34,2,2,0,0,1-1.42.5,2.16,2.16,0,0,1-1.5-.52,1.81,1.81,0,0,1-.58-1.4V16.14a1.89,1.89,0,0,1,.56-1.42,2.06,2.06,0,0,1,1.48-.54,2,2,0,0,1,1.44.54,1.85,1.85,0,0,1,.56,1.42v1.64a6.35,6.35,0,0,1,2.56-2.72,7.7,7.7,0,0,1,3.88-1A8.13,8.13,0,0,1,234.64,15.38Zm-1.38,14a7.86,7.86,0,0,0,1.44-5.06,8.08,8.08,0,0,0-1.46-5.16,5.44,5.44,0,0,0-8.12,0,8.15,8.15,0,0,0-1.42,5.12,8.15,8.15,0,0,0,1.42,5.12,4.87,4.87,0,0,0,4.06,1.8A4.94,4.94,0,0,0,233.26,29.4Z"/><path class="a" d="M279.42,32.5a1.62,1.62,0,0,1-.62,1.28,2.07,2.07,0,0,1-1.38.52,1.76,1.76,0,0,1-1-.3,1.87,1.87,0,0,1-.7-.86l-2.64-6H258.46l-2.64,6a1.89,1.89,0,0,1-1.72,1.16,2.13,2.13,0,0,1-1.42-.52,1.62,1.62,0,0,1-.62-1.28,2.26,2.26,0,0,1,.2-.8L263.54,7a2.13,2.13,0,0,1,.9-1A2.53,2.53,0,0,1,267,6a2.08,2.08,0,0,1,.9,1L279.22,31.7A2.26,2.26,0,0,1,279.42,32.5Zm-19.48-8.64h11.72l-5.88-13.24Z"/><path class="a" d="M298.2,15.38a8.45,8.45,0,0,1,3.08,3.6,12.43,12.43,0,0,1,1.1,5.36,12.2,12.2,0,0,1-1.08,5.28,8.17,8.17,0,0,1-3.06,3.52,8.34,8.34,0,0,1-4.54,1.24,7.77,7.77,0,0,1-3.88-.94,6.24,6.24,0,0,1-2.56-2.7v8.92a1.73,1.73,0,0,1-.54,1.34,2,2,0,0,1-1.42.5,2.16,2.16,0,0,1-1.5-.52,1.78,1.78,0,0,1-.58-1.4V16.14a1.89,1.89,0,0,1,.56-1.42,2,2,0,0,1,1.48-.54,2,2,0,0,1,1.44.54,1.89,1.89,0,0,1,.56,1.42v1.64a6.35,6.35,0,0,1,2.56-2.72,7.67,7.67,0,0,1,3.88-1A8.13,8.13,0,0,1,298.2,15.38Zm-1.38,14a7.86,7.86,0,0,0,1.44-5.06,8.14,8.14,0,0,0-1.46-5.16,5.44,5.44,0,0,0-8.12,0,8.08,8.08,0,0,0-1.42,5.12,8.08,8.08,0,0,0,1.42,5.12,4.87,4.87,0,0,0,4.06,1.8A4.94,4.94,0,0,0,296.82,29.4Z"/><path class="a" d="M321.84,15.38a8.45,8.45,0,0,1,3.08,3.6,12.43,12.43,0,0,1,1.1,5.36,12.2,12.2,0,0,1-1.08,5.28,8.17,8.17,0,0,1-3.06,3.52,8.34,8.34,0,0,1-4.54,1.24,7.77,7.77,0,0,1-3.88-.94,6.24,6.24,0,0,1-2.56-2.7v8.92a1.73,1.73,0,0,1-.54,1.34,2,2,0,0,1-1.42.5,2.16,2.16,0,0,1-1.5-.52,1.78,1.78,0,0,1-.58-1.4V16.14a1.89,1.89,0,0,1,.56-1.42,2,2,0,0,1,1.48-.54,2,2,0,0,1,1.44.54,1.89,1.89,0,0,1,.56,1.42v1.64a6.35,6.35,0,0,1,2.56-2.72,7.67,7.67,0,0,1,3.88-1A8.13,8.13,0,0,1,321.84,15.38Zm-1.38,14a7.86,7.86,0,0,0,1.44-5.06,8.14,8.14,0,0,0-1.46-5.16,5.44,5.44,0,0,0-8.12,0,8.08,8.08,0,0,0-1.42,5.12,8.08,8.08,0,0,0,1.42,5.12,4.87,4.87,0,0,0,4.06,1.8A4.94,4.94,0,0,0,320.46,29.4Z"/><path class="a" d="M331.08,33.82a1.75,1.75,0,0,1-.58-1.44V7.66a1.81,1.81,0,0,1,.58-1.46,2.17,2.17,0,0,1,1.46-.5,2.08,2.08,0,0,1,1.44.5,1.86,1.86,0,0,1,.56,1.46V32.38a1.8,1.8,0,0,1-.56,1.44,2.12,2.12,0,0,1-1.44.48A2.21,2.21,0,0,1,331.08,33.82Z"/><path class="a" d="M340.38,9.62a2.22,2.22,0,0,1-.68-1.68,2.15,2.15,0,0,1,.68-1.66,3,3,0,0,1,3.66,0,2.1,2.1,0,0,1,.7,1.66,2.22,2.22,0,0,1-.68,1.68,3,3,0,0,1-3.68,0Zm.38,24.2a1.75,1.75,0,0,1-.58-1.44V16.14a1.81,1.81,0,0,1,.58-1.46,2.17,2.17,0,0,1,1.46-.5,2.08,2.08,0,0,1,1.44.5,1.86,1.86,0,0,1,.56,1.46V32.38a1.8,1.8,0,0,1-.56,1.44,2.12,2.12,0,0,1-1.44.48A2.21,2.21,0,0,1,340.76,33.82Z"/><path class="a" d="M353.24,33.14a8.49,8.49,0,0,1-3.32-3.52,11.29,11.29,0,0,1-1.18-5.28A11.39,11.39,0,0,1,350,19a8.74,8.74,0,0,1,3.42-3.6,9.89,9.89,0,0,1,5-1.28,11.26,11.26,0,0,1,3.06.44,10.2,10.2,0,0,1,2.74,1.2,2.51,2.51,0,0,1,1.28,2,1.81,1.81,0,0,1-.36,1.14,1.11,1.11,0,0,1-.92.46,1.6,1.6,0,0,1-.72-.18,9.92,9.92,0,0,1-.92-.54,11.28,11.28,0,0,0-1.86-1,5.52,5.52,0,0,0-2.06-.34,5.13,5.13,0,0,0-4.22,1.84,7.89,7.89,0,0,0-1.5,5.12,7.69,7.69,0,0,0,1.48,5.06,5.16,5.16,0,0,0,4.2,1.78,5.78,5.78,0,0,0,2.12-.36,11.54,11.54,0,0,0,1.88-1,6.37,6.37,0,0,1,.88-.48,2,2,0,0,1,.8-.2,1.11,1.11,0,0,1,.92.46,1.81,1.81,0,0,1,.36,1.14,1.84,1.84,0,0,1-.3,1,3.5,3.5,0,0,1-1,.94,9.56,9.56,0,0,1-2.8,1.24,12.34,12.34,0,0,1-3.24.44A9.74,9.74,0,0,1,353.24,33.14Z"/><path class="a" d="M383.16,16.06c1.26,1.31,1.9,3.29,1.9,6V32.38a1.9,1.9,0,0,1-.52,1.42,2,2,0,0,1-1.44.5,1.79,1.79,0,0,1-1.92-1.92V30.9a5.65,5.65,0,0,1-2.26,2.58,6.68,6.68,0,0,1-3.5.9,7.79,7.79,0,0,1-3.5-.78,6.31,6.31,0,0,1-2.5-2.14,5.32,5.32,0,0,1-.92-3.08A4.64,4.64,0,0,1,369.58,25a6.79,6.79,0,0,1,3.64-1.76,35.17,35.17,0,0,1,7-.54h.92V21.54a4.73,4.73,0,0,0-.92-3.24,3.84,3.84,0,0,0-3-1,9.46,9.46,0,0,0-2.64.36,19.79,19.79,0,0,0-2.72,1,3.94,3.94,0,0,1-1.52.6,1.24,1.24,0,0,1-1-.44,1.67,1.67,0,0,1-.38-1.12,1.72,1.72,0,0,1,.34-1.06,3.49,3.49,0,0,1,1.1-.9,13.68,13.68,0,0,1,3.28-1.22,15.13,15.13,0,0,1,3.64-.46Q381.25,14.1,383.16,16.06Zm-3.42,13.82a5.45,5.45,0,0,0,1.4-3.86V25h-.72a30.74,30.74,0,0,0-4.8.28,4.74,4.74,0,0,0-2.4.94,2.44,2.44,0,0,0-.72,1.9,3,3,0,0,0,1,2.36,3.79,3.79,0,0,0,2.6.92A4.71,4.71,0,0,0,379.74,29.88Z"/><path class="a" d="M401.4,31.68a1.45,1.45,0,0,1,.38,1.06,1.39,1.39,0,0,1-.62,1.22,2.93,2.93,0,0,1-1.82.34l-1.08-.08a7,7,0,0,1-4.84-2,7.33,7.33,0,0,1-1.6-5.14V17.7h-2.4c-1.18,0-1.76-.52-1.76-1.56a1.46,1.46,0,0,1,.46-1.14,1.85,1.85,0,0,1,1.3-.42h2.4V10.46A1.92,1.92,0,0,1,392.36,9a2,2,0,0,1,1.46-.52A2.09,2.09,0,0,1,395.3,9a1.89,1.89,0,0,1,.56,1.44v4.12h4a1.86,1.86,0,0,1,1.3.42,1.67,1.67,0,0,1,0,2.3,1.91,1.91,0,0,1-1.3.4h-4v9.68a4.1,4.1,0,0,0,.78,2.76,3.36,3.36,0,0,0,2.38,1l1.12.08A2,2,0,0,1,401.4,31.68Z"/><path class="a" d="M404.9,9.62a2.19,2.19,0,0,1-.68-1.68,2.11,2.11,0,0,1,.68-1.66,2.63,2.63,0,0,1,1.84-.62,2.68,2.68,0,0,1,1.82.62,2.13,2.13,0,0,1,.7,1.66,2.22,2.22,0,0,1-.68,1.68,3,3,0,0,1-3.68,0Zm.38,24.2a1.75,1.75,0,0,1-.58-1.44V16.14a1.81,1.81,0,0,1,.58-1.46,2.17,2.17,0,0,1,1.46-.5,2.12,2.12,0,0,1,1.44.5,1.86,1.86,0,0,1,.56,1.46V32.38a1.8,1.8,0,0,1-.56,1.44,2.16,2.16,0,0,1-1.44.48A2.21,2.21,0,0,1,405.28,33.82Z"/><path class="a" d="M417.8,33.14a8.33,8.33,0,0,1-3.36-3.54,11.48,11.48,0,0,1-1.18-5.34,11.59,11.59,0,0,1,1.18-5.38,8.33,8.33,0,0,1,3.36-3.54,10.94,10.94,0,0,1,10.12,0,8.45,8.45,0,0,1,3.36,3.54,11.72,11.72,0,0,1,1.18,5.38,11.61,11.61,0,0,1-1.18,5.34,8.45,8.45,0,0,1-3.36,3.54,10.94,10.94,0,0,1-10.12,0ZM427,29.42a8.1,8.1,0,0,0,1.42-5.16,8,8,0,0,0-1.44-5.14,5.57,5.57,0,0,0-8.16,0,8,8,0,0,0-1.44,5.14,8,8,0,0,0,1.42,5.16,5.66,5.66,0,0,0,8.2,0Z"/><path class="a" d="M454.46,22v10.4a1.84,1.84,0,0,1-.54,1.42,2.14,2.14,0,0,1-1.5.5,2,2,0,0,1-1.46-.52,1.85,1.85,0,0,1-.54-1.4V22.18a5.6,5.6,0,0,0-1-3.64,3.82,3.82,0,0,0-3.06-1.16,5.22,5.22,0,0,0-3.92,1.52A5.57,5.57,0,0,0,441,23v9.4a1.85,1.85,0,0,1-.54,1.4,2,2,0,0,1-1.46.52,2.06,2.06,0,0,1-1.48-.52,1.8,1.8,0,0,1-.56-1.4V16.1a1.79,1.79,0,0,1,.58-1.38,2,2,0,0,1,1.46-.54,1.89,1.89,0,0,1,1.4.52,1.87,1.87,0,0,1,.52,1.36V17.7A6.47,6.47,0,0,1,443.58,15a8.12,8.12,0,0,1,3.88-.92Q454.45,14.1,454.46,22Z"/><path class="a" d="M460.1,32.7a3,3,0,0,1-1-.92,2,2,0,0,1-.3-1.08,1.64,1.64,0,0,1,.36-1.08,1.14,1.14,0,0,1,.92-.44,3.94,3.94,0,0,1,1.64.64,16.83,16.83,0,0,0,2.34,1,8.64,8.64,0,0,0,2.86.4,5.65,5.65,0,0,0,3-.68A2.14,2.14,0,0,0,471,28.66a1.88,1.88,0,0,0-.42-1.28,3.55,3.55,0,0,0-1.46-.86A25.25,25.25,0,0,0,466,25.7,11.81,11.81,0,0,1,461,23.64a4.39,4.39,0,0,1-1.54-3.54,5.13,5.13,0,0,1,1-3.1,6.44,6.44,0,0,1,2.76-2.14,9.91,9.91,0,0,1,4-.76,11.73,11.73,0,0,1,3.12.42A9,9,0,0,1,473,15.74a2.49,2.49,0,0,1,1.32,2,1.6,1.6,0,0,1-.38,1.08,1.19,1.19,0,0,1-.9.44,1.71,1.71,0,0,1-.72-.16,10.23,10.23,0,0,1-1-.52,13.43,13.43,0,0,0-2-1,6.62,6.62,0,0,0-2.34-.36,4.59,4.59,0,0,0-2.7.72,2.27,2.27,0,0,0-1,2,2,2,0,0,0,.94,1.74,11.39,11.39,0,0,0,3.54,1.18,19.45,19.45,0,0,1,4.2,1.28,5,5,0,0,1,2.18,1.78,5,5,0,0,1,.66,2.7,4.93,4.93,0,0,1-2.18,4.18,9.76,9.76,0,0,1-5.82,1.58A12.1,12.1,0,0,1,460.1,32.7Z"/><path class="a" d="M526.78,6a1.93,1.93,0,0,1,1.08-.32,2,2,0,0,1,1.34.5,1.66,1.66,0,0,1,.58,1.3,2.08,2.08,0,0,1-.16.8L520.78,33a2.15,2.15,0,0,1-.88,1,2.52,2.52,0,0,1-1.32.36A2.43,2.43,0,0,1,517.3,34a1.93,1.93,0,0,1-.84-1l-7.28-20.64L501.74,33a1.93,1.93,0,0,1-.84,1,2.46,2.46,0,0,1-1.28.36,2.4,2.4,0,0,1-1.3-.36,2.11,2.11,0,0,1-.86-1L488.62,8.26a1.91,1.91,0,0,1-.16-.8,1.61,1.61,0,0,1,.6-1.3,2.19,2.19,0,0,1,1.44-.5,2,2,0,0,1,1.1.32,1.87,1.87,0,0,1,.74,1l7.4,21.28,7.52-21.08a2,2,0,0,1,.78-1,2.08,2.08,0,0,1,1.18-.36,2,2,0,0,1,1.16.38,2.49,2.49,0,0,1,.8,1.06l7.36,21.24,7.52-21.48A1.89,1.89,0,0,1,526.78,6Z"/><path class="a" d="M536.26,9.62a2.19,2.19,0,0,1-.68-1.68,2.11,2.11,0,0,1,.68-1.66,2.63,2.63,0,0,1,1.84-.62,2.68,2.68,0,0,1,1.82.62,2.13,2.13,0,0,1,.7,1.66,2.22,2.22,0,0,1-.68,1.68,2.58,2.58,0,0,1-1.84.64A2.55,2.55,0,0,1,536.26,9.62Zm.38,24.2a1.75,1.75,0,0,1-.58-1.44V16.14a1.81,1.81,0,0,1,.58-1.46,2.16,2.16,0,0,1,1.46-.5,2.12,2.12,0,0,1,1.44.5,1.86,1.86,0,0,1,.56,1.46V32.38a1.8,1.8,0,0,1-.56,1.44,2.16,2.16,0,0,1-1.44.48A2.19,2.19,0,0,1,536.64,33.82Z"/><path class="a" d="M557.12,31.68a1.45,1.45,0,0,1,.38,1.06,1.39,1.39,0,0,1-.62,1.22,3,3,0,0,1-1.83.34L554,34.22a7,7,0,0,1-4.85-2,7.38,7.38,0,0,1-1.59-5.14V17.7h-2.41c-1.17,0-1.75-.52-1.75-1.56a1.46,1.46,0,0,1,.46-1.14,1.84,1.84,0,0,1,1.29-.42h2.41V10.46A1.88,1.88,0,0,1,548.08,9a2,2,0,0,1,1.46-.52A2,2,0,0,1,551,9a1.86,1.86,0,0,1,.57,1.44v4.12h4a1.88,1.88,0,0,1,1.3.42,1.67,1.67,0,0,1,0,2.3,1.93,1.93,0,0,1-1.3.4h-4v9.68a4.1,4.1,0,0,0,.78,2.76,3.36,3.36,0,0,0,2.38,1l1.12.08A2,2,0,0,1,557.12,31.68Z"/><path class="a" d="M577.94,22v10.4a1.83,1.83,0,0,1-.56,1.4,2.09,2.09,0,0,1-1.48.52,2,2,0,0,1-1.46-.52,1.85,1.85,0,0,1-.54-1.4V22a5.28,5.28,0,0,0-1-3.52,3.87,3.87,0,0,0-3.06-1.12,5.22,5.22,0,0,0-3.92,1.52A5.57,5.57,0,0,0,564.46,23v9.4a1.85,1.85,0,0,1-.54,1.4,2,2,0,0,1-1.46.52,2.06,2.06,0,0,1-1.48-.52,1.8,1.8,0,0,1-.56-1.4V7.62a1.78,1.78,0,0,1,.58-1.4,2.12,2.12,0,0,1,1.5-.52,2,2,0,0,1,1.42.5,1.73,1.73,0,0,1,.54,1.34v10A6.7,6.7,0,0,1,567.13,15,8.15,8.15,0,0,1,571,14.1Q577.94,14.1,577.94,22Z"/><path class="a" d="M77.71,105.38a15.68,15.68,0,0,1-6-3.19,2.79,2.79,0,0,1-1-2.25,2.59,2.59,0,0,1,.55-1.68,1.65,1.65,0,0,1,1.32-.69,3.63,3.63,0,0,1,1.87.72,18.27,18.27,0,0,0,11.17,3.63,11.74,11.74,0,0,0,6.76-1.65,5.42,5.42,0,0,0,2.37-4.73,3.92,3.92,0,0,0-2.2-3.63,28.75,28.75,0,0,0-7-2.31,41.86,41.86,0,0,1-7.59-2.26,11.28,11.28,0,0,1-4.65-3.43,8.78,8.78,0,0,1-1.68-5.53,10.08,10.08,0,0,1,1.84-6,12.13,12.13,0,0,1,5.15-4.07A18.49,18.49,0,0,1,86,66.88,22.8,22.8,0,0,1,93.25,68a15.26,15.26,0,0,1,5.61,3.25,2.86,2.86,0,0,1,1.1,2.25,2.55,2.55,0,0,1-.58,1.65,1.71,1.71,0,0,1-1.35.72,3.56,3.56,0,0,1-1.81-.72,19.89,19.89,0,0,0-4.76-2.77,15,15,0,0,0-5.36-.86,10.93,10.93,0,0,0-6.6,1.74,5.62,5.62,0,0,0-2.37,4.81,4.45,4.45,0,0,0,2.09,4,22.6,22.6,0,0,0,6.71,2.44,56,56,0,0,1,7.84,2.29A12,12,0,0,1,98.55,90a7.79,7.79,0,0,1,1.79,5.31,9.77,9.77,0,0,1-1.84,5.86,11.94,11.94,0,0,1-5.17,4,19.73,19.73,0,0,1-7.67,1.4A27,27,0,0,1,77.71,105.38Z"/><path class="a" d="M125.89,81.29q2.61,2.7,2.61,8.2v14.24a2.62,2.62,0,0,1-.71,2,2.74,2.74,0,0,1-2,.69,2.47,2.47,0,0,1-2.64-2.65v-2a7.82,7.82,0,0,1-3.11,3.55,9.23,9.23,0,0,1-4.81,1.23,10.69,10.69,0,0,1-4.82-1.07,8.58,8.58,0,0,1-3.43-2.94,7.35,7.35,0,0,1-1.27-4.24,6.38,6.38,0,0,1,1.49-4.64,9.2,9.2,0,0,1,5-2.42,47.94,47.94,0,0,1,9.63-.75h1.26V88.83c0-2-.42-3.54-1.26-4.45A5.3,5.3,0,0,0,117.78,83a13.27,13.27,0,0,0-3.63.49,27.23,27.23,0,0,0-3.74,1.43,5.45,5.45,0,0,1-2.09.83,1.69,1.69,0,0,1-1.35-.61,2.24,2.24,0,0,1-.52-1.54,2.37,2.37,0,0,1,.46-1.45,4.89,4.89,0,0,1,1.52-1.24,18.44,18.44,0,0,1,4.51-1.68,21.07,21.07,0,0,1,5-.63Q123.28,78.6,125.89,81.29Zm-4.7,19A7.5,7.5,0,0,0,123.11,95V93.56h-1a43.85,43.85,0,0,0-6.6.38,6.46,6.46,0,0,0-3.3,1.3,3.35,3.35,0,0,0-1,2.61,4.13,4.13,0,0,0,1.43,3.24,5.18,5.18,0,0,0,3.58,1.27A6.5,6.5,0,0,0,121.19,100.3Z"/><path class="a" d="M156.69,80.36a11.7,11.7,0,0,1,4.23,5,17,17,0,0,1,1.52,7.37A16.78,16.78,0,0,1,161,99.94a11.21,11.21,0,0,1-4.21,4.84,11.45,11.45,0,0,1-6.24,1.7,10.73,10.73,0,0,1-5.33-1.29,8.48,8.48,0,0,1-3.52-3.71v12.26a2.4,2.4,0,0,1-.75,1.85,2.77,2.77,0,0,1-2,.68,3,3,0,0,1-2.06-.71,2.47,2.47,0,0,1-.8-1.93V81.4a2.61,2.61,0,0,1,.77-2,2.82,2.82,0,0,1,2-.74,2.78,2.78,0,0,1,2,.74,2.61,2.61,0,0,1,.77,2v2.26a8.66,8.66,0,0,1,3.52-3.74,10.54,10.54,0,0,1,5.33-1.32A11.19,11.19,0,0,1,156.69,80.36Zm-1.9,19.28q2-2.44,2-7c0-3-.67-5.41-2-7.09a7.46,7.46,0,0,0-11.16-.06q-1.95,2.48-1.95,7t1.95,7a6.69,6.69,0,0,0,5.58,2.48A6.81,6.81,0,0,0,154.79,99.64Z"/><path class="a" d="M189.19,80.36a11.65,11.65,0,0,1,4.24,5,17,17,0,0,1,1.51,7.37,16.78,16.78,0,0,1-1.48,7.26,11.34,11.34,0,0,1-4.21,4.84,11.51,11.51,0,0,1-6.25,1.7,10.76,10.76,0,0,1-5.33-1.29,8.53,8.53,0,0,1-3.52-3.71v12.26a2.42,2.42,0,0,1-.74,1.85,2.81,2.81,0,0,1-1.95.68,3,3,0,0,1-2.07-.71,2.47,2.47,0,0,1-.8-1.93V81.4a2.58,2.58,0,0,1,.78-2,2.82,2.82,0,0,1,2-.74,2.74,2.74,0,0,1,2,.74,2.61,2.61,0,0,1,.77,2v2.26a8.71,8.71,0,0,1,3.52-3.74A10.56,10.56,0,0,1,183,78.6,11.17,11.17,0,0,1,189.19,80.36ZM187.3,99.64c1.32-1.63,2-4,2-7s-.66-5.41-2-7.09a7.47,7.47,0,0,0-11.17-.06q-1.95,2.48-1.95,7t1.95,7a6.69,6.69,0,0,0,5.58,2.48A6.84,6.84,0,0,0,187.3,99.64Z"/><path class="a" d="M223.37,99.94a2.36,2.36,0,0,1,.5,1.54,3.16,3.16,0,0,1-2,2.69,18,18,0,0,1-8.58,2.31q-6.37,0-10.07-3.71t-3.68-10.14a16,16,0,0,1,1.62-7.32,11.9,11.9,0,0,1,4.57-5,12.79,12.79,0,0,1,6.68-1.76A10.91,10.91,0,0,1,221,82.06c2.09,2.32,3.14,5.43,3.14,9.36q0,2.19-2,2.19h-17q.55,8.53,8.2,8.53a10,10,0,0,0,3.52-.55,25.55,25.55,0,0,0,3.13-1.43c.11-.07.42-.23.91-.47a3,3,0,0,1,1.24-.35A1.56,1.56,0,0,1,223.37,99.94Zm-16-15.23a9.51,9.51,0,0,0-2.31,5.71H219.3a9.21,9.21,0,0,0-1.89-5.74,6.09,6.09,0,0,0-4.87-2A6.72,6.72,0,0,0,207.42,84.71Z"/><path class="a" d="M246.91,81a2.48,2.48,0,0,1-.6,1.82,3.26,3.26,0,0,1-2.09.71l-1.65.17a7.13,7.13,0,0,0-5.14,2.42,7.82,7.82,0,0,0-1.68,5.06v12.59a2.48,2.48,0,0,1-.77,2,3,3,0,0,1-2,.67,3,3,0,0,1-2-.67,2.43,2.43,0,0,1-.8-2V81.35a2.45,2.45,0,0,1,.8-1.95,3,3,0,0,1,2-.69,2.59,2.59,0,0,1,1.84.69,2.43,2.43,0,0,1,.74,1.89v2.64a8.12,8.12,0,0,1,3.19-3.68,10.84,10.84,0,0,1,4.73-1.49l.77-.05Q246.91,78.54,246.91,81Z"/><path class="a" d="M287.48,79Q290.33,82,290.33,88v15.54a2.82,2.82,0,0,1-.78,2.13,3,3,0,0,1-2.16.75,2.69,2.69,0,0,1-2.88-2.88V101.3a8.44,8.44,0,0,1-3.39,3.87,10,10,0,0,1-5.25,1.35,11.7,11.7,0,0,1-5.25-1.17,9.5,9.5,0,0,1-3.75-3.21,8.05,8.05,0,0,1-1.38-4.62,7,7,0,0,1,1.62-5.07,10.13,10.13,0,0,1,5.46-2.64,52.78,52.78,0,0,1,10.5-.81h1.38V87.26q0-3.36-1.38-4.86a5.78,5.78,0,0,0-4.44-1.5,14.14,14.14,0,0,0-4,.54A29.77,29.77,0,0,0,270.59,83a5.88,5.88,0,0,1-2.28.9,1.85,1.85,0,0,1-1.47-.66,2.48,2.48,0,0,1-.57-1.68,2.6,2.6,0,0,1,.51-1.59,5.37,5.37,0,0,1,1.65-1.35,20.51,20.51,0,0,1,4.92-1.83,23,23,0,0,1,5.46-.69Q284.63,76.1,287.48,79Zm-5.13,20.73a8.15,8.15,0,0,0,2.1-5.79V92.42h-1.08a46.74,46.74,0,0,0-7.2.42,7.06,7.06,0,0,0-3.6,1.41,3.67,3.67,0,0,0-1.08,2.85,4.51,4.51,0,0,0,1.56,3.54A5.67,5.67,0,0,0,277,102,7.06,7.06,0,0,0,282.35,99.77Z"/><path class="a" d="M324.89,87.92v15.6a2.76,2.76,0,0,1-.81,2.13,3.19,3.19,0,0,1-2.25.75,3,3,0,0,1-2.19-.78,2.78,2.78,0,0,1-.81-2.1V88.22q0-3.72-1.47-5.46A5.68,5.68,0,0,0,312.77,81a7.83,7.83,0,0,0-5.88,2.28,8.4,8.4,0,0,0-2.22,6.12v14.1a2.78,2.78,0,0,1-.81,2.1,3,3,0,0,1-2.19.78,3.13,3.13,0,0,1-2.22-.78,2.73,2.73,0,0,1-.84-2.1V79.1a2.7,2.7,0,0,1,.87-2.07,3.09,3.09,0,0,1,2.19-.81,2.84,2.84,0,0,1,2.1.78,2.76,2.76,0,0,1,.78,2V81.5a9.73,9.73,0,0,1,4-4,12.14,12.14,0,0,1,5.82-1.38Q324.89,76.1,324.89,87.92Z"/><path class="a" d="M359.33,64.28a2.73,2.73,0,0,1,.84,2.1v37.08a2.86,2.86,0,0,1-.81,2.16,3.46,3.46,0,0,1-4.38,0,2.86,2.86,0,0,1-.81-2.16v-2.4a9.28,9.28,0,0,1-3.84,4,11.72,11.72,0,0,1-5.82,1.41,12.16,12.16,0,0,1-6.75-1.92,12.76,12.76,0,0,1-4.62-5.4,18.42,18.42,0,0,1-1.65-8,18.17,18.17,0,0,1,1.65-8,12.11,12.11,0,0,1,11.37-7.14,11.55,11.55,0,0,1,5.79,1.41,9.41,9.41,0,0,1,3.81,4V66.26a2.61,2.61,0,0,1,.81-2,3.1,3.1,0,0,1,2.19-.75A3.13,3.13,0,0,1,359.33,64.28ZM352,99q2.16-2.7,2.16-7.68T352,83.66A7.3,7.3,0,0,0,346,81a7.51,7.51,0,0,0-6.15,2.67q-2.19,2.67-2.19,7.59t2.22,7.71A8.13,8.13,0,0,0,352,99Z"/><path class="a" d="M386,105.29a3,3,0,0,1-.81-2.19V66.8a3,3,0,0,1,.81-2.19,3,3,0,0,1,2.25-.81h22.08a3.12,3.12,0,0,1,2.13.66,2.35,2.35,0,0,1,.75,1.86,2.26,2.26,0,0,1-.75,1.83,3.22,3.22,0,0,1-2.13.63H391.25V82.1h17.88a3.12,3.12,0,0,1,2.13.66,2.68,2.68,0,0,1,0,3.72,3.12,3.12,0,0,1-2.13.66H391.25v14h19.08q2.88,0,2.88,2.46a2.35,2.35,0,0,1-.75,1.86,3.12,3.12,0,0,1-2.13.66H388.25A3,3,0,0,1,386,105.29Z"/><path class="a" d="M420.44,105.68a2.64,2.64,0,0,1-.87-2.16V66.44a2.73,2.73,0,0,1,.87-2.19,3.23,3.23,0,0,1,2.19-.75,3.12,3.12,0,0,1,2.16.75,2.78,2.78,0,0,1,.84,2.19v37.08a2.69,2.69,0,0,1-.84,2.16,3.2,3.2,0,0,1-2.16.72A3.32,3.32,0,0,1,420.44,105.68Z"/><path class="a" d="M458.39,99.38a2.57,2.57,0,0,1,.54,1.68q0,1.74-2.16,2.94a19,19,0,0,1-4.59,1.86,18.61,18.61,0,0,1-4.77.66q-7,0-11-4t-4-11.07a17.36,17.36,0,0,1,1.77-8,13,13,0,0,1,5-5.4,13.93,13.93,0,0,1,7.29-1.92,11.91,11.91,0,0,1,9.3,3.78q3.42,3.78,3.42,10.2,0,2.4-2.16,2.4H438.47q.6,9.3,8.94,9.3a11.06,11.06,0,0,0,3.84-.6,27.93,27.93,0,0,0,3.42-1.56q.18-.12,1-.51a3.28,3.28,0,0,1,1.35-.39A1.7,1.7,0,0,1,458.39,99.38ZM441,82.76A10.37,10.37,0,0,0,438.47,89H454a10,10,0,0,0-2.07-6.27,6.64,6.64,0,0,0-5.31-2.19A7.32,7.32,0,0,0,441,82.76Z"/><path class="a" d="M470.9,104.66a12.7,12.7,0,0,1-5-5.28,18.59,18.59,0,0,1,.06-16,13.23,13.23,0,0,1,5.13-5.4,14.75,14.75,0,0,1,7.56-1.92,16.64,16.64,0,0,1,4.59.66,15.69,15.69,0,0,1,4.11,1.8,3.73,3.73,0,0,1,1.92,3.06,2.69,2.69,0,0,1-.54,1.71,1.68,1.68,0,0,1-1.38.69,2.4,2.4,0,0,1-1.08-.27,15.58,15.58,0,0,1-1.38-.81,16.53,16.53,0,0,0-2.79-1.47A8.4,8.4,0,0,0,479,81a7.71,7.71,0,0,0-6.33,2.76q-2.25,2.76-2.25,7.68T472.67,99a7.73,7.73,0,0,0,6.3,2.67,8.69,8.69,0,0,0,3.18-.54A17.11,17.11,0,0,0,485,99.68a10.74,10.74,0,0,1,1.32-.72,2.94,2.94,0,0,1,1.2-.3,1.68,1.68,0,0,1,1.38.69,2.69,2.69,0,0,1,.54,1.71,2.74,2.74,0,0,1-.45,1.53,5.33,5.33,0,0,1-1.53,1.41,14.39,14.39,0,0,1-4.2,1.86,18.25,18.25,0,0,1-4.86.66A14.63,14.63,0,0,1,470.9,104.66Z"/><path class="a" d="M511.16,102.47a2.15,2.15,0,0,1,.57,1.59,2.07,2.07,0,0,1-.93,1.83,4.34,4.34,0,0,1-2.73.51l-1.62-.12q-4.86-.36-7.26-3t-2.4-7.71V81.5h-3.6q-2.64,0-2.64-2.34a2.2,2.2,0,0,1,.69-1.71,2.79,2.79,0,0,1,1.95-.63h3.6V70.64a2.86,2.86,0,0,1,.81-2.16,3,3,0,0,1,2.19-.78,3.13,3.13,0,0,1,2.22.78,2.8,2.8,0,0,1,.84,2.16v6.18h5.94a2.79,2.79,0,0,1,1.95.63,2.5,2.5,0,0,1,0,3.45,2.88,2.88,0,0,1-1.95.6h-5.94V96a6.13,6.13,0,0,0,1.17,4.14,5.06,5.06,0,0,0,3.57,1.5l1.68.12A3,3,0,0,1,511.16,102.47Z"/><path class="a" d="M534.35,78.68a2.69,2.69,0,0,1-.66,2,3.56,3.56,0,0,1-2.28.78l-1.8.18A7.77,7.77,0,0,0,524,84.26a8.54,8.54,0,0,0-1.83,5.52v13.74a2.69,2.69,0,0,1-.84,2.16,3.2,3.2,0,0,1-2.16.72,3.32,3.32,0,0,1-2.19-.72,2.64,2.64,0,0,1-.87-2.16V79.1A2.66,2.66,0,0,1,517,77a3.23,3.23,0,0,1,2.19-.75,2.85,2.85,0,0,1,2,.75A2.68,2.68,0,0,1,522,79v2.88a8.81,8.81,0,0,1,3.48-4,11.69,11.69,0,0,1,5.16-1.62l.84-.06Q534.35,76,534.35,78.68Z"/><path class="a" d="M542.6,104.66a12.55,12.55,0,0,1-5-5.31,19.15,19.15,0,0,1,0-16.08,12.55,12.55,0,0,1,5-5.31,16.42,16.42,0,0,1,15.18,0,12.55,12.55,0,0,1,5,5.31,19.15,19.15,0,0,1,0,16.08,12.55,12.55,0,0,1-5,5.31,16.42,16.42,0,0,1-15.18,0Zm13.74-5.58q2.13-2.64,2.13-7.74t-2.16-7.71a8.35,8.35,0,0,0-12.24,0q-2.16,2.67-2.16,7.71T544,99.08a8.48,8.48,0,0,0,12.3,0Z"/><path class="a" d="M597.59,87.92v15.6a2.76,2.76,0,0,1-.81,2.13,3.19,3.19,0,0,1-2.25.75,3,3,0,0,1-2.19-.78,2.78,2.78,0,0,1-.81-2.1V88.22q0-3.72-1.47-5.46A5.68,5.68,0,0,0,585.47,81a7.83,7.83,0,0,0-5.88,2.28,8.4,8.4,0,0,0-2.22,6.12v14.1a2.78,2.78,0,0,1-.81,2.1,3,3,0,0,1-2.19.78,3.13,3.13,0,0,1-2.22-.78,2.73,2.73,0,0,1-.84-2.1V79.1a2.7,2.7,0,0,1,.87-2.07,3.09,3.09,0,0,1,2.19-.81,2.84,2.84,0,0,1,2.1.78,2.76,2.76,0,0,1,.78,2V81.5a9.73,9.73,0,0,1,4-4,12.14,12.14,0,0,1,5.82-1.38Q597.59,76.1,597.59,87.92Z"/><path class="a" d="M370,284l-23.34.07V261.2a3.6,3.6,0,1,0-7.19,0l.07,22.8H317.15a3.6,3.6,0,0,0,0,7.2h22.31V314a3.6,3.6,0,0,0,7.2,0V291.2H370a3.6,3.6,0,1,0,0-7.2Z"/><path class="a" d="M150.12,233.44c-24.83-4.52-44.46.21-52.29,13.76-5.84,10.11-4.17,23.52,4,37.85a2.55,2.55,0,1,0,4.47-2.44l0-.09c-7.4-12.91-8.85-24.48-4.06-32.77,6.5-11.26,24-15.48,47-11.3a2.55,2.55,0,0,0,.92-5Zm-35.33,69a159.14,159.14,0,0,0,38,30c36,20.8,74.36,26.35,93.26,13.47a2.55,2.55,0,0,0-2.8-4.26l-.07.05C226.22,353.23,189.8,348,155.3,328a154.22,154.22,0,0,1-36.74-29,2.55,2.55,0,1,0-3.78,3.41Z"/><path class="a" d="M240,299.38c16.26-19.21,21.93-38.53,14.12-52-5.74-10-17.89-15.21-34-15.42A2.55,2.55,0,0,0,220,237c14.52.18,25,4.71,29.69,12.87,6.49,11.23,1.43,28.45-13.6,46.21a2.55,2.55,0,1,0,3.85,3.33Zm-41.78-65.1c-14.7,3.15-30.35,9.31-45.38,18-37.18,21.46-61.43,53.12-58.06,76.07a2.54,2.54,0,0,0,5-.68v-.06c-3-20.38,20-50.38,55.57-70.92a154.08,154.08,0,0,1,43.89-17.42,2.54,2.54,0,1,0-1-5Z"/><path class="a" d="M138,344.25c8.5,23.74,22.41,38.35,38,38.35,11.4,0,22-7.77,30.18-21.46a2.55,2.55,0,1,0-4.33-2.69l0,.06c-7.39,12.31-16.47,19-25.81,19-13,0-25.4-13-33.25-35a2.55,2.55,0,0,0-4.83,1.62l0,.1Zm77.64-4.64a159.62,159.62,0,0,0,6.77-47.19c0-42.18-14.76-78.54-35.79-87.88a2.55,2.55,0,0,0-2.07,4.65c18.76,8.33,32.77,42.84,32.77,83.23a154.92,154.92,0,0,1-6.53,45.67,2.54,2.54,0,0,0,4.83,1.59l0-.07Zm48-2.5a12.19,12.19,0,1,0-12.19,12.19A12.18,12.18,0,0,0,263.56,337.11Zm-5.1,0a7.09,7.09,0,1,1-7.09-7.09A7.09,7.09,0,0,1,258.46,337.11Zm-158,12.19a12.19,12.19,0,1,0-12.18-12.19A12.19,12.19,0,0,0,100.46,349.3Zm0-5.09a7.1,7.1,0,1,1,7.1-7.1A7.1,7.1,0,0,1,100.46,344.21Z"/><path class="a" d="M176,217a12.19,12.19,0,1,0-12.19-12.18A12.18,12.18,0,0,0,176,217Zm0-5.09a7.1,7.1,0,1,1,7.09-7.09A7.1,7.1,0,0,1,176,211.88ZM177.87,301a8.82,8.82,0,1,1,6.75-10.48A8.82,8.82,0,0,1,177.87,301Z"/><path class="b" d="M571.64,217.73C554,192.5,519.13,185,493.92,201.05l-44.26,28.21a50.68,50.68,0,0,0-22.94,33.94A53.45,53.45,0,0,0,432,297.55a50.92,50.92,0,0,0-7.59,19,54.1,54.1,0,0,0,9.25,40.92c17.65,25.23,52.51,32.73,77.71,16.68l44.27-28.09a50.9,50.9,0,0,0,22.94-33.94,53.56,53.56,0,0,0-5.27-34.34,51.37,51.37,0,0,0,7.6-19,54.18,54.18,0,0,0-9.25-40.94"/><path class="c" d="M489.6,359.91a35.2,35.2,0,0,1-37.75-14,32.55,32.55,0,0,1-5.57-24.61,28.87,28.87,0,0,1,1.05-4.09l.84-2.54,2.27,1.69A57.07,57.07,0,0,0,467.7,325l1.7.5-.16,1.69a10.05,10.05,0,0,0,1.86,6.54,10.62,10.62,0,0,0,11.37,4.21,10,10,0,0,0,2.72-1.19l44.19-28.21a9.2,9.2,0,0,0,4.16-6.17,9.75,9.75,0,0,0-1.7-7.42,10.59,10.59,0,0,0-11.37-4.21,9.62,9.62,0,0,0-2.71,1.18l-17,10.77a32.28,32.28,0,0,1-9,3.93,35.15,35.15,0,0,1-37.67-14A32.53,32.53,0,0,1,448.61,268a30.56,30.56,0,0,1,13.81-20.46l44.34-28.2a32,32,0,0,1,8.9-3.94,35.13,35.13,0,0,1,37.75,14A32.54,32.54,0,0,1,559,254a34.54,34.54,0,0,1-1.05,4.12l-.85,2.55-2.25-1.7a57.63,57.63,0,0,0-17.31-8.66l-1.69-.49.15-1.7a9.9,9.9,0,0,0-1.8-6.58,10.56,10.56,0,0,0-11.3-4.08,9.42,9.42,0,0,0-2.72,1.19l-44.29,28.14a9.26,9.26,0,0,0-4.16,6.16,9.9,9.9,0,0,0,1.69,7.43,10.63,10.63,0,0,0,11.29,4.21,10.14,10.14,0,0,0,2.72-1.19l17-10.76a31.56,31.56,0,0,1,9-4,35.14,35.14,0,0,1,37.73,14,32.54,32.54,0,0,1,5.57,24.61,30.59,30.59,0,0,1-13.8,20.47l-44.28,28.2a32.52,32.52,0,0,1-9,3.95"/></svg>