<svg xmlns="http://www.w3.org/2000/svg" viewBox="0 0 670 400"><defs><style>.a{fill:#2b2e3a;}.b{fill:#00c7b3;}.b,.c{fill-rule:evenodd;}.c{fill:#0086cb;}</style></defs><path class="a" d="M93.16,33.56a2,2,0,0,1-.54-1.46V7.9a2,2,0,0,1,.54-1.46,2,2,0,0,1,1.5-.54h7.84q6.85,0,10.6,3.68T116.86,20q0,6.72-3.76,10.42t-10.6,3.7H94.66A2,2,0,0,1,93.16,33.56ZM112.66,20q0-10.63-10.4-10.64H96.74V30.66h5.52Q112.67,30.66,112.66,20Z"/><path class="a" d="M138.18,29.62a1.71,1.71,0,0,1,.36,1.12,2.3,2.3,0,0,1-1.44,2,13.19,13.19,0,0,1-6.24,1.68,9.86,9.86,0,0,1-7.32-2.7,10,10,0,0,1-2.68-7.38A11.67,11.67,0,0,1,122,19a8.7,8.7,0,0,1,3.32-3.6,9.33,9.33,0,0,1,4.86-1.28,7.93,7.93,0,0,1,6.2,2.52,9.76,9.76,0,0,1,2.28,6.8c0,1.07-.48,1.6-1.44,1.6H124.9q.41,6.19,6,6.2a7.28,7.28,0,0,0,2.56-.4,18.62,18.62,0,0,0,2.28-1c.08-.05.3-.17.66-.34a2.24,2.24,0,0,1,.9-.26A1.14,1.14,0,0,1,138.18,29.62Zm-11.6-11.08a7,7,0,0,0-1.68,4.16h10.32a6.69,6.69,0,0,0-1.38-4.18,4.44,4.44,0,0,0-3.54-1.46A4.89,4.89,0,0,0,126.58,18.54Z"/><path class="a" d="M143.26,32.7a3,3,0,0,1-1-.92,2,2,0,0,1-.3-1.08,1.64,1.64,0,0,1,.36-1.08,1.15,1.15,0,0,1,.92-.44,3.85,3.85,0,0,1,1.64.64,16.83,16.83,0,0,0,2.34,1,8.68,8.68,0,0,0,2.86.4,5.65,5.65,0,0,0,3-.68,2.14,2.14,0,0,0,1.08-1.92,1.88,1.88,0,0,0-.42-1.28,3.48,3.48,0,0,0-1.46-.86,24.74,24.74,0,0,0-3.08-.82,11.92,11.92,0,0,1-5.06-2.06,4.42,4.42,0,0,1-1.54-3.54,5.19,5.19,0,0,1,1-3.1,6.56,6.56,0,0,1,2.76-2.14,10,10,0,0,1,4-.76,11.62,11.62,0,0,1,3.12.42,8.78,8.78,0,0,1,2.68,1.22,2.49,2.49,0,0,1,1.32,2,1.55,1.55,0,0,1-.38,1.08,1.16,1.16,0,0,1-.9.44,1.71,1.71,0,0,1-.72-.16,10.23,10.23,0,0,1-1-.52,13,13,0,0,0-2-1,6.54,6.54,0,0,0-2.34-.36,4.59,4.59,0,0,0-2.7.72,2.27,2.27,0,0,0-1,2,2,2,0,0,0,.94,1.74,11.59,11.59,0,0,0,3.54,1.18,19.1,19.1,0,0,1,4.2,1.28,4.92,4.92,0,0,1,2.18,1.78,5,5,0,0,1,.66,2.7,4.91,4.91,0,0,1-2.18,4.18,9.72,9.72,0,0,1-5.82,1.58A12.12,12.12,0,0,1,143.26,32.7Z"/><path class="a" d="M179.54,32.42a1.85,1.85,0,0,1-.52,1.32,1.64,1.64,0,0,1-1.24.56,2,2,0,0,1-1.36-.56l-10-8.8v7.4a1.83,1.83,0,0,1-.56,1.46,2.08,2.08,0,0,1-1.44.5,2.19,2.19,0,0,1-1.46-.5,1.84,1.84,0,0,1-.58-1.46V7.66A1.84,1.84,0,0,1,163,6.2a2.19,2.19,0,0,1,1.46-.5,2.08,2.08,0,0,1,1.44.5,1.83,1.83,0,0,1,.56,1.46V23.34l9.12-8.52a2.06,2.06,0,0,1,1.32-.6,1.81,1.81,0,0,1,1.32.56,1.77,1.77,0,0,1,.56,1.32,1.88,1.88,0,0,1-.68,1.4L171,24l7.84,6.92A1.85,1.85,0,0,1,179.54,32.42Z"/><path class="a" d="M193.8,31.68a1.41,1.41,0,0,1,.38,1.06,1.37,1.37,0,0,1-.62,1.22,2.91,2.91,0,0,1-1.82.34l-1.08-.08a7,7,0,0,1-4.84-2,7.38,7.38,0,0,1-1.6-5.14V17.7h-2.4c-1.17,0-1.76-.52-1.76-1.56a1.49,1.49,0,0,1,.46-1.14,1.86,1.86,0,0,1,1.3-.42h2.4V10.46A1.92,1.92,0,0,1,184.76,9a2,2,0,0,1,1.46-.52A2.06,2.06,0,0,1,187.7,9a1.85,1.85,0,0,1,.56,1.44v4.12h4a1.85,1.85,0,0,1,1.3.42,1.46,1.46,0,0,1,.46,1.14,1.44,1.44,0,0,1-.46,1.16,1.89,1.89,0,0,1-1.3.4h-4v9.68a4.1,4.1,0,0,0,.78,2.76,3.37,3.37,0,0,0,2.38,1l1.12.08A2,2,0,0,1,193.8,31.68Z"/><path class="a" d="M200.52,33.14a8.45,8.45,0,0,1-3.36-3.54A11.61,11.61,0,0,1,196,24.26a11.72,11.72,0,0,1,1.18-5.38,8.45,8.45,0,0,1,3.36-3.54,10.94,10.94,0,0,1,10.12,0A8.33,8.33,0,0,1,214,18.88a11.59,11.59,0,0,1,1.18,5.38A11.48,11.48,0,0,1,214,29.6a8.33,8.33,0,0,1-3.36,3.54,10.94,10.94,0,0,1-10.12,0Zm9.16-3.72a8,8,0,0,0,1.42-5.16,8,8,0,0,0-1.44-5.14,5.57,5.57,0,0,0-8.16,0,8,8,0,0,0-1.44,5.14,8.1,8.1,0,0,0,1.42,5.16,5.66,5.66,0,0,0,8.2,0Z"/><path class="a" d="M234.64,15.38a8.45,8.45,0,0,1,3.08,3.6,12.28,12.28,0,0,1,1.1,5.36,12.2,12.2,0,0,1-1.08,5.28,8.17,8.17,0,0,1-3.06,3.52,8.34,8.34,0,0,1-4.54,1.24,7.79,7.79,0,0,1-3.88-.94,6.24,6.24,0,0,1-2.56-2.7v8.92a1.73,1.73,0,0,1-.54,1.34,2,2,0,0,1-1.42.5,2.16,2.16,0,0,1-1.5-.52,1.81,1.81,0,0,1-.58-1.4V16.14a1.89,1.89,0,0,1,.56-1.42,2.06,2.06,0,0,1,1.48-.54,2,2,0,0,1,1.44.54,1.85,1.85,0,0,1,.56,1.42v1.64a6.35,6.35,0,0,1,2.56-2.72,7.7,7.7,0,0,1,3.88-1A8.13,8.13,0,0,1,234.64,15.38Zm-1.38,14a7.86,7.86,0,0,0,1.44-5.06,8.08,8.08,0,0,0-1.46-5.16,5.44,5.44,0,0,0-8.12,0,8.15,8.15,0,0,0-1.42,5.12,8.15,8.15,0,0,0,1.42,5.12,4.87,4.87,0,0,0,4.06,1.8A4.94,4.94,0,0,0,233.26,29.4Z"/><path class="a" d="M279.42,32.5a1.59,1.59,0,0,1-.62,1.28,2.07,2.07,0,0,1-1.38.52,1.79,1.79,0,0,1-1-.3,1.94,1.94,0,0,1-.7-.86l-2.64-6H258.46l-2.64,6a1.89,1.89,0,0,1-1.72,1.16,2.15,2.15,0,0,1-1.42-.52,1.62,1.62,0,0,1-.62-1.28,2.26,2.26,0,0,1,.2-.8L263.54,7a2.13,2.13,0,0,1,.9-1,2.58,2.58,0,0,1,1.3-.36A2.52,2.52,0,0,1,267,6a2,2,0,0,1,.9,1L279.22,31.7A2.06,2.06,0,0,1,279.42,32.5Zm-19.48-8.64h11.72l-5.88-13.24Z"/><path class="a" d="M298.2,15.38a8.45,8.45,0,0,1,3.08,3.6,12.28,12.28,0,0,1,1.1,5.36,12.2,12.2,0,0,1-1.08,5.28,8.17,8.17,0,0,1-3.06,3.52,8.34,8.34,0,0,1-4.54,1.24,7.79,7.79,0,0,1-3.88-.94,6.24,6.24,0,0,1-2.56-2.7v8.92a1.73,1.73,0,0,1-.54,1.34,2,2,0,0,1-1.42.5,2.16,2.16,0,0,1-1.5-.52,1.81,1.81,0,0,1-.58-1.4V16.14a1.89,1.89,0,0,1,.56-1.42,2.06,2.06,0,0,1,1.48-.54,2,2,0,0,1,1.44.54,1.85,1.85,0,0,1,.56,1.42v1.64a6.35,6.35,0,0,1,2.56-2.72,7.7,7.7,0,0,1,3.88-1A8.13,8.13,0,0,1,298.2,15.38Zm-1.38,14a7.86,7.86,0,0,0,1.44-5.06,8.08,8.08,0,0,0-1.46-5.16,5.44,5.44,0,0,0-8.12,0,8.15,8.15,0,0,0-1.42,5.12,8.15,8.15,0,0,0,1.42,5.12,4.87,4.87,0,0,0,4.06,1.8A4.94,4.94,0,0,0,296.82,29.4Z"/><path class="a" d="M321.84,15.38a8.45,8.45,0,0,1,3.08,3.6,12.43,12.43,0,0,1,1.1,5.36,12.2,12.2,0,0,1-1.08,5.28,8.17,8.17,0,0,1-3.06,3.52,8.34,8.34,0,0,1-4.54,1.24,7.79,7.79,0,0,1-3.88-.94,6.24,6.24,0,0,1-2.56-2.7v8.92a1.73,1.73,0,0,1-.54,1.34,2,2,0,0,1-1.42.5,2.16,2.16,0,0,1-1.5-.52,1.81,1.81,0,0,1-.58-1.4V16.14a1.89,1.89,0,0,1,.56-1.42,2.06,2.06,0,0,1,1.48-.54,2,2,0,0,1,1.44.54,1.85,1.85,0,0,1,.56,1.42v1.64a6.35,6.35,0,0,1,2.56-2.72,7.7,7.7,0,0,1,3.88-1A8.13,8.13,0,0,1,321.84,15.38Zm-1.38,14a7.86,7.86,0,0,0,1.44-5.06,8.08,8.08,0,0,0-1.46-5.16,5.44,5.44,0,0,0-8.12,0,8.15,8.15,0,0,0-1.42,5.12,8.15,8.15,0,0,0,1.42,5.12,4.87,4.87,0,0,0,4.06,1.8A4.94,4.94,0,0,0,320.46,29.4Z"/><path class="a" d="M331.08,33.82a1.75,1.75,0,0,1-.58-1.44V7.66a1.81,1.81,0,0,1,.58-1.46,2.17,2.17,0,0,1,1.46-.5,2.08,2.08,0,0,1,1.44.5,1.83,1.83,0,0,1,.56,1.46V32.38a1.77,1.77,0,0,1-.56,1.44,2.12,2.12,0,0,1-1.44.48A2.21,2.21,0,0,1,331.08,33.82Z"/><path class="a" d="M340.38,9.62a2.22,2.22,0,0,1-.68-1.68,2.15,2.15,0,0,1,.68-1.66,3,3,0,0,1,3.66,0,2.1,2.1,0,0,1,.7,1.66,2.22,2.22,0,0,1-.68,1.68,3,3,0,0,1-3.68,0Zm.38,24.2a1.75,1.75,0,0,1-.58-1.44V16.14a1.81,1.81,0,0,1,.58-1.46,2.17,2.17,0,0,1,1.46-.5,2.08,2.08,0,0,1,1.44.5,1.86,1.86,0,0,1,.56,1.46V32.38a1.8,1.8,0,0,1-.56,1.44,2.12,2.12,0,0,1-1.44.48A2.21,2.21,0,0,1,340.76,33.82Z"/><path class="a" d="M353.24,33.14a8.49,8.49,0,0,1-3.32-3.52,11.29,11.29,0,0,1-1.18-5.28A11.39,11.39,0,0,1,350,19a8.74,8.74,0,0,1,3.42-3.6,9.89,9.89,0,0,1,5-1.28,11.26,11.26,0,0,1,3.06.44,10.2,10.2,0,0,1,2.74,1.2,2.51,2.51,0,0,1,1.28,2,1.81,1.81,0,0,1-.36,1.14,1.11,1.11,0,0,1-.92.46,1.6,1.6,0,0,1-.72-.18,9.92,9.92,0,0,1-.92-.54,11.28,11.28,0,0,0-1.86-1,5.52,5.52,0,0,0-2.06-.34,5.13,5.13,0,0,0-4.22,1.84,7.89,7.89,0,0,0-1.5,5.12,7.69,7.69,0,0,0,1.48,5.06,5.16,5.16,0,0,0,4.2,1.78,5.78,5.78,0,0,0,2.12-.36,11.54,11.54,0,0,0,1.88-1,6.37,6.37,0,0,1,.88-.48,2,2,0,0,1,.8-.2,1.11,1.11,0,0,1,.92.46,1.81,1.81,0,0,1,.36,1.14,1.84,1.84,0,0,1-.3,1,3.5,3.5,0,0,1-1,.94,9.56,9.56,0,0,1-2.8,1.24,12.34,12.34,0,0,1-3.24.44A9.74,9.74,0,0,1,353.24,33.14Z"/><path class="a" d="M383.16,16.06c1.27,1.31,1.9,3.29,1.9,6V32.38a1.87,1.87,0,0,1-.52,1.42,2,2,0,0,1-1.44.5,1.79,1.79,0,0,1-1.92-1.92V30.9a5.65,5.65,0,0,1-2.26,2.58,6.68,6.68,0,0,1-3.5.9,7.79,7.79,0,0,1-3.5-.78,6.31,6.31,0,0,1-2.5-2.14,5.39,5.39,0,0,1-.92-3.08A4.64,4.64,0,0,1,369.58,25a6.79,6.79,0,0,1,3.64-1.76,35.17,35.17,0,0,1,7-.54h.92V21.54a4.73,4.73,0,0,0-.92-3.24,3.84,3.84,0,0,0-3-1,9.46,9.46,0,0,0-2.64.36,20.29,20.29,0,0,0-2.72,1,3.94,3.94,0,0,1-1.52.6,1.24,1.24,0,0,1-1-.44,1.67,1.67,0,0,1-.38-1.12,1.72,1.72,0,0,1,.34-1.06,3.49,3.49,0,0,1,1.1-.9,13.68,13.68,0,0,1,3.28-1.22,15.13,15.13,0,0,1,3.64-.46C380,14.1,381.89,14.75,383.16,16.06Zm-3.42,13.82a5.45,5.45,0,0,0,1.4-3.86V25h-.72a30.74,30.74,0,0,0-4.8.28,4.74,4.74,0,0,0-2.4.94,2.44,2.44,0,0,0-.72,1.9,3,3,0,0,0,1,2.36,3.79,3.79,0,0,0,2.6.92A4.69,4.69,0,0,0,379.74,29.88Z"/><path class="a" d="M401.4,31.68a1.45,1.45,0,0,1,.38,1.06,1.39,1.39,0,0,1-.62,1.22,2.91,2.91,0,0,1-1.82.34l-1.08-.08a7,7,0,0,1-4.84-2,7.33,7.33,0,0,1-1.6-5.14V17.7h-2.4c-1.17,0-1.76-.52-1.76-1.56a1.46,1.46,0,0,1,.46-1.14,1.86,1.86,0,0,1,1.3-.42h2.4V10.46A1.92,1.92,0,0,1,392.36,9a2,2,0,0,1,1.46-.52A2.07,2.07,0,0,1,395.3,9a1.89,1.89,0,0,1,.56,1.44v4.12h4a1.86,1.86,0,0,1,1.3.42,1.46,1.46,0,0,1,.46,1.14,1.44,1.44,0,0,1-.46,1.16,1.91,1.91,0,0,1-1.3.4h-4v9.68a4.1,4.1,0,0,0,.78,2.76,3.36,3.36,0,0,0,2.38,1l1.12.08A2,2,0,0,1,401.4,31.68Z"/><path class="a" d="M404.9,9.62a2.22,2.22,0,0,1-.68-1.68,2.15,2.15,0,0,1,.68-1.66,3,3,0,0,1,3.66,0,2.1,2.1,0,0,1,.7,1.66,2.22,2.22,0,0,1-.68,1.68,3,3,0,0,1-3.68,0Zm.38,24.2a1.75,1.75,0,0,1-.58-1.44V16.14a1.81,1.81,0,0,1,.58-1.46,2.17,2.17,0,0,1,1.46-.5,2.08,2.08,0,0,1,1.44.5,1.86,1.86,0,0,1,.56,1.46V32.38a1.8,1.8,0,0,1-.56,1.44,2.12,2.12,0,0,1-1.44.48A2.21,2.21,0,0,1,405.28,33.82Z"/><path class="a" d="M417.8,33.14a8.45,8.45,0,0,1-3.36-3.54,11.48,11.48,0,0,1-1.18-5.34,11.59,11.59,0,0,1,1.18-5.38,8.45,8.45,0,0,1,3.36-3.54,10.94,10.94,0,0,1,10.12,0,8.45,8.45,0,0,1,3.36,3.54,11.59,11.59,0,0,1,1.18,5.38,11.48,11.48,0,0,1-1.18,5.34,8.45,8.45,0,0,1-3.36,3.54,10.94,10.94,0,0,1-10.12,0ZM427,29.42a8,8,0,0,0,1.42-5.16,8,8,0,0,0-1.44-5.14,5.57,5.57,0,0,0-8.16,0,8,8,0,0,0-1.44,5.14,8,8,0,0,0,1.42,5.16,5.66,5.66,0,0,0,8.2,0Z"/><path class="a" d="M454.46,22v10.4a1.84,1.84,0,0,1-.54,1.42,2.14,2.14,0,0,1-1.5.5,2,2,0,0,1-1.46-.52,1.85,1.85,0,0,1-.54-1.4V22.18a5.6,5.6,0,0,0-1-3.64,3.79,3.79,0,0,0-3.06-1.16,5.24,5.24,0,0,0-3.92,1.52A5.57,5.57,0,0,0,441,23v9.4a1.85,1.85,0,0,1-.54,1.4,2,2,0,0,1-1.46.52,2.07,2.07,0,0,1-1.48-.52,1.83,1.83,0,0,1-.56-1.4V16.1a1.79,1.79,0,0,1,.58-1.38,2.06,2.06,0,0,1,1.46-.54,1.88,1.88,0,0,1,1.4.52,1.83,1.83,0,0,1,.52,1.36V17.7A6.47,6.47,0,0,1,443.58,15a8.14,8.14,0,0,1,3.88-.92Q454.47,14.1,454.46,22Z"/><path class="a" d="M460.1,32.7a3,3,0,0,1-1-.92,2,2,0,0,1-.3-1.08,1.64,1.64,0,0,1,.36-1.08,1.14,1.14,0,0,1,.92-.44,3.94,3.94,0,0,1,1.64.64,16.83,16.83,0,0,0,2.34,1,8.64,8.64,0,0,0,2.86.4,5.65,5.65,0,0,0,3-.68A2.14,2.14,0,0,0,471,28.66a1.88,1.88,0,0,0-.42-1.28,3.55,3.55,0,0,0-1.46-.86A25.25,25.25,0,0,0,466,25.7,11.81,11.81,0,0,1,461,23.64a4.39,4.39,0,0,1-1.54-3.54,5.13,5.13,0,0,1,1-3.1,6.44,6.44,0,0,1,2.76-2.14,9.91,9.91,0,0,1,4-.76,11.73,11.73,0,0,1,3.12.42A9,9,0,0,1,473,15.74a2.49,2.49,0,0,1,1.32,2,1.6,1.6,0,0,1-.38,1.08,1.19,1.19,0,0,1-.9.44,1.71,1.71,0,0,1-.72-.16,10.23,10.23,0,0,1-1-.52,13.43,13.43,0,0,0-2-1,6.62,6.62,0,0,0-2.34-.36,4.59,4.59,0,0,0-2.7.72,2.27,2.27,0,0,0-1,2,2,2,0,0,0,.94,1.74,11.39,11.39,0,0,0,3.54,1.18,19.45,19.45,0,0,1,4.2,1.28,5,5,0,0,1,2.18,1.78,5,5,0,0,1,.66,2.7,4.93,4.93,0,0,1-2.18,4.18,9.76,9.76,0,0,1-5.82,1.58A12.1,12.1,0,0,1,460.1,32.7Z"/><path class="a" d="M526.78,6a1.93,1.93,0,0,1,1.08-.32,2,2,0,0,1,1.34.5,1.66,1.66,0,0,1,.58,1.3,2.08,2.08,0,0,1-.16.8L520.78,33a2.15,2.15,0,0,1-.88,1,2.52,2.52,0,0,1-1.32.36A2.43,2.43,0,0,1,517.3,34a1.93,1.93,0,0,1-.84-1l-7.28-20.64L501.74,33a1.93,1.93,0,0,1-.84,1,2.46,2.46,0,0,1-1.28.36,2.4,2.4,0,0,1-1.3-.36,2.11,2.11,0,0,1-.86-1L488.62,8.26a1.91,1.91,0,0,1-.16-.8,1.61,1.61,0,0,1,.6-1.3,2.19,2.19,0,0,1,1.44-.5,2,2,0,0,1,1.1.32,1.87,1.87,0,0,1,.74,1l7.4,21.28,7.52-21.08a2,2,0,0,1,.78-1,2.08,2.08,0,0,1,1.18-.36,2,2,0,0,1,1.16.38,2.49,2.49,0,0,1,.8,1.06l7.36,21.24,7.52-21.48A1.89,1.89,0,0,1,526.78,6Z"/><path class="a" d="M536.26,9.62a2.19,2.19,0,0,1-.68-1.68,2.11,2.11,0,0,1,.68-1.66,2.63,2.63,0,0,1,1.84-.62,2.68,2.68,0,0,1,1.82.62,2.13,2.13,0,0,1,.7,1.66,2.22,2.22,0,0,1-.68,1.68,2.58,2.58,0,0,1-1.84.64A2.55,2.55,0,0,1,536.26,9.62Zm.38,24.2a1.75,1.75,0,0,1-.58-1.44V16.14a1.81,1.81,0,0,1,.58-1.46,2.16,2.16,0,0,1,1.46-.5,2.12,2.12,0,0,1,1.44.5,1.86,1.86,0,0,1,.56,1.46V32.38a1.8,1.8,0,0,1-.56,1.44,2.16,2.16,0,0,1-1.44.48A2.19,2.19,0,0,1,536.64,33.82Z"/><path class="a" d="M557.12,31.68a1.45,1.45,0,0,1,.38,1.06,1.39,1.39,0,0,1-.62,1.22,2.93,2.93,0,0,1-1.82.34L554,34.22a7,7,0,0,1-4.84-2,7.33,7.33,0,0,1-1.6-5.14V17.7h-2.4c-1.18,0-1.76-.52-1.76-1.56a1.46,1.46,0,0,1,.46-1.14,1.85,1.85,0,0,1,1.3-.42h2.4V10.46A1.92,1.92,0,0,1,548.08,9a2,2,0,0,1,1.46-.52A2.09,2.09,0,0,1,551,9a1.89,1.89,0,0,1,.56,1.44v4.12h4a1.86,1.86,0,0,1,1.3.42,1.67,1.67,0,0,1,0,2.3,1.91,1.91,0,0,1-1.3.4h-4v9.68a4.1,4.1,0,0,0,.78,2.76,3.36,3.36,0,0,0,2.38,1l1.12.08A2,2,0,0,1,557.12,31.68Z"/><path class="a" d="M577.94,22v10.4a1.83,1.83,0,0,1-.56,1.4,2.09,2.09,0,0,1-1.48.52,2,2,0,0,1-1.46-.52,1.85,1.85,0,0,1-.54-1.4V22a5.28,5.28,0,0,0-1-3.52,3.87,3.87,0,0,0-3.06-1.12,5.22,5.22,0,0,0-3.92,1.52A5.57,5.57,0,0,0,564.46,23v9.4a1.85,1.85,0,0,1-.54,1.4,2,2,0,0,1-1.46.52,2.06,2.06,0,0,1-1.48-.52,1.8,1.8,0,0,1-.56-1.4V7.62a1.78,1.78,0,0,1,.58-1.4,2.12,2.12,0,0,1,1.5-.52,2,2,0,0,1,1.42.5,1.73,1.73,0,0,1,.54,1.34v10A6.66,6.66,0,0,1,567.14,15,8.11,8.11,0,0,1,571,14.1Q577.94,14.1,577.94,22Z"/><path class="a" d="M39.32,104.12a2.15,2.15,0,0,1-.8,1.68,2.71,2.71,0,0,1-1.84.68,2.84,2.84,0,0,1-2.47-1.37L26.84,93.67a8.09,8.09,0,0,0-2.7-2.78,7.66,7.66,0,0,0-3.74-.79H14.19v13.42a2.85,2.85,0,0,1-.75,2.08,2.7,2.7,0,0,1-2.06.78,2.72,2.72,0,0,1-2-.78,2.78,2.78,0,0,1-.77-2.08V70.07a2.67,2.67,0,0,1,.74-2,2.76,2.76,0,0,1,2.06-.75h13.7q6.44,0,9.81,2.86t3.39,8.37a10.55,10.55,0,0,1-2.59,7.39,12.26,12.26,0,0,1-7.37,3.61,6.49,6.49,0,0,1,2.59,1.37,11.89,11.89,0,0,1,2.25,2.75l5.67,8.91A2.66,2.66,0,0,1,39.32,104.12ZM24.42,85.53c2.86,0,5-.56,6.35-1.68a6.32,6.32,0,0,0,2.06-5.2c0-2.34-.68-4.06-2-5.14s-3.49-1.62-6.38-1.62H14.13V85.53Z"/><path class="a" d="M68.14,99.94a2.36,2.36,0,0,1,.5,1.54c0,1.06-.66,2-2,2.7a18.06,18.06,0,0,1-8.58,2.3q-6.37,0-10.06-3.71T44.32,92.63A16,16,0,0,1,46,85.31a11.88,11.88,0,0,1,4.56-5,12.79,12.79,0,0,1,6.68-1.76,11,11,0,0,1,8.53,3.46c2.09,2.32,3.14,5.43,3.14,9.36,0,1.46-.67,2.19-2,2.19h-17q.55,8.53,8.19,8.53a10,10,0,0,0,3.52-.55,25.65,25.65,0,0,0,3.14-1.43c.11-.07.41-.23.91-.47a2.9,2.9,0,0,1,1.23-.35A1.57,1.57,0,0,1,68.14,99.94Zm-16-15.23a9.52,9.52,0,0,0-2.31,5.72H64.07a9.16,9.16,0,0,0-1.9-5.75,6.08,6.08,0,0,0-4.87-2A6.7,6.7,0,0,0,52.19,84.71Z"/><path class="a" d="M94.18,81.3q2.61,2.69,2.61,8.19v14.24a2.58,2.58,0,0,1-.71,2,2.74,2.74,0,0,1-2,.69,2.6,2.6,0,0,1-1.93-.72,2.64,2.64,0,0,1-.71-1.93v-2a7.76,7.76,0,0,1-3.11,3.55,9.2,9.2,0,0,1-4.81,1.23,10.65,10.65,0,0,1-4.81-1.07,8.61,8.61,0,0,1-3.44-2.94A7.43,7.43,0,0,1,74,98.23a6.44,6.44,0,0,1,1.49-4.64,9.23,9.23,0,0,1,5-2.42,48.07,48.07,0,0,1,9.63-.74H91.4v-1.6c0-2-.42-3.54-1.26-4.45A5.28,5.28,0,0,0,86.07,83a13.37,13.37,0,0,0-3.63.49,26.59,26.59,0,0,0-3.74,1.44,5.37,5.37,0,0,1-2.09.82,1.69,1.69,0,0,1-1.35-.61,2.24,2.24,0,0,1-.52-1.54,2.4,2.4,0,0,1,.47-1.45,4.83,4.83,0,0,1,1.51-1.24,18.59,18.59,0,0,1,4.51-1.68,21.07,21.07,0,0,1,5-.63Q91.57,78.6,94.18,81.3Zm-4.7,19A7.5,7.5,0,0,0,91.4,95V93.56h-1a43.7,43.7,0,0,0-6.59.38,6.46,6.46,0,0,0-3.31,1.3,3.38,3.38,0,0,0-1,2.61A4.17,4.17,0,0,0,81,101.1a5.24,5.24,0,0,0,3.58,1.26A6.47,6.47,0,0,0,89.48,100.3Z"/><path class="a" d="M109,104.78a11.65,11.65,0,0,1-4.56-4.84,17,17,0,0,1,0-14.63,12.13,12.13,0,0,1,4.7-5,13.58,13.58,0,0,1,6.93-1.76,15,15,0,0,1,4.21.61,14.52,14.52,0,0,1,3.77,1.64,3.45,3.45,0,0,1,1.76,2.81,2.48,2.48,0,0,1-.5,1.57,1.54,1.54,0,0,1-1.26.63,2.14,2.14,0,0,1-1-.25,13.84,13.84,0,0,1-1.27-.74,14.84,14.84,0,0,0-2.55-1.35,7.79,7.79,0,0,0-2.84-.46,7.06,7.06,0,0,0-5.8,2.53,10.86,10.86,0,0,0-2.06,7q0,4.5,2,7a7.12,7.12,0,0,0,5.78,2.45,7.92,7.92,0,0,0,2.91-.5,14.67,14.67,0,0,0,2.59-1.31,8.45,8.45,0,0,1,1.21-.66,2.59,2.59,0,0,1,1.1-.28,1.54,1.54,0,0,1,1.26.63,2.48,2.48,0,0,1,.5,1.57,2.55,2.55,0,0,1-.41,1.4,5.18,5.18,0,0,1-1.41,1.3,13.15,13.15,0,0,1-3.85,1.7,16.8,16.8,0,0,1-4.45.6A13.37,13.37,0,0,1,109,104.78Z"/><path class="a" d="M145.94,102.77a2,2,0,0,1,.52,1.46,1.93,1.93,0,0,1-.85,1.68,4.06,4.06,0,0,1-2.51.47l-1.48-.11q-4.45-.33-6.66-2.73c-1.46-1.59-2.2-4-2.2-7.06V83.55h-3.3c-1.61,0-2.42-.71-2.42-2.15a2,2,0,0,1,.64-1.56,2.51,2.51,0,0,1,1.78-.58h3.3V73.6a2.62,2.62,0,0,1,.75-2,2.78,2.78,0,0,1,2-.71,2.91,2.91,0,0,1,2,.71,2.6,2.6,0,0,1,.77,2v5.66h5.44a2.54,2.54,0,0,1,1.79.58,2.3,2.3,0,0,1,0,3.16,2.63,2.63,0,0,1-1.79.55h-5.44V96.86a5.62,5.62,0,0,0,1.07,3.79,4.65,4.65,0,0,0,3.27,1.38l1.54.11A2.75,2.75,0,0,1,145.94,102.77Z"/><path class="a" d="M149.92,93.09a2,2,0,0,1-.66-1.62,2.12,2.12,0,0,1,.66-1.65,2.79,2.79,0,0,1,1.93-.6h11.71a2.77,2.77,0,0,1,1.93.6,2.12,2.12,0,0,1,.66,1.65,2,2,0,0,1-.66,1.62,2.82,2.82,0,0,1-1.93.58H151.85A2.84,2.84,0,0,1,149.92,93.09Z"/><path class="a" d="M177.78,105.39a15.82,15.82,0,0,1-6-3.2,2.79,2.79,0,0,1-1-2.25,2.65,2.65,0,0,1,.55-1.68,1.65,1.65,0,0,1,1.32-.69,3.6,3.6,0,0,1,1.87.72,18.29,18.29,0,0,0,11.17,3.63,11.72,11.72,0,0,0,6.76-1.65,5.42,5.42,0,0,0,2.37-4.73,3.91,3.91,0,0,0-2.2-3.63,28.75,28.75,0,0,0-7-2.31,42.76,42.76,0,0,1-7.59-2.25,11.39,11.39,0,0,1-4.65-3.44,8.78,8.78,0,0,1-1.68-5.53,10.09,10.09,0,0,1,1.85-6,12,12,0,0,1,5.14-4.07,18.49,18.49,0,0,1,7.53-1.45A22.76,22.76,0,0,1,193.32,68a15.26,15.26,0,0,1,5.61,3.25,2.86,2.86,0,0,1,1.1,2.25,2.55,2.55,0,0,1-.58,1.66,1.7,1.7,0,0,1-1.35.71,3.65,3.65,0,0,1-1.81-.71,19.44,19.44,0,0,0-4.76-2.78,15,15,0,0,0-5.36-.85,11,11,0,0,0-6.6,1.73,5.62,5.62,0,0,0-2.37,4.81,4.45,4.45,0,0,0,2.09,4A22.71,22.71,0,0,0,186,84.48a56,56,0,0,1,7.84,2.29A12.16,12.16,0,0,1,198.63,90a7.84,7.84,0,0,1,1.78,5.31,9.77,9.77,0,0,1-1.84,5.86,11.94,11.94,0,0,1-5.17,4,19.73,19.73,0,0,1-7.67,1.4A27.29,27.29,0,0,1,177.78,105.39Z"/><path class="a" d="M221.34,102.77a2,2,0,0,1,.52,1.46,1.91,1.91,0,0,1-.85,1.68,4,4,0,0,1-2.5.47l-1.49-.11c-3-.22-5.18-1.13-6.65-2.73s-2.2-4-2.2-7.06V83.55h-3.3c-1.61,0-2.42-.71-2.42-2.15a2,2,0,0,1,.63-1.56,2.54,2.54,0,0,1,1.79-.58h3.3V73.6a2.66,2.66,0,0,1,.74-2,2.8,2.8,0,0,1,2-.71,2.89,2.89,0,0,1,2,.71,2.56,2.56,0,0,1,.77,2v5.66h5.45a2.55,2.55,0,0,1,1.79.58A2.3,2.3,0,0,1,221,83a2.64,2.64,0,0,1-1.79.55h-5.45V96.86a5.57,5.57,0,0,0,1.08,3.79,4.61,4.61,0,0,0,3.27,1.38l1.54.11A2.72,2.72,0,0,1,221.34,102.77Z"/><path class="a" d="M245.1,81.3q2.61,2.69,2.61,8.19v14.24a2.58,2.58,0,0,1-.71,2,2.74,2.74,0,0,1-2,.69,2.6,2.6,0,0,1-1.93-.72,2.64,2.64,0,0,1-.71-1.93v-2a7.76,7.76,0,0,1-3.11,3.55,9.2,9.2,0,0,1-4.81,1.23,10.62,10.62,0,0,1-4.81-1.07,8.61,8.61,0,0,1-3.44-2.94,7.35,7.35,0,0,1-1.27-4.24,6.44,6.44,0,0,1,1.49-4.64,9.23,9.23,0,0,1,5-2.42,48.07,48.07,0,0,1,9.63-.74h1.26v-1.6c0-2-.42-3.54-1.26-4.45A5.28,5.28,0,0,0,237,83a13.37,13.37,0,0,0-3.63.49,26.59,26.59,0,0,0-3.74,1.44,5.37,5.37,0,0,1-2.09.82,1.69,1.69,0,0,1-1.35-.61,2.24,2.24,0,0,1-.52-1.54,2.4,2.4,0,0,1,.47-1.45,4.83,4.83,0,0,1,1.51-1.24,18.59,18.59,0,0,1,4.51-1.68,21.07,21.07,0,0,1,5-.63Q242.49,78.6,245.1,81.3Zm-4.7,19A7.5,7.5,0,0,0,242.32,95V93.56h-1a43.85,43.85,0,0,0-6.6.38,6.46,6.46,0,0,0-3.3,1.3,3.35,3.35,0,0,0-1,2.61,4.17,4.17,0,0,0,1.43,3.25,5.24,5.24,0,0,0,3.58,1.26A6.49,6.49,0,0,0,240.4,100.3Z"/><path class="a" d="M270.18,102.77a2,2,0,0,1,.52,1.46,1.91,1.91,0,0,1-.85,1.68,4,4,0,0,1-2.5.47l-1.49-.11q-4.46-.33-6.65-2.73c-1.47-1.59-2.2-4-2.2-7.06V83.55h-3.3c-1.62,0-2.42-.71-2.42-2.15a2,2,0,0,1,.63-1.56,2.54,2.54,0,0,1,1.79-.58H257V73.6a2.66,2.66,0,0,1,.74-2,2.8,2.8,0,0,1,2-.71,2.89,2.89,0,0,1,2,.71,2.56,2.56,0,0,1,.77,2v5.66H268a2.55,2.55,0,0,1,1.79.58,2.3,2.3,0,0,1,0,3.16,2.64,2.64,0,0,1-1.79.55h-5.45V96.86a5.57,5.57,0,0,0,1.08,3.79,4.61,4.61,0,0,0,3.27,1.38l1.54.11A2.74,2.74,0,0,1,270.18,102.77Z"/><path class="a" d="M275,72.44a3,3,0,0,1-.93-2.31,3,3,0,0,1,.93-2.28,4.12,4.12,0,0,1,5,0,2.9,2.9,0,0,1,1,2.28,3,3,0,0,1-.94,2.31,4.08,4.08,0,0,1-5.06,0Zm.53,33.28a2.43,2.43,0,0,1-.8-2V81.4a2.47,2.47,0,0,1,.8-2,3,3,0,0,1,2-.69,2.84,2.84,0,0,1,2,.69,2.51,2.51,0,0,1,.77,2v22.33a2.48,2.48,0,0,1-.77,2,3,3,0,0,1-2,.66A3.09,3.09,0,0,1,275.52,105.72Z"/><path class="a" d="M292.67,104.78a11.65,11.65,0,0,1-4.56-4.84,17.09,17.09,0,0,1,.05-14.63,12.09,12.09,0,0,1,4.71-5,13.52,13.52,0,0,1,6.93-1.76,15,15,0,0,1,4.2.61,14.37,14.37,0,0,1,3.77,1.64,3.45,3.45,0,0,1,1.76,2.81,2.47,2.47,0,0,1-.49,1.57,1.54,1.54,0,0,1-1.27.63,2.14,2.14,0,0,1-1-.25,12.65,12.65,0,0,1-1.26-.74A14.9,14.9,0,0,0,303,83.52a7.74,7.74,0,0,0-2.83-.46,7.07,7.07,0,0,0-5.81,2.53,10.86,10.86,0,0,0-2.06,7q0,4.5,2,7a7.08,7.08,0,0,0,5.77,2.45,8,8,0,0,0,2.92-.5,14.94,14.94,0,0,0,2.58-1.31,9.68,9.68,0,0,1,1.21-.66,2.63,2.63,0,0,1,1.1-.28,1.54,1.54,0,0,1,1.27.63,2.47,2.47,0,0,1,.49,1.57,2.55,2.55,0,0,1-.41,1.4,5.12,5.12,0,0,1-1.4,1.3,13.27,13.27,0,0,1-3.85,1.7,16.93,16.93,0,0,1-4.46.6A13.42,13.42,0,0,1,292.67,104.78Z"/><path class="a" d="M351.75,79Q354.6,82,354.6,88v15.54a2.82,2.82,0,0,1-.78,2.13,3,3,0,0,1-2.16.75,2.69,2.69,0,0,1-2.88-2.88V101.3a8.44,8.44,0,0,1-3.39,3.87,10,10,0,0,1-5.25,1.35,11.7,11.7,0,0,1-5.25-1.17,9.5,9.5,0,0,1-3.75-3.21,8.05,8.05,0,0,1-1.38-4.62,7,7,0,0,1,1.62-5.07,10.13,10.13,0,0,1,5.46-2.64,52.78,52.78,0,0,1,10.5-.81h1.38V87.26q0-3.36-1.38-4.86a5.78,5.78,0,0,0-4.44-1.5,14.14,14.14,0,0,0-4,.54A29.77,29.77,0,0,0,334.86,83a5.88,5.88,0,0,1-2.28.9,1.85,1.85,0,0,1-1.47-.66,2.48,2.48,0,0,1-.57-1.68,2.6,2.6,0,0,1,.51-1.59,5.37,5.37,0,0,1,1.65-1.35,20.51,20.51,0,0,1,4.92-1.83,23,23,0,0,1,5.46-.69Q348.9,76.1,351.75,79Zm-5.13,20.73a8.15,8.15,0,0,0,2.1-5.79V92.42h-1.08a46.74,46.74,0,0,0-7.2.42,7.06,7.06,0,0,0-3.6,1.41,3.67,3.67,0,0,0-1.08,2.85,4.51,4.51,0,0,0,1.56,3.54,5.67,5.67,0,0,0,3.9,1.38A7.06,7.06,0,0,0,346.62,99.77Z"/><path class="a" d="M389.16,87.92v15.6a2.76,2.76,0,0,1-.81,2.13,3.19,3.19,0,0,1-2.25.75,3,3,0,0,1-2.19-.78,2.78,2.78,0,0,1-.81-2.1V88.22q0-3.72-1.47-5.46A5.68,5.68,0,0,0,377,81a7.83,7.83,0,0,0-5.88,2.28,8.4,8.4,0,0,0-2.22,6.12v14.1a2.78,2.78,0,0,1-.81,2.1,3,3,0,0,1-2.19.78,3.13,3.13,0,0,1-2.22-.78,2.73,2.73,0,0,1-.84-2.1V79.1a2.7,2.7,0,0,1,.87-2.07,3.09,3.09,0,0,1,2.19-.81A2.84,2.84,0,0,1,368,77a2.76,2.76,0,0,1,.78,2V81.5a9.73,9.73,0,0,1,4-4,12.14,12.14,0,0,1,5.82-1.38Q389.16,76.1,389.16,87.92Z"/><path class="a" d="M423.6,64.28a2.73,2.73,0,0,1,.84,2.1v37.08a2.86,2.86,0,0,1-.81,2.16,3.46,3.46,0,0,1-4.38,0,2.86,2.86,0,0,1-.81-2.16v-2.4a9.28,9.28,0,0,1-3.84,4,11.72,11.72,0,0,1-5.82,1.41A12.16,12.16,0,0,1,402,104.6a12.76,12.76,0,0,1-4.62-5.4,18.42,18.42,0,0,1-1.65-8,18.17,18.17,0,0,1,1.65-8,12.11,12.11,0,0,1,11.37-7.14,11.55,11.55,0,0,1,5.79,1.41,9.41,9.41,0,0,1,3.81,4V66.26a2.61,2.61,0,0,1,.81-2,3.1,3.1,0,0,1,2.19-.75A3.13,3.13,0,0,1,423.6,64.28ZM416.28,99q2.16-2.7,2.16-7.68t-2.13-7.68a7.3,7.3,0,0,0-6.09-2.7,7.51,7.51,0,0,0-6.15,2.67q-2.19,2.67-2.19,7.59t2.22,7.71a8.13,8.13,0,0,0,12.18.09Z"/><path class="a" d="M450.27,105.29a3,3,0,0,1-.81-2.19V66.8a3,3,0,0,1,.81-2.19,3,3,0,0,1,2.25-.81H474.6a3.12,3.12,0,0,1,2.13.66,2.35,2.35,0,0,1,.75,1.86,2.26,2.26,0,0,1-.75,1.83,3.22,3.22,0,0,1-2.13.63H455.52V82.1H473.4a3.12,3.12,0,0,1,2.13.66,2.68,2.68,0,0,1,0,3.72,3.12,3.12,0,0,1-2.13.66H455.52v14H474.6q2.88,0,2.88,2.46a2.35,2.35,0,0,1-.75,1.86,3.12,3.12,0,0,1-2.13.66H452.52A3,3,0,0,1,450.27,105.29Z"/><path class="a" d="M484.71,105.68a2.64,2.64,0,0,1-.87-2.16V66.44a2.73,2.73,0,0,1,.87-2.19,3.23,3.23,0,0,1,2.19-.75,3.12,3.12,0,0,1,2.16.75,2.78,2.78,0,0,1,.84,2.19v37.08a2.69,2.69,0,0,1-.84,2.16,3.2,3.2,0,0,1-2.16.72A3.32,3.32,0,0,1,484.71,105.68Z"/><path class="a" d="M522.66,99.38a2.57,2.57,0,0,1,.54,1.68q0,1.74-2.16,2.94a19,19,0,0,1-4.59,1.86,18.61,18.61,0,0,1-4.77.66q-7,0-11-4t-4-11.07a17.36,17.36,0,0,1,1.77-8,13,13,0,0,1,5-5.4,13.93,13.93,0,0,1,7.29-1.92,11.91,11.91,0,0,1,9.3,3.78q3.42,3.78,3.42,10.2,0,2.4-2.16,2.4H502.74q.6,9.3,8.94,9.3a11.06,11.06,0,0,0,3.84-.6,27.93,27.93,0,0,0,3.42-1.56q.18-.12,1-.51a3.28,3.28,0,0,1,1.35-.39A1.7,1.7,0,0,1,522.66,99.38Zm-17.4-16.62A10.37,10.37,0,0,0,502.74,89h15.48a10,10,0,0,0-2.07-6.27,6.64,6.64,0,0,0-5.31-2.19A7.32,7.32,0,0,0,505.26,82.76Z"/><path class="a" d="M535.17,104.66a12.7,12.7,0,0,1-5-5.28,18.59,18.59,0,0,1,.06-16,13.23,13.23,0,0,1,5.13-5.4,14.75,14.75,0,0,1,7.56-1.92,16.64,16.64,0,0,1,4.59.66,15.69,15.69,0,0,1,4.11,1.8,3.73,3.73,0,0,1,1.92,3.06,2.69,2.69,0,0,1-.54,1.71,1.68,1.68,0,0,1-1.38.69,2.4,2.4,0,0,1-1.08-.27,15.58,15.58,0,0,1-1.38-.81,16.53,16.53,0,0,0-2.79-1.47A8.4,8.4,0,0,0,543.3,81,7.71,7.71,0,0,0,537,83.72q-2.25,2.76-2.25,7.68T536.94,99a7.73,7.73,0,0,0,6.3,2.67,8.69,8.69,0,0,0,3.18-.54,17.11,17.11,0,0,0,2.82-1.44,10.74,10.74,0,0,1,1.32-.72,2.94,2.94,0,0,1,1.2-.3,1.68,1.68,0,0,1,1.38.69,2.69,2.69,0,0,1,.54,1.71,2.74,2.74,0,0,1-.45,1.53A5.33,5.33,0,0,1,551.7,104a14.39,14.39,0,0,1-4.2,1.86,18.25,18.25,0,0,1-4.86.66A14.63,14.63,0,0,1,535.17,104.66Z"/><path class="a" d="M575.43,102.47a2.15,2.15,0,0,1,.57,1.59,2.07,2.07,0,0,1-.93,1.83,4.34,4.34,0,0,1-2.73.51l-1.62-.12q-4.86-.36-7.26-3t-2.4-7.71V81.5h-3.6q-2.64,0-2.64-2.34a2.2,2.2,0,0,1,.69-1.71,2.79,2.79,0,0,1,2-.63h3.6V70.64a2.86,2.86,0,0,1,.81-2.16,3,3,0,0,1,2.19-.78,3.13,3.13,0,0,1,2.22.78,2.8,2.8,0,0,1,.84,2.16v6.18h5.94a2.79,2.79,0,0,1,2,.63,2.5,2.5,0,0,1,0,3.45,2.88,2.88,0,0,1-2,.6h-5.94V96a6.13,6.13,0,0,0,1.17,4.14,5.06,5.06,0,0,0,3.57,1.5l1.68.12A3,3,0,0,1,575.43,102.47Z"/><path class="a" d="M598.62,78.68a2.69,2.69,0,0,1-.66,2,3.56,3.56,0,0,1-2.28.78l-1.8.18a7.77,7.77,0,0,0-5.61,2.64,8.54,8.54,0,0,0-1.83,5.52v13.74a2.69,2.69,0,0,1-.84,2.16,3.2,3.2,0,0,1-2.16.72,3.32,3.32,0,0,1-2.19-.72,2.64,2.64,0,0,1-.87-2.16V79.1a2.66,2.66,0,0,1,.87-2.13,3.23,3.23,0,0,1,2.19-.75,2.85,2.85,0,0,1,2,.75,2.68,2.68,0,0,1,.81,2.07v2.88a8.81,8.81,0,0,1,3.48-4,11.69,11.69,0,0,1,5.16-1.62l.84-.06Q598.62,76,598.62,78.68Z"/><path class="a" d="M606.87,104.66a12.55,12.55,0,0,1-5-5.31,19.15,19.15,0,0,1,0-16.08,12.55,12.55,0,0,1,5-5.31,16.42,16.42,0,0,1,15.18,0,12.55,12.55,0,0,1,5,5.31,19.15,19.15,0,0,1,0,16.08,12.55,12.55,0,0,1-5,5.31,16.42,16.42,0,0,1-15.18,0Zm13.74-5.58q2.13-2.64,2.13-7.74t-2.16-7.71a8.35,8.35,0,0,0-12.24,0q-2.16,2.67-2.16,7.71t2.13,7.74a8.48,8.48,0,0,0,12.3,0Z"/><path class="a" d="M661.86,87.92v15.6a2.76,2.76,0,0,1-.81,2.13,3.19,3.19,0,0,1-2.25.75,3,3,0,0,1-2.19-.78,2.78,2.78,0,0,1-.81-2.1V88.22q0-3.72-1.47-5.46A5.68,5.68,0,0,0,649.74,81a7.83,7.83,0,0,0-5.88,2.28,8.4,8.4,0,0,0-2.22,6.12v14.1a2.78,2.78,0,0,1-.81,2.1,3,3,0,0,1-2.19.78,3.13,3.13,0,0,1-2.22-.78,2.73,2.73,0,0,1-.84-2.1V79.1a2.7,2.7,0,0,1,.87-2.07,3.09,3.09,0,0,1,2.19-.81,2.84,2.84,0,0,1,2.1.78,2.76,2.76,0,0,1,.78,2V81.5a9.73,9.73,0,0,1,4-4,12.14,12.14,0,0,1,5.82-1.38Q661.86,76.1,661.86,87.92Z"/><path class="a" d="M348.73,284l-23.33.07V261.2a3.6,3.6,0,1,0-7.2,0l.07,22.8H295.93a3.6,3.6,0,0,0,0,7.2h22.31V314a3.6,3.6,0,1,0,7.19,0V291.2h23.3a3.6,3.6,0,0,0,0-7.2Z"/><path class="a" d="M128.89,233.44c-24.83-4.52-44.46.21-52.29,13.76-5.83,10.11-4.16,23.52,4.05,37.85a2.55,2.55,0,1,0,4.47-2.44.41.41,0,0,0-.05-.09C77.67,269.61,76.23,258,81,249.75c6.5-11.26,24-15.48,47-11.3a2.55,2.55,0,0,0,.91-5Zm-35.33,69a159.34,159.34,0,0,0,38,30c36,20.8,74.36,26.35,93.26,13.47a2.55,2.55,0,0,0-2.8-4.26l-.07.05C205,353.23,168.57,348,134.07,328a154.42,154.42,0,0,1-36.74-29,2.55,2.55,0,1,0-3.78,3.41Z"/><path class="a" d="M218.75,299.38c16.26-19.21,21.93-38.53,14.13-52-5.75-10-17.89-15.21-34-15.42a2.55,2.55,0,0,0-.06,5.1c14.51.18,25,4.71,29.69,12.87,6.48,11.23,1.42,28.45-13.61,46.21a2.55,2.55,0,1,0,3.85,3.33ZM177,234.28c-14.7,3.15-30.35,9.31-45.37,18-37.18,21.46-61.44,53.12-58.07,76.07a2.55,2.55,0,0,0,5-.68v-.06c-3-20.38,20-50.38,55.57-70.92A154,154,0,0,1,178,239.26a2.54,2.54,0,0,0-1-5Z"/><path class="a" d="M116.73,344.25c8.5,23.74,22.41,38.35,38.05,38.35,11.4,0,21.95-7.78,30.18-21.46a2.54,2.54,0,1,0-4.32-2.69l0,.06c-7.4,12.3-16.48,19-25.82,19-13,0-25.39-13-33.25-35a2.55,2.55,0,0,0-4.83,1.62l0,.1Zm77.65-4.64a160,160,0,0,0,6.76-47.19c0-42.18-14.76-78.54-35.79-87.88a2.55,2.55,0,0,0-2.07,4.65c18.76,8.33,32.77,42.84,32.77,83.23a154.92,154.92,0,0,1-6.53,45.67,2.55,2.55,0,0,0,4.84,1.59.14.14,0,0,1,0-.07Zm48-2.5a12.19,12.19,0,1,0-12.19,12.19A12.18,12.18,0,0,0,242.33,337.11Zm-5.09,0a7.1,7.1,0,1,1-7.1-7.09A7.1,7.1,0,0,1,237.24,337.11Zm-158,12.19a12.19,12.19,0,1,0-12.19-12.19A12.18,12.18,0,0,0,79.24,349.3Zm0-5.09a7.1,7.1,0,1,1,7.09-7.1A7.1,7.1,0,0,1,79.24,344.21Z"/><path class="a" d="M154.78,217a12.19,12.19,0,1,0-12.19-12.18A12.18,12.18,0,0,0,154.78,217Zm0-5.09a7.1,7.1,0,1,1,7.09-7.09A7.1,7.1,0,0,1,154.78,211.88ZM156.64,301a8.82,8.82,0,1,1,6.76-10.48A8.82,8.82,0,0,1,156.64,301Z"/><path class="b" d="M517.73,220.42a69.62,69.62,0,0,1,13.66-7.92c6.59-2.73,11.46-2.88,14.64-1.05s5.49,6.19,6.43,13.27a71.4,71.4,0,0,1,0,15.92l5.36,1.68c2.26.7,4.44,1.43,6.56,2.18,2.65-22.06-1.25-37.36-12.21-43.73S526.1,198.66,508.43,212q2.67,2.28,5.38,4.8ZM496.9,238.28a97.49,97.49,0,0,0-10.1-7.66,122.4,122.4,0,0,1-25.66,14.95,97.51,97.51,0,0,0,1.58,12.63A130.06,130.06,0,0,0,496.9,238.28Zm-60.15,29.16a70.46,70.46,0,0,0-13.93,8c-5.65,4.37-8.22,8.54-8.22,12.22s2.57,7.85,8.22,12.22A69.48,69.48,0,0,0,436.75,308l-1.18,5.27c-.54,2.4-1,4.75-1.44,7-20.49-8.73-31.8-19.8-31.8-32.57s11.31-23.83,31.8-32.57q.63,3.45,1.44,7Zm26,49.77a130,130,0,0,1,34.18,19.91,95,95,0,0,1-10.09,7.67,122.51,122.51,0,0,0-25.67-15,97.36,97.36,0,0,1,1.58-12.62Zm55,37.77a69.4,69.4,0,0,0,13.66,7.92c6.59,2.73,11.46,2.89,14.64,1.06s5.49-6.17,6.43-13.27a71.3,71.3,0,0,0,0-15.91l5.36-1.68c2.26-.71,4.44-1.43,6.56-2.19,2.65,22.07-1.24,37.36-12.21,43.72s-26.06,2.11-43.73-11.2q2.65-2.3,5.37-4.8Zm29.74-47.28a130.85,130.85,0,0,1,0-40,98.8,98.8,0,0,1,11.65,4.87,123.62,123.62,0,0,0,0,30.27,98.74,98.74,0,0,1-11.65,4.86Z"/><path class="c" d="M556.09,249.5l-6.46-2c-11-3.44-27.15-12.82-35.59-20.64l-5-4.62c-23.07-21.34-42.81-29.53-56.28-21.7s-16.3,29.09-9.42,59.82l1.5,6.63c2.52,11.25,2.52,30,0,41.29l-1.48,6.63c-6.9,30.73-4.08,52,9.4,59.81s33.21-.36,56.28-21.7l5-4.6c8.44-7.83,24.63-17.21,35.59-20.65l6.46-2C586,316.33,603,303.24,603,287.61S586,258.88,556.09,249.5Zm-82.5-37.29c7.69,3.18,16.9,9.59,27.13,19.06l5,4.61c9.79,9.07,27.57,19.38,40.28,23.37l6.46,2c13.28,4.17,23.42,9,30,14.06,5.67,4.38,8.24,8.56,8.24,12.26s-2.57,7.87-8.24,12.25c-6.58,5.1-16.72,9.91-30,14.07l-6.46,2c-12.7,4-30.48,14.3-40.27,23.36l-5,4.61c-10.23,9.48-19.44,15.89-27.13,19.07-6.61,2.74-11.5,2.9-14.68,1.06s-5.5-6.18-6.44-13.3c-1.1-8.29-.18-19.51,2.87-33.15l1.47-6.61c2.92-13.05,2.92-33.68,0-46.73l-1.48-6.64c-3.06-13.64-4-24.86-2.87-33.14.94-7.12,3.25-11.45,6.44-13.3S467,209.47,473.59,212.21Z"/><path class="b" d="M505.33,328a130.66,130.66,0,0,1,30.24-17.58l3.59-1.38-.63-3.86a133.66,133.66,0,0,1,0-35.18l.61-3.83-3.59-1.38a132.9,132.9,0,0,1-30.24-17.58l-3-2.46-3,2.46a130.39,130.39,0,0,1-30.23,17.58l-3.6,1.38.62,3.85a133.74,133.74,0,0,1,0,35.19l-.61,3.83,3.6,1.36A132.9,132.9,0,0,1,499.36,328l3,2.46Zm15.73-40.24a18.71,18.71,0,1,1-18.71-19,18.83,18.83,0,0,1,18.71,19Z"/></svg>