<svg xmlns="http://www.w3.org/2000/svg" xmlns:xlink="http://www.w3.org/1999/xlink" viewBox="0 0 670 400"><defs><style>.a{fill:#2b2e3a;}.b,.c,.d,.e,.f,.g,.h{fill-rule:evenodd;}.b{fill:url(#a);}.c{fill:url(#b);}.d{fill:url(#c);}.e{fill:url(#d);}.f{fill:url(#e);}.g{fill:url(#f);}.h{fill:#bcc0cf;}.i{fill:#a2a6b3;}.j{fill:url(#g);}.k{fill:url(#h);}</style><linearGradient id="a" x1="493.53" y1="-2442.6" x2="493.53" y2="-2276.51" gradientTransform="matrix(1, 0, 0, -1, 0, -2050)" gradientUnits="userSpaceOnUse"><stop offset="0" stop-color="#1d2130"/><stop offset="1" stop-color="#3e445a"/></linearGradient><linearGradient id="b" x1="494.18" y1="-2441.2" x2="494.18" y2="-2275.11" gradientTransform="matrix(1, 0, 0, -1, 0, -2050)" gradientUnits="userSpaceOnUse"><stop offset="0" stop-color="#262b3f"/><stop offset="1" stop-color="#656e91"/></linearGradient><linearGradient id="c" x1="504.09" y1="-2421.91" x2="504.09" y2="-2259.88" gradientTransform="matrix(1, 0, 0, -1, 0, -2050)" gradientUnits="userSpaceOnUse"><stop offset="0" stop-color="#267550"/><stop offset="1" stop-color="#79b881"/></linearGradient><linearGradient id="d" x1="504.74" y1="-2420.51" x2="504.74" y2="-2258.48" gradientTransform="matrix(1, 0, 0, -1, 0, -2050)" gradientUnits="userSpaceOnUse"><stop offset="0" stop-color="#279264"/><stop offset="1" stop-color="#a4f3aa"/></linearGradient><linearGradient id="e" x1="515.04" y1="-2402.44" x2="515.04" y2="-2243.99" gradientTransform="matrix(1, 0, 0, -1, 0, -2050)" gradientUnits="userSpaceOnUse"><stop offset="0.59" stop-color="#cecfd0"/><stop offset="1" stop-color="#dfdfdf"/></linearGradient><linearGradient id="f" x1="515.69" y1="-2401.05" x2="515.69" y2="-2242.6" gradientTransform="matrix(1, 0, 0, -1, 0, -2050)" gradientUnits="userSpaceOnUse"><stop offset="0" stop-color="#eaeef0"/><stop offset="0.41" stop-color="#fff"/></linearGradient><linearGradient id="g" x1="484.61" y1="-2219.03" x2="551.47" y2="-2437.72" gradientTransform="matrix(1, 0, 0, -1, 0, -2050)" gradientUnits="userSpaceOnUse"><stop offset="0.22" stop-color="#73cb8d"/><stop offset="0.4" stop-color="#2f9869"/></linearGradient><linearGradient id="h" x1="476.05" y1="-2199.37" x2="580.73" y2="-2503.37" gradientTransform="matrix(1, 0, 0, -1, 0, -2050)" gradientUnits="userSpaceOnUse"><stop offset="0.25" stop-color="#586080"/><stop offset="0.35" stop-color="#2c3247"/></linearGradient></defs><path class="a" d="M93.16,33.56a2,2,0,0,1-.54-1.46V7.9a2,2,0,0,1,.54-1.46,2,2,0,0,1,1.5-.54h7.84q6.84,0,10.6,3.68T116.86,20q0,6.72-3.76,10.42t-10.6,3.7H94.66A2,2,0,0,1,93.16,33.56ZM112.66,20q0-10.63-10.4-10.64H96.74V30.66h5.52Q112.67,30.66,112.66,20Z"/><path class="a" d="M138.18,29.62a1.71,1.71,0,0,1,.36,1.12,2.3,2.3,0,0,1-1.44,2,13.19,13.19,0,0,1-6.24,1.68,9.86,9.86,0,0,1-7.32-2.7,10,10,0,0,1-2.68-7.38A11.67,11.67,0,0,1,122,19a8.7,8.7,0,0,1,3.32-3.6,9.33,9.33,0,0,1,4.86-1.28,7.93,7.93,0,0,1,6.2,2.52,9.76,9.76,0,0,1,2.28,6.8c0,1.07-.48,1.6-1.44,1.6H124.9q.41,6.19,6,6.2a7.28,7.28,0,0,0,2.56-.4,18.62,18.62,0,0,0,2.28-1c.08-.05.3-.17.66-.34a2.24,2.24,0,0,1,.9-.26A1.14,1.14,0,0,1,138.18,29.62Zm-11.6-11.08a7,7,0,0,0-1.68,4.16h10.32a6.69,6.69,0,0,0-1.38-4.18,4.44,4.44,0,0,0-3.54-1.46A4.89,4.89,0,0,0,126.58,18.54Z"/><path class="a" d="M143.26,32.7a3,3,0,0,1-1-.92,2,2,0,0,1-.3-1.08,1.64,1.64,0,0,1,.36-1.08,1.15,1.15,0,0,1,.92-.44,3.85,3.85,0,0,1,1.64.64,16.83,16.83,0,0,0,2.34,1,8.68,8.68,0,0,0,2.86.4,5.65,5.65,0,0,0,3-.68,2.14,2.14,0,0,0,1.08-1.92,1.88,1.88,0,0,0-.42-1.28,3.48,3.48,0,0,0-1.46-.86,24.74,24.74,0,0,0-3.08-.82,11.92,11.92,0,0,1-5.06-2.06,4.42,4.42,0,0,1-1.54-3.54,5.19,5.19,0,0,1,1-3.1,6.56,6.56,0,0,1,2.76-2.14,10,10,0,0,1,4-.76,11.62,11.62,0,0,1,3.12.42,8.78,8.78,0,0,1,2.68,1.22,2.49,2.49,0,0,1,1.32,2,1.55,1.55,0,0,1-.38,1.08,1.16,1.16,0,0,1-.9.44,1.71,1.71,0,0,1-.72-.16,10.23,10.23,0,0,1-1-.52,13,13,0,0,0-2-1,6.54,6.54,0,0,0-2.34-.36,4.59,4.59,0,0,0-2.7.72,2.27,2.27,0,0,0-1,2,2,2,0,0,0,.94,1.74,11.59,11.59,0,0,0,3.54,1.18,19.1,19.1,0,0,1,4.2,1.28,4.92,4.92,0,0,1,2.18,1.78,5,5,0,0,1,.66,2.7,4.91,4.91,0,0,1-2.18,4.18,9.72,9.72,0,0,1-5.82,1.58A12.12,12.12,0,0,1,143.26,32.7Z"/><path class="a" d="M179.54,32.42a1.85,1.85,0,0,1-.52,1.32,1.64,1.64,0,0,1-1.24.56,2,2,0,0,1-1.36-.56l-10-8.8v7.4a1.83,1.83,0,0,1-.56,1.46,2.08,2.08,0,0,1-1.44.5,2.19,2.19,0,0,1-1.46-.5,1.84,1.84,0,0,1-.58-1.46V7.66A1.84,1.84,0,0,1,163,6.2a2.19,2.19,0,0,1,1.46-.5,2.08,2.08,0,0,1,1.44.5,1.83,1.83,0,0,1,.56,1.46V23.34l9.12-8.52a2.06,2.06,0,0,1,1.32-.6,1.81,1.81,0,0,1,1.32.56,1.77,1.77,0,0,1,.56,1.32,1.88,1.88,0,0,1-.68,1.4L171,24l7.84,6.92A1.85,1.85,0,0,1,179.54,32.42Z"/><path class="a" d="M193.8,31.68a1.41,1.41,0,0,1,.38,1.06,1.37,1.37,0,0,1-.62,1.22,2.91,2.91,0,0,1-1.82.34l-1.08-.08a7,7,0,0,1-4.84-2,7.38,7.38,0,0,1-1.6-5.14V17.7h-2.4c-1.17,0-1.76-.52-1.76-1.56a1.49,1.49,0,0,1,.46-1.14,1.86,1.86,0,0,1,1.3-.42h2.4V10.46A1.92,1.92,0,0,1,184.76,9a2,2,0,0,1,1.46-.52A2.06,2.06,0,0,1,187.7,9a1.85,1.85,0,0,1,.56,1.44v4.12h4a1.85,1.85,0,0,1,1.3.42,1.46,1.46,0,0,1,.46,1.14,1.44,1.44,0,0,1-.46,1.16,1.89,1.89,0,0,1-1.3.4h-4v9.68a4.1,4.1,0,0,0,.78,2.76,3.37,3.37,0,0,0,2.38,1l1.12.08A2,2,0,0,1,193.8,31.68Z"/><path class="a" d="M200.52,33.14a8.45,8.45,0,0,1-3.36-3.54A11.61,11.61,0,0,1,196,24.26a11.72,11.72,0,0,1,1.18-5.38,8.45,8.45,0,0,1,3.36-3.54,10.94,10.94,0,0,1,10.12,0A8.33,8.33,0,0,1,214,18.88a11.59,11.59,0,0,1,1.18,5.38A11.48,11.48,0,0,1,214,29.6a8.33,8.33,0,0,1-3.36,3.54,10.94,10.94,0,0,1-10.12,0Zm9.16-3.72a8,8,0,0,0,1.42-5.16,8,8,0,0,0-1.44-5.14,5.57,5.57,0,0,0-8.16,0,8,8,0,0,0-1.44,5.14,8.1,8.1,0,0,0,1.42,5.16,5.66,5.66,0,0,0,8.2,0Z"/><path class="a" d="M234.64,15.38a8.45,8.45,0,0,1,3.08,3.6,12.28,12.28,0,0,1,1.1,5.36,12.2,12.2,0,0,1-1.08,5.28,8.17,8.17,0,0,1-3.06,3.52,8.34,8.34,0,0,1-4.54,1.24,7.79,7.79,0,0,1-3.88-.94,6.24,6.24,0,0,1-2.56-2.7v8.92a1.73,1.73,0,0,1-.54,1.34,2,2,0,0,1-1.42.5,2.16,2.16,0,0,1-1.5-.52,1.81,1.81,0,0,1-.58-1.4V16.14a1.89,1.89,0,0,1,.56-1.42,2.06,2.06,0,0,1,1.48-.54,2,2,0,0,1,1.44.54,1.85,1.85,0,0,1,.56,1.42v1.64a6.35,6.35,0,0,1,2.56-2.72,7.7,7.7,0,0,1,3.88-1A8.13,8.13,0,0,1,234.64,15.38Zm-1.38,14a7.86,7.86,0,0,0,1.44-5.06,8.08,8.08,0,0,0-1.46-5.16,5.44,5.44,0,0,0-8.12,0,8.15,8.15,0,0,0-1.42,5.12,8.15,8.15,0,0,0,1.42,5.12,4.87,4.87,0,0,0,4.06,1.8A4.94,4.94,0,0,0,233.26,29.4Z"/><path class="a" d="M279.42,32.5a1.59,1.59,0,0,1-.62,1.28,2.07,2.07,0,0,1-1.38.52,1.79,1.79,0,0,1-1-.3,1.94,1.94,0,0,1-.7-.86l-2.64-6H258.46l-2.64,6a1.89,1.89,0,0,1-1.72,1.16,2.15,2.15,0,0,1-1.42-.52,1.62,1.62,0,0,1-.62-1.28,2.26,2.26,0,0,1,.2-.8L263.54,7a2.13,2.13,0,0,1,.9-1,2.58,2.58,0,0,1,1.3-.36A2.52,2.52,0,0,1,267,6a2,2,0,0,1,.9,1L279.22,31.7A2.06,2.06,0,0,1,279.42,32.5Zm-19.48-8.64h11.72l-5.88-13.24Z"/><path class="a" d="M298.2,15.38a8.45,8.45,0,0,1,3.08,3.6,12.43,12.43,0,0,1,1.1,5.36,12.2,12.2,0,0,1-1.08,5.28,8.17,8.17,0,0,1-3.06,3.52,8.34,8.34,0,0,1-4.54,1.24,7.79,7.79,0,0,1-3.88-.94,6.24,6.24,0,0,1-2.56-2.7v8.92a1.73,1.73,0,0,1-.54,1.34,2,2,0,0,1-1.42.5,2.16,2.16,0,0,1-1.5-.52,1.81,1.81,0,0,1-.58-1.4V16.14a1.89,1.89,0,0,1,.56-1.42,2.06,2.06,0,0,1,1.48-.54,2,2,0,0,1,1.44.54,1.85,1.85,0,0,1,.56,1.42v1.64a6.35,6.35,0,0,1,2.56-2.72,7.7,7.7,0,0,1,3.88-1A8.13,8.13,0,0,1,298.2,15.38Zm-1.38,14a7.86,7.86,0,0,0,1.44-5.06,8.08,8.08,0,0,0-1.46-5.16,5.44,5.44,0,0,0-8.12,0,8.15,8.15,0,0,0-1.42,5.12,8.15,8.15,0,0,0,1.42,5.12,4.87,4.87,0,0,0,4.06,1.8A4.94,4.94,0,0,0,296.82,29.4Z"/><path class="a" d="M321.84,15.38a8.45,8.45,0,0,1,3.08,3.6,12.43,12.43,0,0,1,1.1,5.36,12.2,12.2,0,0,1-1.08,5.28,8.17,8.17,0,0,1-3.06,3.52,8.34,8.34,0,0,1-4.54,1.24,7.79,7.79,0,0,1-3.88-.94,6.24,6.24,0,0,1-2.56-2.7v8.92a1.73,1.73,0,0,1-.54,1.34,2,2,0,0,1-1.42.5,2.16,2.16,0,0,1-1.5-.52,1.78,1.78,0,0,1-.58-1.4V16.14a1.89,1.89,0,0,1,.56-1.42,2,2,0,0,1,1.48-.54,2,2,0,0,1,1.44.54,1.89,1.89,0,0,1,.56,1.42v1.64a6.35,6.35,0,0,1,2.56-2.72,7.7,7.7,0,0,1,3.88-1A8.13,8.13,0,0,1,321.84,15.38Zm-1.38,14a7.86,7.86,0,0,0,1.44-5.06,8.08,8.08,0,0,0-1.46-5.16,5.44,5.44,0,0,0-8.12,0,8.15,8.15,0,0,0-1.42,5.12,8.15,8.15,0,0,0,1.42,5.12,4.87,4.87,0,0,0,4.06,1.8A4.94,4.94,0,0,0,320.46,29.4Z"/><path class="a" d="M331.08,33.82a1.75,1.75,0,0,1-.58-1.44V7.66a1.81,1.81,0,0,1,.58-1.46,2.17,2.17,0,0,1,1.46-.5,2.08,2.08,0,0,1,1.44.5,1.86,1.86,0,0,1,.56,1.46V32.38a1.8,1.8,0,0,1-.56,1.44,2.12,2.12,0,0,1-1.44.48A2.21,2.21,0,0,1,331.08,33.82Z"/><path class="a" d="M340.38,9.62a2.22,2.22,0,0,1-.68-1.68,2.15,2.15,0,0,1,.68-1.66,3,3,0,0,1,3.66,0,2.1,2.1,0,0,1,.7,1.66,2.22,2.22,0,0,1-.68,1.68,3,3,0,0,1-3.68,0Zm.38,24.2a1.75,1.75,0,0,1-.58-1.44V16.14a1.81,1.81,0,0,1,.58-1.46,2.17,2.17,0,0,1,1.46-.5,2.08,2.08,0,0,1,1.44.5,1.86,1.86,0,0,1,.56,1.46V32.38a1.8,1.8,0,0,1-.56,1.44,2.12,2.12,0,0,1-1.44.48A2.21,2.21,0,0,1,340.76,33.82Z"/><path class="a" d="M353.24,33.14a8.49,8.49,0,0,1-3.32-3.52,11.29,11.29,0,0,1-1.18-5.28A11.39,11.39,0,0,1,350,19a8.74,8.74,0,0,1,3.42-3.6,9.89,9.89,0,0,1,5-1.28,11.26,11.26,0,0,1,3.06.44,10.2,10.2,0,0,1,2.74,1.2,2.51,2.51,0,0,1,1.28,2,1.81,1.81,0,0,1-.36,1.14,1.11,1.11,0,0,1-.92.46,1.6,1.6,0,0,1-.72-.18,9.92,9.92,0,0,1-.92-.54,11.28,11.28,0,0,0-1.86-1,5.52,5.52,0,0,0-2.06-.34,5.13,5.13,0,0,0-4.22,1.84,7.89,7.89,0,0,0-1.5,5.12,7.69,7.69,0,0,0,1.48,5.06,5.16,5.16,0,0,0,4.2,1.78,5.78,5.78,0,0,0,2.12-.36,11.54,11.54,0,0,0,1.88-1,6.37,6.37,0,0,1,.88-.48,2,2,0,0,1,.8-.2,1.11,1.11,0,0,1,.92.46,1.81,1.81,0,0,1,.36,1.14,1.84,1.84,0,0,1-.3,1,3.5,3.5,0,0,1-1,.94,9.56,9.56,0,0,1-2.8,1.24,12.34,12.34,0,0,1-3.24.44A9.74,9.74,0,0,1,353.24,33.14Z"/><path class="a" d="M383.16,16.06c1.27,1.31,1.9,3.29,1.9,6V32.38a1.87,1.87,0,0,1-.52,1.42,2,2,0,0,1-1.44.5,1.79,1.79,0,0,1-1.92-1.92V30.9a5.65,5.65,0,0,1-2.26,2.58,6.68,6.68,0,0,1-3.5.9,7.79,7.79,0,0,1-3.5-.78,6.31,6.31,0,0,1-2.5-2.14,5.39,5.39,0,0,1-.92-3.08A4.64,4.64,0,0,1,369.58,25a6.79,6.79,0,0,1,3.64-1.76,35.17,35.17,0,0,1,7-.54h.92V21.54a4.73,4.73,0,0,0-.92-3.24,3.84,3.84,0,0,0-3-1,9.46,9.46,0,0,0-2.64.36,20.29,20.29,0,0,0-2.72,1,3.94,3.94,0,0,1-1.52.6,1.24,1.24,0,0,1-1-.44,1.67,1.67,0,0,1-.38-1.12,1.72,1.72,0,0,1,.34-1.06,3.49,3.49,0,0,1,1.1-.9,13.68,13.68,0,0,1,3.28-1.22,15.13,15.13,0,0,1,3.64-.46C380,14.1,381.89,14.75,383.16,16.06Zm-3.42,13.82a5.45,5.45,0,0,0,1.4-3.86V25h-.72a30.74,30.74,0,0,0-4.8.28,4.74,4.74,0,0,0-2.4.94,2.44,2.44,0,0,0-.72,1.9,3,3,0,0,0,1,2.36,3.79,3.79,0,0,0,2.6.92A4.69,4.69,0,0,0,379.74,29.88Z"/><path class="a" d="M401.4,31.68a1.45,1.45,0,0,1,.38,1.06,1.39,1.39,0,0,1-.62,1.22,2.91,2.91,0,0,1-1.82.34l-1.08-.08a7,7,0,0,1-4.84-2,7.33,7.33,0,0,1-1.6-5.14V17.7h-2.4c-1.17,0-1.76-.52-1.76-1.56a1.46,1.46,0,0,1,.46-1.14,1.86,1.86,0,0,1,1.3-.42h2.4V10.46A1.92,1.92,0,0,1,392.36,9a2,2,0,0,1,1.46-.52A2.07,2.07,0,0,1,395.3,9a1.89,1.89,0,0,1,.56,1.44v4.12h4a1.86,1.86,0,0,1,1.3.42,1.46,1.46,0,0,1,.46,1.14,1.44,1.44,0,0,1-.46,1.16,1.91,1.91,0,0,1-1.3.4h-4v9.68a4.1,4.1,0,0,0,.78,2.76,3.36,3.36,0,0,0,2.38,1l1.12.08A2,2,0,0,1,401.4,31.68Z"/><path class="a" d="M404.9,9.62a2.22,2.22,0,0,1-.68-1.68,2.15,2.15,0,0,1,.68-1.66,3,3,0,0,1,3.66,0,2.1,2.1,0,0,1,.7,1.66,2.22,2.22,0,0,1-.68,1.68,3,3,0,0,1-3.68,0Zm.38,24.2a1.75,1.75,0,0,1-.58-1.44V16.14a1.81,1.81,0,0,1,.58-1.46,2.17,2.17,0,0,1,1.46-.5,2.08,2.08,0,0,1,1.44.5,1.86,1.86,0,0,1,.56,1.46V32.38a1.8,1.8,0,0,1-.56,1.44,2.12,2.12,0,0,1-1.44.48A2.21,2.21,0,0,1,405.28,33.82Z"/><path class="a" d="M417.8,33.14a8.45,8.45,0,0,1-3.36-3.54,11.48,11.48,0,0,1-1.18-5.34,11.59,11.59,0,0,1,1.18-5.38,8.45,8.45,0,0,1,3.36-3.54,10.94,10.94,0,0,1,10.12,0,8.45,8.45,0,0,1,3.36,3.54,11.59,11.59,0,0,1,1.18,5.38,11.48,11.48,0,0,1-1.18,5.34,8.45,8.45,0,0,1-3.36,3.54,10.94,10.94,0,0,1-10.12,0ZM427,29.42a8,8,0,0,0,1.42-5.16,8,8,0,0,0-1.44-5.14,5.57,5.57,0,0,0-8.16,0,8,8,0,0,0-1.44,5.14,8,8,0,0,0,1.42,5.16,5.66,5.66,0,0,0,8.2,0Z"/><path class="a" d="M454.46,22v10.4a1.84,1.84,0,0,1-.54,1.42,2.14,2.14,0,0,1-1.5.5,2,2,0,0,1-1.46-.52,1.85,1.85,0,0,1-.54-1.4V22.18a5.6,5.6,0,0,0-1-3.64,3.8,3.8,0,0,0-3.06-1.16,5.24,5.24,0,0,0-3.92,1.52A5.57,5.57,0,0,0,441,23v9.4a1.85,1.85,0,0,1-.54,1.4,2,2,0,0,1-1.46.52,2.07,2.07,0,0,1-1.48-.52,1.83,1.83,0,0,1-.56-1.4V16.1a1.79,1.79,0,0,1,.58-1.38,2.06,2.06,0,0,1,1.46-.54,1.89,1.89,0,0,1,1.4.52,1.87,1.87,0,0,1,.52,1.36V17.7A6.47,6.47,0,0,1,443.58,15a8.12,8.12,0,0,1,3.88-.92Q454.47,14.1,454.46,22Z"/><path class="a" d="M460.1,32.7a3,3,0,0,1-1-.92,2,2,0,0,1-.3-1.08,1.64,1.64,0,0,1,.36-1.08,1.14,1.14,0,0,1,.92-.44,3.94,3.94,0,0,1,1.64.64,16.83,16.83,0,0,0,2.34,1,8.64,8.64,0,0,0,2.86.4,5.65,5.65,0,0,0,3-.68A2.14,2.14,0,0,0,471,28.66a1.88,1.88,0,0,0-.42-1.28,3.55,3.55,0,0,0-1.46-.86A25.25,25.25,0,0,0,466,25.7,11.81,11.81,0,0,1,461,23.64a4.39,4.39,0,0,1-1.54-3.54,5.13,5.13,0,0,1,1-3.1,6.44,6.44,0,0,1,2.76-2.14,9.91,9.91,0,0,1,4-.76,11.73,11.73,0,0,1,3.12.42A9,9,0,0,1,473,15.74a2.49,2.49,0,0,1,1.32,2,1.6,1.6,0,0,1-.38,1.08,1.19,1.19,0,0,1-.9.44,1.71,1.71,0,0,1-.72-.16,10.23,10.23,0,0,1-1-.52,13.43,13.43,0,0,0-2-1,6.62,6.62,0,0,0-2.34-.36,4.59,4.59,0,0,0-2.7.72,2.27,2.27,0,0,0-1,2,2,2,0,0,0,.94,1.74,11.39,11.39,0,0,0,3.54,1.18,19.45,19.45,0,0,1,4.2,1.28,5,5,0,0,1,2.18,1.78,5,5,0,0,1,.66,2.7,4.93,4.93,0,0,1-2.18,4.18,9.76,9.76,0,0,1-5.82,1.58A12.1,12.1,0,0,1,460.1,32.7Z"/><path class="a" d="M526.78,6a1.93,1.93,0,0,1,1.08-.32,2,2,0,0,1,1.34.5,1.66,1.66,0,0,1,.58,1.3,2.08,2.08,0,0,1-.16.8L520.78,33a2.15,2.15,0,0,1-.88,1,2.52,2.52,0,0,1-1.32.36A2.43,2.43,0,0,1,517.3,34a1.93,1.93,0,0,1-.84-1l-7.28-20.64L501.74,33a1.93,1.93,0,0,1-.84,1,2.46,2.46,0,0,1-1.28.36,2.4,2.4,0,0,1-1.3-.36,2.11,2.11,0,0,1-.86-1L488.62,8.26a1.91,1.91,0,0,1-.16-.8,1.61,1.61,0,0,1,.6-1.3,2.19,2.19,0,0,1,1.44-.5,2,2,0,0,1,1.1.32,1.87,1.87,0,0,1,.74,1l7.4,21.28,7.52-21.08a2,2,0,0,1,.78-1,2.08,2.08,0,0,1,1.18-.36,2,2,0,0,1,1.16.38,2.49,2.49,0,0,1,.8,1.06l7.36,21.24,7.52-21.48A1.89,1.89,0,0,1,526.78,6Z"/><path class="a" d="M536.26,9.62a2.19,2.19,0,0,1-.68-1.68,2.11,2.11,0,0,1,.68-1.66,2.63,2.63,0,0,1,1.84-.62,2.68,2.68,0,0,1,1.82.62,2.13,2.13,0,0,1,.7,1.66,2.22,2.22,0,0,1-.68,1.68,2.58,2.58,0,0,1-1.84.64A2.55,2.55,0,0,1,536.26,9.62Zm.38,24.2a1.75,1.75,0,0,1-.58-1.44V16.14a1.81,1.81,0,0,1,.58-1.46,2.16,2.16,0,0,1,1.46-.5,2.12,2.12,0,0,1,1.44.5,1.86,1.86,0,0,1,.56,1.46V32.38a1.8,1.8,0,0,1-.56,1.44,2.16,2.16,0,0,1-1.44.48A2.19,2.19,0,0,1,536.64,33.82Z"/><path class="a" d="M557.12,31.68a1.45,1.45,0,0,1,.38,1.06,1.39,1.39,0,0,1-.62,1.22,2.93,2.93,0,0,1-1.82.34L554,34.22a7,7,0,0,1-4.84-2,7.33,7.33,0,0,1-1.6-5.14V17.7h-2.4c-1.18,0-1.76-.52-1.76-1.56a1.46,1.46,0,0,1,.46-1.14,1.85,1.85,0,0,1,1.3-.42h2.4V10.46A1.92,1.92,0,0,1,548.08,9a2,2,0,0,1,1.46-.52A2.09,2.09,0,0,1,551,9a1.89,1.89,0,0,1,.56,1.44v4.12h4a1.86,1.86,0,0,1,1.3.42,1.67,1.67,0,0,1,0,2.3,1.91,1.91,0,0,1-1.3.4h-4v9.68a4.1,4.1,0,0,0,.78,2.76,3.36,3.36,0,0,0,2.38,1l1.12.08A2,2,0,0,1,557.12,31.68Z"/><path class="a" d="M577.94,22v10.4a1.83,1.83,0,0,1-.56,1.4,2.09,2.09,0,0,1-1.48.52,2,2,0,0,1-1.46-.52,1.85,1.85,0,0,1-.54-1.4V22a5.28,5.28,0,0,0-1-3.52,3.87,3.87,0,0,0-3.06-1.12,5.22,5.22,0,0,0-3.92,1.52A5.57,5.57,0,0,0,564.46,23v9.4a1.85,1.85,0,0,1-.54,1.4,2,2,0,0,1-1.46.52,2.06,2.06,0,0,1-1.48-.52,1.8,1.8,0,0,1-.56-1.4V7.62a1.78,1.78,0,0,1,.58-1.4,2.12,2.12,0,0,1,1.5-.52,2,2,0,0,1,1.42.5,1.73,1.73,0,0,1,.54,1.34v10A6.66,6.66,0,0,1,567.14,15,8.11,8.11,0,0,1,571,14.1Q577.94,14.1,577.94,22Z"/><path class="a" d="M76,67a3,3,0,0,1,2,.75,2.24,2.24,0,0,1,.88,1.78,3,3,0,0,1-.27,1l-15.51,34a2.93,2.93,0,0,1-1.21,1.37,3.38,3.38,0,0,1-1.76.5,3.54,3.54,0,0,1-1.79-.5,2.89,2.89,0,0,1-1.24-1.37l-15.45-34a3,3,0,0,1-.28-1,2.23,2.23,0,0,1,.91-1.81,3.18,3.18,0,0,1,2-.72,2.49,2.49,0,0,1,2.42,1.54l13.47,30.2,13.48-30.2A2.44,2.44,0,0,1,76,67Z"/><path class="a" d="M103.26,79.42a2.65,2.65,0,0,1,.74,2v22.39a2.45,2.45,0,0,1-.77,1.87,2.86,2.86,0,0,1-2,.72,2.59,2.59,0,0,1-1.87-.69,2.48,2.48,0,0,1-.71-1.85v-2.09a8.58,8.58,0,0,1-3.49,3.52,10.25,10.25,0,0,1-5,1.21q-9.8,0-9.79-10.77V81.4a2.65,2.65,0,0,1,.74-2,2.88,2.88,0,0,1,2.06-.71,2.79,2.79,0,0,1,2,.71,2.61,2.61,0,0,1,.74,2V95.65a7.16,7.16,0,0,0,1.33,4.78A5,5,0,0,0,91.29,102a6.74,6.74,0,0,0,5.2-2.09,7.8,7.8,0,0,0,2-5.55V81.4a2.61,2.61,0,0,1,.77-2,2.86,2.86,0,0,1,2-.74A2.82,2.82,0,0,1,103.26,79.42Z"/><path class="a" d="M134,99.94a2.35,2.35,0,0,1,.49,1.54,3.16,3.16,0,0,1-2,2.69,17,17,0,0,1-4.2,1.71,17.26,17.26,0,0,1-4.38.6q-6.37,0-10.06-3.71t-3.69-10.14a15.84,15.84,0,0,1,1.63-7.32,11.88,11.88,0,0,1,4.56-5,12.79,12.79,0,0,1,6.68-1.76,10.92,10.92,0,0,1,8.53,3.46c2.09,2.32,3.13,5.43,3.13,9.36q0,2.19-2,2.19h-17c.36,5.69,3.1,8.53,8.19,8.53a10,10,0,0,0,3.52-.55,25.65,25.65,0,0,0,3.14-1.43c.11-.07.41-.23.91-.47a2.94,2.94,0,0,1,1.23-.36A1.58,1.58,0,0,1,134,99.94Zm-16-15.23a9.39,9.39,0,0,0-2.31,5.71H130a9.15,9.15,0,0,0-1.9-5.74,6.08,6.08,0,0,0-4.87-2A6.7,6.7,0,0,0,118.08,84.71Z"/><path class="a" d="M142.28,105.6a2.79,2.79,0,0,1-.77-2.09V70.07a2.71,2.71,0,0,1,.74-2,2.77,2.77,0,0,1,2.06-.75h13.26q6.15,0,9.57,3t3.41,8.58q0,5.5-3.41,8.58t-9.57,3.08h-10.4v12.92a2.86,2.86,0,0,1-.74,2.09,2.78,2.78,0,0,1-2.12.78A2.72,2.72,0,0,1,142.28,105.6ZM165.1,78.93q0-7-8.14-7h-9.79V86H157Q165.1,86,165.1,78.93Z"/><path class="a" d="M192.88,81a2.44,2.44,0,0,1-.61,1.82,3.26,3.26,0,0,1-2.09.71l-1.65.17a7.13,7.13,0,0,0-5.14,2.42,7.82,7.82,0,0,0-1.68,5.06v12.59a2.44,2.44,0,0,1-.77,2,2.93,2.93,0,0,1-2,.67,3,3,0,0,1-2-.67,2.4,2.4,0,0,1-.8-2V81.35a2.42,2.42,0,0,1,.8-1.95,3,3,0,0,1,2-.69,2.62,2.62,0,0,1,1.85.69,2.47,2.47,0,0,1,.74,1.89v2.64a8,8,0,0,1,3.19-3.68,10.8,10.8,0,0,1,4.73-1.49l.77-.05Q192.88,78.54,192.88,81Z"/><path class="a" d="M218,99.94a2.36,2.36,0,0,1,.5,1.54,3.16,3.16,0,0,1-2,2.69,18,18,0,0,1-8.58,2.31q-6.39,0-10.07-3.71T194.2,92.63a16,16,0,0,1,1.62-7.32,11.84,11.84,0,0,1,4.57-5,12.77,12.77,0,0,1,6.68-1.76,10.91,10.91,0,0,1,8.52,3.46c2.09,2.32,3.14,5.43,3.14,9.36q0,2.19-2,2.19h-17q.56,8.53,8.2,8.53a10.09,10.09,0,0,0,3.52-.55,25.55,25.55,0,0,0,3.13-1.43c.11-.07.42-.23.91-.47a3,3,0,0,1,1.24-.36A1.57,1.57,0,0,1,218,99.94ZM202.06,84.71a9.51,9.51,0,0,0-2.31,5.71h14.19a9.21,9.21,0,0,0-1.89-5.74,6.09,6.09,0,0,0-4.87-2A6.72,6.72,0,0,0,202.06,84.71Z"/><path class="a" d="M225,104.17a4.22,4.22,0,0,1-1.41-1.26,2.8,2.8,0,0,1-.41-1.49,2.26,2.26,0,0,1,.5-1.48,1.57,1.57,0,0,1,1.26-.61,5.53,5.53,0,0,1,2.26.88,21.8,21.8,0,0,0,3.22,1.43,11.88,11.88,0,0,0,3.93.55,7.74,7.74,0,0,0,4.12-.93A3,3,0,0,0,240,98.62a2.56,2.56,0,0,0-.58-1.76,4.85,4.85,0,0,0-2-1.18,33,33,0,0,0-4.23-1.13q-4.84-1-7-2.83a6,6,0,0,1-2.12-4.87,7,7,0,0,1,1.38-4.26,8.9,8.9,0,0,1,3.79-3,13.9,13.9,0,0,1,5.5-1,15.8,15.8,0,0,1,4.29.58,12.1,12.1,0,0,1,3.69,1.67,3.42,3.42,0,0,1,1.81,2.81,2.16,2.16,0,0,1-.52,1.48,1.57,1.57,0,0,1-1.24.61,2.37,2.37,0,0,1-1-.22,14,14,0,0,1-1.32-.72,18.68,18.68,0,0,0-2.78-1.37,9,9,0,0,0-3.21-.5,6.29,6.29,0,0,0-3.71,1,3.13,3.13,0,0,0-1.41,2.7A2.7,2.7,0,0,0,230.63,89a15.86,15.86,0,0,0,4.87,1.62,27.17,27.17,0,0,1,5.78,1.76,6,6,0,0,1,3.9,6.16,6.76,6.76,0,0,1-3,5.75,13.31,13.31,0,0,1-8,2.17A16.62,16.62,0,0,1,225,104.17Z"/><path class="a" d="M251.51,104.17a4.22,4.22,0,0,1-1.41-1.26,2.8,2.8,0,0,1-.41-1.49,2.26,2.26,0,0,1,.5-1.48,1.57,1.57,0,0,1,1.26-.61,5.53,5.53,0,0,1,2.26.88,22.18,22.18,0,0,0,3.21,1.43,12,12,0,0,0,3.94.55,7.74,7.74,0,0,0,4.12-.93,3,3,0,0,0,1.49-2.64,2.61,2.61,0,0,0-.58-1.76,5,5,0,0,0-2-1.18,33,33,0,0,0-4.23-1.13q-4.84-1-7-2.83a6,6,0,0,1-2.12-4.87A7,7,0,0,1,252,82.59a8.9,8.9,0,0,1,3.79-3,13.9,13.9,0,0,1,5.5-1,15.8,15.8,0,0,1,4.29.58,12.21,12.21,0,0,1,3.69,1.67A3.42,3.42,0,0,1,271,83.66a2.16,2.16,0,0,1-.52,1.48,1.57,1.57,0,0,1-1.24.61,2.37,2.37,0,0,1-1-.22,14,14,0,0,1-1.32-.72,18.68,18.68,0,0,0-2.78-1.37,9,9,0,0,0-3.21-.5,6.35,6.35,0,0,0-3.72,1,3.14,3.14,0,0,0-1.4,2.7A2.7,2.7,0,0,0,257.14,89,15.86,15.86,0,0,0,262,90.64a27.17,27.17,0,0,1,5.78,1.76,6,6,0,0,1,3.9,6.16,6.76,6.76,0,0,1-3,5.75,13.31,13.31,0,0,1-8,2.17A16.62,16.62,0,0,1,251.51,104.17Z"/><path class="a" d="M315,79Q317.86,82,317.86,88v15.54a2.82,2.82,0,0,1-.78,2.13,3,3,0,0,1-2.16.75,2.69,2.69,0,0,1-2.88-2.88V101.3a8.44,8.44,0,0,1-3.39,3.87,10,10,0,0,1-5.25,1.35,11.7,11.7,0,0,1-5.25-1.17,9.5,9.5,0,0,1-3.75-3.21A8.05,8.05,0,0,1,293,97.52a7,7,0,0,1,1.62-5.07,10.13,10.13,0,0,1,5.46-2.64A52.78,52.78,0,0,1,310.6,89H312V87.26q0-3.36-1.38-4.86a5.78,5.78,0,0,0-4.44-1.5,14.14,14.14,0,0,0-4,.54A29.77,29.77,0,0,0,298.12,83a5.88,5.88,0,0,1-2.28.9,1.85,1.85,0,0,1-1.47-.66,2.48,2.48,0,0,1-.57-1.68,2.6,2.6,0,0,1,.51-1.59A5.37,5.37,0,0,1,296,78.62a20.51,20.51,0,0,1,4.92-1.83,23,23,0,0,1,5.46-.69Q312.16,76.1,315,79Zm-5.13,20.73A8.15,8.15,0,0,0,312,94V92.42H310.9a46.74,46.74,0,0,0-7.2.42,7.06,7.06,0,0,0-3.6,1.41A3.67,3.67,0,0,0,299,97.1a4.51,4.51,0,0,0,1.56,3.54,5.67,5.67,0,0,0,3.9,1.38A7.06,7.06,0,0,0,309.88,99.77Z"/><path class="a" d="M352.42,87.92v15.6a2.76,2.76,0,0,1-.81,2.13,3.19,3.19,0,0,1-2.25.75,3,3,0,0,1-2.19-.78,2.78,2.78,0,0,1-.81-2.1V88.22q0-3.72-1.47-5.46A5.68,5.68,0,0,0,340.3,81a7.83,7.83,0,0,0-5.88,2.28,8.4,8.4,0,0,0-2.22,6.12v14.1a2.78,2.78,0,0,1-.81,2.1,3,3,0,0,1-2.19.78,3.13,3.13,0,0,1-2.22-.78,2.73,2.73,0,0,1-.84-2.1V79.1A2.7,2.7,0,0,1,327,77a3.09,3.09,0,0,1,2.19-.81,2.84,2.84,0,0,1,2.1.78,2.76,2.76,0,0,1,.78,2V81.5a9.73,9.73,0,0,1,4-4,12.14,12.14,0,0,1,5.82-1.38Q352.42,76.1,352.42,87.92Z"/><path class="a" d="M386.86,64.28a2.73,2.73,0,0,1,.84,2.1v37.08a2.86,2.86,0,0,1-.81,2.16,3.46,3.46,0,0,1-4.38,0,2.86,2.86,0,0,1-.81-2.16v-2.4a9.28,9.28,0,0,1-3.84,4,11.72,11.72,0,0,1-5.82,1.41,12.16,12.16,0,0,1-6.75-1.92,12.76,12.76,0,0,1-4.62-5.4,18.42,18.42,0,0,1-1.65-8,18.17,18.17,0,0,1,1.65-8A12.11,12.11,0,0,1,372,76.1a11.55,11.55,0,0,1,5.79,1.41,9.41,9.41,0,0,1,3.81,4V66.26a2.61,2.61,0,0,1,.81-2,3.1,3.1,0,0,1,2.19-.75A3.13,3.13,0,0,1,386.86,64.28ZM379.54,99q2.16-2.7,2.16-7.68t-2.13-7.68a7.3,7.3,0,0,0-6.09-2.7,7.51,7.51,0,0,0-6.15,2.67q-2.19,2.67-2.19,7.59t2.22,7.71a8.13,8.13,0,0,0,12.18.09Z"/><path class="a" d="M413.53,105.29a3,3,0,0,1-.81-2.19V66.8a3,3,0,0,1,.81-2.19,3,3,0,0,1,2.25-.81h22.08a3.12,3.12,0,0,1,2.13.66,2.35,2.35,0,0,1,.75,1.86,2.26,2.26,0,0,1-.75,1.83,3.22,3.22,0,0,1-2.13.63H418.78V82.1h17.88a3.12,3.12,0,0,1,2.13.66,2.68,2.68,0,0,1,0,3.72,3.12,3.12,0,0,1-2.13.66H418.78v14h19.08q2.88,0,2.88,2.46a2.35,2.35,0,0,1-.75,1.86,3.12,3.12,0,0,1-2.13.66H415.78A3,3,0,0,1,413.53,105.29Z"/><path class="a" d="M448,105.68a2.64,2.64,0,0,1-.87-2.16V66.44a2.73,2.73,0,0,1,.87-2.19,3.23,3.23,0,0,1,2.19-.75,3.12,3.12,0,0,1,2.16.75,2.78,2.78,0,0,1,.84,2.19v37.08a2.69,2.69,0,0,1-.84,2.16,3.2,3.2,0,0,1-2.16.72A3.32,3.32,0,0,1,448,105.68Z"/><path class="a" d="M485.92,99.38a2.57,2.57,0,0,1,.54,1.68q0,1.74-2.16,2.94a19,19,0,0,1-4.59,1.86,18.61,18.61,0,0,1-4.77.66q-7,0-11-4t-4-11.07a17.36,17.36,0,0,1,1.77-8,13,13,0,0,1,5-5.4A13.93,13.93,0,0,1,474,76.1a11.91,11.91,0,0,1,9.3,3.78q3.42,3.78,3.42,10.2,0,2.4-2.16,2.4H466q.6,9.3,8.94,9.3a11.06,11.06,0,0,0,3.84-.6,27.93,27.93,0,0,0,3.42-1.56q.18-.12,1-.51a3.28,3.28,0,0,1,1.35-.39A1.7,1.7,0,0,1,485.92,99.38Zm-17.4-16.62A10.37,10.37,0,0,0,466,89h15.48a10,10,0,0,0-2.07-6.27,6.64,6.64,0,0,0-5.31-2.19A7.32,7.32,0,0,0,468.52,82.76Z"/><path class="a" d="M498.43,104.66a12.7,12.7,0,0,1-5-5.28,18.59,18.59,0,0,1,.06-16,13.23,13.23,0,0,1,5.13-5.4,14.75,14.75,0,0,1,7.56-1.92,16.64,16.64,0,0,1,4.59.66,15.69,15.69,0,0,1,4.11,1.8,3.73,3.73,0,0,1,1.92,3.06,2.69,2.69,0,0,1-.54,1.71,1.68,1.68,0,0,1-1.38.69,2.4,2.4,0,0,1-1.08-.27,15.58,15.58,0,0,1-1.38-.81,16.53,16.53,0,0,0-2.79-1.47,8.4,8.4,0,0,0-3.09-.51,7.71,7.71,0,0,0-6.33,2.76Q498,86.48,498,91.4T500.2,99a7.73,7.73,0,0,0,6.3,2.67,8.69,8.69,0,0,0,3.18-.54,17.11,17.11,0,0,0,2.82-1.44,10.74,10.74,0,0,1,1.32-.72,2.94,2.94,0,0,1,1.2-.3,1.68,1.68,0,0,1,1.38.69,2.69,2.69,0,0,1,.54,1.71,2.74,2.74,0,0,1-.45,1.53A5.33,5.33,0,0,1,515,104a14.39,14.39,0,0,1-4.2,1.86,18.25,18.25,0,0,1-4.86.66A14.63,14.63,0,0,1,498.43,104.66Z"/><path class="a" d="M538.69,102.47a2.15,2.15,0,0,1,.57,1.59,2.07,2.07,0,0,1-.93,1.83,4.34,4.34,0,0,1-2.73.51l-1.62-.12q-4.86-.36-7.26-3t-2.4-7.71V81.5h-3.6q-2.64,0-2.64-2.34a2.2,2.2,0,0,1,.69-1.71,2.79,2.79,0,0,1,2-.63h3.6V70.64a2.86,2.86,0,0,1,.81-2.16,3,3,0,0,1,2.19-.78,3.13,3.13,0,0,1,2.22.78,2.8,2.8,0,0,1,.84,2.16v6.18h5.94a2.79,2.79,0,0,1,1.95.63,2.5,2.5,0,0,1,0,3.45,2.88,2.88,0,0,1-1.95.6h-5.94V96a6.13,6.13,0,0,0,1.17,4.14,5.06,5.06,0,0,0,3.57,1.5l1.68.12A3,3,0,0,1,538.69,102.47Z"/><path class="a" d="M561.88,78.68a2.69,2.69,0,0,1-.66,2,3.56,3.56,0,0,1-2.28.78l-1.8.18a7.77,7.77,0,0,0-5.61,2.64,8.54,8.54,0,0,0-1.83,5.52v13.74a2.69,2.69,0,0,1-.84,2.16,3.2,3.2,0,0,1-2.16.72,3.32,3.32,0,0,1-2.19-.72,2.64,2.64,0,0,1-.87-2.16V79.1a2.66,2.66,0,0,1,.87-2.13,3.23,3.23,0,0,1,2.19-.75,2.85,2.85,0,0,1,2,.75,2.68,2.68,0,0,1,.81,2.07v2.88a8.81,8.81,0,0,1,3.48-4,11.69,11.69,0,0,1,5.16-1.62l.84-.06Q561.88,76,561.88,78.68Z"/><path class="a" d="M570.13,104.66a12.55,12.55,0,0,1-5-5.31,19.15,19.15,0,0,1,0-16.08,12.55,12.55,0,0,1,5-5.31,16.42,16.42,0,0,1,15.18,0,12.55,12.55,0,0,1,5,5.31,19.15,19.15,0,0,1,0,16.08,12.55,12.55,0,0,1-5,5.31,16.42,16.42,0,0,1-15.18,0Zm13.74-5.58Q586,96.44,586,91.34t-2.16-7.71a8.35,8.35,0,0,0-12.24,0q-2.16,2.67-2.16,7.71t2.13,7.74a8.48,8.48,0,0,0,12.3,0Z"/><path class="a" d="M625.12,87.92v15.6a2.76,2.76,0,0,1-.81,2.13,3.19,3.19,0,0,1-2.25.75,3,3,0,0,1-2.19-.78,2.78,2.78,0,0,1-.81-2.1V88.22q0-3.72-1.47-5.46A5.68,5.68,0,0,0,613,81a7.82,7.82,0,0,0-5.88,2.28,8.4,8.4,0,0,0-2.22,6.12v14.1a2.78,2.78,0,0,1-.81,2.1,3,3,0,0,1-2.19.78,3.13,3.13,0,0,1-2.22-.78,2.73,2.73,0,0,1-.84-2.1V79.1a2.7,2.7,0,0,1,.87-2.07,3.09,3.09,0,0,1,2.19-.81A2.84,2.84,0,0,1,604,77a2.8,2.8,0,0,1,.78,2V81.5a9.73,9.73,0,0,1,4-4,12.12,12.12,0,0,1,5.82-1.38Q625.12,76.1,625.12,87.92Z"/><path class="a" d="M360.59,289l-23.33.07V266.2a3.6,3.6,0,1,0-7.19,0l.07,22.8H307.79a3.6,3.6,0,0,0,0,7.2H330.1V319a3.6,3.6,0,0,0,7.2,0V296.2h23.29a3.6,3.6,0,1,0,0-7.2Z"/><path class="a" d="M140.75,238.44c-24.83-4.52-44.46.21-52.28,13.76-5.84,10.11-4.17,23.52,4,37.85A2.55,2.55,0,1,0,97,287.61l-.06-.09c-7.4-12.91-8.84-24.48-4.05-32.77,6.5-11.26,24-15.48,47-11.3a2.55,2.55,0,0,0,.91-5Zm-35.32,69a159.14,159.14,0,0,0,38,30c36,20.8,74.36,26.35,93.25,13.47a2.55,2.55,0,0,0-2.79-4.26l-.08.05C216.86,358.23,180.44,353,145.93,333a154.42,154.42,0,0,1-36.74-29,2.55,2.55,0,1,0-3.78,3.41Z"/><path class="a" d="M230.61,304.38c16.26-19.21,21.94-38.53,14.13-52-5.75-10-17.89-15.21-34-15.42a2.55,2.55,0,0,0-.07,5.1c14.52.18,25,4.71,29.69,12.87,6.49,11.23,1.42,28.45-13.6,46.21a2.55,2.55,0,1,0,3.85,3.33Zm-41.78-65.1c-14.7,3.15-30.34,9.31-45.37,18C106.28,278.73,82,310.39,85.39,333.34a2.55,2.55,0,0,0,5-.68v-.06c-3-20.38,20-50.38,55.58-70.92a153.85,153.85,0,0,1,43.89-17.42,2.54,2.54,0,1,0-1-5Z"/><path class="a" d="M128.6,349.25c8.5,23.74,22.4,38.35,38,38.35,11.41,0,22-7.78,30.19-21.46a2.55,2.55,0,1,0-4.33-2.69l0,.06c-7.39,12.3-16.48,19-25.82,19-13,0-25.39-13-33.25-35a2.55,2.55,0,0,0-4.83,1.62l0,.1Zm77.64-4.64A160,160,0,0,0,213,297.42c0-42.18-14.76-78.54-35.79-87.88a2.54,2.54,0,0,0-2.06,4.65c18.75,8.33,32.76,42.84,32.76,83.23a154.92,154.92,0,0,1-6.53,45.67,2.55,2.55,0,0,0,4.84,1.59.64.64,0,0,1,0-.07Zm47.95-2.5A12.19,12.19,0,1,0,242,354.3,12.18,12.18,0,0,0,254.19,342.11Zm-5.09,0A7.1,7.1,0,1,1,242,335,7.1,7.1,0,0,1,249.1,342.11ZM91.1,354.3a12.19,12.19,0,1,0-12.18-12.19A12.19,12.19,0,0,0,91.1,354.3Zm0-5.09a7.1,7.1,0,1,1,7.09-7.1A7.09,7.09,0,0,1,91.1,349.21Z"/><path class="a" d="M166.64,222a12.19,12.19,0,1,0-12.18-12.18A12.18,12.18,0,0,0,166.64,222Zm0-5.09a7.1,7.1,0,1,1,7.1-7.09A7.09,7.09,0,0,1,166.64,216.88ZM168.5,306a8.82,8.82,0,1,1,6.76-10.48A8.82,8.82,0,0,1,168.5,306Z"/><path class="b" d="M418.79,242l104.14-15.46a6.08,6.08,0,0,1,6.54,3.78l43.08,129.82a5.2,5.2,0,0,1-3.68,7L452.25,392.45a6.41,6.41,0,0,1-7.62-4.91L414.29,247.69C413.71,245,415.73,242.48,418.79,242Z"/><path class="c" d="M419.44,240.63l104.14-15.46a6.09,6.09,0,0,1,6.54,3.78l43.09,129.83a5.21,5.21,0,0,1-3.69,7L452.9,391.06a6.42,6.42,0,0,1-7.62-4.92L414.94,246.3C414.36,243.62,416.38,241.09,419.44,240.63Z"/><path class="d" d="M429.32,225.1,532.7,209.94a6.16,6.16,0,0,1,6.57,3.8L583,341.29a4.94,4.94,0,0,1-3.55,6.71l-113.2,23.78a6.45,6.45,0,0,1-7.52-4.71L425,230.72C424.36,228.06,426.29,225.54,429.32,225.1Z"/><path class="e" d="M430,223.7l103.38-15.16a6.16,6.16,0,0,1,6.57,3.8l43.69,127.55a4.94,4.94,0,0,1-3.55,6.71l-113.2,23.78a6.44,6.44,0,0,1-7.52-4.71L425.67,229.33C425,226.66,426.94,224.14,430,223.7Z"/><path class="f" d="M440.43,208.73l102.49-14.68a6.21,6.21,0,0,1,6.56,3.77L593.65,323a4.76,4.76,0,0,1-3.47,6.52L478.75,352.32a6.45,6.45,0,0,1-7.46-4.6L436.24,214.26C435.54,211.63,437.43,209.16,440.43,208.73Z"/><path class="g" d="M441.08,207.33l102.49-14.67a6.2,6.2,0,0,1,6.56,3.77l44.17,125.2a4.76,4.76,0,0,1-3.47,6.52L479.4,350.92a6.45,6.45,0,0,1-7.46-4.59L436.89,212.87C436.19,210.24,438.07,207.76,441.08,207.33Z"/><path class="h" d="M496.42,289.76l45.16-8.37a1.28,1.28,0,0,1,1.46.88l7.58,24.09a1.29,1.29,0,0,1-1,1.66l-45.8,8.91a1.29,1.29,0,0,1-1.49-.91l-6.94-24.64A1.3,1.3,0,0,1,496.42,289.76Zm-3.9,2.14,6.82,24.84a3.83,3.83,0,0,0,4.42,2.74l46.35-9a3.82,3.82,0,0,0,2.91-4.92l-7.65-23.92a3.83,3.83,0,0,0-4.31-2.6l-45.52,8.1A3.82,3.82,0,0,0,492.52,291.9Zm9,2,4.77,16.75,5.13-1.17-2.74-9.64,7,5.48,3.41-7.72,2.79,9.8,5-1.07L522,290.17l-5.28.91-3.2,7.11-6.9-5.23Zm37.15,2.25-2.55-8.59-5.32.9,2.7,8.67-4.77.93,9.8,6.54,5-9.39Z"/><path class="i" d="M550.51,307.39l-.54,1.12-.17.36a1.24,1.24,0,0,1-.81.54l-45.8,8.93a1.32,1.32,0,0,1-1.5-.93l-6.93-24.63a1.3,1.3,0,0,1,.07-.87l0-.09.05-.09.52-1.13a1.19,1.19,0,0,0,0,.77l.19.67,6.74,24a1.31,1.31,0,0,0,1.49.93L549.62,308h0A1.28,1.28,0,0,0,550.51,307.39Zm1.92,1.6a3.68,3.68,0,0,0-.06-2.05L544.72,283a3.83,3.83,0,0,0-4.31-2.6l-45.52,8.1A3.62,3.62,0,0,0,492.5,290a3.76,3.76,0,0,1,3-2.9L541.07,279a3.8,3.8,0,0,1,4.3,2.59L553,305.56A3.7,3.7,0,0,1,552.43,309Zm-8.91-13.75-.76,1.42-4.72.92L535.48,289l-4.28.74-.39-1.24,5.32-.9,2.55,8.59Zm-11,2.12,1-.2-.65,1.41-2.65.5-1.47-1Zm-19,.82-.64,1.4L506,294.36l-4.15.77-.34-1.2,5.13-1Zm13.32,8.18-1,.21-4.47-15-5.27.92.63-1.4,5.29-.91Zm-17.48-4.05-.69-2.45-.65,1.4,2.42,8.47,1-.22Z"/><path class="j" d="M482.28,226.2,469,228.05l47.31,44,17-54-12.57,2.22-10,31.79Z"/><path class="k" d="M482.28,226.2l12.19-1.84L505.19,234l4.07-11.83,11.45-1.85-10,31.79Z"/></svg>