<svg xmlns="http://www.w3.org/2000/svg" viewBox="0 0 512 512"><title>nuxt</title><path d="M292.3,170l-17.55,30.4-60-104L30.39,415.6h124.8a30.4,30.4,0,0,0,30.4,30.4H30.39A30.4,30.4,0,0,1,4.07,400.4L188.39,81.2a30.4,30.4,0,0,1,52.65,0Z" fill="#00c58e"/><path d="M425.35,400.4l-115.49-200L292.3,170l-17.55,30.4-115.49,200A30.4,30.4,0,0,0,185.59,446H399a30.4,30.4,0,0,0,26.34-45.6ZM185.59,415.6,292.3,230.79,399,415.6Z" fill="#2f495e"/><path d="M507.93,430.8A30.41,30.41,0,0,1,481.61,446H399a30.4,30.4,0,0,0,30.4-30.4h52.15l-148-256.28-23.71,41.07L292.3,170l14.95-25.87a30.39,30.39,0,0,1,52.65,0l148,256.28A30.4,30.4,0,0,1,507.93,430.8Z" fill="#108775"/></svg>