<svg xmlns="http://www.w3.org/2000/svg" viewBox="0 0 512 512"><defs><style>.a{fill:#159497;}.b{fill:#fff;}</style></defs><path class="a" d="M441.61,67.77C394-.39,300.26-20.52,232.1,22.94L113.17,98.87a137,137,0,0,0-61.75,91.49c-5.49,31.56-.92,64,14.18,92.4A138.71,138.71,0,0,0,45,334,145.85,145.85,0,0,0,70.17,444.23c47.57,68.16,141.35,88.29,209.51,44.83l119.38-75.93a137,137,0,0,0,61.76-91.49,146.74,146.74,0,0,0-14.18-92.4A138.86,138.86,0,0,0,467.22,178c6.41-38.43-2.74-77.77-25.61-110.24"/><path class="b" d="M220.67,451.09a94.46,94.46,0,0,1-101.55-37.5A87.65,87.65,0,0,1,104,347.26c.46-3.66,1.83-7.32,2.75-11l2.28-6.86,6,4.57c14.18,10.07,29.73,18.3,46.66,23.33l4.57,1.37-.46,4.58a26,26,0,0,0,5,17.38,29.55,29.55,0,0,0,30.64,11.44,35,35,0,0,0,7.32-3.21L327.71,313a23,23,0,0,0,11-16.47,26.53,26.53,0,0,0-4.57-20.12,29.56,29.56,0,0,0-30.65-11.44,35.45,35.45,0,0,0-7.32,3.2L250.4,296.94a88.75,88.75,0,0,1-24.24,10.52A94.46,94.46,0,0,1,124.61,270,85.47,85.47,0,0,1,110,203.62,82.28,82.28,0,0,1,147,148.27L266.87,71.88a88.75,88.75,0,0,1,24.24-10.52A94.46,94.46,0,0,1,392.66,98.87a87.73,87.73,0,0,1,15.1,66.33q-1.38,5.49-2.75,11L402.72,183l-5.94-4.57a148.78,148.78,0,0,0-46.66-23.33l-4.57-1.38.45-4.57a27.22,27.22,0,0,0-5-17.84,28.52,28.52,0,0,0-30.65-11,36,36,0,0,0-7.32,3.2L183.61,200a25.06,25.06,0,0,0-11.43,16.47,26.65,26.65,0,0,0,4.57,20.13A29.24,29.24,0,0,0,207.4,248a34.7,34.7,0,0,0,7.32-3.2L260.46,216a88.81,88.81,0,0,1,24.25-10.52A94.49,94.49,0,0,1,386.26,243a87.69,87.69,0,0,1,15.09,66.33,82.25,82.25,0,0,1-37.05,55.35L244.91,440.57a88.14,88.14,0,0,1-24.24,10.52"/></svg>