<svg xmlns="http://www.w3.org/2000/svg" viewBox="0 0 512 512"><title>gatsby</title><path d="M457.14,256h-128v36.57h87.77c-12.8,54.86-53,100.57-106,118.86L100.57,201.14c21.94-64,84.12-109.71,155.43-109.71,54.86,0,104.23,27.43,135.31,69.48l27.43-23.77C382.17,87.77,323.66,54.86,256,54.86c-95.09,0-175.54,67.65-195.66,157.25L301.71,453.49C389.49,431.54,457.14,351.09,457.14,256ZM54.86,257.83c0,51.2,20.11,100.57,58.51,139s89.6,58.51,139,58.51Z" fill="#fff"/><path d="M256,0C115.2,0,0,115.2,0,256S115.2,512,256,512,512,396.8,512,256,396.8,0,256,0ZM113.37,398.63c-38.4-38.4-58.51-89.6-58.51-139L254.17,457.14C203,455.31,151.77,437,113.37,398.63Zm186.52,53L60.34,212.11C80.46,122.51,160.91,54.86,256,54.86c67.66,0,126.17,32.91,162.74,82.28l-27.43,23.77c-31.08-42-80.45-69.48-135.31-69.48-71.31,0-131.66,45.71-155.43,109.71L310.86,411.43c53-18.29,93.25-64,106.05-118.86H329.14V256h128C457.14,351.09,389.49,431.54,299.89,451.66Z" fill="#639"/></svg>