<svg xmlns="http://www.w3.org/2000/svg" xmlns:xlink="http://www.w3.org/1999/xlink" viewBox="0 0 512 512"><defs><style>.a,.b,.c,.d,.e,.f,.g{fill-rule:evenodd;}.a{fill:url(#a);}.b{fill:url(#b);}.c{fill:url(#c);}.d{fill:url(#d);}.e{fill:url(#e);}.f{fill:url(#f);}.g{fill:#bcc0cf;}.h{fill:#a2a6b3;}.i{fill:url(#g);}.j{fill:url(#h);}</style><linearGradient id="a" x1="253.25" y1="-732" x2="253.25" y2="-307.32" gradientTransform="matrix(1, 0, 0, -1, -25.22, -220)" gradientUnits="userSpaceOnUse"><stop offset="0" stop-color="#1d2130"/><stop offset="1" stop-color="#3e445a"/></linearGradient><linearGradient id="b" x1="254.86" y1="-728.13" x2="254.86" y2="-303.44" gradientTransform="matrix(1, 0, 0, -1, -25.22, -220)" gradientUnits="userSpaceOnUse"><stop offset="0" stop-color="#262b3f"/><stop offset="1" stop-color="#656e91"/></linearGradient><linearGradient id="c" x1="280.42" y1="-678.79" x2="280.42" y2="-264.24" gradientTransform="matrix(1, 0, 0, -1, -25.22, -220)" gradientUnits="userSpaceOnUse"><stop offset="0" stop-color="#267550"/><stop offset="1" stop-color="#79b881"/></linearGradient><linearGradient id="d" x1="282.02" y1="-675.23" x2="282.02" y2="-260.92" gradientTransform="matrix(1, 0, 0, -1, -25.22, -220)" gradientUnits="userSpaceOnUse"><stop offset="0" stop-color="#279264"/><stop offset="1" stop-color="#a4f3aa"/></linearGradient><linearGradient id="e" x1="308.39" y1="-629.02" x2="308.39" y2="-223.88" gradientTransform="matrix(1, 0, 0, -1, -25.22, -220)" gradientUnits="userSpaceOnUse"><stop offset="0.59" stop-color="#cecfd0"/><stop offset="1" stop-color="#dfdfdf"/></linearGradient><linearGradient id="f" x1="309.99" y1="-625.45" x2="309.99" y2="-220.52" gradientTransform="matrix(1, 0, 0, -1, -25.22, -220)" gradientUnits="userSpaceOnUse"><stop offset="0" stop-color="#eaeef0"/><stop offset="0.41" stop-color="#fff"/></linearGradient><linearGradient id="g" x1="231.22" y1="-159.75" x2="402.18" y2="-718.92" gradientTransform="matrix(1, 0, 0, -1, -25.22, -220)" gradientUnits="userSpaceOnUse"><stop offset="0.22" stop-color="#73cb8d"/><stop offset="0.4" stop-color="#2f9869"/></linearGradient><linearGradient id="h" x1="209.32" y1="-109.44" x2="476.97" y2="-886.76" gradientTransform="matrix(1, 0, 0, -1, -25.22, -220)" gradientUnits="userSpaceOnUse"><stop offset="0.25" stop-color="#586080"/><stop offset="0.35" stop-color="#2c3247"/></linearGradient></defs><path class="a" d="M36.71,126.56,303.6,86.61C310,85,318,89.8,319.6,96.19L429.84,428.6a12.79,12.79,0,0,1-9.58,17.58L123,511.7c-9.59,1.6-17.58-3.2-19.18-12.79l-78.3-358C23.93,134.55,28.72,128.16,36.71,126.56Z"/><path class="b" d="M38.31,123.36,305.19,83.41c6.4-1.6,14.39,3.2,16,9.59L431.44,425.4a12.79,12.79,0,0,1-6.78,16.77,13,13,0,0,1-2.81.83L123,506.9c-9.59,1.6-17.58-3.19-19.18-12.78L27.13,137.75C25.53,131.35,30.32,125,38.31,123.36Z"/><path class="c" d="M63.88,83.41,327.57,45.06c8-1.6,14.38,3.19,17.58,9.58L457,380.65a12.79,12.79,0,0,1-6.8,16.76,13,13,0,0,1-2.79.82L158.17,459c-8,1.6-17.58-3.2-19.18-12.78L52.7,97.79C51.1,91.4,55.89,85,63.88,83.41Z"/><path class="d" d="M65.48,80.21,329.16,41.86c6.4-1.6,14.39,3.2,17.58,9.59l111.87,326a12.79,12.79,0,0,1-6.85,16.74A12.51,12.51,0,0,1,449,395L159.77,454.17c-8,1.59-17.58-3.2-19.18-12.79L54.29,94.6C52.7,86.61,57.49,80.21,65.48,80.21Z"/><path class="e" d="M92.65,41.86,354.73,5.1c6.4-1.59,14.39,3.2,16,9.59L484.18,334.31c3.19,8-1.6,14.38-9.59,16L190.13,407.82c-8,1.6-17.58-3.19-19.18-11.19L81.46,56.24C79.86,48.25,84.66,41.86,92.65,41.86Z"/><path class="f" d="M94.25,38.66,356.33.31c6.39-1.6,14.38,3.2,16,9.59L485.78,329.52c3.19,8-1.6,14.38-9.59,16L191.73,404.63c-8,1.59-17.58-3.2-19.18-11.19l-89.49-342C81.46,45.06,86.26,38.66,94.25,38.66Z"/><path class="g" d="M234.88,248l115.06-20.77c1.6,0,3.2,0,3.2,1.6l19.17,62.32c0,1.6,0,3.2-3.19,4.8L252.46,318.33c-1.6,0-3.2,0-3.2-1.6l-17.58-62.32C231.68,251.21,233.28,249.61,234.88,248Zm-9.59,6.4,17.58,63.92c1.6,4.79,6.39,8,11.18,6.39l118.26-22.37c6.4-1.6,9.59-6.39,8-12.79l-19.17-60.72c-1.6-4.8-6.4-8-11.19-6.4L233.28,243.22c-6.39,0-9.59,4.78-8,11.19Zm22.37,4.79,12.79,43.15,12.78-3.2-6.39-24,17.58,14.38,8-19.17L298.8,296l12.79-3.2L298.8,251.21l-11.19,1.6-8,17.58L262,257.6Zm95.89,6.39-6.4-22.37-14.38,1.6,6.39,22.37-12.78,1.6,25.57,16,12.78-24Z"/><path class="h" d="M373.91,294.36l-1.6,3.19v1.6l-1.6,1.6L254.05,323.12c-1.59,0-3.19,0-3.19-1.6L231.68,256v-1.59h0l1.6-3.2v3.2l17.58,60.72c0,1.6,1.6,3.2,3.19,1.6l116.66-22.37h0C372.31,296,372.31,294.36,373.91,294.36Zm4.8,3.19v-4.79L359.53,232c-1.6-4.79-6.39-8-11.19-6.39l-116.66,20.8c-3.19,0-4.79,1.6-6.39,3.2,0-3.2,3.2-6.39,8-8L350,220.84c4.79-1.6,9.59,1.59,11.19,6.39L380.3,288C380.3,292.76,380.3,296,378.71,297.55ZM356.33,262.4l-1.6,3.19L342,267.19l-6.39-20.78L324.37,248l-1.6-3.19,14.38-1.6,6.4,22.37Zm-28.76,6.39h3.19l-1.6,3.19h-8L318,268.79Zm-47.95,1.6L278,273.58,260.45,260.8l-11.19,1.6-1.6-3.2,12.79-3.2Zm33.56,20.77H310l-11.2-38.35L286,256l1.59-3.19,12.79-1.6Zm-44.74-9.59-1.6-6.39-1.6,3.2,6.39,22.37h3.2Z"/><path class="i" d="M199.72,86.61,166.16,91.4,287.61,203.27,330.76,65.83l-32,6.39-27.17,79.91Z"/><path class="j" d="M199.72,86.61l32-4.8,27.17,24L270,75.42l28.76-4.79-27.17,81.5Z"/></svg>